<?xml version="1.0" encoding="UTF-8" standalone="no"?>
<!-- Created with Inkscape (http://www.inkscape.org/) -->

<svg
   width="315.02588"
   height="299.25259"
   viewBox="0 0 157.51294 149.6263"
   version="1.1"
   id="svg460"
   inkscape:version="1.2.1 (9c6d41e410, 2022-07-14)"
   sodipodi:docname="ca24.svg"
   xml:space="preserve"
   xmlns:inkscape="http://www.inkscape.org/namespaces/inkscape"
   xmlns:sodipodi="http://sodipodi.sourceforge.net/DTD/sodipodi-0.dtd"
   xmlns="http://www.w3.org/2000/svg"
   xmlns:svg="http://www.w3.org/2000/svg"><sodipodi:namedview
     id="namedview462"
     pagecolor="#ffffff"
     bordercolor="#999999"
     borderopacity="1"
     inkscape:showpageshadow="0"
     inkscape:pageopacity="0"
     inkscape:pagecheckerboard="0"
     inkscape:deskcolor="#d1d1d1"
     inkscape:document-units="mm"
     showgrid="false"
     inkscape:zoom="0.74564394"
     inkscape:cx="257.49555"
     inkscape:cy="88.514097"
     inkscape:window-width="2560"
     inkscape:window-height="1017"
     inkscape:window-x="1912"
     inkscape:window-y="-8"
     inkscape:window-maximized="1"
     inkscape:current-layer="layer1" /><defs
     id="defs457" /><g
     inkscape:label="Layer 1"
     inkscape:groupmode="layer"
     id="layer1"
     transform="translate(-29.930062,-90.66619)"><circle
       id="path255"
       style="fill:#000000;stroke:#000000;stroke-width:0.5"
       cx="-5.6318245"
       cy="178.62259"
       r="0.014919191" /><path
       style="fill:#000000;stroke-width:0.5"
       id="path329"
       d="m 44.881287,107.83754 c -1.77546,1.87794 -3.36891,3.91198 -4.841887,6.0324 -1.471379,2.15912 -2.586988,4.44137 -3.500118,6.88185 -1.05379,3.1298 -1.623099,6.38318 -2.096583,9.64182 -0.457591,3.54546 -0.850346,7.09936 -1.107448,10.66509 -0.26173,4.31065 -0.305885,8.63293 -0.04886,12.94381 0.249426,3.27798 0.588985,6.55985 1.318163,9.77087 0.159411,0.70198 0.350808,1.39632 0.526213,2.09448 1.029887,3.54593 2.372991,7.00868 4.032863,10.30873 1.204393,2.39449 2.133902,3.92722 3.473854,6.24832 3.457115,5.76273 7.465604,11.1659 11.497185,16.5334 2.796091,3.77867 5.888117,7.31396 9.14557,10.69747 3.423905,3.40264 6.928787,6.72564 10.493426,9.98038 2.56212,2.31081 5.227389,4.52725 8.103604,6.44078 2.15983,1.43692 2.78453,1.72085 5.11065,3.01524 4.84395,2.5917 9.9055,4.75569 15.066411,6.62794 4.26535,1.56572 8.78805,2.12553 13.26181,2.75338 1.32331,0.1856 1.5858,-1.68584 0.26249,-1.87145 v 0 c -4.34361,-0.60889 -8.73745,-1.14276 -12.88016,-2.65853 -5.067116,-1.83613 -10.035676,-3.96177 -14.792366,-6.50305 -2.24087,-1.2444 -2.86059,-1.52704 -4.940045,-2.90812 -2.81166,-1.86738 -5.414906,-4.0343 -7.918255,-6.29182 -3.535124,-3.227 -7.009848,-6.5229 -10.406365,-9.89561 -3.204964,-3.32709 -6.245538,-6.80491 -8.995774,-10.52156 -3.98609,-5.30673 -7.950932,-10.64761 -11.371684,-16.34348 -1.2986,-2.24804 -2.231682,-3.78847 -3.398775,-6.10436 -1.608248,-3.19129 -2.910454,-6.54017 -3.911864,-9.96905 -0.168755,-0.6688 -0.353034,-1.33388 -0.506264,-2.0064 -0.712044,-3.12517 -1.040395,-6.32001 -1.28431,-9.51066 -0.254962,-4.22787 -0.206428,-8.4673 0.04738,-12.69506 0.252855,-3.52036 0.642466,-7.02879 1.092715,-10.52922 0.453517,-3.12634 0.994457,-6.24795 1.997158,-9.25325 0.84418,-2.27376 1.913933,-4.45566 3.282114,-6.4648 1.427133,-2.06023 2.978488,-4.03107 4.701587,-5.85405 0.887766,-0.99874 -0.524661,-2.25423 -1.412427,-1.25549 z" /><path
       style="fill:#000000;stroke-width:0.5"
       id="path333"
       d="m 50.713731,110.90006 c 0.555472,0.23645 1.10357,0.49103 1.666418,0.70934 5.223915,2.02618 10.615668,3.62598 16.048276,4.98496 1.514805,0.37894 3.041624,0.70812 4.562436,1.06217 3.608699,0.63611 7.231687,1.53873 10.923677,1.52485 1.8225,-0.007 4.301755,-0.32186 6.09871,-0.69714 0.9758,-0.20379 1.93131,-0.49486 2.89697,-0.7423 4.901815,-1.3968 9.285052,-4.01677 13.572072,-6.69717 1.0983,-0.6502 2.09313,-1.45963 3.17693,-2.13175 0.27351,-0.16962 1.40988,-0.85014 1.8892,-0.84987 0.2415,1.4e-4 0.45728,0.15696 0.67905,0.25257 0.48054,0.20717 0.95108,0.43682 1.42662,0.65523 3.3778,1.56251 6.79946,3.03658 10.40616,3.99964 1.63898,0.43764 3.29959,0.80026 4.97089,1.09102 4.33616,0.75436 5.78863,0.70126 10.14067,0.9282 5.99761,0.0876 11.93096,-0.8178 17.72032,-2.33293 2.67395,-0.6998 4.02079,-1.18903 6.60505,-2.04463 0.94169,-0.34826 1.88963,-0.68007 2.82507,-1.04477 1.99138,-0.77635 3.00921,-1.2362 4.91177,-2.13715 1.47913,-0.70044 2.91538,-1.46285 4.42918,-2.08525 0.18353,-0.0193 0.37215,-0.10504 0.55059,-0.058 0.13456,0.0355 -0.21727,0.15056 -0.16491,0.46005 0.0832,0.492 0.24326,0.96787 0.36455,1.4519 0.8848,3.53106 0.34894,1.44506 1.46995,5.68211 2.30429,8.39186 4.21892,16.87989 5.88051,25.42006 0.17836,1.41425 0.41766,2.82215 0.53509,4.24275 0.51667,6.25045 -0.0723,12.59327 -1.0531,18.76733 -0.30276,1.90593 -0.68359,3.79865 -1.02539,5.69797 -1.67046,8.36595 -4.3432,16.49648 -8.2278,24.10162 -2.65112,5.19025 -3.68088,6.48136 -6.86917,11.36124 -3.83829,5.4367 -8.13188,10.54889 -13.07178,15.02369 -1.72009,1.55815 -3.51646,3.03358 -5.35478,4.45031 -4.41818,3.40494 -6.13326,4.30673 -10.78347,7.18071 -3.16306,1.71674 -5.71746,3.20103 -8.98429,4.63161 -1.1444,0.50115 -2.30005,0.99197 -3.49896,1.34325 -1.92874,0.56512 -4.27724,0.81863 -6.29,0.83444 -0.92642,0.007 -1.85037,-0.0966 -2.77555,-0.14496 -0.79238,-0.0988 -1.58475,-0.19753 -2.37713,-0.29629 -1.32618,-0.16388 -1.55794,1.71161 -0.23176,1.8755 v 0 c 0.83821,0.10273 1.67642,0.20547 2.51463,0.3082 0.99812,0.0478 1.99518,0.15598 2.99436,0.1432 2.25068,-0.0288 4.68509,-0.31801 6.84428,-0.95646 1.24826,-0.3691 2.45118,-0.88297 3.64326,-1.4058 3.33651,-1.46334 5.92341,-2.96919 9.15519,-4.72548 4.74011,-2.93373 6.49492,-3.85809 10.99804,-7.33517 1.87984,-1.45151 3.7164,-2.9634 5.47513,-4.55951 5.03487,-4.56935 9.41304,-9.78586 13.32522,-15.33417 3.24906,-4.9804 4.29948,-6.29932 7.00034,-11.5975 3.95208,-7.75266 6.67374,-16.03888 8.37418,-24.56401 0.34601,-1.92603 0.73188,-3.84533 1.03802,-5.7781 1.23659,-7.80677 1.78412,-15.78734 0.50041,-23.62533 -1.67008,-8.58118 -3.5933,-17.11021 -5.90859,-25.54249 -2.80576,-10.60274 0.60993,2.36503 -1.46838,-5.67613 -0.21331,-0.82532 -0.43039,-2.26243 -1.19579,-2.90338 -0.75692,-0.63385 -1.30039,-0.36609 -2.1045,-0.21977 -0.3819,0.15848 -0.76966,0.30352 -1.14571,0.47543 -1.13194,0.51747 -2.22947,1.10742 -3.35406,1.64068 -1.85472,0.87947 -2.83129,1.32176 -4.77539,2.08054 -0.91507,0.35716 -1.84239,0.68214 -2.76358,1.02321 -2.51371,0.83337 -3.84837,1.31794 -6.44644,1.99966 -5.61504,1.47335 -11.3688,2.36268 -17.18725,2.28453 -4.22392,-0.21547 -5.62759,-0.16239 -9.83447,-0.88713 -1.61246,-0.27778 -3.21488,-0.62425 -4.79633,-1.044 -3.54488,-0.94091 -6.90384,-2.39501 -10.2222,-3.92977 -1.29273,-0.55102 -2.03818,-1.07467 -3.46988,-0.96978 -0.39,0.0286 -0.7516,0.22519 -1.10706,0.38819 -1.57514,0.72225 -2.87597,1.90806 -4.35894,2.78245 -4.12226,2.5785 -8.331357,5.11352 -13.041502,6.46941 -0.909905,0.23573 -1.81012,0.51264 -2.72971,0.70719 -1.61544,0.34175 -4.035625,0.66519 -5.677305,0.67613 -3.587075,0.0239 -7.106245,-0.86906 -10.612615,-1.47931 -1.500985,-0.3491 -3.007918,-0.67355 -4.502955,-1.0473 -5.874769,-1.46867 -11.711151,-3.20487 -17.306536,-5.53246 -1.176542,-0.63352 -2.072479,1.03036 -0.895936,1.66388 z" /><path
       style="fill:#000000;stroke-width:0.5"
       id="path353"
       d="m 64.091189,121.51796 c 0.402161,2.59889 0.785225,5.20079 1.205002,7.79691 0.213328,1.31913 2.078855,1.01744 1.865526,-0.30169 v 0 c -0.417832,-2.58328 -0.798658,-5.17238 -1.199177,-7.75837 -0.186081,-1.32325 -2.057432,-1.06009 -1.871351,0.26315 z" /><path
       style="fill:#000000;stroke-width:0.5"
       id="path355"
       d="m 69.229381,122.88713 c 0.02491,2.51446 0.114195,5.02769 0.207247,7.54037 0.05328,1.35836 0.01626,0.73241 0.100354,1.87843 0.09876,1.33261 1.983359,1.19294 1.884595,-0.13967 v 0 c -0.08083,-1.079 -0.04421,-0.47636 -0.09648,-1.8087 -0.0922,-2.48938 -0.180713,-4.97929 -0.205952,-7.47043 0,-1.33626 -1.889764,-1.33626 -1.889764,0 z" /><path
       style="fill:#000000;stroke-width:0.5"
       id="path357"
       d="m 69.649714,121.84533 c 0.418813,1.15813 0.930215,2.28035 1.438423,3.40117 0.233494,0.51495 1.119936,2.44452 1.341931,2.92817 0.6589,1.44115 1.320755,2.88096 1.971256,4.32594 0.111215,0.24704 0.708106,1.59979 0.878533,1.92647 0.10758,0.20621 0.238742,0.39923 0.358113,0.59885 0.292994,0.16128 0.571001,0.61424 0.878982,0.48384 1.333063,-0.56443 1.321367,-1.48917 1.389128,-2.58832 0.03108,-0.50416 0.0404,-1.00972 0.03903,-1.51483 -0.0032,-1.18171 -0.07402,-2.18875 -0.139124,-3.3658 -0.105556,-1.58711 -0.259103,-3.17011 -0.428702,-4.75142 -0.142539,-1.32864 -2.02152,-1.12706 -1.878981,0.20158 v 0 c 0.166237,1.5491 0.316841,3.09984 0.420825,4.65459 0.08524,1.52961 0.182147,3.0566 0.106426,4.58919 -0.0155,0.31362 -0.2963,0.70701 -0.08388,0.93825 0.306992,0.3342 1.183313,-0.4513 1.310203,0.36981 -0.08667,-0.13863 -0.184475,-0.27091 -0.260024,-0.41591 -0.170519,-0.32727 -0.763668,-1.67177 -0.868829,-1.90537 -0.651908,-1.44806 -1.31516,-2.89097 -1.975483,-4.33521 -0.92126,-2.00707 -1.876843,-4.0022 -2.680779,-6.06016 -0.3671,-1.28485 -2.184153,-0.76569 -1.817053,0.51916 z" /><path
       style="fill:#000000;stroke-width:0.5"
       id="path359"
       d="m 80.160018,123.69498 c 1.9848,-0.16836 3.97656,-0.2239 5.964625,-0.33973 0.212345,-0.0147 0.42469,-0.0295 0.63703,-0.0442 1.333045,-0.0927 1.201925,-1.97793 -0.13112,-1.88521 v 0 c -0.205305,0.0143 -0.410615,0.0286 -0.615925,0.0429 -2.015355,0.11765 -4.034575,0.1729 -6.04645,0.34629 -1.329361,0.13565 -1.137524,2.01565 0.19184,1.88 z" /><path
       style="fill:#000000;stroke-width:0.5"
       id="path361"
       d="m 82.549598,123.52947 c -0.01085,0.14465 -0.0241,0.28913 -0.0326,0.43394 -0.05034,0.85839 -0.01375,0.57897 -0.079,1.56647 -0.04975,0.75269 -0.16911,2.14438 -0.221325,2.86095 -0.03805,0.5224 -0.06999,1.04524 -0.104975,1.56786 -0.0345,0.69772 -0.10188,1.83105 -0.0986,2.55798 0.0015,0.29948 0.002,0.60036 0.0384,0.89763 0.05171,0.42311 0.192595,1.04508 0.560955,1.33349 0.248425,0.19451 0.58085,0.24661 0.871275,0.36991 0.235065,-0.0363 0.47656,-0.0434 0.705205,-0.10893 0.256885,-0.0736 0.656225,-0.32253 0.863635,-0.5007 0.328875,-0.28251 0.37237,-0.38944 0.612875,-0.73443 0.735625,-1.11555 -0.842005,-2.15588 -1.57763,-1.04033 v 0 c -0.04445,0.0795 -0.09981,0.19164 -0.164565,0.25956 -0.04135,0.0433 -0.09134,0.0775 -0.13743,0.11579 -0.0314,0.0261 -0.08924,0.0368 -0.09501,0.0772 -0.0045,0.0324 0.05,0.0422 0.07498,0.0633 0.09774,0.0942 0.21744,0.17001 0.2932,0.28265 0.024,0.0357 0.005,0.16496 -0.01705,0.1279 -0.159305,-0.27046 -0.13859,-0.8879 -0.13966,-1.09572 -0.0035,-0.70433 0.06181,-1.80564 0.09497,-2.47909 0.03445,-0.51515 0.06582,-1.03053 0.103345,-1.54547 0.06311,-0.86601 0.16655,-2.03106 0.22459,-2.91073 0.05835,-0.88434 0.034,-0.76933 0.07649,-1.52654 0.0068,-0.12144 0.0174,-0.24263 0.02615,-0.36395 0.147565,-1.32809 -1.73064,-1.53678 -1.878205,-0.20869 z" /><path
       style="fill:#000000;stroke-width:0.5"
       id="path363"
       d="m 89.772683,121.54716 c -0.67722,1.50486 -1.25937,3.05081 -1.866385,4.58486 -0.417945,1.05814 -0.82149,2.12201 -1.20378,3.19357 -0.12996,0.36428 -0.377615,1.0087 -0.422685,1.41355 -0.0258,0.23165 0.0059,0.46612 0.0089,0.69918 0.13963,0.26513 0.21404,0.5767 0.418895,0.79539 0.45196,0.48249 1.10605,0.56956 1.708425,0.67623 0.35331,0.0626 0.711,0.0973 1.06623,0.14781 1.43483,0.20417 1.165535,0.16769 2.6241,0.40131 0.811175,0.12902 1.3965,0.23022 2.1973,0.32958 0.25417,0.0315 0.50841,0.0666 0.764175,0.0801 0.205265,0.0108 0.417465,0.0438 0.616615,-0.007 0.270335,-0.0691 0.508335,-0.23028 0.762505,-0.34542 1.084975,-0.78002 -0.01815,-2.31441 -1.103115,-1.53439 v 0 c 0.09838,-0.003 0.39315,-0.0183 0.29513,-0.009 -0.435875,0.0397 -0.57668,0.006 -1.075555,-0.0555 -0.783985,-0.0969 -1.361955,-0.19709 -2.158315,-0.32376 -1.40756,-0.22524 -1.282925,-0.21203 -2.66558,-0.40747 -0.322725,-0.0456 -0.645925,-0.0878 -0.968875,-0.13184 -0.1703,-0.0232 -0.339115,-0.0759 -0.51088,-0.0698 -0.107985,0.004 -0.0425,0.36091 -0.08664,0.31236 -0.01775,-0.0422 -0.0572,-0.0811 -0.05328,-0.12676 0.0295,-0.34308 0.26139,-0.9256 0.359125,-1.19967 0.37603,-1.05449 0.77316,-2.10133 1.18444,-3.14255 0.58692,-1.48327 1.151645,-2.97696 1.79944,-4.43504 0.597595,-1.1952 -1.09266,-2.04032 -1.690255,-0.84513 z" /><path
       style="fill:#000000;stroke-width:0.5"
       id="path365"
       d="m 90.537413,123.33083 c 0.129115,-0.0374 0.566345,-0.16475 0.62287,-0.17698 0.492435,-0.10658 1.19851,-0.19813 1.674745,-0.25683 0.86584,-0.10674 1.12649,-0.12435 1.974115,-0.20213 0.694685,-0.009 0.41787,-0.0544 0.840325,0.0425 1.319205,0.21282 1.620175,-1.65283 0.300965,-1.86564 v 0 c -0.806235,-0.10824 -0.368695,-0.0785 -1.314335,-0.0587 -0.859255,0.0792 -1.180385,0.10219 -2.056435,0.21152 -0.683385,0.0853 -1.265335,0.16282 -1.932335,0.31044 -0.22818,0.0505 -0.605635,0.177 -0.83675,0.2514 -1.233475,0.51395 -0.50664,2.25834 0.726835,1.7444 z" /><path
       style="fill:#000000;stroke-width:0.5"
       id="path367"
       d="m 89.400403,128.2836 c 2.13227,-0.19229 4.25746,-0.45863 6.3806,-0.73255 0.9923,-0.12998 0.52769,-0.0656 1.39418,-0.19079 1.322495,-0.19132 1.05193,-2.06161 -0.27057,-1.87029 v 0 c -0.840155,0.12166 -0.385145,0.0584 -1.36542,0.18685 -2.07588,0.26785 -4.15373,0.52719 -6.238115,0.71963 -1.334415,0.0702 -1.235095,1.95738 0.09932,1.88715 z" /><path
       style="fill:#000000;stroke-width:0.5"
       id="path369"
       d="m 100.59274,122.54314 c -0.0251,0.31562 -0.0591,0.63067 -0.0754,0.94688 -0.0577,1.1185 -0.0506,1.87621 -0.0379,3.01882 0.0154,1.39065 0.0583,2.78041 0.11305,4.16995 0.0527,1.33523 1.94101,1.26068 1.8883,-0.0745 v 0 c -0.0541,-1.36728 -0.0957,-2.73474 -0.1116,-4.1031 -0.0126,-1.08189 -0.0203,-1.80626 0.0321,-2.86299 0.0143,-0.28857 0.0447,-0.57612 0.067,-0.86418 0.16323,-1.32626 -1.71238,-1.5571 -1.87561,-0.23084 z" /><path
       style="fill:#000000;stroke-width:0.5"
       id="path371"
       d="m 100.09006,124.02791 c 0.2412,-0.42179 0.54801,-0.8064 0.93691,-1.10416 0.1581,-0.12104 0.33089,-0.22159 0.49633,-0.33238 0.93749,-0.44026 1.92859,-0.7644 2.9331,-1.01306 0.47149,-0.11671 1.30538,-0.31223 1.82924,-0.26408 0.15582,0.0143 0.29318,0.10949 0.43977,0.16423 0.069,0.16397 0.19868,0.34955 0.0587,0.538 -0.0853,0.11478 -0.24271,0.15307 -0.35152,0.24583 -0.22724,0.1937 -0.41702,0.4306 -0.65444,0.61168 -0.77501,0.5911 -0.99924,0.62173 -1.87788,0.99219 -0.66371,0.066 -0.72123,0.14208 -1.3194,-0.0262 -0.13845,-0.0389 -0.26971,-0.10178 -0.39755,-0.16767 -0.0793,-0.0409 -0.15094,-0.0958 -0.22099,-0.15111 -0.005,-0.004 0.007,-0.0264 0.003,-0.0204 -0.32268,0.53835 -0.64112,1.07922 -0.96169,1.61884 0.66789,0.48335 1.28038,1.03623 1.86522,1.61624 0.29182,0.28941 0.58283,0.58046 0.85442,0.88892 0.5808,0.65965 0.83335,1.0594 1.32884,1.76663 0.43921,0.66691 0.8428,1.35619 1.27216,2.02929 0.0985,0.15438 0.19165,0.31265 0.30088,0.45963 0.0995,0.13393 0.2161,0.25429 0.32415,0.38144 0.88502,1.00117 2.30089,-0.25044 1.41587,-1.25161 v 0 c -0.26514,-0.2754 -0.14323,-0.12836 -0.43812,-0.59061 -0.44792,-0.70214 -0.86794,-1.42182 -1.32932,-2.11546 -0.58753,-0.8321 -0.82082,-1.2077 -1.51327,-1.99017 -0.29321,-0.33134 -0.60658,-0.64456 -0.92157,-0.95526 -0.6608,-0.65179 -1.35406,-1.2721 -2.11073,-1.81124 -0.44865,0.45419 -0.99435,0.82969 -1.34594,1.36257 -0.0688,0.1043 0.18601,0.16855 0.29099,0.23632 0.71095,0.45901 1.56141,0.70961 2.41401,0.66563 0.42138,-0.0217 0.83159,-0.14341 1.24739,-0.21512 1.04286,-0.47086 1.61218,-0.63653 2.49425,-1.42684 0.80749,-0.72349 1.46229,-1.53818 1.43705,-2.70849 -0.022,-1.01654 -0.72367,-1.30797 -1.3935,-1.81299 -0.34921,-0.073 -0.69157,-0.19663 -1.04763,-0.21911 -0.62901,-0.0397 -1.61973,0.18324 -2.20878,0.33091 -1.20452,0.30197 -2.39259,0.69619 -3.49322,1.27749 -0.23448,0.16616 -0.479712,0.31811 -0.703437,0.49849 -0.53798,0.43374 -1.044835,1.03663 -1.342165,1.66497 -0.05076,0.10727 -0.08995,0.21963 -0.13492,0.32944 -0.351595,1.28918 1.47158,1.78641 1.823172,0.49723 z" /><path
       style="fill:#000000;stroke-width:0.5"
       id="path373"
       d="m 114.04387,119.20594 c -0.18756,-0.0271 -0.37333,-0.0889 -0.56268,-0.0812 -0.97835,0.0397 -1.82922,0.55698 -2.56781,1.15626 -0.25606,0.20776 -0.51576,0.41855 -0.72352,0.67461 -0.22228,0.27397 -0.37001,0.60081 -0.55502,0.90121 -0.0113,0.43202 -0.11773,0.87207 -0.0339,1.29604 0.16909,0.8559 0.78407,1.41093 1.43692,1.90982 0.30818,0.2355 0.65514,0.41607 0.99325,0.60611 0.21748,0.12224 1.32584,0.66871 1.61182,0.81049 0.11768,0.1004 0.25876,0.17857 0.35305,0.30121 0.1193,0.15519 0.1187,0.61388 0.12389,0.74443 0.0239,0.60237 0.0359,0.90332 -0.0697,1.51085 -0.043,0.24724 -0.12025,0.48728 -0.18038,0.73091 -0.0913,0.1171 -0.14439,0.27848 -0.27376,0.35129 -0.0635,0.0358 -0.13136,-0.0663 -0.20227,-0.0834 -0.11303,-0.0272 -0.23208,-0.0223 -0.34541,-0.0483 -0.26439,-0.0605 -0.53793,-0.14303 -0.7513,-0.32186 -0.0537,-0.045 -0.0754,-0.11815 -0.11309,-0.17723 -0.95295,-0.93675 -2.27771,0.41092 -1.32477,1.34767 v 0 c 0.19977,0.17436 0.37581,0.38042 0.59932,0.52309 0.70726,0.45145 1.91745,0.69346 2.71963,0.39588 0.37864,-0.14047 0.74297,-0.3561 1.02631,-0.64387 0.24371,-0.24752 0.33673,-0.60766 0.5051,-0.9115 0.0739,-0.32736 0.17034,-0.65043 0.22172,-0.98207 0.0932,-0.60139 0.13547,-1.44099 0.0442,-2.04902 -0.055,-0.36614 -0.11786,-0.73898 -0.26541,-1.07855 -0.32108,-0.73897 -0.63069,-0.85721 -1.22784,-1.30275 -0.19532,-0.0968 -1.32344,-0.65442 -1.48408,-0.74092 -0.24217,-0.13039 -0.99678,-0.5551 -1.25285,-0.77746 -0.10565,-0.0918 -0.17753,-0.21635 -0.2663,-0.32452 -0.0655,-0.0536 -0.13105,-0.10721 -0.19657,-0.16081 0.0688,-0.15146 0.10542,-0.32227 0.20655,-0.45438 0.15251,-0.19922 0.35168,-0.35873 0.5415,-0.52279 0.39636,-0.34259 0.60317,-0.4812 1.05497,-0.69823 0.084,-0.0404 0.17848,-0.0562 0.26217,-0.0973 0.0131,-0.006 0.0119,-0.0267 0.0179,-0.04 1.2472,0.47969 1.92558,-1.28412 0.67838,-1.76381 z" /><path
       style="fill:#000000;stroke-width:0.5"
       id="path375"
       d="m 116.24963,122.001 c 2.69921,-0.0595 5.39899,-0.0965 8.0956,-0.23599 0.76879,-0.0672 0.41983,0.005 1.05322,-0.18408 1.24282,-0.49092 0.54855,-2.24853 -0.69427,-1.75761 v 0 c 0.27616,0.0157 0.12339,0.002 -0.45679,0.0545 -2.6971,0.14015 -5.39745,0.17377 -8.09709,0.23607 -1.33442,0.0702 -1.23509,1.95738 0.0993,1.88715 z" /><path
       style="fill:#000000;stroke-width:0.5"
       id="path387"
       d="m 120.55195,121.66287 c -0.41859,2.36438 -0.65801,4.75613 -0.88084,7.1454 -0.11228,1.25604 -0.20232,2.51387 -0.30052,3.77104 -0.0623,0.79726 -0.036,0.37475 -0.0693,0.97927 -0.0723,1.33431 1.81469,1.43657 1.887,0.10226 v 0 c 0.0293,-0.55012 0.005,-0.15545 0.0665,-0.9367 0.0974,-1.24699 0.1867,-2.49463 0.29793,-3.74051 0.21711,-2.33135 0.44984,-4.6652 0.85663,-6.97249 0.24625,-1.31338 -1.61114,-1.66164 -1.8574,-0.34827 z" /><path
       style="fill:#000000;stroke-width:0.5"
       id="path389"
       d="m 127.73442,133.66776 c 0.0601,-0.28346 0.18697,-0.88738 0.24266,-1.11249 0.45608,-1.84359 1.05411,-3.65144 1.63766,-5.45739 0.60278,-1.88786 1.28198,-3.75112 1.87335,-5.64259 0.1049,-0.30301 0.16891,-0.61936 0.28451,-0.91884 0.011,-0.0284 10e-4,0.0822 -0.0289,0.0868 -0.51293,0.0778 -1.08117,-0.072 -1.54891,0.15247 -0.16202,0.0777 0.10349,0.34419 0.15523,0.51628 0.94144,3.1975 1.9786,6.36527 3.00978,9.5346 0.45055,1.39767 0.33589,0.78667 0.46426,1.80629 0.1951,1.32195 2.06461,1.04604 1.86952,-0.27591 v 0 c -0.21431,-1.32308 -0.0528,-0.61386 -0.53674,-2.11507 -1.03016,-3.16617 -2.06605,-6.33083 -3.00671,-9.52509 -0.0844,-0.25404 -0.0166,-0.637 -0.25324,-0.76211 -0.52975,-0.28005 -1.17198,-0.29489 -1.77105,-0.30805 -0.0998,-0.002 -0.0974,0.17461 -0.13715,0.26614 -0.13629,0.31348 -0.1831,0.66095 -0.30452,0.97933 -0.58788,1.88601 -1.26889,3.74223 -1.8677,5.62481 -0.42583,1.3183 -0.56928,1.73925 -0.96705,3.06249 -0.37987,1.26371 -0.7485,2.53372 -0.98746,3.83301 -0.18055,1.32401 1.69189,1.57935 1.87244,0.25533 z" /><path
       style="fill:#000000;stroke-width:0.5"
       id="path391"
       d="m 128.63727,129.48174 c 0.0862,-0.12523 0.15452,-0.26487 0.25859,-0.37569 0.19347,-0.20602 0.4121,-0.38732 0.62857,-0.56902 0.69675,-0.58483 1.09178,-0.87954 1.88046,-1.34403 0.31615,-0.1862 0.64768,-0.34496 0.97152,-0.51743 1.17752,-0.6317 0.28416,-2.29697 -0.89336,-1.66527 v 0 c -0.36926,0.19935 -0.74762,0.38269 -1.10778,0.59805 -0.77273,0.46207 -1.49208,0.96582 -2.16253,1.56828 -0.32072,0.2882 -0.63766,0.58461 -0.91248,0.91686 -0.17277,0.20888 -0.28083,0.46374 -0.42124,0.6956 -0.48978,1.24328 1.26848,1.93592 1.75825,0.69265 z" /><path
       style="fill:#000000;stroke-width:0.5"
       id="path393"
       d="m 137.79496,122.82561 c 2.24851,-0.25297 4.51385,-0.32865 6.77444,-0.38947 1.21831,-0.0213 0.65683,-0.0139 1.6844,-0.0244 1.33619,-0.0137 1.3168,-1.90338 -0.0194,-1.88967 v 0 c -1.04725,0.0108 -0.47526,0.003 -1.71596,0.025 -2.31734,0.0627 -4.63942,0.14131 -6.94429,0.40173 -1.32711,0.15613 -1.10631,2.03295 0.2208,1.87682 z" /><path
       style="fill:#000000;stroke-width:0.5"
       id="path397"
       d="m 141.11746,123.86076 c -0.0821,1.69536 -0.158,3.39062 -0.20886,5.08724 -0.0247,0.89533 -0.0431,1.79082 -0.0612,2.6863 -0.027,1.33599 1.86238,1.37417 1.88938,0.0382 v 0 c 0.018,-0.88936 0.0363,-1.77871 0.0607,-2.66791 0.0505,-1.68812 0.12638,-3.37486 0.20793,-5.06172 0.0581,-1.335 -1.82993,-1.41709 -1.88798,-0.0821 z" /><path
       style="fill:#000000;stroke-width:0.5"
       id="path399"
       d="m 148.16238,123.44356 c -0.29409,2.02071 -0.63517,4.03394 -0.97999,6.04647 -0.0328,0.19434 -0.37987,2.23135 -0.41913,2.52735 -0.121,0.91231 -0.26529,1.93349 0.6687,2.53511 0.31171,0.20079 0.71914,0.18097 1.07871,0.27146 0.3574,-0.0212 0.7159,-0.0284 1.07221,-0.0635 0.77904,-0.0767 1.88561,-0.26135 2.64597,-0.39675 0.50224,-0.0894 1.88254,-0.3537 2.42147,-0.48253 0.30196,-0.0722 0.59872,-0.16456 0.89808,-0.24684 0.91406,-0.33237 0.48353,-0.0973 1.28208,-0.7225 0.96187,-0.92758 -0.34992,-2.28787 -1.3118,-1.36029 v 0 c 0.15417,0.21723 0.0719,0.0564 -0.47477,0.26161 -0.2609,0.0729 -0.51925,0.15565 -0.78269,0.21875 -0.35818,0.0858 -0.72004,0.15559 -1.08123,0.22769 -1.47357,0.29414 -2.95725,0.55769 -4.45553,0.68673 -0.0348,0.0456 -0.0932,0.0805 -0.1042,0.13677 -0.0208,0.10655 0.11535,0.28635 0.014,0.32538 -0.0967,0.0373 -0.0759,-0.19772 -0.0764,-0.30135 -0.001,-0.26343 0.0361,-0.52599 0.0708,-0.78714 0.0393,-0.2961 0.38415,-2.32 0.41637,-2.51082 0.34454,-2.01097 0.68611,-4.02255 0.97919,-6.0418 0.22896,-1.31651 -1.63286,-1.6403 -1.86181,-0.3238 z" /><path
       style="fill:#000000;stroke-width:0.5"
       id="path401"
       d="m 149.32977,123.98823 c 0.10515,-0.0339 0.20947,-0.0704 0.31545,-0.10157 0.96691,-0.28425 1.95054,-0.51387 2.92705,-0.76153 2.66945,-0.67702 0.14063,-0.0411 2.62701,-0.66464 0.71755,-0.14908 1.42688,-0.3888 2.1629,-0.44131 0.062,-0.004 0.1242,0.006 0.1863,0.009 1.33625,0.006 1.34514,-1.88345 0.009,-1.88974 v 0 c -0.14542,0.002 -0.2913,-0.006 -0.43624,0.006 -0.80939,0.0665 -1.59278,0.30872 -2.38156,0.48263 -2.49884,0.62671 0.0371,-0.011 -2.62942,0.66525 -1.01744,0.25805 -2.04293,0.49626 -3.04918,0.79674 -0.13267,0.0396 -0.26316,0.0862 -0.39474,0.12931 -1.25118,0.46919 -0.58764,2.23863 0.66354,1.76944 z" /><path
       style="fill:#000000;stroke-width:0.5"
       id="path403"
       d="m 151.57027,129.00456 c 0.73396,-0.1916 1.47859,-0.34032 2.22031,-0.49794 1.30706,-0.27786 0.91411,-2.12632 -0.39295,-1.84846 v 0 c -0.84645,0.18 -1.7001,0.34027 -2.5292,0.5918 -1.2407,0.49628 -0.53885,2.25088 0.70184,1.7546 z" /><path
       style="fill:#000000;stroke-width:0.5"
       id="path405"
       d="m 41.156449,141.97962 c 4.860954,-0.60374 9.771232,-0.64826 14.66196,-0.76293 5.869011,-0.13207 11.739842,-0.10206 17.608883,-0.22456 5.500679,-0.1238 11.002286,-0.20085 16.503701,-0.28325 6.162555,-0.10851 12.325797,-0.0804 18.488747,-0.0374 3.91197,0.0699 7.82298,0.008 11.733,-0.11499 5.04995,-0.21746 10.10213,-0.35576 15.15599,-0.43449 4.77444,-0.0871 9.54927,-0.0194 14.32359,0.0343 3.45512,0.0445 6.91046,0.0597 10.36582,0.0671 2.71274,-0.0194 5.42485,-0.0834 8.13713,-0.13309 1.71799,-0.0502 3.43582,0.0123 5.15275,0.0688 1.33555,0.0439 1.39764,-1.84484 0.0621,-1.88874 v 0 c -1.74916,-0.0575 -3.49925,-0.12025 -5.24948,-0.0695 -2.69939,0.0495 -5.39863,0.11309 -8.09847,0.13277 -3.44963,-0.007 -6.89923,-0.0226 -10.34862,-0.067 -4.79122,-0.0538 -9.58293,-0.1216 -14.37427,-0.0342 -5.06388,0.0789 -10.1261,0.21727 -15.18607,0.4352 -3.88579,0.12252 -7.77256,0.18373 -11.66029,0.11409 -6.17678,-0.0431 -12.353852,-0.0711 -18.530232,0.0376 -5.505135,0.0825 -11.010463,0.15958 -16.514863,0.28346 -5.870651,0.12273 -11.743116,0.092 -17.613734,0.22467 -4.971981,0.11668 -9.964032,0.16317 -14.904994,0.78438 -1.320727,0.20319 -1.033374,2.07098 0.287352,1.86779 z" /><path
       style="fill:#000000;stroke-width:0.5"
       id="path407"
       d="m 82.409683,145.95261 c -0.70838,-0.72435 -1.623465,-1.18618 -2.604432,-1.42547 -0.324331,-0.0791 -0.657556,-0.11584 -0.986334,-0.17376 -0.390293,0.008 -0.783588,-0.0238 -1.170878,0.0252 -1.286629,0.16293 -2.514058,0.71247 -3.505957,1.54479 -0.344178,0.2888 -0.66982,0.60603 -0.9447,0.96143 -0.286163,0.36999 -0.484755,0.80008 -0.727133,1.20012 -0.298913,0.99991 -0.587193,1.64103 -0.542773,2.69711 0.01936,0.46027 0.07906,0.92947 0.240429,1.36097 0.311786,0.83373 1.021631,1.73806 1.742973,2.26192 0.405733,0.29466 0.883931,0.47374 1.325897,0.71061 0.475563,0.12184 0.941822,0.28864 1.426689,0.36551 1.263709,0.20034 2.500106,0.0455 3.678894,-0.43818 0.671945,-0.27573 0.907885,-0.47855 1.47847,-0.87189 0.155675,-0.13474 0.311355,-0.26948 0.46703,-0.40422 1.002365,-0.88367 -0.24733,-2.30122 -1.249695,-1.41755 v 0 c -0.10166,0.0921 -0.203315,0.18425 -0.304975,0.27637 -0.14466,0.10488 -0.28258,0.21974 -0.43398,0.31462 -0.400862,0.25124 -0.835273,0.46364 -1.295905,0.58205 -0.643948,0.16554 -1.239313,0.1999 -1.902481,0.12034 -0.343424,-0.0412 -0.676709,-0.14358 -1.015063,-0.21537 -0.293293,-0.13286 -0.609123,-0.22433 -0.87988,-0.39858 -0.340382,-0.21906 -1.000376,-0.87467 -1.187058,-1.26684 -0.417609,-0.87728 -0.142026,-1.8508 0.086,-2.72851 0.152414,-0.28042 0.270692,-0.58229 0.457243,-0.84125 0.192798,-0.26763 0.426339,-0.50626 0.67202,-0.72635 0.694947,-0.62255 1.565514,-1.04354 2.486249,-1.19872 0.259081,-0.0437 0.524422,-0.0332 0.786632,-0.0498 0.246265,0.0384 0.495375,0.0615 0.738794,0.11497 0.659187,0.14487 1.286444,0.42104 1.770879,0.89738 0.902945,0.98503 2.29599,-0.29193 1.393045,-1.27696 z" /><path
       style="fill:#000000;stroke-width:0.5"
       id="path409"
       d="m 86.562768,154.3255 c 0.03605,-0.25561 0.07304,-0.51109 0.108155,-0.76684 0.06932,-0.50503 0.232535,-1.72018 0.284155,-2.1908 0.12972,-1.18269 0.207745,-2.37002 0.288045,-3.55677 -0.901415,0.73095 0.39603,-0.90974 0.16823,-0.77538 -0.322745,0.19035 -0.6136,0.4331 -0.892785,0.683 -0.04785,0.0428 -0.09929,0.12185 -0.07048,0.17922 0.13253,0.26396 0.35027,0.47572 0.520505,0.71709 0.22314,0.31638 0.43969,0.63736 0.659535,0.95603 0.676745,0.98097 1.338275,1.9727 2.028145,2.9446 0.218115,0.30728 0.631335,0.87556 0.885305,1.19358 0.09691,0.12135 0.201075,0.23673 0.301615,0.35509 0.69019,0.6817 0.908735,0.83433 1.84898,-0.75548 0.106375,-0.17986 -0.25527,-0.33091 -0.3829,-0.49637 -0.991145,-0.89623 -2.258615,0.50545 -1.267475,1.40169 v 0 c -0.0426,-0.0886 -0.195225,-0.19415 -0.12787,-0.26575 0.403875,-0.42936 0.909295,-0.75322 1.397335,-1.0838 0.03235,-0.0219 0.11637,0.10424 0.08723,0.0782 -0.03965,-0.0354 -0.07918,-0.0709 -0.11877,-0.10638 -0.38494,-0.44676 -0.731635,-0.92039 -1.073075,-1.40136 -0.688295,-0.96956 -1.348085,-1.95907 -2.02333,-2.93765 -0.12715,-0.18407 -1.11087,-1.63023 -1.314955,-1.84614 -0.27143,-0.28717 -0.50881,-0.73416 -0.902445,-0.76866 -1.487145,-0.13035 -1.474125,0.8749 -1.608245,1.80092 -0.07776,1.15058 -0.152025,2.30211 -0.27762,3.44875 -0.107345,0.98001 -0.25622,1.9553 -0.38891,2.93201 -0.18467,1.32344 1.686965,1.5846 1.87163,0.26116 z" /><path
       style="fill:#000000;stroke-width:0.5"
       id="path411"
       d="m 88.100703,153.26461 c 0.01975,0.007 0.0392,0.026 0.05922,0.0202 0.14461,-0.042 0.279965,-0.11136 0.422415,-0.1602 0.21423,-0.0735 0.431065,-0.13907 0.647245,-0.20656 0.673335,-0.21018 1.347185,-0.41682 2.018035,-0.63495 1.27075,-0.41326 0.6863,-2.21038 -0.58445,-1.79711 v 0 c -0.668745,0.21753 -1.341065,0.42185 -2.011815,0.63294 -0.312575,0.0984 -0.927855,0.28689 -1.25814,0.43864 -0.1841,0.0846 -0.35795,0.18989 -0.536925,0.28484 -1.005645,0.87994 0.238775,2.30213 1.244415,1.42219 z" /><path
       style="fill:#000000;stroke-width:0.5"
       id="path413"
       d="m 95.301208,145.68416 c -0.34072,1.67994 -0.59583,3.37475 -0.83365,5.07182 -0.156805,1.29837 -0.135305,1.0619 -0.26209,2.33644 -0.03345,0.33605 -0.0709,0.67178 -0.09616,1.00855 -0.0307,0.40952 -0.11666,1.20026 0.10648,1.59913 0.17626,0.31507 0.486745,0.53331 0.730115,0.79996 0.370565,0.08 0.73468,0.20023 1.11169,0.23991 0.3577,0.0377 1.59913,-0.0691 1.9415,-0.0988 0.515055,-0.0447 1.21865,-0.11496 1.737695,-0.19177 0.231305,-0.0342 0.460642,-0.0806 0.690962,-0.12093 0.69198,-0.15878 0.36623,-0.0692 0.97932,-0.26106 1.27247,-0.40794 0.69556,-2.20749 -0.57692,-1.79955 v 0 c -0.43054,0.14309 -0.18804,0.072 -0.73133,0.1997 -0.199122,0.0356 -0.397297,0.0769 -0.597362,0.10679 -0.501545,0.0748 -1.15172,0.13884 -1.64937,0.18279 -0.301505,0.0266 -0.603175,0.0518 -0.905215,0.0716 -0.22877,0.0149 -0.460015,2.9e-4 -0.68701,0.0324 -0.08003,0.0113 -0.148365,0.0642 -0.222545,0.0963 0.0045,0.0978 0.09063,0.23241 0.014,0.29336 -0.06454,0.0514 -0.09103,-0.14566 -0.09619,-0.22798 -0.0155,-0.24727 0.0169,-0.49536 0.0354,-0.74243 0.02225,-0.29711 0.180465,-1.84948 0.208495,-2.09998 0.0434,-0.38779 0.09334,-0.77481 0.14002,-1.16221 0.23445,-1.67497 0.486745,-3.34752 0.823155,-5.00551 0.232225,-1.31594 -1.628785,-1.64435 -1.861005,-0.32842 z" /><path
       style="fill:#000000;stroke-width:0.5"
       id="path415"
       d="m 100.998,145.67056 c 0.0638,1.21194 0.5331,2.35202 0.98488,3.46244 0.50565,1.2369 2.25489,0.5218 1.74924,-0.7151 v 0 c -0.29422,-0.71581 -0.31881,-0.73631 -0.55656,-1.47085 -0.13504,-0.4172 -0.25964,-0.83666 -0.2878,-1.27649 0,-1.33626 -1.88976,-1.33626 -1.88976,0 z" /><path
       style="fill:#000000;stroke-width:0.5"
       id="path417"
       d="m 106.80144,147.78651 c -0.1841,1.72551 -0.18124,3.4631 -0.1924,5.19612 -3e-4,1.48898 -0.007,2.978 -0.0256,4.46687 -0.017,1.33616 1.87262,1.36018 1.88961,0.024 v 0 c 0.019,-1.49285 0.0255,-2.98584 0.0258,-4.4788 0.0108,-1.69517 0.007,-3.39474 0.18826,-5.08251 0.0889,-1.3333 -1.7967,-1.45901 -1.88558,-0.1257 z" /><path
       style="fill:#000000;stroke-width:0.5"
       id="path419"
       d="m 108.4866,149.26997 c 0.0273,-0.0125 0.0571,-0.0205 0.082,-0.0373 0.49215,-0.33348 0.0931,-0.11849 0.68492,-0.46884 0.3271,-0.19363 0.79721,-0.43801 1.13681,-0.5962 0.19734,-0.0919 0.39958,-0.17296 0.59936,-0.25944 0.55746,-0.19762 0.54926,-0.21599 1.1101,-0.3357 0.15783,-0.0337 0.31627,-0.0676 0.47681,-0.084 0.087,-0.009 0.17491,0.006 0.26237,0.008 1.33609,-0.0214 1.30583,-1.91092 -0.0302,-1.88952 v 0 c -0.18965,0.007 -0.38039,1.9e-4 -0.56896,0.0216 -0.20426,0.0232 -0.40593,0.0669 -0.60646,0.11223 -0.70024,0.15818 -0.72296,0.19024 -1.39784,0.43426 -0.23019,0.10069 -0.46314,0.19531 -0.69057,0.30207 -0.90754,0.42601 -1.79858,0.92258 -2.53391,1.61189 -0.83476,1.04344 0.6409,2.22397 1.47565,1.18052 z" /><path
       style="fill:#000000;stroke-width:0.5"
       id="path421"
       d="m 107.72553,153.87989 c 0.0558,5e-4 0.11181,0.008 0.16729,0.002 0.19921,-0.0205 0.3962,-0.0596 0.59539,-0.0803 0.59956,-0.0623 1.38494,-0.1083 1.97838,-0.14635 1.54775,-0.0992 0.42155,-0.0226 1.827,-0.12062 0.22511,-0.0274 0.45023,-0.0548 0.67534,-0.0822 1.32615,-0.16407 1.09411,-2.03954 -0.23204,-1.87546 v 0 c -0.1916,0.0241 -0.38319,0.0483 -0.57479,0.0725 -0.96906,0.0676 -1.93959,0.11822 -2.90821,0.19156 -0.45968,0.0348 -1.23489,0.0921 -1.72454,0.18643 -0.21894,0.0421 -0.43263,0.10807 -0.64894,0.1621 -1.1952,0.5976 -0.35007,2.28785 0.84512,1.69026 z" /><path
       style="fill:#000000;stroke-width:0.5"
       id="path423"
       d="m 101.34853,147.03035 c -0.0122,0.1567 -0.031,0.31302 -0.0366,0.47009 -0.01,0.26976 0.004,0.93061 0.0122,1.19283 0.0184,0.61152 0.0572,1.22174 0.0945,1.8323 0.0423,0.6021 0.0984,1.20308 0.14479,1.80487 0.10266,1.33231 1.98683,1.18713 1.88418,-0.14518 v 0 c -0.0457,-0.59184 -0.10043,-1.18294 -0.14273,-1.77504 -0.0617,-1.00899 -0.12764,-2.02027 -0.099,-3.0316 0.24626,-1.31338 -1.61113,-1.66164 -1.85739,-0.34827 z" /><path
       style="fill:#000000;stroke-width:0.5"
       id="path425"
       d="m 119.65795,147.03139 c -0.14465,0.0136 -0.29409,0.002 -0.43395,0.0408 -0.23474,0.066 -0.4586,0.16793 -0.67901,0.27226 -0.88087,0.41699 -1.61422,1.09217 -2.2384,1.83007 -0.25563,0.3022 -0.47337,0.63451 -0.71005,0.95177 -0.18077,0.33263 -0.39315,0.64994 -0.54232,0.99789 -0.32885,0.76705 -0.5649,1.82528 -0.32125,2.6558 0.0713,0.24317 0.16228,0.49595 0.33249,0.6837 0.20712,0.22844 0.50826,0.3493 0.76239,0.52395 0.29738,0.009 0.60127,0.0908 0.89213,0.0282 0.49609,-0.1068 1.05285,-0.52196 1.39595,-0.88883 0.17667,-0.18891 0.35933,-0.38349 0.47049,-0.61703 0.39564,-0.83115 0.30724,-1.12069 0.31601,-1.99522 -0.16741,-1.29602 -0.66096,-2.50846 -1.17288,-3.69935 -0.52804,-1.22751 -2.264,-0.48076 -1.73597,0.74675 v 0 c 0.41603,0.9664 0.82191,1.94632 1.01936,2.98505 0.0119,0.17799 0.0272,0.3558 0.0358,0.53398 0.005,0.10721 0.0384,0.21964 0.006,0.32195 -0.089,0.2805 -0.30456,0.38182 -0.47713,0.59399 -0.11297,0.1389 -0.0687,0.13605 0.008,0.25935 0.0332,0.078 0.0949,0.14931 0.0998,0.23395 10e-4,0.0294 -0.0732,0.011 -0.0873,-0.0149 -0.048,-0.0884 -0.073,-0.1908 -0.0788,-0.29119 -0.0208,-0.36208 0.0729,-0.84697 0.20333,-1.17253 0.10665,-0.26623 0.26345,-0.50952 0.39518,-0.76428 0.18794,-0.25886 0.36119,-0.52905 0.56382,-0.77658 0.33484,-0.40904 0.75125,-0.83374 1.18667,-1.14452 0.14491,-0.10343 0.31144,-0.17272 0.46425,-0.26408 0.19739,-0.118 0.22015,-0.0612 0.16851,-0.1477 1.33165,0.11097 1.48859,-1.77226 0.15694,-1.88323 z" /><path
       style="fill:#000000;stroke-width:0.5"
       id="path427"
       d="m 123.91982,157.70215 c -0.10434,-0.71181 -0.31368,-1.40214 -0.4672,-2.10343 -0.14135,-0.64569 -0.35613,-1.75954 -0.43854,-2.40848 -0.0513,-0.40363 -0.0723,-0.81051 -0.10847,-1.21576 0.0316,-0.94397 -0.0249,-1.27601 0.25506,-2.16828 0.0917,-0.29217 0.19427,-0.58918 0.36652,-0.84236 0.30457,-0.44766 0.92599,-0.79663 1.40293,-0.98809 0.31883,-0.12799 0.65899,-0.19461 0.98848,-0.29192 0.72946,-0.006 1.69137,-0.19328 2.28693,0.38248 0.10257,0.0992 0.14652,0.24629 0.19853,0.37913 0.19079,0.48727 0.13786,0.42313 0.0698,0.9179 -0.0862,0.16378 -0.1508,0.34082 -0.25847,0.49132 -0.14135,0.1976 -0.31103,0.37427 -0.48329,0.54559 -0.5028,0.50004 -0.7268,0.68372 -1.38334,0.96649 -0.64607,0.27825 -1.06054,0.33601 -1.7402,0.48555 -0.59196,0.064 -0.76027,0.11704 -1.31879,0.0637 -0.16265,-0.0156 -0.41764,-0.0576 -0.57253,-0.15782 -0.009,-0.006 0.0196,-0.0301 0.0256,-0.0208 0.14632,0.22749 0.27403,0.46642 0.41104,0.69964 -0.16701,0.27559 -0.38546,0.52597 -0.50104,0.82678 -0.0206,0.0535 0.0989,0.0602 0.15358,0.0775 0.19058,0.0605 0.38999,0.0913 0.57945,0.15528 0.4829,0.16305 1.02018,0.40259 1.45836,0.66079 0.21789,0.12839 0.4183,0.28436 0.62744,0.42653 0.14912,0.14225 0.30982,0.27328 0.44735,0.42675 0.25817,0.2881 0.43999,0.6319 0.52897,1.00743 0.0357,0.15064 0.0347,0.24802 0.0419,0.39644 0.003,0.0548 0.006,0.1096 0.009,0.16441 0.0773,1.33402 1.96389,1.22472 1.8866,-0.1093 v 0 c -0.004,-0.0694 -0.008,-0.13886 -0.0123,-0.20829 -0.0336,-0.34928 -0.0341,-0.50225 -0.13898,-0.85947 -0.19679,-0.67004 -0.55348,-1.27708 -1.03645,-1.78239 -0.20976,-0.21947 -0.45209,-0.40532 -0.67813,-0.60798 -0.2748,-0.18044 -0.53925,-0.3777 -0.82439,-0.5413 -0.55183,-0.31661 -1.24035,-0.61645 -1.84805,-0.80614 -0.27387,-0.0855 -0.55261,-0.16208 -0.8368,-0.20145 -0.27355,-0.0379 -0.5828,-0.15625 -0.82799,-0.0291 -0.38736,0.20076 -0.6115,0.62247 -0.91725,0.9337 0.13424,0.30821 0.21092,0.64854 0.40272,0.92463 0.0907,0.13062 0.26439,0.17985 0.40962,0.24469 0.612,0.27326 1.33991,0.31536 1.99748,0.27425 0.31943,-0.02 0.63543,-0.0772 0.95315,-0.1158 0.88643,-0.20749 1.41731,-0.28422 2.25947,-0.68817 0.77982,-0.37404 1.36025,-0.78995 1.92875,-1.43697 0.28284,-0.32192 0.56492,-0.65485 0.76212,-1.0353 0.19006,-0.36668 0.25662,-0.78514 0.38493,-1.17771 -0.0226,-0.37837 0.0196,-0.76629 -0.0678,-1.13512 -0.16934,-0.7145 -0.67428,-1.44105 -1.27222,-1.8588 -0.3252,-0.22721 -0.70989,-0.36906 -1.09377,-0.46912 -0.91465,-0.2384 -1.65986,-0.0875 -2.58718,-0.01 -1.10572,0.37354 -1.71369,0.46065 -2.62681,1.25082 -0.36568,0.31643 -0.68329,0.69619 -0.93569,1.10867 -0.22324,0.36481 -0.35467,0.78174 -0.47265,1.19283 -0.32264,1.12422 -0.25734,1.55095 -0.2838,2.70991 0.0419,0.45032 0.0681,0.90238 0.12575,1.35096 0.18741,1.45933 0.55308,2.88528 0.88391,4.31595 0.0785,1.33396 1.96497,1.22298 1.8865,-0.11097 z" /><path
       style="fill:#000000;stroke-width:0.5"
       id="path429"
       d="m 133.38251,155.28136 c -0.0212,-0.17789 -0.0462,-0.35536 -0.0635,-0.53366 -0.0651,-0.67115 -0.11054,-1.38223 -0.15061,-2.05197 -0.0633,-1.05728 -0.11193,-2.11497 -0.15068,-3.17337 0.004,-0.19676 0.007,-0.39352 0.01,-0.59028 0.0169,-0.003 0.0644,-0.0186 0.0507,-0.008 -0.31079,0.23263 -0.69595,0.38213 -0.94635,0.67878 -0.0716,0.0848 0.0477,0.22159 0.10749,0.31504 0.18655,0.29147 0.41905,0.55085 0.62479,0.8291 0.2486,0.33621 0.49214,0.67614 0.73821,1.01421 0.64691,0.862 1.24835,1.75743 1.89056,2.6228 0.12864,0.17335 0.60506,0.84267 0.85751,0.94174 0.31592,0.12399 0.66946,0.11195 1.00418,0.16793 0.29313,-0.35805 0.67089,-0.66104 0.87939,-1.07414 0.14423,-0.28574 0.11129,-0.63107 0.14211,-0.94967 0.0687,-0.70987 0.0483,-1.39031 0.0461,-2.10218 -0.006,-1.33625 -1.89528,-1.32842 -1.88974,0.008 v 0 c 0.005,0.85315 0.0206,1.02623 -0.0307,1.85321 -0.0119,0.1916 -0.20424,0.45407 -0.0539,0.57337 0.15409,0.12224 0.37725,-0.11147 0.56587,-0.1672 0.18629,0.0832 0.3661,0.18274 0.55886,0.24957 0.063,0.0219 -0.12033,-0.0635 -0.16503,-0.11303 -0.13878,-0.1536 -0.25718,-0.32455 -0.38053,-0.4908 -0.64432,-0.86838 -1.248,-1.76673 -1.89702,-2.63174 -0.14812,-0.20338 -1.26273,-1.74892 -1.4681,-1.97491 -0.28217,-0.3105 -0.50454,-0.79759 -0.9195,-0.85952 -1.18954,-0.17752 -1.50626,0.30164 -1.60452,1.09053 -0.0283,0.22726 -0.006,0.45799 -0.009,0.68699 0.0395,1.07636 0.0888,2.15201 0.15342,3.22721 0.0444,0.73949 0.0883,1.41892 0.15985,2.15236 0.0181,0.18529 0.0441,0.36972 0.0661,0.55458 0.17283,1.32504 2.04672,1.08062 1.87389,-0.24442 z" /><path
       style="fill:#000000;stroke-width:0.5"
       id="path431"
       d="m 143.15142,146.45284 c -0.75515,1.81306 -1.36964,3.67931 -1.98596,5.54282 -0.45294,1.40616 -0.23937,0.7391 -0.64141,2.00097 -0.40564,1.27321 1.39495,1.84687 1.80059,0.57367 v 0 c 0.39872,-1.25152 0.18727,-0.59101 0.63502,-1.98131 0.59928,-1.81242 1.19566,-3.62788 1.92873,-5.39174 0.52638,-1.22822 -1.21059,-1.97263 -1.73697,-0.74441 z" /><path
       style="fill:#000000;stroke-width:0.5"
       id="path433"
       d="m 147.83577,156.51323 c 0.14163,-1.36586 0.21804,-2.7373 0.35256,-4.10391 0.0799,-0.81143 0.16106,-1.47569 0.25513,-2.27922 0.05,-0.37515 0.0943,-0.92958 0.22696,-1.31879 0.0174,-0.0512 0.0386,0.13416 -0.008,0.16194 -0.28061,0.16823 -0.63395,0.19832 -0.90323,0.38415 -0.057,0.0393 0.025,0.1384 0.057,0.19987 0.11555,0.22245 0.25536,0.43143 0.38304,0.64714 0.89565,1.59279 1.72493,3.2214 2.5769,4.83759 0.62317,1.18206 2.29485,0.30077 1.67168,-0.88129 v 0 c -0.86939,-1.64896 -1.71466,-3.31116 -2.63171,-4.93452 -0.15328,-0.24919 -0.80379,-1.43123 -1.16658,-1.53569 -0.46639,-0.13429 -0.99973,-0.0826 -1.4532,0.0904 -0.22013,0.084 -0.27797,0.38589 -0.36718,0.60394 -0.12775,0.31227 -0.22718,1.25715 -0.2629,1.52559 -0.0974,0.83262 -0.17752,1.48719 -0.26039,2.33011 -0.13243,1.34708 -0.2092,2.69874 -0.34638,4.04529 -0.16079,1.32656 1.71524,1.55395 1.87604,0.2274 z" /><path
       style="fill:#000000;stroke-width:0.5"
       id="path435"
       d="m 147.38819,155.15253 c 0.49583,-0.28805 1.03528,-0.48228 1.57161,-0.67874 0.62355,-0.22842 1.23117,-0.4339 1.85871,-0.6496 1.26368,-0.43443 0.64931,-2.22154 -0.61437,-1.78711 v 0 c -0.57835,0.19886 -1.35246,0.46143 -1.9206,0.67208 -0.71677,0.26577 -1.44099,0.53186 -2.07587,0.96771 -1.04345,0.83476 0.13708,2.31042 1.18052,1.47566 z" /><path
       style="fill:#000000;stroke-width:0.5"
       id="path437"
       d="m 75.434037,165.9815 c -0.256983,0.18959 -0.523131,0.36736 -0.77095,0.56879 -2.768182,2.24998 -5.302856,4.78984 -7.815906,7.31485 -1.44507,1.58271 -2.874749,3.1893 -4.123064,4.93526 -0.936534,1.30988 -1.735709,2.69248 -2.500313,4.1061 -0.864114,1.67423 -1.412875,3.48958 -1.619124,5.36248 -0.03832,0.34799 -0.04935,0.69843 -0.07402,1.04765 -0.109556,2.22688 0.436586,4.3864 1.113738,6.48707 0.715635,2.01623 1.814858,3.9122 3.248165,5.50796 0.306858,0.34163 0.646704,0.65213 0.970055,0.9782 1.060316,0.862 1.367219,1.19393 2.628136,1.85131 2.671584,1.39284 5.629407,1.97566 8.555909,2.54935 1.845161,0.20437 3.735223,0.71861 5.609219,0.469 0.538295,-0.0717 1.068385,-0.21508 1.57997,-0.39725 1.225195,-0.43628 1.553595,-0.79016 2.59117,-1.54576 1.403945,-1.19859 2.499555,-2.68596 3.19147,-4.3994 0.497175,-1.23119 0.548095,-1.69259 0.860255,-3.02016 0.382115,-1.71192 0.51111,-3.44925 0.469705,-5.19945 -0.02495,-1.05506 -0.11431,-2.40113 -0.335145,-3.43806 -0.122005,-0.57288 -0.32156,-1.12646 -0.48234,-1.68969 -0.201655,-0.49279 -0.359385,-1.00594 -0.604965,-1.47839 -0.731365,-1.407 -1.846415,-2.72141 -3.095635,-3.69718 -1.019565,-0.79639 -1.77426,-1.15123 -2.896395,-1.76449 -1.800505,-0.68291 -1.47187,-0.62705 -3.320526,-1.0611 -0.472543,-0.11096 -0.956737,-0.17063 -1.426212,-0.29392 -0.285289,-0.0749 -1.417115,-0.44561 -1.701512,-0.71841 -0.09078,-0.0871 -0.04854,-0.24685 -0.07281,-0.37027 0.125756,-0.34143 0.582027,-1.58526 0.6368,-1.69901 0.895246,-1.85923 2.320562,-3.61362 3.611535,-5.21573 0.987381,-1.17351 0.512401,-0.62027 1.421846,-1.66238 0.878465,-1.00693 -0.54555,-2.24927 -1.424013,-1.24234 v 0 c -0.940488,1.07836 -0.44945,0.50603 -1.469922,1.71975 -1.063404,1.32236 -2.132034,2.6573 -3.014303,4.11152 -0.549149,0.90515 -1.287995,2.20943 -1.438294,3.30251 -0.0765,0.55639 0.0476,1.12223 0.0714,1.68335 0.270437,0.35067 0.476336,0.76237 0.811311,1.05202 0.273711,0.23669 0.634499,0.35165 0.969672,0.48802 1.758239,0.71532 3.726371,0.70965 5.44239,1.56624 0.898985,0.48593 1.710915,0.87833 2.526885,1.50168 1.003355,0.7665 2.026105,1.90427 2.62129,3.02151 0.218285,0.40975 0.35806,0.85672 0.53709,1.28508 0.142005,0.47634 0.319715,0.94346 0.426015,1.42901 0.21197,0.9682 0.288895,2.18071 0.31609,3.16415 0.04445,1.6084 -0.06976,3.20435 -0.420735,4.77811 -0.11121,0.48575 -0.200705,0.97699 -0.33363,1.45725 -0.53937,1.94876 -1.487895,3.53181 -3.005455,4.8737 -0.312095,0.23874 -0.60428,0.50604 -0.93628,0.71623 -0.591745,0.37463 -1.45656,0.75091 -2.15339,0.85367 -1.719818,0.25363 -3.504812,-0.26293 -5.199869,-0.43445 -2.702804,-0.52719 -5.452687,-1.04546 -7.93185,-2.3064 -1.096039,-0.55746 -1.354211,-0.83611 -2.278037,-1.57531 -0.279266,-0.27707 -0.57361,-0.53972 -0.837798,-0.8312 -1.284888,-1.41761 -2.277796,-3.10409 -2.919456,-4.9016 -0.608822,-1.86964 -1.111137,-3.79288 -1.026097,-5.77705 0.01921,-0.2988 0.02574,-0.59867 0.05764,-0.89638 0.177427,-1.65603 0.648047,-3.26304 1.412973,-4.7437 0.715288,-1.32764 1.463591,-2.62865 2.340797,-3.85885 1.197824,-1.67983 2.572843,-3.22347 3.95918,-4.74724 2.445953,-2.45818 4.912497,-4.93012 7.600112,-7.1285 0.223405,-0.18273 0.463657,-0.34385 0.695485,-0.51577 1.11184,-0.74123 0.06359,-2.31361 -1.048252,-1.57238 z" /><path
       style="fill:#000000;stroke-width:0.5"
       id="path439"
       d="m 78.750272,184.7945 c -0.298357,0.0307 -0.600365,0.0361 -0.895071,0.0919 -1.380388,0.2609 -3.116786,0.75606 -4.162023,1.74407 -1.065282,1.00697 -1.221343,1.73214 -1.764764,3.01863 -0.0844,0.58336 -0.243191,1.16073 -0.2532,1.75008 -0.02791,1.64358 0.503249,3.81997 1.580146,5.10461 0.910951,1.08668 1.533642,1.21752 2.743416,1.76592 0.509935,0.0319 1.024475,0.17107 1.529805,0.0956 1.328596,-0.19835 2.872507,-1.32003 3.490837,-2.51373 0.25349,-0.48936 0.441975,-1.02602 0.50904,-1.57304 0.07172,-0.58499 -0.06651,-1.17686 -0.09977,-1.76529 -0.573145,-1.40005 -0.611415,-1.8143 -1.56332,-2.96288 -0.312974,-0.37764 -0.701699,-0.68548 -1.052548,-1.02822 -0.968387,-0.92078 -2.270562,0.44873 -1.302175,1.36951 v 0 c 0.266854,0.24459 0.56261,0.46099 0.800562,0.73378 0.66677,0.7644 0.796482,1.17009 1.235677,2.06108 0.12614,0.83998 0.3118,1.22038 -0.03709,2.02828 -0.274138,0.63482 -1.274277,1.56128 -1.950025,1.76101 -0.261682,0.0773 -0.544427,0.0379 -0.81664,0.0569 -0.69033,-0.27133 -1.342951,-0.44037 -1.873782,-1.0119 -0.667902,-0.71911 -0.921711,-1.55211 -1.125569,-2.48695 -0.100201,-0.45949 -0.182514,-0.92735 -0.19375,-1.39751 -0.01023,-0.42793 0.08655,-0.85171 0.129819,-1.27756 0.274208,-0.71698 0.517001,-1.58129 1.070547,-2.16197 0.624456,-0.65506 1.369549,-0.88068 2.20213,-1.14287 0.36114,-0.11372 0.727268,-0.21482 1.098755,-0.28799 0.259452,-0.0511 0.525915,-0.0559 0.788873,-0.0838 1.334755,-0.0636 1.244865,-1.95119 -0.08989,-1.88763 z" /><path
       style="fill:#000000;stroke-width:0.5"
       id="path441"
       d="m 107.23646,162.89363 c -2.41723,0.38315 -4.8091,1.01214 -6.95912,2.22115 -0.677492,0.38097 -1.303922,0.84634 -1.955882,1.26952 -1.391335,1.10037 -2.201445,1.5975 -3.286525,3.03147 -1.20954,1.59845 -2.08493,3.67874 -2.461215,5.64538 -0.10789,0.56389 -0.126605,1.14125 -0.189905,1.71188 0.0308,0.52794 0.02025,1.05993 0.09234,1.58384 0.20555,1.49377 0.87738,3.04939 1.810085,4.23907 0.177295,0.22615 0.3836,0.42797 0.5754,0.64195 0.97401,0.87799 0.156265,0.17186 1.09529,0.90739 0.10403,0.0815 0.21889,0.15361 0.30329,0.25529 0.04435,0.0535 -0.134475,-0.0531 -0.17944,-0.10607 -0.199245,-0.23472 0.007,-0.35093 -0.263175,-0.063 -0.587245,0.88351 -1.168855,1.76855 -1.56927,2.7581 -0.222775,0.55055 -0.40537,1.11711 -0.578245,1.68531 -0.17895,0.58816 -0.36031,1.17802 -0.4766,1.7817 -0.13323,0.69163 -0.1802,1.39712 -0.270305,2.09568 0.0485,0.81941 0.01415,1.64796 0.1455,2.45822 0.35019,2.1602 0.90673,3.45572 2.086965,5.32423 0.521665,0.82587 1.0889,1.63453 1.766065,2.33856 1.947135,2.02438 3.00795,2.35329 5.465647,3.69968 2.94546,1.26209 6.04055,2.236 9.22768,2.65289 1.2643,0.16537 3.33287,0.29185 4.62142,-0.0769 0.71566,-0.2048 1.34643,-0.6353 2.01964,-0.95295 0.55867,-0.54333 1.19831,-1.01428 1.67604,-1.63001 1.97556,-2.5463 2.87854,-6.56421 3.06117,-9.722 0.0456,-0.78799 -0.005,-1.5786 -0.008,-2.3679 -0.15034,-2.18036 -0.4963,-4.43688 -1.72805,-6.29953 -0.46462,-0.7026 -0.88108,-1.07705 -1.45369,-1.65933 -0.25292,-0.37911 -0.76652,-0.52876 -1.03486,-0.89846 -0.0244,-0.0336 0.0482,-0.0678 0.0684,-0.10402 0.0267,-0.0478 0.0491,-0.0979 0.0724,-0.14748 0.18567,-0.39686 0.36544,-0.79645 0.54782,-1.19484 0.87351,-2.02743 1.2574,-4.1867 1.48995,-6.37076 0.23388,-2.1966 0.27503,-3.58321 0.14041,-5.78457 -0.0522,-0.85389 -0.17559,-1.70193 -0.26339,-2.5529 -0.23188,-1.25486 -0.38056,-2.72721 -1.03553,-3.87552 -0.66432,-1.16468 -1.60834,-1.94044 -2.82768,-2.47436 -1.57114,-0.68797 -2.34137,-0.5641 -4.02709,-0.64224 -0.64625,0.0515 -1.29576,0.0716 -1.93875,0.15439 -1.71484,0.22087 -3.94038,0.7425 -5.27563,1.93066 -0.27406,0.24387 -0.48223,0.55298 -0.72334,0.82946 -0.14492,0.35078 -0.28984,0.70156 -0.43476,1.05234 -0.4491,1.25854 1.33074,1.89366 1.77984,0.63512 v 0 c 0.0382,-0.16243 0.0764,-0.32486 0.11465,-0.48729 0.12149,-0.16455 0.21773,-0.35116 0.36448,-0.49363 0.43328,-0.42065 1.01718,-0.70673 1.57163,-0.91491 1.43108,-0.53732 2.95796,-0.73794 4.47546,-0.81754 0.56144,0.0119 1.12693,-0.0327 1.68432,0.0357 0.909,0.11151 1.87828,0.41558 2.62289,0.97359 1.42619,1.06878 1.45971,2.68121 1.76995,4.29026 0.0846,0.80157 0.20228,1.60034 0.25379,2.40471 0.13583,2.12099 0.096,3.35013 -0.12265,5.47382 -0.20652,2.00599 -0.54296,3.99149 -1.34069,5.85552 -0.25654,0.57404 -0.63443,1.30549 -0.71522,1.94399 -0.085,0.67209 0.0975,1.14622 0.48766,1.68786 0.0712,0.0988 0.87511,0.75617 0.95459,0.82217 0.40132,0.39993 0.82322,0.78701 1.14887,1.25624 1.08866,1.56861 1.33722,3.53185 1.48452,5.38287 0.007,0.71512 0.0574,1.43122 0.0195,2.14536 -0.14789,2.7821 -0.89269,6.29418 -2.52943,8.60689 -0.3335,0.47123 -0.78627,0.8455 -1.1794,1.26825 -0.46424,0.25479 -0.88702,0.60718 -1.39272,0.76438 -1.12304,0.3491 -2.96473,0.23496 -4.05255,0.0957 -2.99305,-0.38308 -5.90216,-1.28978 -8.67436,-2.45703 -2.09333,-1.11787 -3.19916,-1.49123 -4.861877,-3.18282 -0.61444,-0.6251 -1.12352,-1.35073 -1.602905,-2.08455 -0.472925,-0.72393 -0.91758,-1.47547 -1.245475,-2.27561 -0.717165,-1.75002 -0.643875,-2.57214 -0.77827,-4.38181 0.07373,-0.61445 0.10642,-1.23524 0.221205,-1.84337 0.1063,-0.56319 0.27726,-1.11261 0.440445,-1.66202 0.146855,-0.4944 0.299975,-0.9881 0.48922,-1.46788 0.36585,-0.9275 0.920465,-1.74685 1.46641,-2.57287 0.317735,-0.57045 0.59885,-0.84622 0.449935,-1.56659 -0.17512,-0.84716 -1.065895,-1.16312 -1.609115,-1.71067 -0.13942,-0.14839 -0.290245,-0.28684 -0.418265,-0.44517 -0.73463,-0.90856 -1.295535,-2.1367 -1.476555,-3.28728 -0.06553,-0.41648 -0.06557,-0.84066 -0.09835,-1.26099 0.04615,-0.47641 0.0535,-0.95817 0.1384,-1.42921 0.292905,-1.62511 1.04193,-3.51302 2.02222,-4.84317 0.95347,-1.29375 1.681715,-1.735 2.93224,-2.7315 0.577675,-0.38145 1.131707,-0.80139 1.733027,-1.14435 2.01755,-1.1507 4.26965,-1.72055 6.5432,-2.07981 1.3066,-0.27998 0.91064,-2.1278 -0.39596,-1.84781 z" /><path
       style="fill:#000000;stroke-width:0.5"
       id="path443"
       d="m 109.56534,173.7928 c -0.33587,-0.0268 -0.67092,-0.0937 -1.00761,-0.0806 -1.61621,0.0628 -3.59097,0.87019 -4.43673,2.33117 -0.22329,0.38572 -0.29653,0.84062 -0.44479,1.26092 0.0687,0.49281 0.0387,1.00987 0.20608,1.47842 0.56305,1.57559 2.60371,3.3181 4.29392,3.49456 0.45869,0.0479 0.91921,-0.0761 1.37882,-0.11418 0.42152,-0.229 0.89044,-0.38676 1.26458,-0.68701 0.3951,-0.31707 0.71504,-0.72403 1.00838,-1.13706 0.86815,-1.22233 1.34198,-2.71881 1.16645,-4.22283 -0.0518,-0.44345 -0.22781,-0.86337 -0.34171,-1.29506 -0.66107,-0.99868 -0.63614,-1.19901 -1.65567,-1.83705 -0.30189,-0.18893 -0.64866,-0.29422 -0.97298,-0.44133 -1.23073,-0.5205 -1.96683,1.22 -0.73611,1.74051 v 0 c 0.69423,0.25777 1.1108,0.42812 1.55091,1.06813 0.0886,0.26111 0.2174,0.51187 0.26588,0.78331 0.19509,1.09222 -0.16511,2.07782 -0.73043,2.99682 -0.16048,0.26087 -0.33989,0.5129 -0.54847,0.73718 -0.15387,0.16545 -0.35335,0.28166 -0.53003,0.42249 -0.20745,0.0543 -0.40793,0.16522 -0.62237,0.16291 -1.15886,-0.0125 -2.37369,-1.14964 -2.94483,-2.07418 -0.10515,-0.17022 -0.15785,-0.36772 -0.23677,-0.55158 0.0292,-0.19435 0.005,-0.40441 0.0874,-0.58304 0.46867,-1.02189 1.83192,-1.54588 2.87076,-1.6464 0.19782,-0.0191 0.39742,0.007 0.59613,0.011 1.28485,0.3671 1.80401,-1.44996 0.51916,-1.81706 z" /><path
       style="fill:#000000;stroke-width:0.5"
       id="path445"
       d="m 106.7472,188.44831 c -1.63539,1.37096 -2.90478,2.87146 -3.59137,4.93824 -0.18835,0.56697 -0.34477,1.15351 -0.39086,1.74917 -0.0459,0.59279 0.0786,1.18652 0.11784,1.77977 0.7837,1.38521 0.96643,2.17524 2.44786,2.97026 1.85211,0.99395 4.26008,0.98669 6.19778,0.27315 0.5671,-0.20883 1.06404,-0.57327 1.59606,-0.8599 0.37658,-0.47203 0.86898,-0.87145 1.12972,-1.41608 0.96701,-2.01987 0.34458,-4.9663 -0.84599,-6.76227 -0.26643,-0.40191 -0.62186,-0.73711 -0.93279,-1.10566 -1.28321,-0.96469 -0.63203,-0.57452 -1.92968,-1.20943 -1.2095,-0.56809 -2.01289,1.1424 -0.80339,1.71048 v 0 c 0.87145,0.38386 0.43067,0.1456 1.30821,0.74032 0.23178,0.25437 0.49573,0.48278 0.69532,0.76311 0.75012,1.05352 1.09267,2.34853 1.09903,3.633 0.002,0.37685 -0.006,0.76544 -0.12263,1.1239 -0.1052,0.32427 -0.35099,0.58454 -0.52649,0.8768 -0.37153,0.22322 -0.71314,0.50623 -1.11459,0.66964 -1.28693,0.52386 -3.27252,0.66769 -4.56932,0.0879 -0.87971,-0.39334 -1.19403,-0.95697 -1.74691,-1.66423 -0.0505,-0.4061 -0.17083,-0.80953 -0.15146,-1.21829 0.0664,-1.4004 0.80206,-2.89335 1.65317,-3.97643 0.43063,-0.54799 1.09142,-1.11647 1.61434,-1.59159 1.06902,-0.80175 -0.0648,-2.31357 -1.13385,-1.51181 z" /><path
       style="fill:#000000;stroke-width:0.5"
       id="path447"
       d="m 75.919736,165.38727 c 0.946653,1.31381 2.044079,2.51006 3.159949,3.68015 0.922578,0.96667 2.289658,-0.33805 1.367083,-1.30473 v 0 c -1.034027,-1.08258 -2.049238,-2.18978 -2.937404,-3.39732 -0.722595,-1.12404 -2.312224,-0.10214 -1.589628,1.0219 z" /><path
       style="fill:#000000;stroke-width:0.5"
       id="path449"
       d="m 145.20551,163.00182 c -1.88283,0.0754 -3.79213,0.0446 -5.62055,0.57389 -0.51011,0.14767 -1.00078,0.35567 -1.50116,0.53351 -1.84583,0.76858 -3.5757,1.8531 -4.92737,3.34532 -0.81516,0.89991 -0.98828,1.28946 -1.61184,2.31106 -1.11999,2.2006 -1.9163,4.5589 -2.49201,6.95731 -0.11984,0.49929 -0.21873,1.00338 -0.32809,1.50507 -0.37202,1.9462 -0.6954,3.91514 -0.76218,5.89967 -0.0522,1.55253 0.0191,2.11105 0.11155,3.69959 0.22281,2.95846 0.71273,5.92754 1.80634,8.70037 0.19822,0.50258 0.44087,0.98649 0.66131,1.47973 0.75302,1.4901 1.71178,2.87835 2.84933,4.10192 0.4285,0.4609 0.68892,0.67572 1.14612,1.08334 0.85085,0.67655 1.81293,1.22147 2.79596,1.68201 0.38115,0.17857 0.76157,0.36684 1.16482,0.48745 1.31454,0.39317 1.76303,0.31139 3.15154,0.35371 2.09177,-0.0459 4.17283,-0.42158 6.07872,-1.30907 1.20192,-0.55969 1.34368,-0.74234 2.4187,-1.5226 1.80706,-1.42479 2.96184,-3.38422 3.92564,-5.43668 0.25296,-0.53869 0.50106,-1.08073 0.71273,-1.63695 0.23454,-0.6163 0.41637,-1.25139 0.62456,-1.87708 1.27112,-5.31184 1.09913,-10.81258 0.85955,-16.22742 -0.1983,-2.24021 -0.22816,-3.10318 -0.58853,-5.26537 -0.11365,-0.68195 -0.23313,-1.36467 -0.40817,-2.0335 -0.15319,-0.58534 -0.31061,-1.17739 -0.57463,-1.72179 -0.65202,-1.34446 -1.18504,-1.7406 -2.18214,-2.76829 -0.9398,-0.94993 -2.28321,0.37914 -1.34341,1.32908 v 0 c 0.67485,0.66553 1.29804,1.17404 1.73552,2.04502 0.45486,0.90558 0.74333,2.46915 0.90104,3.40949 0.35011,2.08742 0.37918,2.92263 0.57242,5.08924 0.23141,5.18651 0.40594,10.45412 -0.76593,15.55044 -0.18784,0.57237 -0.35049,1.15364 -0.56351,1.71712 -0.19843,0.52487 -0.43288,1.03572 -0.66956,1.54449 -0.64445,1.38529 -1.36443,2.76283 -2.41306,3.89253 -0.29027,0.3127 -0.62778,0.57796 -0.94167,0.86694 -0.31958,0.23846 -0.62351,0.4995 -0.95875,0.71539 -1.89824,1.22242 -4.15095,1.67554 -6.37667,1.74973 -0.95233,-0.0125 -1.56199,0.0512 -2.46964,-0.20969 -0.35282,-0.10142 -0.68556,-0.26438 -1.01843,-0.41918 -0.84265,-0.39189 -1.67379,-0.85129 -2.41202,-1.4178 -0.36223,-0.32047 -0.63984,-0.55205 -0.97452,-0.90983 -1.01526,-1.08532 -1.87647,-2.31523 -2.55252,-3.63775 -0.19958,-0.44069 -0.42005,-0.8725 -0.59875,-1.32207 -1.03727,-2.60961 -1.49523,-5.40768 -1.70591,-8.19423 -0.087,-1.45268 -0.15826,-2.03969 -0.11281,-3.45728 0.0607,-1.89355 0.37033,-3.77215 0.72358,-5.62922 0.58746,-2.70983 1.32688,-5.40416 2.59115,-7.88693 0.48259,-0.80939 0.67442,-1.21826 1.30602,-1.92774 1.16212,-1.30539 2.65688,-2.25525 4.25664,-2.92787 1.11225,-0.40803 1.33738,-0.55116 2.48542,-0.74532 1.35573,-0.22929 2.73904,-0.17521 4.10614,-0.25326 1.33396,-0.0785 1.22299,-1.96497 -0.11097,-1.8865 z" /><path
       style="fill:#000000;stroke-width:0.5"
       id="path453"
       d="m 145.33313,171.70274 c -1.06889,0.37814 -2.1279,0.78773 -3.13014,1.32295 -0.85075,0.45433 -1.27177,0.75119 -2.07263,1.27116 -1.5433,1.19274 -2.84049,2.68999 -3.75308,4.4195 -0.51393,0.97399 -0.71973,1.63568 -1.09427,2.65631 -0.12375,0.50023 -0.27845,0.9938 -0.37124,1.50068 -0.45656,2.49383 -0.42996,5.07266 -0.17538,7.58601 0.057,0.56227 0.14573,1.12085 0.21859,1.68127 0.25474,1.26421 0.43672,2.57295 1.15551,3.6798 0.419,0.64522 0.97716,1.16905 1.59061,1.62307 0.27304,0.20209 0.5739,0.36361 0.86085,0.54541 1.59786,0.87236 3.20859,1.02803 4.99259,0.95292 0.25636,-0.0457 0.51957,-0.0627 0.76906,-0.13732 1.28885,-0.38536 2.40615,-1.30986 3.25181,-2.33001 0.2588,-0.31219 0.48006,-0.65369 0.72009,-0.98054 1.4001,-2.12376 2.02882,-4.49637 2.02568,-7.03653 -0.001,-0.63042 -0.0709,-1.25885 -0.10628,-1.88828 -0.28718,-2.70439 -1.07326,-5.31881 -2.21383,-7.78364 -0.61759,-1.33463 -1.39193,-2.67768 -2.10543,-3.9635 -1.19646,-2.13518 -0.61662,-1.1182 -1.73575,-3.0531 -0.6691,-1.15668 -2.30489,-0.21043 -1.6358,0.94625 v 0 c 1.10518,1.91029 0.53072,0.90298 1.71937,3.0242 0.65109,1.1719 1.44709,2.55684 2.01235,3.77092 1.05734,2.27096 1.79754,4.67743 2.07267,7.17123 0.0352,0.55746 0.10084,1.11384 0.10578,1.6724 0.0192,2.1737 -0.47848,4.20391 -1.66841,6.03038 -0.19097,0.26727 -0.36693,0.54592 -0.5729,0.8018 -0.54148,0.67268 -1.3846,1.47322 -2.22407,1.76225 -0.16207,0.0558 -0.33547,0.0705 -0.50321,0.10582 -1.41049,0.0754 -2.62716,-0.0172 -3.9058,-0.67004 -0.65591,-0.39773 -1.31882,-0.80255 -1.77575,-1.44128 -0.63659,-0.88985 -0.71514,-2.01674 -0.95535,-3.04737 -0.0694,-0.5266 -0.15367,-1.05145 -0.20808,-1.57981 -0.23856,-2.31625 -0.27503,-4.69359 0.12724,-6.99543 0.0767,-0.43876 0.20688,-0.86647 0.31032,-1.2997 0.30377,-0.83757 0.52547,-1.53313 0.93715,-2.328 0.76795,-1.48273 1.86223,-2.77473 3.16554,-3.81165 0.69027,-0.45012 1.14076,-0.76449 1.86904,-1.15597 0.96915,-0.52096 1.99645,-0.90854 3.02998,-1.27776 1.23347,-0.51395 0.50664,-2.25835 -0.72683,-1.7444 z" /></g></svg>
