<?xml version="1.0" encoding="UTF-8" standalone="no"?>
<!-- Created with Inkscape (http://www.inkscape.org/) -->

<svg
   width="177.40028"
   height="385.82022"
   viewBox="0 0 88.700142 192.91011"
   version="1.1"
   id="svg181"
   inkscape:version="1.2.1 (9c6d41e410, 2022-07-14)"
   sodipodi:docname="campanula.svg"
   xmlns:inkscape="http://www.inkscape.org/namespaces/inkscape"
   xmlns:sodipodi="http://sodipodi.sourceforge.net/DTD/sodipodi-0.dtd"
   xmlns="http://www.w3.org/2000/svg"
   xmlns:svg="http://www.w3.org/2000/svg">
  <sodipodi:namedview
     id="namedview183"
     pagecolor="#ffffff"
     bordercolor="#999999"
     borderopacity="1"
     inkscape:showpageshadow="0"
     inkscape:pageopacity="0"
     inkscape:pagecheckerboard="0"
     inkscape:deskcolor="#d1d1d1"
     inkscape:document-units="mm"
     showgrid="false"
     inkscape:zoom="0.74564394"
     inkscape:cx="173.00483"
     inkscape:cy="305.10541"
     inkscape:window-width="1278"
     inkscape:window-height="1008"
     inkscape:window-x="3186"
     inkscape:window-y="0"
     inkscape:window-maximized="0"
     inkscape:current-layer="layer1" />
  <defs
     id="defs178" />
  <g
     inkscape:label="Layer 1"
     inkscape:groupmode="layer"
     id="layer1"
     transform="translate(-20.92791,-73.951721)">
    <path
       style="fill:#000000;stroke-width:0.264583"
       id="path260"
       d="m 70.600252,145.68411 c -0.04092,0.61497 -0.10331,1.22889 -0.122759,1.84492 -0.285713,9.04955 0.676259,18.09758 1.615718,27.08129 1.153824,10.04859 2.394431,20.09149 4.012403,30.07749 0.846905,5.22702 1.473965,8.51296 2.424232,13.7147 2.088181,11.04726 4.589227,22.03964 8.034406,32.75071 0.611759,1.90197 1.293212,3.78081 1.939819,5.67121 2.493103,6.53282 1.265957,3.41746 3.665265,9.35243 0.530098,1.31112 2.384282,0.56145 1.854184,-0.74967 v 0 c -2.376413,-5.87692 -1.162195,-2.79553 -3.62716,-9.25024 -0.639214,-1.86746 -1.313023,-3.72344 -1.917649,-5.60239 -3.423529,-10.63903 -5.907021,-21.55816 -7.981429,-32.53148 -0.945258,-5.17379 -1.572456,-8.46089 -2.414825,-13.65875 -1.613202,-9.9543 -2.849576,-19.96541 -4.000104,-29.98211 -0.98834,-9.44305 -2.01463,-18.96348 -1.497546,-28.47004 0.17541,-1.40329 -1.809145,-1.65136 -1.984555,-0.24807 z" />
    <path
       style="fill:#000000;stroke-width:0.264583"
       id="path276"
       d="m 22.871661,90.101556 c 0.548334,-0.229108 1.231439,-0.544311 1.844638,-0.321553 0.634498,0.230497 1.274971,1.84382 1.501877,2.279211 1.665833,3.64889 2.103541,7.637057 2.400255,11.589066 0.256328,3.01104 -0.01148,6.54476 0.998567,9.42491 1.087945,3.10224 2.193787,4.39154 4.021256,7.19582 1.009105,1.25066 1.943508,2.56547 3.027315,3.75198 4.443402,4.86446 10.316464,9.32589 15.956737,12.72482 1.265344,0.76252 2.576828,1.44571 3.86524,2.16856 3.046783,1.58271 6.158693,3.04879 9.355463,4.30469 0.914643,0.35934 3.416718,1.27882 4.466907,1.52289 0.646753,0.15031 1.313244,0.19727 1.969868,0.2959 0.684017,-0.0678 1.3862,-0.0328 2.052056,-0.20338 1.709668,-0.4381 3.012299,-1.33391 4.359198,-2.4478 1.503624,-1.24349 3.149899,-3.01754 4.298788,-4.57325 0.698731,-0.94614 1.280126,-1.97355 1.920187,-2.96033 3.410046,-5.93828 4.79048,-12.67447 6.26136,-19.28194 0.954823,-4.04892 2.082919,-8.07697 3.983791,-11.79751 1.038469,-2.03258 1.448906,-2.50317 2.712635,-4.331136 1.962767,-2.448957 4.300111,-4.760526 7.237021,-5.986502 1.11429,0.262731 2.27398,1.206913 2.92733,2.138225 0.33175,-0.529807 0.71648,-1.029925 0.99526,-1.589423 0.0296,-0.05949 -0.0764,-0.110459 -0.12651,-0.154115 -0.16781,-0.146174 -0.35123,-0.273423 -0.52454,-0.41302 -0.59266,-0.477361 -1.16681,-0.975683 -1.76025,-1.452173 -0.9408,-0.737733 -1.96178,-1.351995 -3.02973,-1.886141 -0.37535,-0.187732 -0.73397,-0.423005 -1.13647,-0.541851 -0.69718,-0.205856 -1.42596,-0.283514 -2.13893,-0.425272 -2.857714,-0.263422 -5.827006,-0.603245 -8.671123,0.0031 -1.575236,0.33586 -2.779001,0.863851 -4.274031,1.436754 -3.021576,1.220822 -5.776556,3.005008 -8.819597,4.169579 -1.050692,0.306144 -2.126266,0.722228 -3.231158,0.796277 -1.291069,0.08653 -2.536068,-0.275037 -3.763632,-0.60837 -3.208684,-1.271145 -5.459806,-3.885245 -7.477106,-6.578454 -0.902494,-1.437455 -1.799069,-2.949879 -3.501067,-3.545266 -1.311699,-0.458856 -2.0075,-0.294709 -3.418427,-0.258511 -4.294516,0.463857 -8.385802,1.946616 -12.62334,2.691873 -2.889615,-0.352168 -5.323208,-2.09347 -7.965292,-3.171155 -0.618799,-0.252402 -1.259125,-0.448424 -1.888685,-0.672635 -0.72779,-0.143113 -1.44779,-0.334026 -2.183366,-0.429339 -1.536486,-0.199091 -3.020581,-0.168603 -4.562671,-0.10092 -1.046784,0.04594 -2.738695,0.171222 -3.806735,0.353166 -0.469357,0.07996 -0.927791,0.214384 -1.391687,0.321574 -0.902067,0.542013 -1.281714,0.561798 -1.681205,1.608514 -0.120677,0.31619 -0.08221,0.671861 -0.123316,1.007792 -0.04132,1.413608 1.957824,1.472047 1.999146,0.05844 v 0 c -0.199923,-0.377304 -0.154319,-0.44145 0.263753,-0.72798 1.627303,-0.391602 3.107595,-0.543962 4.787079,-0.622059 1.387732,-0.06453 2.755985,-0.0993 4.139766,0.06584 0.637006,0.07602 1.261589,0.233685 1.892382,0.35053 0.571596,0.200592 1.153777,0.373238 1.714781,0.601779 3.015498,1.228455 5.78231,3.260289 9.155673,3.325662 4.145923,-0.742447 8.156107,-2.14775 12.348853,-2.662489 0.873149,-0.04622 1.609058,-0.179038 2.451579,0.05013 1.434891,0.390295 2.02016,1.846381 2.79373,2.956327 2.29703,3.049386 4.88384,5.947828 8.559697,7.309353 1.196975,0.315544 1.822889,0.53835 3.063353,0.635674 1.787155,0.140213 3.493339,-0.309329 5.167302,-0.889616 3.038115,-1.178764 5.811602,-2.914449 8.818459,-4.16914 1.220304,-0.471686 2.536135,-1.03614 3.823473,-1.321322 2.634099,-0.583527 5.39455,-0.242133 8.04459,-0.01759 0.546022,0.08784 1.106192,0.111979 1.638072,0.263533 0.37893,0.107973 0.71472,0.332142 1.0676,0.507423 0.95416,0.473951 1.86665,1.017548 2.70695,1.674942 0.78947,0.632423 1.53364,1.341223 2.36153,1.923762 0.22398,0.157599 0.45524,0.57609 0.69335,0.440787 0.56309,-0.319971 0.80559,-1.014298 1.20839,-1.521446 -0.90764,-1.162643 -2.38701,-2.532738 -3.87578,-2.790431 -0.47177,-0.08166 -0.95749,0.01318 -1.43624,0.01976 -0.3571,0.156522 -0.72581,0.288872 -1.07132,0.46957 -2.7979,1.463267 -5.078315,3.780575 -7.023786,6.220004 -1.348996,1.963716 -1.776743,2.454276 -2.884178,4.633266 -1.956413,3.84945 -3.133002,8.00952 -4.117596,12.19565 -1.419143,6.37622 -2.7304,12.88588 -5.989503,18.63188 -0.590259,0.91934 -1.125431,1.87648 -1.770779,2.75802 -1.087276,1.48522 -2.534454,3.03989 -3.942501,4.24148 -0.994121,0.84836 -2.132692,1.69662 -3.413617,2.07964 -0.495834,0.14827 -1.025488,0.1404 -1.538232,0.2106 -0.55404,-0.0755 -1.117211,-0.10106 -1.662118,-0.2265 -1.007202,-0.23187 -3.423795,-1.11892 -4.292465,-1.45977 -3.124504,-1.226 -6.165913,-2.65792 -9.144518,-4.20222 -1.253831,-0.70207 -2.530075,-1.36553 -3.761491,-2.10621 -2.729529,-1.64178 -5.277453,-3.39833 -7.786333,-5.36509 -2.605479,-2.04249 -5.45175,-4.48851 -7.696809,-6.93494 -1.041513,-1.13494 -1.939647,-2.39356 -2.909472,-3.59033 -1.568889,-2.38232 -2.78625,-3.87513 -3.73943,-6.52239 -0.280067,-0.77783 -0.398955,-1.60656 -0.530378,-2.42276 -0.358087,-2.22388 -0.246084,-4.49267 -0.428736,-6.73016 -0.320432,-4.229535 -0.815907,-8.490406 -2.630975,-12.381858 -0.576461,-1.055936 -0.984424,-2.080977 -1.980523,-2.839535 -1.207709,-0.919707 -2.785423,-0.517022 -4.024036,0.03624 -1.264911,0.632454 -0.370484,2.421307 0.894427,1.788853 z" />
    <path
       style="fill:#000000;stroke-width:0.264583"
       id="path282"
       d="m 35.702599,82.471963 c 2.56023,-0.399749 4.963864,-1.181111 7.082724,-2.710643 1.194559,-0.862314 1.941772,-1.657866 2.982452,-2.670207 0.250042,-0.248862 0.97858,-1.331862 1.668767,-1.231381 0.103277,0.01503 0.108402,0.178395 0.164558,0.266364 0.139546,0.21859 0.274513,0.440327 0.422523,0.65328 2.182945,3.140739 -0.443582,-0.769284 1.81704,2.628193 0.849955,1.289992 1.879584,2.387598 3.367619,2.918172 0.371089,0.132318 0.770927,0.162898 1.156388,0.244348 1.390893,0.255765 1.752602,-1.711256 0.361709,-1.967021 v 0 c -1.741824,-0.239131 -2.19914,-0.867696 -3.221217,-2.304299 -0.769755,-1.154276 -2.099691,-3.467018 -3.360283,-4.097332 -1.557803,-0.778923 -2.827366,0.420299 -3.773834,1.458193 -1.296649,1.269349 -2.578073,2.545733 -4.199636,3.408471 -1.500187,0.79816 -3.148555,1.112909 -4.797607,1.431073 -1.394974,0.232495 -1.066176,2.205283 0.328797,1.972789 z" />
    <path
       style="fill:#000000;stroke-width:0.264583"
       id="path284"
       d="m 70.459147,92.624345 c 4.171939,-1.687539 7.187448,-5.067067 10.174983,-8.292277 0.205576,-0.201073 1.291905,-1.469517 1.918089,-1.580126 0.0941,-0.01662 -0.05405,0.185608 -0.05606,0.281146 -0.0028,0.133483 -0.01003,0.275318 0.04183,0.398347 0.373914,0.886989 0.911463,1.69573 1.370237,2.541952 0.674037,1.243251 2.432262,0.290018 1.758222,-0.953233 v 0 c -0.55264,-1.019312 -1.609756,-3.44501 -2.708613,-3.933052 -1.609209,-0.714703 -2.84552,0.977596 -3.791104,1.886016 -2.778003,3.000393 -5.554773,6.189676 -9.425543,7.784536 -1.31995,0.507675 -0.60199,2.374366 0.717958,1.866691 z" />
    <path
       style="fill:#000000;stroke-width:0.264583"
       id="path286"
       d="m 42.64516,97.522918 c 0.127249,0.473027 0.221022,0.956355 0.381744,1.419082 1.46019,4.20396 3.772942,8.25901 6.232659,11.93718 0.890956,1.3323 1.856169,2.61342 2.784256,3.92013 4.031128,4.79719 1.864661,2.57014 6.488284,6.69197 1.057791,0.93865 2.385253,-0.55729 1.327465,-1.49595 v 0 c -4.385008,-3.87207 -2.314932,-1.76188 -6.185559,-6.35468 -0.907095,-1.27532 -1.84998,-2.52594 -2.721279,-3.82598 -2.571967,-3.83757 -4.807376,-7.91103 -6.307569,-12.291752 0,-1.414211 -2.000001,-1.414211 -2.000001,0 z" />
    <path
       style="fill:#000000;stroke-width:0.264583"
       id="path288"
       d="m 79.372644,108.36733 c -0.633341,2.68118 -1.136941,5.39117 -1.685467,8.09056 -0.281617,1.38589 1.678329,1.78416 1.959946,0.39826 v 0 c 0.539168,-2.65339 1.035741,-5.31677 1.652556,-7.95353 0.378507,-1.36262 -1.54853,-1.89791 -1.927035,-0.53529 z" />
    <path
       style="fill:#000000;stroke-width:0.264583"
       id="path290"
       d="m 73.870967,147.24278 c 0.104378,5.93958 0.894202,11.85457 1.617213,17.74474 0.786318,7.03889 2.261634,13.96397 3.808042,20.86627 1.358238,5.99212 2.756117,11.97506 4.132355,17.96301 1.280962,5.61107 2.701779,11.18875 4.193185,16.74717 1.598758,5.98895 3.480586,11.89582 5.303793,17.81877 1.407882,4.84023 2.640661,9.7288 3.841115,14.62379 0.360659,1.60919 0.766712,3.20759 1.163362,4.80812 0.340183,1.37269 2.281458,0.8916 1.941274,-0.48109 v 0 c -0.396258,-1.59896 -0.801999,-3.19576 -1.162195,-4.8034 -1.209688,-4.93261 -2.452217,-9.85871 -3.872069,-14.73582 -1.816055,-5.89971 -3.690889,-11.7833 -5.283612,-17.74869 -1.485284,-5.53505 -2.900043,-11.08934 -4.175676,-16.67685 -1.375486,-5.98435 -2.772409,-11.96375 -4.129915,-17.95227 -1.532213,-6.83835 -2.996195,-13.69887 -3.774567,-20.67273 -0.713401,-5.80929 -1.494274,-11.64324 -1.602306,-17.50102 0,-1.41421 -1.999999,-1.41421 -1.999999,0 z" />
  </g>
</svg>
