<?xml version="1.0" encoding="UTF-8" standalone="no"?>
<!-- Created with Inkscape (http://www.inkscape.org/) -->

<svg
   width="101.35998mm"
   height="160.03529mm"
   viewBox="0 0 101.35998 160.03529"
   version="1.1"
   id="svg372"
   inkscape:version="1.2.1 (9c6d41e410, 2022-07-14)"
   sodipodi:docname="dahlia.svg"
   xmlns:inkscape="http://www.inkscape.org/namespaces/inkscape"
   xmlns:sodipodi="http://sodipodi.sourceforge.net/DTD/sodipodi-0.dtd"
   xmlns="http://www.w3.org/2000/svg"
   xmlns:svg="http://www.w3.org/2000/svg">
  <sodipodi:namedview
     id="namedview374"
     pagecolor="#ffffff"
     bordercolor="#999999"
     borderopacity="1"
     inkscape:showpageshadow="0"
     inkscape:pageopacity="0"
     inkscape:pagecheckerboard="0"
     inkscape:deskcolor="#d1d1d1"
     inkscape:document-units="mm"
     showgrid="false"
     inkscape:zoom="0.74564394"
     inkscape:cx="376.85547"
     inkscape:cy="205.86233"
     inkscape:window-width="1278"
     inkscape:window-height="1008"
     inkscape:window-x="3193"
     inkscape:window-y="0"
     inkscape:window-maximized="0"
     inkscape:current-layer="layer1" />
  <defs
     id="defs369" />
  <g
     inkscape:label="Layer 1"
     inkscape:groupmode="layer"
     id="layer1"
     transform="translate(-45.318118,-64.900111)">
    <path
       style="fill:#000000;stroke-width:0.264583"
       id="path376"
       d="m 89.939967,111.60821 c -0.35275,0.92417 -0.738782,1.83631 -1.058256,2.77251 -1.329388,3.8957 -2.629781,8.4748 -3.675404,12.36317 -2.78724,10.36496 -5.117295,20.83219 -7.456204,31.30468 -4.031716,18.12026 -7.894873,36.28333 -11.065439,54.57603 -0.619691,3.69767 -1.166807,7.4058 -1.635125,11.12531 -0.176551,1.40315 1.807803,1.65283 1.984354,0.24968 v 0 c 0.463836,-3.68887 1.007489,-7.36623 1.621396,-11.03347 3.164512,-18.26118 7.022534,-36.39259 11.046727,-54.48163 2.33063,-10.43612 4.652391,-20.86693 7.428762,-31.19616 1.114877,-4.1478 2.257642,-8.14632 3.622191,-12.20164 0.283355,-0.84211 0.620101,-1.6653 0.93015,-2.49796 0.693336,-1.23259 -1.049816,-2.21311 -1.743152,-0.98052 z" />
    <path
       style="fill:#000000;stroke-width:0.264583"
       id="path378"
       d="m 94.425655,117.16749 c -2.170814,4.0615 -3.596047,8.50604 -4.823698,12.9277 -2.050677,7.38597 -2.463186,10.01868 -4.136147,17.91973 -3.730021,18.82516 -7.003375,37.73654 -10.560838,56.59448 -1.627169,7.99684 -0.824404,4.19295 -2.393378,11.41481 -0.300218,1.38198 1.654198,1.80655 1.954413,0.42457 v 0 c 1.576359,-7.25699 0.769943,-3.43516 2.404301,-11.46863 3.554663,-18.84346 6.825959,-37.74022 10.552154,-56.5511 1.661523,-7.85344 2.059948,-10.41413 4.091062,-17.74572 1.16954,-4.22161 2.532584,-8.44546 4.539596,-12.35337 0.821997,-1.15079 -0.805471,-2.31327 -1.627465,-1.16247 z" />
    <path
       style="fill:#000000;stroke-width:0.264583"
       id="path413"
       d="m 102.26277,101.72282 c -0.89677,-2.285147 -2.275661,-5.808114 -5.141368,-6.116253 -0.743299,-0.07993 -1.478904,0.219932 -2.218354,0.329899 -0.677997,0.527584 -1.494814,0.913939 -2.033992,1.582753 -2.29248,2.843661 -2.411365,6.660751 -1.014997,9.920971 1.300315,3.03597 2.860632,4.21668 5.097671,6.51574 1.858015,1.38752 3.45252,2.89791 5.76131,3.50908 0.80184,0.21225 1.70352,0.38277 2.48604,0.1077 0.82732,-0.29082 1.63587,-0.89999 2.016,-1.69026 1.19712,-2.48875 0.0633,-5.40308 -0.4479,-7.7873 -2.4619,-6.12201 -1.11138,-3.14819 -4.0374,-8.927879 -0.63969,-1.261263 -2.42339,-0.356594 -1.78369,0.904669 v 0 c 2.80904,5.52798 1.51858,2.70774 3.8697,8.46147 0.4289,1.8145 1.21827,4.01345 0.93449,5.9873 -0.056,0.38918 -0.18279,0.87409 -0.53339,1.05208 -0.49922,0.25344 -1.13428,0.20359 -1.67813,0.0706 -2.06164,-0.50406 -3.50434,-1.87009 -5.160952,-3.08973 -2.000912,-2.01133 -3.354906,-3.01906 -4.591198,-5.6285 -1.244315,-2.62638 -1.219745,-5.42679 0.381711,-7.885464 0.297649,-0.456973 0.775931,-0.766559 1.163894,-1.14984 0.37047,-0.133884 0.717892,-0.383897 1.111412,-0.401656 2.082768,-0.09399 3.299028,3.31506 3.921783,4.86706 0.44721,1.34164 2.34458,0.70918 1.89736,-0.63246 z" />
    <path
       style="fill:#000000;stroke-width:0.264583"
       id="path417"
       d="m 89.09243,100.0273 c -0.39878,-0.08765 -0.797917,-0.173697 -1.196342,-0.262957 -0.697222,-0.156202 -2.22409,-0.492281 -2.914103,-0.709313 -0.354824,-0.111604 -0.721875,-0.212013 -1.039693,-0.405268 -0.110228,-0.06703 -0.310986,-0.309993 -0.185446,-0.339706 0.165798,-0.03924 0.283834,0.188552 0.425751,0.282831 2.35707,-1.373727 5.025229,-1.752245 7.559024,-2.682366 1.81225,-0.863847 1.798061,-1.785303 2.362388,-3.518903 0.388887,-1.194657 0.307615,-0.929868 0.876956,-2.024827 0.424619,-0.371735 1.296974,-1.823106 2.069711,-1.263182 0.129757,0.09402 0.132535,0.291796 0.198345,0.437899 0.618368,1.372835 0.327126,0.606253 0.81379,2.398834 0.336312,1.063469 0.287723,2.189763 0.505293,3.271549 0.08662,0.430689 0.08617,0.928798 0.368501,1.265372 0.387792,0.462291 0.928979,0.858134 1.518955,0.984684 0.97074,0.208225 3.27746,-0.517848 4.16415,-0.752012 0.35601,-0.114017 4.70738,-1.001569 4.46556,0.217816 -0.0226,0.113837 -0.18705,0.146111 -0.24674,0.245642 -0.12295,0.205031 -0.19541,0.43639 -0.29311,0.654584 -0.51079,1.072618 -0.93434,2.243353 0.24836,3.167263 0.86673,0.67707 3.96108,0.88197 5.06826,1.0238 1.1148,0.23793 2.90132,0.31352 3.75919,1.24387 0.37355,0.40511 -0.20497,1.29375 -0.34769,1.62282 -0.60658,1.07027 -2.14833,2.15036 -1.75375,3.58182 0.29966,1.08707 1.07502,1.44514 1.89094,2.03479 1.39483,0.87911 3.81459,2.56248 2.9461,4.57649 -0.14819,0.34366 -0.44752,0.59998 -0.67128,0.89997 -0.37293,0.29381 -0.6976,0.66233 -1.11877,0.88144 -1.59363,0.82902 -3.31631,-0.0342 -4.81562,-0.59506 -0.41801,0.0595 -0.88483,-0.0263 -1.25403,0.17862 -0.84149,0.46691 -1.35624,1.66436 -1.78729,2.43164 -0.88469,1.57477 -1.83607,3.0661 -2.86717,4.54866 -0.28247,0.21575 -0.5085,0.54009 -0.8474,0.64726 -0.38822,0.12276 -0.50874,-0.64534 -0.67991,-1.01477 -0.23839,-0.51452 -0.50485,-1.01562 -0.74817,-1.52782 -0.26407,-0.55588 -0.48911,-1.13066 -0.77392,-1.6762 -0.24701,-0.47311 -0.54623,-0.91706 -0.81935,-1.37559 -0.95905,-0.8628 -1.0058,-1.20353 -2.42182,-1.2279 -0.9178,-0.0158 -1.33302,0.37678 -2.122648,0.65929 -0.167753,0.06 -0.347726,0.0779 -0.521589,0.1168 -1.370708,0.34807 -0.878453,2.28655 0.492255,1.93847 v 0 c 0.28353,-0.0772 0.573654,-0.13339 0.850592,-0.23166 0.12943,-0.0459 1.30691,-0.66205 1.4368,-0.62407 0.22304,0.0652 0.38122,0.26583 0.57184,0.39875 1.42503,2.35057 0.005,-0.0908 1.53177,2.94166 0.63547,1.26219 1.24384,2.82846 2.7653,3.36003 1.38758,0.48479 2.07501,-0.5075 2.9288,-1.24319 0.95468,-1.37577 1.23044,-1.72596 2.10636,-3.18665 0.3033,-0.50578 0.58491,-1.02428 0.87108,-1.53994 0.28827,-0.51944 0.8041,-1.07152 0.58777,-1.70016 1.04459,0.39075 2.10202,0.88935 3.22989,0.985 2.38443,0.20222 3.47474,-0.4649 5.11742,-2.11097 0.31803,-0.59748 0.77013,-1.14106 0.9541,-1.79242 0.15966,-0.56528 0.14128,-1.18127 0.0497,-1.76147 -0.33618,-2.12873 -2.1679,-3.52809 -3.85306,-4.60108 -0.24562,-0.15861 -0.46919,-0.35819 -0.73686,-0.47584 -0.13946,-0.0613 -0.52988,0.1668 -0.45491,-0.11237 0.23793,-0.88589 1.60801,-1.78861 1.79842,-2.70546 0.33265,-1.03572 0.71248,-1.66957 0.32788,-2.80544 -0.72574,-2.1434 -3.53455,-2.38062 -5.36681,-2.7231 -1.08475,-0.138948 -2.16653,-0.30314 -3.25413,-0.417668 -0.21647,-0.02281 -0.4451,-0.101944 -0.6521,-0.03463 -0.11296,0.03674 -0.073,0.351901 -0.18253,0.306052 -0.45318,-0.189611 1.05211,-1.888861 0.41091,-1.415307 0.31921,-1.099471 0.7461,-1.779246 0.0857,-2.935271 -1.13814,-1.992151 -4.74265,-1.099699 -6.41953,-0.760984 -0.62123,0.167399 -1.24313,0.332316 -1.86368,0.502197 -0.36434,0.09974 -0.74584,0.153072 -1.09095,0.306652 -0.13154,0.05854 -0.19974,0.416261 -0.29887,0.311841 -0.2268,-0.2389 -0.23534,-0.618688 -0.29923,-0.941845 -0.23399,-1.183561 -0.18928,-2.413871 -0.568459,-3.574484 -0.366498,-1.198422 -0.596627,-2.568072 -1.588593,-3.479681 -2.057826,-1.891123 -3.924006,-0.08589 -5.195485,1.556258 -0.65849,1.312476 -0.573373,1.016347 -1.012322,2.3636 -0.112848,0.34636 -0.219107,0.695153 -0.31101,1.047646 -0.174448,0.669103 -0.114035,0.822564 -0.82868,1.165323 -0.342987,0.128265 -0.67985,0.274286 -1.028965,0.384792 -2.082734,0.659244 -4.931198,1.085786 -6.67744,2.439598 -0.424252,0.328912 -0.72222,0.794409 -1.083329,1.191615 0.01527,0.54424 -0.153331,1.125977 0.04577,1.632722 0.287321,0.731284 1.577176,1.119384 2.176295,1.307184 1.361179,0.42668 2.779544,0.64925 4.16323,0.98522 1.377995,0.318 1.827715,-1.63079 0.449717,-1.94879 z" />
    <path
       style="fill:#000000;stroke-width:0.264583"
       id="path419"
       d="m 79.858213,109.1892 c -0.156657,0.0273 -2.579402,0.45095 -2.700253,0.46808 -0.376441,0.0533 -0.756184,0.1568 -1.134438,0.11838 -0.07779,-0.008 -0.06186,-0.17783 -0.0079,-0.23441 0.06607,-0.0693 0.188177,-0.0356 0.282265,-0.0534 0.115229,-0.15926 0.230455,-0.31852 0.345684,-0.47778 0.649697,-1.39056 2.255996,-3.13407 1.161902,-4.74892 -0.516142,-0.76182 -1.47306,-1.02261 -2.258092,-1.33146 -0.06241,-0.1048 -0.298993,-0.26554 -0.18723,-0.31438 0.156424,-0.0684 0.309041,0.22191 0.476356,0.18803 0.301916,-0.0611 0.541441,-0.29409 0.808217,-0.4481 0.798994,-0.46127 2.292835,-1.30392 2.984887,-1.93044 0.394816,-0.35743 0.687146,-0.813866 1.030721,-1.2208 0.176326,-0.434742 0.438618,-0.843873 0.528979,-1.304227 0.188746,-0.961596 -0.03406,-1.972786 -0.224729,-2.905638 -0.267711,-1.30979 -0.594199,-2.597311 -0.826392,-3.915113 -1.019596,0.796348 0.40169,-1.842469 -0.06207,-1.58708 -0.188653,0.103889 -0.961855,0.970939 -0.791133,1.371082 0.155991,0.365614 0.414422,0.678484 0.627235,1.014219 0.235159,0.370994 0.477737,0.737235 0.716605,1.105855 0.461849,0.237189 0.869426,0.655122 1.385541,0.711565 2.621894,0.28674 3.467158,-3.051193 4.148293,-4.807524 1.218219,-3.141218 0.372372,-1.294159 1.590197,-3.774342 0.917339,-1.451157 1.317003,-1.299088 2.859495,-1.887156 1.218533,-0.464561 2.430062,-0.947293 3.645339,-1.420305 0.512265,-0.09404 1.019995,-0.346747 1.536795,-0.282122 0.55667,0.06961 0.803103,1.255466 0.948042,1.511011 0.246814,0.435163 0.535887,0.848868 0.859636,1.230273 1.081675,1.2743 0.95721,0.946232 2.669575,1.35514 1.25851,-0.09947 2.44726,-0.506529 3.62883,-0.918485 0.10284,-0.03585 -0.22259,0.14787 -0.31431,0.08915 -1.10096,-0.704964 -0.57098,-1.306872 -1.1076,-0.221832 0.0159,0.369308 -0.18756,0.822878 0.0478,1.107924 1.10714,1.340906 1.96761,0.612024 3.16467,0.07746 0.62181,-0.277678 1.20142,-0.64896 1.8361,-0.8958 1.64872,-0.641226 1.442,-0.519462 2.91085,-0.394946 0.18546,0.15807 0.46883,0.246798 0.55639,0.474215 0.0935,0.242922 -0.0572,0.517615 -0.0746,0.777338 -0.0317,0.474678 -0.0311,0.951434 -0.0725,1.425363 -0.0667,0.763524 -0.42165,2.262325 -0.0163,3.045302 0.27396,0.529185 0.83095,0.854323 1.24642,1.281483 0.66838,0.127735 1.33098,0.290665 2.00513,0.383204 1.08375,0.148761 2.14052,-0.190448 2.87125,0.867539 0.24413,0.353468 0.40588,2.445417 0.46019,2.675112 0.12414,0.525034 0.35428,1.019202 0.53142,1.528802 0.24496,0.378587 0.39062,0.844537 0.73489,1.135759 1.45505,1.230823 3.30508,0.899271 5.03567,1.042109 1.50634,0.124328 1.20943,0.09256 2.37217,0.62815 0.80206,0.505895 0.88404,1.323015 1.28562,2.107225 0.36029,0.70357 0.83865,1.4264 1.25448,2.08875 0.87994,1.63309 2.14976,3.44635 2.25801,5.35505 0.0199,0.35196 0.0824,0.74083 -0.0782,1.05467 -0.12541,0.24518 -0.4614,0.3008 -0.69211,0.45119 -1.2423,0.70118 -0.98424,0.63893 -2.35303,1.07566 -0.8796,0.28064 -1.742,0.31115 -2.38822,1.12385 -1.0162,1.27802 -0.84424,2.23927 -0.95122,3.76077 0.0316,2.07506 0.29926,4.13332 0.5133,6.19394 0.0986,0.94926 0.33376,2.01818 -0.0279,2.94004 0.14972,-0.26297 0.46498,-0.48673 0.44915,-0.78893 -0.0109,-0.20801 -0.33244,-0.25208 -0.50942,-0.36194 -1.5824,-0.98225 -2.64276,-1.29247 -4.47731,-0.38415 -0.69776,0.34548 -1.25357,0.92384 -1.88036,1.38576 -1.20729,0.82407 -2.30945,3.00314 -3.79096,3.40318 -0.27146,0.0733 -1.06034,-0.67344 -1.22127,-0.79253 -0.38127,-0.10124 -0.7501,-0.32822 -1.14382,-0.30372 -1.6842,0.1048 -2.961,1.42808 -4.20303,2.3862 -0.35687,0.27529 -0.69119,0.58963 -1.08908,0.80136 -0.22601,0.12027 -0.49842,0.11732 -0.74763,0.17599 -0.43694,-1.0753 -0.2453,-0.94208 -1.65999,-1.7795 -2.81537,-1.66655 -5.251596,-1.15081 -8.237088,-0.46172 -1.455026,0.46038 -1.730031,0.43807 -1.149022,-0.50521 -0.211905,-1.39825 -2.189327,-1.09858 -1.977422,0.29967 v 0 c 0.190762,0.57829 0.177353,1.27136 0.572283,1.73487 0.933572,1.09569 1.915949,0.6168 3.011371,0.41771 1.615985,-0.38689 3.404028,-0.89611 5.082498,-0.5171 1.96225,0.44307 2.9474,2.3209 4.95328,2.72043 0.44606,-0.15835 0.92039,-0.25256 1.33816,-0.47506 0.47598,-0.2535 1.85409,-1.43919 2.27698,-1.7605 0.32863,-0.24969 0.67874,-0.46994 1.01216,-0.71322 0.15563,-0.11355 0.28059,-0.27415 0.45455,-0.35695 0.10695,-0.0509 0.23617,-0.0187 0.35426,-0.028 1.05639,0.72025 2.05148,1.32908 3.40526,0.87021 1.63797,-0.55519 2.70504,-2.49185 3.97961,-3.53212 0.3609,-0.29567 1.583,-1.44729 2.26221,-1.57297 0.29506,-0.0546 0.60739,0.044 0.88723,0.15225 0.36576,0.14155 0.67326,0.40328 1.02032,0.58595 1.69324,0.89117 0.90472,0.7114 2.94474,-0.0319 0.0777,-0.30408 0.19637,-0.60054 0.23313,-0.91222 0.10461,-0.88713 -0.0455,-1.95396 -0.13494,-2.81529 -0.20314,-1.9552 -0.45615,-3.9079 -0.50365,-5.87589 8e-5,-0.004 -0.002,-2.00322 0.11986,-2.23454 0.33738,-0.63913 1.4299,-0.70826 1.92325,-0.87562 1.81762,-0.61658 1.47244,-0.54465 3.15034,-1.62417 0.39709,-0.55988 0.94386,-1.03936 1.19125,-1.67962 0.18291,-0.47339 0.0915,-1.01638 0.0457,-1.52181 -0.20058,-2.21565 -1.47926,-4.15703 -2.53008,-6.04845 -0.2417,-0.38391 -0.87185,-1.35568 -1.12097,-1.83863 -0.0632,-0.12255 -0.66568,-1.511864 -0.6862,-1.545961 -0.55778,-0.926754 -0.76105,-0.932828 -1.6508,-1.590535 -1.6084,-0.634815 -1.27312,-0.632248 -3.08645,-0.783619 -0.938,-0.0783 -1.88232,-0.05018 -2.82155,-0.111969 -0.20755,-0.01365 -0.44801,0.05884 -0.62148,-0.05593 -0.23845,-0.157761 -0.33857,-0.460825 -0.50785,-0.691237 -0.14439,-0.379233 -0.33806,-0.743215 -0.43318,-1.137701 -0.40414,-1.676127 -0.0675,-2.703393 -1.4228,-4.10837 -1.27877,-1.3257 -3.09307,-1.098246 -4.71762,-1.146609 -0.66354,0.08412 -0.62398,0.228415 -0.60928,-0.892366 0.008,-0.594783 0.17129,-1.178893 0.20358,-1.772851 0.0759,-1.39523 0.1815,-2.786081 -0.82662,-3.962786 -0.36467,-0.425651 -1.00141,-0.50382 -1.50212,-0.755729 -0.60498,-0.0068 -1.21698,-0.112475 -1.81494,-0.02035 -1.3736,0.211622 -2.65037,0.86315 -3.85998,1.498108 -0.27536,0.144547 -0.70342,0.188442 -0.79701,0.485024 -0.0844,0.267427 0.27505,0.48878 0.41258,0.733171 -0.0586,0.09013 -0.11716,0.18026 -0.17574,0.270391 0.46063,-0.987666 0.8366,-1.307775 -0.13064,-2.558945 -0.34915,-0.451638 -3.07628,0.68861 -3.63221,0.76303 -0.18691,0.03997 -0.38362,0.191807 -0.560714,0.119922 -1.033177,-0.419378 -1.902132,-2.835931 -2.671617,-3.457051 -0.522589,-0.421828 -1.206122,-0.674651 -1.87471,-0.738111 -0.636887,-0.06045 -1.253948,0.254426 -1.880923,0.38164 -1.205138,0.469064 -2.406801,0.947121 -3.614823,1.408711 -0.583115,0.222813 -1.803937,0.61618 -2.36879,1.000879 -0.793774,0.540607 -1.050772,1.094428 -1.593414,1.884992 -1.162346,2.398083 -0.602046,1.109369 -1.657379,3.928179 -0.0674,0.180033 -1.053256,3.247879 -1.613762,3.645831 -0.105035,0.07458 -0.251291,0.05681 -0.376936,0.08522 -0.451051,-0.695828 -1.879518,-3.338766 -2.738229,-3.399912 -2.072407,-0.147568 -1.502156,1.905355 -1.40013,2.932182 0.235419,1.324361 0.54524,2.621187 0.830006,3.934941 0.0357,0.164693 0.332909,1.545236 0.309581,1.857415 -0.01887,0.252283 -0.137575,0.48691 -0.206364,0.730364 -0.861544,1.153488 -0.486693,0.830603 -1.952308,1.78581 -1.542285,1.005182 -4.093996,1.864802 -3.206149,4.291012 0.135673,0.37075 0.597966,0.51563 0.896951,0.77345 0.662117,0.23547 0.600247,0.2879 1.15036,0.30152 0.08716,0.002 0.253005,-0.10127 0.261144,-0.0145 0.08105,0.86435 -1.270598,2.44479 -1.498891,3.26954 -0.129244,0.54864 -0.435023,1.08424 -0.387734,1.6459 0.09187,1.09122 0.897848,1.61935 1.869385,1.76135 0.418912,0.0612 0.843579,-0.0769 1.262758,-0.13624 0.145121,-0.0206 2.596859,-0.45058 2.752916,-0.47788 1.38675,-0.27735 0.994518,-2.23851 -0.392232,-1.96116 z" />
    <path
       style="fill:#000000;stroke-width:0.264583"
       id="path421"
       d="m 103.77603,126.61667 c 0.59802,0.9433 1.23253,1.5907 2.07226,2.31107 1.08846,0.90292 2.36538,-0.63639 1.27692,-1.53931 v 0 c -0.66489,-0.52371 -1.19758,-1.13253 -1.66186,-1.84551 -0.75925,-1.19312 -2.44657,-0.11937 -1.68732,1.07375 z" />
    <path
       style="fill:#000000;stroke-width:0.264583"
       id="path423"
       d="m 114.94726,118.53317 c 0.53061,0.0702 1.10168,0.42549 1.59184,0.21051 0.59016,-0.25883 0.73992,-1.79189 0.82582,-2.29048 0.0415,-0.24109 0.35878,-0.78837 0.12287,-0.72358 -1.29019,0.35435 -0.85445,0.84339 -0.57857,1.37595 1.23725,1.5552 2.72048,3.72895 4.62741,1.11467 0.56199,-0.77046 0.8275,-3.66474 0.93737,-4.48951 0.3527,-1.7912 -0.0411,-4.13205 1.21671,-5.66058 0.18431,-0.22398 0.73989,-0.59517 0.96806,-0.75735 0.71832,-0.45928 1.30469,-0.64922 0.26154,-2.11539 -0.27916,-0.39236 -0.92191,-0.28387 -1.39379,-0.37981 -0.1318,-0.0268 -2.63466,-0.33988 -2.77612,-0.38954 -0.20791,-0.073 -0.32202,-0.30087 -0.48304,-0.4513 0.33706,-1.76726 1.42287,-3.29104 1.86007,-5.025103 0.0857,-0.339987 0.0951,-0.694767 0.1427,-1.042151 0.15872,-1.405279 -1.82865,-1.629736 -1.98736,-0.224457 v 0 c -0.0145,0.202507 0.005,0.410446 -0.0436,0.607521 -0.44944,1.8146 -2.05309,3.93714 -1.78633,5.84633 0.0757,0.54197 0.45878,0.99368 0.68818,1.49052 0.44002,0.2592 0.83973,0.60417 1.32007,0.7776 0.44372,0.16022 0.93317,0.13945 1.4004,0.20467 1.07449,0.14999 2.52236,0.73296 2.15593,-1.26266 -0.0389,-0.212 -0.3617,0.23455 -0.54255,0.35183 -0.606,0.4552 -1.04847,0.72725 -1.51619,1.3693 -1.33404,1.83127 -1.17931,4.27658 -1.46795,6.40253 -0.0891,0.70375 -0.15775,1.41039 -0.26741,2.11123 -0.0755,0.48295 -0.3352,0.95141 -0.28788,1.43793 0.0243,0.24941 0.47291,0.3251 0.48371,0.57545 0.007,0.1576 -0.33169,-0.0102 -0.4631,-0.0975 -0.55755,-0.37028 -1.22195,-1.30247 -1.59802,-1.77299 -0.38806,-0.33767 -0.65326,-0.95332 -1.16419,-1.01301 -1.72228,-0.20118 -1.65266,0.48608 -1.80215,1.4134 -0.0449,0.27826 -0.1641,0.55615 -0.12846,0.83575 0.0632,0.49601 3.03679,-1.52871 1.39904,0.54123 -0.72761,-1.21268 -2.4426,-0.18369 -1.71499,1.02899 z" />
    <path
       style="fill:#000000;stroke-width:0.264583"
       id="path425"
       d="m 109.22581,92.543293 c -0.0161,-1.047128 0.32224,-3.847711 -1.17862,-4.191278 -1.37407,-0.314542 -2.14578,0.43647 -3.16815,1.07914 -0.005,-0.05911 -1.99686,1.534472 -2.13893,1.0765 -0.0292,-0.09416 0.18581,-0.141052 0.17428,-0.238961 -0.0183,-0.155017 -0.72009,-1.239147 -0.73974,-1.270675 -0.748,-1.200211 -2.445348,-0.142388 -1.69736,1.057823 v 0 c 0.644,1.033335 1.0821,2.103292 2.40721,2.446594 0.97214,0.251854 2.38509,-0.935286 3.08575,-1.395193 0.31673,-0.216326 0.69582,-0.361902 0.95019,-0.648975 0.16006,-0.180639 -0.16818,-0.903391 0.0991,-0.647592 0.56886,0.544457 0.049,2.022861 0.20627,2.732617 0,1.414214 2.00001,1.414214 2.00001,0 z" />
    <path
       style="fill:#000000;stroke-width:0.264583"
       id="path427"
       d="m 91.214029,88.337796 c -1.061149,-1.421222 -2.153113,-3.771733 -4.382577,-3.010066 -0.5256,0.179564 -0.903613,0.646131 -1.355421,0.969195 -0.983361,1.149702 -1.539258,2.536552 -2.128977,3.90529 -0.558507,1.299257 1.278921,2.089102 1.837428,0.789844 v 0 c 0.465738,-1.086135 0.90516,-2.194242 1.585491,-3.170105 0.134742,-0.174604 0.269571,-0.349139 0.404223,-0.523811 0.07179,-0.09312 0.09784,-0.270812 0.21509,-0.27957 0.679966,-0.05079 1.652432,1.843821 2.109756,2.348214 0.727607,1.212678 2.442594,0.183687 1.714987,-1.028991 z" />
    <path
       style="fill:#000000;stroke-width:0.264583"
       id="path429"
       d="m 86.205472,114.83999 c -1.66192,0.39886 -3.034414,1.54702 -4.684514,1.96662 -0.06738,0.0171 0.113448,-0.14887 0.174082,-0.11487 0.307107,0.17225 0.54424,0.44692 0.816359,0.67038 -0.03623,-0.25835 0.02373,-0.55026 -0.108683,-0.77504 -0.890595,-1.51184 -1.659022,-1.10066 -3.483131,-1.00701 -1.086496,0.0558 -2.163032,0.23645 -3.246004,0.34015 -4.379587,0.4194 -2.536462,0.45407 -6.41002,-0.0475 -0.331952,-0.37928 -0.846815,-0.65634 -0.995852,-1.13783 -0.137814,-0.44522 0.100319,-0.92993 0.216059,-1.38139 1.189069,-4.63823 -0.01728,0.81481 1.404781,-3.57977 0.148328,-0.45838 0.356753,-0.96297 0.228028,-1.42723 -0.164671,-0.5939 -0.697603,-1.01622 -1.046403,-1.52433 -2.112097,-0.99138 -5.642356,-1.15146 -6.834687,-3.48065 -0.609405,-1.19046 -0.263771,-2.35166 -0.124765,-3.585655 0.529749,-1.832279 1.751976,-5.489342 3.675841,-6.374437 0.674653,-0.310382 1.680133,0.121018 2.260695,0.277445 2.422543,0.784506 5.435907,3.03688 8.045376,2.54277 0.531042,-0.100555 1.119222,-0.249864 1.487376,-0.645562 0.538348,-0.578628 0.718669,-1.40784 1.078005,-2.111761 0.4328,-2.507358 0.436232,-5.064961 0.300818,-7.598307 -0.0057,-0.105981 0.06934,0.250164 -0.01214,0.318167 -0.281363,0.234826 -0.650579,0.337611 -0.975865,0.506418 0.421428,-0.117549 0.955706,-0.04249 1.26429,-0.352645 0.472577,-0.474988 0.642395,-1.180417 0.883121,-1.805712 0.18956,-0.492385 0.969129,-3.456811 1.125963,-3.970663 0.456772,-1.496555 0.09718,-1.164672 0.77901,-1.6382 0.489038,0.657839 -0.824759,0.209812 -0.810932,0.532985 0.0094,0.219554 0.167315,0.409043 0.28597,0.594011 0.440624,0.686869 0.922845,1.280361 1.958763,1.070742 0.632262,-0.127942 1.106898,-0.662779 1.660345,-0.994169 0.96266,-0.906796 1.751777,-1.973123 2.663124,-2.926612 0.322847,-0.337772 0.631759,-0.700638 1.017902,-0.963724 0.136959,-0.09331 0.4385,-0.222128 0.492834,-0.06556 0.05796,0.167018 -0.365119,0.183112 -0.391366,0.357944 -0.03562,0.237252 0.157017,0.453403 0.235527,0.680106 0.239556,0.304345 0.362341,0.761241 0.718672,0.913032 2.059995,0.877538 3.502591,-0.629973 5.119026,-1.577488 1.260591,-0.738928 1.118886,-0.628684 2.337427,-1.005486 0.130376,0.05982 0.28948,0.07824 0.391125,0.179451 0.07686,0.07654 0.04886,0.214025 0.100068,0.30965 0.101442,0.189431 0.226574,0.365747 0.354182,0.538634 0.517716,0.701405 0.86328,1.189164 1.823162,1.434597 0.601489,0.153797 1.240249,0.05954 1.860379,0.08932 1.80338,-0.04571 4.85584,-1.622899 6.5481,-1.136772 1.01374,0.291214 1.21753,3.257786 1.31425,3.951351 0.0813,1.631522 -0.0331,3.730628 1.90318,4.433919 1.76141,0.639792 4.43137,-0.51186 6.09746,-1.043151 0.61694,-0.10554 1.22417,-0.444042 1.77443,-0.02363 0.0643,0.04916 0.0497,0.154164 0.0773,0.230293 0.23826,0.657214 0.30761,0.810339 1.53105,0.916665 0.62419,0.05425 1.23132,-0.232503 1.84697,-0.348753 0.51438,-0.166372 2.29682,-0.799306 2.95656,-0.823068 0.16446,-0.0059 0.50279,0.08013 0.43644,0.230724 -0.0958,0.21752 -0.52539,0.07657 -0.65855,0.273463 -0.27512,0.4068 -0.29395,0.937887 -0.4706,1.396114 -0.30123,0.781375 -0.64151,1.54713 -0.96227,2.320695 -0.34066,0.778091 -1.53614,3.317684 -1.71599,4.348797 -0.0771,0.442095 -0.20525,0.995706 0.0777,1.344065 1.22505,1.508445 2.17221,0.84456 3.58355,0.397557 0.51521,-0.163181 1.02171,-0.352732 1.53256,-0.529097 0.33222,-0.0032 0.66958,-0.06795 0.99665,-0.0096 0.55666,0.0993 0.55574,0.374685 0.94658,0.674587 0.30601,0.234812 0.61433,0.474938 0.96003,0.646033 1.20294,0.59536 1.89216,0.649007 3.21346,0.929127 0.73046,0.21178 1.78699,0.301678 2.23939,1.088435 0.24039,0.418063 -0.10982,1.836542 -0.16343,2.071613 -1.28569,5.637472 0.42156,-2.479796 -0.69082,2.899132 0.14086,0.51422 0.10401,1.11514 0.42258,1.54266 1.45854,1.95734 4.98935,1.91635 6.89185,3.38522 0.29976,0.23143 0.45332,0.60677 0.67997,0.91015 -0.92906,1.4896 -2.30234,2.5952 -3.51137,3.83736 -0.3095,0.31798 -0.63817,0.62422 -0.89177,0.98835 -0.23216,0.33334 -0.36862,0.72401 -0.55293,1.08601 0.0182,0.50328 -0.0598,1.01937 0.0545,1.50982 0.12075,0.51801 0.41164,0.98129 0.63837,1.46245 0.3698,0.78478 1.05706,2.00016 1.38382,2.8072 0.17064,0.42144 0.37456,0.84501 0.42159,1.29726 0.0283,0.27171 -0.13609,0.52915 -0.20413,0.79372 -0.17175,-0.007 -0.34335,-0.0233 -0.51523,-0.0214 -1.06782,0.0115 -0.74953,0.19333 -1.79688,-0.35666 -0.49927,-0.26218 -1.73583,-1.22625 -2.39334,-1.11719 -0.65212,0.10818 -1.16404,0.62679 -1.74606,0.94018 -1.26696,2.45522 -1.05197,5.2773 -1.89066,7.86624 -0.4483,1.38387 -0.16695,1.38726 -0.87076,0.9476 -1.42211,-1.44575 -0.41766,-0.45887 -2.66519,-2.48092 -1.45983,-1.31338 -2.21468,-2.36138 -4.15972,-2.87722 -0.62495,-0.16574 -1.32342,-0.25844 -1.93874,-0.0599 -0.69617,0.22464 -1.19584,0.84287 -1.79376,1.26431 -1.08676,1.9562 -1.04408,1.59563 -1.61828,3.69069 -0.39058,1.42513 -0.13305,1.24242 -0.61169,2.1851 -0.0502,0.0988 0.0289,-0.24438 0.1174,-0.31118 0.24253,-0.18314 0.54712,-0.26477 0.82067,-0.39715 -0.52074,-1.07332 -1.16672,-2.77138 -2.76722,-2.53127 -1.97989,0.29702 -4.14201,3.61533 -5.26043,5.05438 -1.01285,1.19175 -1.78661,2.56852 -2.7778,3.77672 -0.27272,0.33242 -0.54666,0.68165 -0.90524,0.91892 -0.12251,0.0811 0.0783,-0.28537 0.14533,-0.41607 0.7986,-1.55624 0.45161,0.10227 0.43906,-2.77749 -0.005,-0.35148 0.58346,-4.68274 -0.53538,-4.66233 -2.18488,0.0399 -3.36438,2.21567 -4.48143,3.59544 -0.81128,1.00209 -1.6141,2.011 -2.42115,3.0165 -1.416312,1.70984 -2.608543,3.43855 -4.424621,4.7428 -0.381085,0.27368 -0.857362,0.74275 -1.290392,0.56217 -0.314928,-0.13133 0.269251,-0.64562 0.272079,-0.98682 0.0061,-0.73306 -0.194646,-1.45417 -0.24579,-2.18546 -0.06422,-0.91822 -0.0667,-1.83971 -0.100044,-2.75956 -0.09916,-0.78372 0.196106,-4.17649 -1.120725,-4.54624 -1.560189,-0.43809 -1.823548,0.66357 -2.971062,1.02149 0.840135,-0.28729 0.799542,0.13673 0.848995,-0.67995 -0.0079,-1.41419 -2.007904,-1.40297 -1.999966,0.0112 v 0 c 0.06826,1.78963 -0.05445,2.1853 1.914321,2.51733 0.127606,-0.0584 1.366009,-0.5487 1.415809,-0.84621 0.03511,-0.20975 -0.353444,-0.26386 -0.447805,-0.45445 -0.04446,-0.0898 0.05241,-0.38654 0.07923,-0.28999 0.217622,0.78342 0.254389,2.79143 0.282723,3.34476 0.04161,1.00162 0.0038,2.00971 0.12482,3.00486 0.23369,1.92095 0.260247,4.2 2.80266,4.65694 0.653404,0.11743 1.244629,-0.50005 1.781249,-0.8909 1.894898,-1.38015 3.155639,-3.17999 4.638259,-4.9701 0.80355,-1.00117 1.6038,-2.00499 2.41063,-3.00351 0.64486,-0.79806 1.52336,-1.45052 1.94443,-2.38617 0.15229,-0.33842 -0.31072,-0.67827 -0.40368,-1.03754 -0.0314,-0.12155 0.031,-0.50004 0.0382,-0.3747 0.0755,1.31159 -0.0325,2.25872 -0.11115,3.63237 0.0381,1.49111 -0.2668,3.60216 1.22304,4.71683 1.46998,1.09982 3.47919,-2.34307 3.97192,-3.01319 0.49351,-0.67117 0.98894,-1.34093 1.4834,-2.0114 6.21369,-8.01736 -2.43411,3.07366 2.93841,-3.62665 0.16979,-0.21175 0.29631,-0.45513 0.45606,-0.67455 0.0674,-0.0926 0.12524,-0.31741 0.22449,-0.26021 0.42298,0.2438 1.08552,1.74899 1.19725,1.96888 0.59909,0.3267 1.11998,0.89681 1.79725,0.98011 0.33105,0.0407 0.5552,-0.3935 0.74561,-0.66736 0.38305,-0.55095 0.53018,-1.80753 0.6712,-2.34982 0.13358,-0.51365 0.27676,-1.02628 0.46092,-1.52405 0.16013,-0.43283 0.37984,-0.84123 0.56975,-1.26185 0.17106,-0.25535 0.24523,-0.61549 0.51317,-0.76606 0.31166,-0.17514 0.71567,-0.1942 1.06561,-0.12114 1.70971,0.35699 2.36623,1.40785 3.67277,2.56179 0.73592,0.64997 1.39507,1.40748 2.22935,1.92521 0.73017,0.45314 1.59869,0.63097 2.39803,0.94645 0.52845,-0.30052 1.17295,-0.45492 1.58535,-0.90157 0.35179,-0.381 0.4225,-0.94949 0.57998,-1.44357 0.71721,-2.25014 0.80841,-4.6195 1.32849,-6.91045 -0.0796,-0.16247 -0.40916,-0.42688 -0.23869,-0.48742 0.2896,-0.10285 0.60651,0.12824 0.88516,0.25783 0.53302,0.24789 0.98776,0.65371 1.53524,0.8678 1.13999,0.44579 2.39005,0.72686 3.54365,0.0695 0.54874,-0.3127 0.88934,-0.89703 1.33402,-1.34554 0.0398,-0.56072 0.18828,-1.12426 0.11942,-1.68215 -0.066,-0.53468 -0.31342,-1.03243 -0.51608,-1.53159 -0.57152,-1.4077 -1.36704,-2.72835 -2.06689,-4.07311 0.0756,-0.19731 0.10677,-0.41797 0.22671,-0.59191 0.39024,-0.56599 1.51227,-1.5609 1.93273,-1.98344 0.7929,-0.79682 2.19337,-2.1289 2.51324,-3.25191 0.20338,-0.71407 -0.007,-1.48493 -0.0106,-2.22739 -0.4293,-0.46335 -0.78284,-1.01069 -1.2879,-1.39004 -0.82289,-0.6181 -2.6372,-1.22097 -3.57898,-1.55897 -0.52128,-0.18709 -1.04206,-0.37615 -1.56905,-0.54652 -0.25914,-0.0838 -0.55161,-0.0805 -0.78812,-0.21553 -0.15564,-0.0889 -0.22076,-0.28242 -0.33114,-0.42363 0.0896,-0.43738 0.16712,-0.87739 0.26866,-1.31214 0.28287,-1.21121 0.80188,-2.586578 0.59605,-3.866593 -0.34095,-2.120317 -1.9513,-2.828329 -3.8049,-3.242415 -0.73211,-0.145918 -1.79373,-0.29676 -2.50739,-0.634058 -0.34478,-0.16296 -1.53922,-1.075976 -1.77248,-1.248958 -1.23606,-0.600649 -1.54516,-0.390284 -2.89343,-0.28884 -0.50772,0.175289 -1.02049,0.336557 -1.52314,0.525867 -0.34468,0.129818 -0.79073,0.140695 -1.01744,0.430977 -0.16382,0.209759 0.13368,0.540814 0.059,0.796269 -0.0437,0.149339 -0.19329,-0.284192 -0.16403,-0.437005 0.20853,-1.088813 1.31454,-3.413392 1.66978,-4.225173 0.25484,-0.622438 1.64215,-3.688458 1.57834,-4.623798 -0.24564,-3.600494 -3.13231,-2.125821 -5.20068,-1.47951 -0.3228,0.111411 -0.67652,0.157004 -0.96841,0.334238 -0.0946,0.05746 -0.0136,0.382032 -0.10243,0.31596 -0.24614,-0.183071 -0.28896,-0.551939 -0.50614,-0.768583 -1.09797,-1.095272 -2.39162,-0.989375 -3.79036,-0.617572 -1.579,0.50623 -1.9445,0.652198 -3.50738,1.047404 -0.30727,0.0777 -0.6152,0.15989 -0.92967,0.199379 -0.16864,0.02119 -0.40382,0.11443 -0.50955,-0.01865 -0.48032,-0.604512 -0.44107,-2.586964 -0.46817,-3.017644 -0.3805,-2.304765 -0.59717,-4.942989 -3.38524,-5.645386 -1.81622,-0.457557 -4.60088,0.945851 -6.46599,1.134586 -0.33489,0.0362 -1.14111,0.245415 -1.527,-0.0426 -0.13631,-0.10174 -1.132344,-1.480166 -1.148915,-1.495869 -1.093277,-1.03591 -1.040977,-0.799965 -2.457842,-0.915697 -0.440801,0.148003 -0.896408,0.257617 -1.3224,0.444003 -1.198023,0.524171 -1.776106,0.990407 -2.872841,1.683326 -0.319791,0.202044 -0.697182,0.327592 -0.968949,0.590715 -0.12079,0.116948 0.02679,0.479745 -0.141277,0.484195 -0.21363,0.0057 -0.291502,-0.312579 -0.437256,-0.468871 -0.593809,-1.135316 -0.688062,-1.933554 -2.294421,-2.095592 -0.444106,-0.0448 -0.866635,0.263871 -1.236785,0.513326 -0.434131,0.292571 -0.773342,0.706998 -1.135266,1.085257 -0.8222,0.859308 -1.544772,1.810351 -2.376604,2.661131 -0.140652,0.195718 -0.343122,0.359395 -0.421955,0.587153 -0.03988,0.115221 0.215557,0.325991 0.09661,0.352796 -0.258519,0.05826 -0.353157,-0.666176 -0.689284,-1.101569 -1.057452,-1.369745 -0.773726,-1.033121 -2.358845,-0.784532 -0.228063,0.293743 -0.518158,0.548468 -0.684186,0.881232 -0.330277,0.661963 -0.906222,2.919023 -1.073193,3.512878 -0.17142,0.609692 -0.368135,1.212482 -0.523216,1.826535 -0.07374,0.291989 -0.278572,0.61083 -0.162533,0.888733 0.07666,0.183586 0.389567,0.08098 0.584348,0.121467 -0.48028,0.110453 -1.024337,0.06792 -1.440836,0.331357 -0.388284,0.245586 -0.266801,1.339429 -0.258601,1.629055 0.05646,1.994392 0.111498,3.994322 -0.188333,5.976421 -0.03851,0.346086 0.04069,0.727036 -0.115515,1.03826 -0.264546,0.527097 -1.359871,0.579189 -1.741045,0.510458 -2.186681,-0.394285 -4.323144,-2.044449 -6.482819,-2.584903 -1.703458,-0.280664 -2.363025,-0.699341 -3.955981,0.157073 -0.533132,0.286628 -0.965443,0.743384 -1.363218,1.199631 -1.610516,1.847252 -2.412865,4.214784 -3.012125,6.540588 -0.119184,2.141788 -0.514384,3.182798 0.671386,5.125318 1.446048,2.36892 4.489397,2.9518 6.941142,3.58425 0.486003,-0.25894 0.733468,-0.53648 0.3379,0.64048 -0.229267,0.68215 -0.646335,1.2904 -0.88405,1.96965 -0.568055,1.62318 -1.232733,3.60675 -0.252375,5.30614 0.442153,0.76644 1.393922,1.09029 2.090883,1.63543 4.269036,0.49062 2.32828,0.48581 6.860582,0.0512 0.02765,-0.003 3.660494,-0.26702 4.492024,-0.62488 0.09649,-0.0415 -0.0131,-0.23941 0.06641,-0.30807 0.04998,-0.0431 0.05398,0.12054 0.08097,0.1808 0.244126,0.49515 0.328311,1.10929 0.732377,1.48545 0.225121,0.20958 0.617466,0.10268 0.92115,0.0539 0.366482,-0.0589 0.708329,-0.22566 1.050102,-0.37044 1.176827,-0.49853 2.266418,-1.20898 3.506147,-1.55653 1.364382,-0.3721 0.838147,-2.30163 -0.526235,-1.92953 z" />
    <path
       style="fill:#000000;stroke-width:0.264583"
       id="path431"
       d="m 82.695268,120.27761 c -1.363315,1.20795 -2.864892,2.2539 -4.369069,3.27608 -0.79919,0.5431 -2.730765,1.83782 -3.670697,2.30056 -0.325001,0.16001 -0.687274,0.22928 -1.030912,0.34392 0.215059,-0.42265 0.868021,-0.0771 1.111107,-0.38456 0.338635,-0.42827 0.486018,-0.98174 0.658278,-1.49983 0.338836,-1.01909 0.789239,-2.40523 -0.366996,-3.26979 -0.704201,-0.52655 -1.680919,-0.51686 -2.521378,-0.7753 -0.889355,-0.017 -1.77909,-0.02 -2.668066,-0.051 -1.365899,-0.0476 -4.04966,0.20687 -4.711917,-1.53029 -0.132001,-0.34625 -0.09818,-2.42737 -0.09873,-2.60998 -0.167759,-0.57688 -0.138607,-1.2532 -0.503283,-1.73064 -1.361715,-1.7828 -3.248501,-2.0602 -5.320075,-2.44494 -1.312923,-0.24384 -2.646878,-0.35833 -3.974213,-0.50466 -5.309061,-0.5853 -2.276319,0.0795 -6.558537,-1.09395 -0.492818,-0.31113 -1.120584,-0.47339 -1.478452,-0.93339 -0.179445,-0.23066 -0.05589,-0.61123 0.07258,-0.87371 0.24879,-0.50832 0.67624,-0.90768 1.019524,-1.3576 1.008658,-1.322 1.87135,-2.52666 3.084801,-3.67245 0.531233,-0.50161 1.136197,-0.91887 1.704298,-1.37831 2.110358,-1.34424 4.514011,-2.07739 6.779889,-3.095371 0.802616,-0.360588 1.63063,-0.682665 2.375519,-1.15102 2.116159,-1.330555 2.233517,-1.828625 3.726106,-3.758284 0.376439,-0.728692 0.752877,-1.457386 1.129316,-2.186078 0.260749,-0.62779 0.485616,-1.271717 0.782248,-1.88337 0.187018,-0.385633 0.331505,-0.831141 0.664845,-1.100532 0.122836,-0.09927 0.276606,0.152532 0.415751,0.227246 0.839975,0.451019 0.431313,0.25351 1.509646,0.651263 0.455234,-0.04625 0.986809,0.11779 1.365703,-0.138758 1.471604,-0.99642 1.711253,-2.729857 2.079378,-4.282768 0.56496,-2.383239 0.884727,-4.823087 1.366769,-7.223781 0.08505,-0.213026 0.483976,-0.654944 0.255148,-0.639082 -0.362765,0.02514 -0.519567,0.534585 -0.852646,0.680497 -0.149722,0.06559 -0.495329,-0.259156 -0.480822,-0.09634 0.08354,0.937601 1.943809,0.557432 2.106644,0.487053 0.466672,-0.201697 0.714997,-0.72294 1.072494,-1.084408 0.352886,-0.557268 0.705768,-1.114536 1.058654,-1.671807 0.406643,-0.656759 0.808625,-1.316432 1.219933,-1.970281 0.407122,-0.647189 0.759126,-1.334513 1.235292,-1.932731 0.285567,-0.358767 0.593928,-0.768956 1.029427,-0.912489 0.181396,-0.05979 0.206264,0.324881 0.340156,0.461086 0.213979,0.217676 0.464643,0.395962 0.696966,0.593945 0.587695,0.140385 1.158925,0.412128 1.763088,0.421158 2.693315,0.04025 4.537122,-2.192541 6.313686,-3.867406 1.921012,-1.811044 0.933656,-1.675244 2.538497,-1.570339 0.03959,1.968542 -0.08841,0.382717 0.653873,3.166811 0.623136,2.33721 0.742756,4.919638 3.793302,5.414695 0.928944,0.150754 1.873242,-0.183356 2.809857,-0.275034 2.9793,-0.857153 6.85498,-3.3742 10.04944,-2.242005 0.78312,0.277555 1.33131,0.955098 1.8853,1.517694 0.3276,0.284007 0.59997,0.648492 0.9828,0.852022 2.22695,1.183966 4.91081,0.64847 7.277,0.39021 4.10966,-0.448556 1.64886,-0.356658 5.23035,-0.357841 0.31493,0.214032 0.73038,0.327422 0.94478,0.642094 0.16583,0.243385 0.0877,0.584298 0.0915,0.878784 0.0176,1.377956 -0.12602,1.387253 -0.27838,2.820871 -0.1845,1.735974 -0.14971,1.258205 0.13843,2.939476 0.59644,1.795733 3.23092,1.923981 4.2874,3.163295 0.3215,0.377145 0.78799,2.359795 0.87854,2.698255 0.38356,1.361207 2.3086,0.818777 1.92504,-0.54243 v 0 c -0.43821,-1.494782 -0.59177,-2.594494 -1.6977,-3.822266 -0.86906,-0.964814 -2.33122,-1.28106 -3.43054,-1.881108 -0.0708,-0.302427 -0.1963,-0.597091 -0.21249,-0.90728 -0.0564,-1.081654 0.28199,-2.0945 0.3261,-3.168978 0.0588,-1.431391 0.0696,-2.834611 -1.08372,-3.941726 -0.50247,-0.482319 -1.26375,-0.585983 -1.89563,-0.878977 -3.78915,0.02299 -1.33372,-0.08769 -5.42097,0.367585 -1.0897,0.121381 -4.60242,0.683911 -5.77127,0.08742 -0.35447,-0.180893 -0.60258,-0.519981 -0.90387,-0.779971 -1.03259,-0.95803 -1.53774,-1.623875 -2.98988,-2.057037 -3.66502,-1.093251 -7.28003,1.102016 -10.61947,2.24265 -0.51222,0.112303 -2.250195,0.738315 -2.941514,0.175938 -1.485421,-1.208368 -1.26805,-4.840687 -2.344209,-6.545104 -0.493643,-0.781828 -1.325099,-1.28991 -1.98765,-1.934866 -0.628737,0.15621 -1.325888,0.143436 -1.886212,0.468627 -0.683469,0.396658 -1.151139,1.082945 -1.724409,1.626844 -0.68145,0.646538 -2.456502,2.451838 -3.404023,3.003798 -0.349647,0.203679 -0.760378,0.303687 -1.162351,0.350124 -0.331735,0.03832 -0.664499,-0.06713 -0.996747,-0.100701 -1.239208,-0.764463 -1.878557,-1.531273 -3.536159,-0.87572 -0.581929,0.230145 -0.962847,0.812075 -1.353576,1.30089 -0.483333,0.604668 -0.838295,1.301649 -1.250484,1.956887 -0.585981,0.931503 -1.473671,2.38428 -2.081618,3.376009 -0.561824,0.841764 -0.525679,0.370785 0.173694,0.972164 0.01966,0.01691 -0.05552,0.03981 -0.07453,0.0222 -0.323144,-0.299673 -0.487432,-0.877695 -0.922666,-0.946949 -1.365956,-0.21735 -1.444561,0.729456 -1.734799,1.530516 -0.473514,2.363589 -0.822669,4.749914 -1.339164,7.105039 -0.153617,0.700471 -0.375285,1.385321 -0.517242,2.088248 -0.04982,0.246668 0.01929,0.512876 -0.05653,0.752829 -0.03305,0.104582 -0.166166,0.143206 -0.249251,0.214808 -1.493893,-0.545201 -2.878156,-1.226387 -4.334176,-0.02133 -0.403516,0.333968 -0.563478,0.885788 -0.792954,1.356641 -0.274955,0.564168 -0.477832,1.160698 -0.716745,1.741048 -0.314119,0.629023 -0.628238,1.258046 -0.942356,1.887069 -1.137285,1.549289 -1.324915,2.102141 -3.003635,3.164694 -0.7108,0.449906 -1.502293,0.758735 -2.269667,1.103392 -2.442147,1.096862 -5.035637,1.883794 -7.277619,3.393263 -0.638421,0.52594 -1.316257,1.0074 -1.915263,1.57783 -0.844417,0.80413 -2.822233,3.11699 -3.37417,4.08218 -0.502775,0.87921 -1.117357,1.78512 -1.191117,2.79525 -0.150987,2.06777 1.481531,2.46438 2.824337,3.24083 1.001387,0.26389 1.982891,0.62015 3.004161,0.79167 1.262459,0.21203 2.551261,0.21737 3.82397,0.35512 1.255241,0.13586 2.512655,0.26379 3.758996,0.4656 0.01836,0.003 3.333531,0.54131 3.877263,1.10231 0.285599,0.29467 0.273708,0.77373 0.410561,1.1606 0.03588,1.3347 -0.0864,2.74373 0.658191,3.96494 1.707946,2.80122 5.771049,2.02154 8.454951,2.16001 0.408011,-0.0265 0.815279,-0.0893 1.224034,-0.0795 0.155588,0.004 0.429651,-0.0346 0.451337,0.11953 0.0592,0.42081 -0.124095,0.84529 -0.258887,1.2483 -0.408853,1.22242 -1.493607,2.56389 -0.717524,4.0044 0.245647,0.45595 0.967116,0.37098 1.450674,0.55647 0.46029,-0.16896 0.941088,-0.29007 1.380871,-0.50687 0.621733,-0.30651 1.203785,-0.68845 1.790993,-1.05681 2.317896,-1.45401 4.578707,-3.03654 6.647688,-4.82876 1.000001,-1 -0.414213,-2.41421 -1.414214,-1.41421 z" />
    <path
       style="fill:#000000;stroke-width:0.264583"
       id="path433"
       d="M 76.947431,77.434526 C 75.835446,76.836954 74.968599,75.982382 74.177159,75.007408 73.783856,74.522901 73.470356,73.976012 73.066121,73.50059 72.690769,73.059136 72.354188,72.539438 71.844439,72.263888 71.295516,71.967163 70.6269,71.989946 70.018131,71.852974 c -0.711052,0.480071 -1.541894,0.818544 -2.133158,1.440212 -0.681389,0.716428 -1.123463,1.630656 -1.607494,2.49279 -1.305478,2.325254 -2.063552,4.905129 -3.367382,7.22489 -0.184787,0.328774 -0.440467,0.612323 -0.660701,0.918485 -0.590503,0.708441 -0.196424,-0.124425 -0.275233,-0.07172 -0.436914,0.29219 -0.932503,0.540692 -1.253006,0.957281 -0.375785,0.488437 -0.544004,1.107189 -0.774901,1.678564 -0.54029,1.336982 -0.967023,2.717094 -1.451986,4.075126 -0.595405,0.977061 -1.105908,2.149843 -2.189874,2.733013 -1.351338,0.727015 -3.01422,0.0311 -4.392747,-0.09637 -0.41896,-0.03874 -0.841489,0.0019 -1.262232,0.003 -0.414213,0.270277 -0.952577,0.410226 -1.242637,0.810837 -0.304697,0.420825 -0.426466,0.978818 -0.429326,1.498365 -0.01442,2.618089 3.256066,4.703393 5.074772,6.004923 1.151863,0.82049 2.312215,-0.80849 1.160351,-1.628985 v 0 c -1.44186,-1.021845 -2.944233,-1.93865 -3.925721,-3.449484 -0.133077,-0.204854 -0.214111,-0.439238 -0.32785,-0.655429 -0.276151,-0.524896 -0.103682,-0.09727 -0.278265,-0.580472 0.298892,-0.01029 0.598985,-0.05951 0.896678,-0.03085 1.49552,0.144 2.300682,0.592783 3.890013,0.335235 2.709267,-0.439034 3.716216,-2.026404 4.910346,-4.271147 0.469305,-1.314199 0.912059,-2.638026 1.400424,-3.945258 0.153411,-0.410639 0.434157,-0.78445 0.494221,-1.218674 0.0168,-0.121509 -0.404075,-0.163017 -0.295262,-0.219649 0.290645,-0.151265 0.649226,-0.08901 0.973841,-0.133514 0.311801,-0.215254 0.623602,-0.430509 0.935405,-0.645763 0.274913,-0.399293 0.587344,-0.7752 0.824741,-1.197875 0.721834,-1.285197 1.412319,-3.130298 2.004713,-4.426973 1.123487,-2.459178 1.156772,-2.492016 2.483282,-4.652682 0.198823,-0.32385 0.412041,-0.638641 0.618061,-0.957961 0.204396,-0.05486 0.425199,-0.261787 0.613188,-0.16459 0.698823,0.361318 1.928376,2.267395 2.272892,2.681063 0.92601,1.111882 1.941259,2.092187 3.215156,2.790182 1.212678,0.727607 2.241669,-0.98738 1.028991,-1.714987 z" />
    <path
       style="fill:#000000;stroke-width:0.264583"
       id="path435"
       d="m 53.558442,116.92408 c -1.000302,1.50301 -2.056231,2.9682 -3.11931,4.42714 -0.285901,0.39235 -0.704342,0.71402 -0.863931,1.17251 -0.135488,0.38924 -0.343152,1.05194 0.02553,1.23619 0.616193,0.30796 1.371563,-0.13015 2.057344,-0.19522 0.233919,-0.19617 0.458132,-0.40454 0.701755,-0.58852 0.06279,-0.0474 -0.0789,0.18987 -0.156469,0.17672 -0.427959,-0.0725 -0.840756,-0.59397 -1.235097,-0.41257 -0.393136,0.18085 -0.314282,0.80659 -0.485449,1.20403 -1.054418,2.44831 -0.420275,0.66438 -1.197134,3.09602 0.121693,0.52529 -0.024,1.20256 0.365077,1.57587 1.360872,1.3057 3.307906,0.89021 4.891368,0.70269 0.489953,-0.058 4.523431,-0.75676 5.162323,-0.79859 0.466852,-0.0306 0.932913,0.0722 1.39937,0.10836 -0.06683,0.10257 -0.100946,0.23645 -0.20049,0.30771 -0.175218,0.12542 -0.439627,0.10725 -0.592032,0.25958 -0.3458,0.34563 -0.5545,0.80629 -0.857935,1.18965 -0.320172,0.40449 -0.66811,0.78633 -1.011111,1.17166 -0.159874,0.1796 -0.655418,0.34169 -0.497131,0.5227 0.462233,0.52857 1.229538,0.67854 1.844305,1.01782 1.146469,-1.0906 2.348772,-2.12901 3.652332,-3.02946 0.33288,-0.22995 0.656508,-0.48672 1.030214,-0.64171 0.07925,-0.0329 -5.3e-4,0.2051 -0.07597,0.24593 -0.142642,0.0772 -0.322162,0.0378 -0.483243,0.0566 -0.04884,0.94932 0.246277,2.48466 1.458519,2.70221 2.109478,0.37857 5.001418,-1.75953 6.697657,-2.7915 0.407881,-0.19695 1.875557,-1.28472 2.656999,-0.72116 0.219945,0.15862 0.181787,0.51099 0.275735,0.76537 0.19517,0.52845 0.41393,1.04849 0.591611,1.58307 0.446614,1.34371 0.819105,2.71094 1.233564,4.06491 0.302734,0.51234 0.474192,1.12987 0.908206,1.53702 1.138132,1.0677 2.223686,0.95845 3.499419,0.11067 1.189593,-0.79053 2.738361,-3.4129 3.627406,-4.67557 0.53667,-0.5301 0.614256,-0.61317 0.247152,-0.23493 1.387208,-0.27505 0.998231,-2.23686 -0.388979,-1.96181 v 0 c -1.125525,0.4675 -0.622107,0.1271 -1.493576,1.04545 -0.664826,0.94455 -1.287089,1.91893 -1.964097,2.85479 -0.296397,0.40972 -0.630412,0.79093 -0.938922,1.19161 -0.05889,0.0765 -0.495104,0.9489 -0.885203,0.62141 -0.327155,-0.27465 -0.466,-0.71603 -0.699,-1.07404 -0.433329,-1.41561 -0.780045,-2.86063 -1.299131,-4.24709 -0.553439,-1.47822 -1.028761,-2.96151 -2.701417,-3.58082 -1.287274,-0.47662 -2.697337,0.51835 -3.710328,1.01313 -0.66669,0.40675 -1.333381,0.8135 -2.000071,1.22026 -0.617497,0.33956 -1.250357,0.65257 -1.85249,1.01868 -0.266536,0.16206 -0.483034,0.39772 -0.74793,0.56244 -0.08575,0.0533 -0.21804,0.15337 -0.291145,0.0837 -0.324754,-0.30948 -0.359431,-1.71427 -0.373718,-1.84711 -0.34231,-0.42274 -0.545539,-1.01494 -1.02693,-1.26821 -0.903857,-0.47555 -1.865503,0.3299 -2.490169,0.76353 -1.357632,0.94245 -2.613538,2.02359 -3.810394,3.16052 0.3204,0.61001 0.425294,1.39694 0.9612,1.83004 0.213008,0.17214 0.383318,-0.39163 0.564277,-0.5972 1.076124,-1.22247 3.080567,-3.27457 2.533168,-5.1343 -0.157406,-0.53477 -0.844529,-0.72785 -1.266796,-1.09178 -0.605232,-0.0302 -1.210942,-0.12921 -1.8157,-0.0906 -0.623512,0.0398 -4.495927,0.70931 -5.046816,0.78492 -0.707356,0.0971 -1.430666,0.0824 -2.129954,0.22653 -0.260366,0.0537 -0.447109,0.33704 -0.712018,0.35926 -0.141885,0.0119 -0.219614,-0.18128 -0.329424,-0.27192 0.775398,-2.50928 -0.04346,-0.0476 1.15721,-2.98141 0.217731,-0.53202 0.663485,-1.04794 0.594921,-1.61868 -0.311827,-2.59575 -1.401582,-2.04254 -2.529456,-1.04356 0.298238,0.24194 0.737396,0.3755 0.894712,0.72583 0.135885,0.30261 -0.44596,1.07277 -0.125478,0.9872 0.474916,-0.12682 0.585226,-0.78996 0.874683,-1.18725 1.07786,-1.4794 2.148194,-2.96532 3.162496,-4.48933 0.784465,-1.1767 -0.879637,-2.2861 -1.6641,-1.1094 z" />
    <path
       style="fill:#000000;stroke-width:0.264583"
       id="path437"
       d="m 140.53465,103.14596 c 1.10075,-1.12904 2.30415,-2.15944 3.38777,-3.305202 0.63147,-0.667684 1.48357,-1.54422 1.71276,-2.50231 0.10018,-0.418796 -0.006,-0.861203 -0.009,-1.291805 -0.25994,-0.366913 -0.51989,-0.733824 -0.77983,-1.100738 -0.239,-0.186002 -0.53141,-0.318682 -0.71699,-0.558003 -0.0472,-0.0609 0.10421,-0.114851 0.14409,-0.180798 0.0705,-0.1167 0.11738,-0.24651 0.18564,-0.364569 0.27808,-0.480979 1.03553,-1.680282 1.27443,-2.062234 0.58421,-1.05622 1.52361,-2.47954 0.4641,-3.648925 -0.87912,-0.970295 -1.44889,-0.550762 -2.48068,-0.863859 -0.14521,-0.04406 -0.23455,-0.192606 -0.35182,-0.288912 0.89512,-0.546626 0.28469,-0.05143 1.00217,-1.556713 0.29007,-0.608565 0.6187,-1.198007 0.92353,-1.799317 0.30223,-0.596199 1.31891,-2.376345 1.31635,-3.225049 -0.002,-0.484309 -0.28728,-0.925039 -0.43093,-1.387559 0.69324,-1.504482 -1.94208,-0.08497 -2.23198,-0.82305 -0.044,-0.111993 0.26337,-0.0019 0.351,-0.08429 0.15159,-0.142663 0.2285,-0.350165 0.31286,-0.540472 0.72236,-1.629654 0.51112,-1.067195 0.30043,-3.031279 -0.55197,-0.500261 -1.00339,-1.141396 -1.6559,-1.500785 -1.46059,-0.804471 -4.16875,-0.884687 -5.63851,-0.956985 -6.10492,-0.300297 -1.31197,0.13402 -7.18174,-0.104126 -0.90437,-0.03669 -1.8044,-0.145259 -2.70661,-0.21789 -1.16469,-0.351534 -1.60683,-0.171151 -2.17213,-1.107244 -0.21707,-0.359455 -0.15912,-1.007259 -0.52679,-1.292326 -1.48059,-1.147961 -1.7712,-0.697111 -3.5611,-0.403365 -1.54246,0.308544 -2.96577,1.060402 -4.50036,1.394103 -0.078,0.01696 -1.75392,0.409715 -1.99638,-0.256596 -0.0559,-0.153717 0.20261,-0.265295 0.25146,-0.42141 0.11186,-0.357521 0.14993,-0.734068 0.2249,-1.101103 0.12298,-0.480409 0.33485,-0.946502 0.36895,-1.44123 0.0938,-1.360842 -0.3096,-2.224344 -2.08355,-2.221802 -0.81356,0.0011 -1.54604,0.519676 -2.28055,0.869503 -0.90097,0.429107 -3.80752,2.212025 -4.67321,2.734641 -0.32143,0.155347 -1.81612,1.100902 -2.5404,0.914191 -0.11684,-0.03012 0.18541,-0.160526 0.24796,-0.26371 0.0925,-0.152594 0.17435,-0.317498 0.21026,-0.492284 0.21685,-1.055383 0.13055,-1.313217 0.0619,-2.365957 -1.75574,-1.442736 -0.75773,-1.243227 -3.03847,-0.300292 -1.1934,0.758817 -0.12027,2.446536 1.07313,1.687719 v 0 c 0.23942,-0.738431 0.20536,-0.329234 -0.0286,-1.231506 0.0263,0.272185 0.0852,0.543169 0.079,0.816555 -0.0256,1.1338 -0.45252,2.339996 0.33654,3.400337 1.22039,1.639957 3.43441,0.12463 4.63245,-0.452985 1.78682,-1.079272 2.62295,-1.607677 4.43577,-2.612112 0.44559,-0.246885 0.99531,-0.346773 1.35416,-0.708329 0.17336,-0.174667 -0.10063,-0.564483 0.0776,-0.734203 0.52172,-0.496866 -0.11829,5.369645 -0.21718,2.150459 -0.11951,1.457815 -0.54345,2.436699 0.7223,3.612798 0.38351,0.356346 0.96492,0.458116 1.48603,0.508196 2.13706,0.205378 4.18216,-1.102188 6.21081,-1.528421 0.38929,-0.114991 0.8059,-0.161242 1.16786,-0.344972 0.11356,-0.05764 0.0724,-0.40949 0.17786,-0.338119 0.2089,0.141359 0.21291,0.457515 0.32927,0.6813 0.21541,0.414252 0.35917,0.880274 0.66582,1.232368 1.10465,1.268352 1.7327,1.160243 3.34596,1.609489 0.9488,0.0747 1.89546,0.18537 2.84641,0.224108 3.33165,0.135718 6.69386,-0.119391 10.01288,0.310668 0.70924,0.0919 1.76303,0.413668 2.51885,0.632688 0.0944,0.222948 0.31361,0.428659 0.28316,0.668843 -0.066,0.520562 -0.42194,0.965557 -0.55474,1.473208 -0.34917,1.334825 -0.5815,1.986711 0.55,2.99829 0.27303,0.244096 0.67412,0.383881 1.03932,0.356343 0.15703,-0.01183 0.10312,-0.297585 0.15468,-0.446378 0.55841,-0.222385 0.49502,-0.279083 -0.0213,0.978905 -0.53801,1.310688 -1.36672,2.488708 -1.90888,3.797689 -0.27312,0.659429 -0.64038,1.323268 -0.66085,2.036728 -0.0193,0.671422 0.36451,1.293 0.54676,1.939502 0.80367,0.39425 1.00311,0.651734 1.8353,0.607321 0.34239,-0.01828 0.48533,-0.413678 0.50981,-0.324384 0.13217,0.482047 -0.57754,1.527199 -0.68188,1.723512 -0.39384,0.633026 -1.31996,2.036151 -1.54251,2.748309 -0.3283,1.050615 -0.17298,1.623197 0.42932,2.513261 0.29014,0.42876 0.38768,0.358016 0.71817,0.310687 0.3152,0.365218 0.34171,0.272378 -0.1331,0.972428 -0.28296,0.41719 -0.64003,0.780063 -0.98642,1.146292 -1.16802,1.234908 -2.48364,2.325367 -3.62589,3.586237 -0.811,1.15857 0.82747,2.30549 1.63846,1.14692 z" />
  </g>
</svg>
