<?xml version="1.0" encoding="UTF-8" standalone="no"?>
<!-- Created with Inkscape (http://www.inkscape.org/) -->

<svg
   width="315.02588"
   height="299.25259"
   viewBox="0 0 157.51294 149.6263"
   version="1.1"
   id="svg460"
   inkscape:version="1.2.1 (9c6d41e410, 2022-07-14)"
   sodipodi:docname="ibahm.svg"
   xml:space="preserve"
   xmlns:inkscape="http://www.inkscape.org/namespaces/inkscape"
   xmlns:sodipodi="http://sodipodi.sourceforge.net/DTD/sodipodi-0.dtd"
   xmlns="http://www.w3.org/2000/svg"
   xmlns:svg="http://www.w3.org/2000/svg"><sodipodi:namedview
     id="namedview462"
     pagecolor="#ffffff"
     bordercolor="#999999"
     borderopacity="1"
     inkscape:showpageshadow="0"
     inkscape:pageopacity="0"
     inkscape:pagecheckerboard="0"
     inkscape:deskcolor="#d1d1d1"
     inkscape:document-units="mm"
     showgrid="false"
     inkscape:zoom="1.4912879"
     inkscape:cx="134.78283"
     inkscape:cy="146.85293"
     inkscape:window-width="2560"
     inkscape:window-height="1017"
     inkscape:window-x="1912"
     inkscape:window-y="-8"
     inkscape:window-maximized="1"
     inkscape:current-layer="layer1" /><defs
     id="defs457" /><g
     inkscape:label="Layer 1"
     inkscape:groupmode="layer"
     id="layer1"
     transform="translate(-29.930062,-90.66619)"><path
       style="fill:#000000;stroke-width:0.5"
       id="path402"
       d="m 65.421595,138.97161 c -0.251753,-0.0333 -0.501355,-0.10444 -0.755257,-0.0999 -1.499887,0.027 -2.896689,0.48865 -3.969524,1.58298 -0.3795,0.3871 -0.734956,0.82445 -0.942791,1.32513 -0.228626,0.55075 -0.224428,1.17134 -0.336642,1.75701 0.12674,0.58684 0.184889,1.19281 0.38022,1.76051 0.583308,1.69529 1.887481,3.10024 3.489824,3.87306 0.24225,0.11684 0.502764,0.19124 0.754147,0.28686 1.25563,0.45716 1.902152,-1.31857 0.646521,-1.77573 v 0 c -0.161758,-0.0548 -0.329304,-0.0948 -0.485275,-0.16439 -1.198751,-0.53479 -2.052965,-1.49351 -2.57489,-2.69003 -0.145155,-0.33277 -0.225371,-0.69023 -0.338057,-1.03535 0.01102,-0.3195 -0.06288,-0.65354 0.03306,-0.9585 0.10568,-0.33593 0.325907,-0.63079 0.551882,-0.90089 0.554142,-0.66236 0.938258,-0.8212 1.753697,-1.05019 0.26107,-0.0733 0.531325,-0.12176 0.802146,-0.13546 0.189715,-0.01 0.377342,0.0442 0.566012,0.0662 1.302045,0.30047 1.726976,-1.5409 0.424932,-1.84137 z" /><path
       style="fill:#000000;stroke-width:0.5"
       id="path408"
       d="m 72.594552,146.66019 c -0.176594,-2.49339 -0.161532,-4.99204 -0.123886,-7.48949 0.01318,-0.61667 0.02818,-1.80544 0.07745,-2.46305 0.01793,-0.2393 0.04168,-0.47898 0.0871,-0.71461 0.0201,-0.10426 0.195215,-0.36064 0.1084,-0.29952 -1.154324,0.81277 -0.948152,0.63069 -0.285311,1.43336 2.522133,2.96222 5.044435,5.92577 7.450176,8.98388 0.42876,0.57246 0.75837,0.98645 1.13529,1.57067 0.26814,0.41562 0.293825,0.27386 0.23582,0.48334 0.37432,1.28276 2.188425,0.7534 1.814105,-0.52937 v 0 c -0.05687,-0.16055 -0.09678,-0.32815 -0.170605,-0.48163 -0.38868,-0.80812 -1.031205,-1.47784 -1.52944,-2.21155 -2.44742,-3.11007 -5.010304,-6.12691 -7.582065,-9.13437 -0.371992,-0.34915 -0.619135,-0.93155 -1.115976,-1.04746 -0.583659,-0.13618 -1.226696,0.0997 -1.758049,0.37692 -0.194629,0.10155 -0.138784,0.41798 -0.179031,0.63379 -0.206788,1.10883 -0.111556,2.25301 -0.177416,3.37119 -0.03833,2.55526 -0.05217,5.11181 0.129239,7.66284 0.102487,1.33233 1.986684,1.18739 1.884197,-0.14494 z" /><path
       style="fill:#000000;stroke-width:0.5"
       id="path410"
       d="m 72.949291,143.44992 c 0.962512,-0.66388 0.452294,-0.31826 1.532647,-1.03389 1.113899,-0.73813 0.07003,-2.31343 -1.043871,-1.5753 v 0 c -1.12634,0.74664 -0.590357,0.38313 -1.609782,1.08783 -1.075768,0.79267 0.04524,2.31403 1.121006,1.52136 z" /><path
       style="fill:#000000;stroke-width:0.5"
       id="path412"
       d="m 81.423698,133.69304 c 0.471805,1.78528 1.013115,3.55164 1.475745,5.33927 0.11318,0.4822 0.164015,0.66764 0.24872,1.13603 0.08896,0.49193 0.08715,1.05918 0.46568,1.4506 0.207915,0.215 0.50079,0.32714 0.75118,0.49071 1.2763,0.25442 2.568525,0.0303 3.838915,-0.14739 1.323225,-0.18621 1.05989,-2.05753 -0.26334,-1.87133 v 0 c -0.9338,0.13226 -1.867715,0.23396 -2.808745,0.29152 0.0159,0.0595 0.04415,0.11695 0.04775,0.17841 0.002,0.0332 -0.02005,0.12561 -0.0317,0.0945 -0.04205,-0.11225 -0.0451,-0.23546 -0.06532,-0.35361 -0.100035,-0.58473 -0.1951,-1.17051 -0.35379,-1.74343 -0.466395,-1.79799 -1.008525,-3.57546 -1.484275,-5.37106 -0.357645,-1.28751 -2.178465,-0.78173 -1.820825,0.50579 z" /><path
       style="fill:#000000;stroke-width:0.5"
       id="path414"
       d="m 92.971128,132.96857 c 0.381005,2.50051 0.766585,5.00031 1.185005,7.49487 0.221075,1.31785 2.0848,1.00519 1.86372,-0.31266 v 0 c -0.419635,-2.50106 -0.80517,-5.00755 -1.18839,-7.51441 -0.234905,-1.31546 -2.09524,-0.98326 -1.860335,0.3322 z" /><path
       style="fill:#000000;stroke-width:0.5"
       id="path416"
       d="m 102.06913,139.72412 c -0.28144,-1.8955 -0.6744,-3.77218 -1.01306,-5.65786 -0.076,-0.66771 -0.39334,-1.55269 0.0393,-2.18463 0.22493,-0.32857 1.20123,-0.57489 1.52219,-0.68668 0.94936,-0.26666 0.49452,-0.14965 1.36312,-0.35647 1.29951,-0.31121 0.85939,-2.14901 -0.44013,-1.83779 v 0 c -0.98893,0.23805 -0.46533,0.10139 -1.56863,0.41821 -0.77742,0.2914 -1.43888,0.46306 -2.081602,1.04555 -1.12033,1.01532 -0.93576,2.61718 -0.694215,3.93599 0.337495,1.87781 0.728565,3.74675 1.008987,5.63436 0.21968,1.31808 2.08374,1.00741 1.86406,-0.31068 z" /><path
       style="fill:#000000;stroke-width:0.5"
       id="path418"
       d="m 102.06973,136.3157 c 0.68174,-0.10556 0.30749,-0.0471 1.12268,-0.17583 1.31992,-0.20838 1.02523,-2.07503 -0.29469,-1.86665 v 0 c -0.8268,0.13053 -0.4381,0.0695 -1.16604,0.18319 -1.31471,0.23904 -0.97666,2.09832 0.33805,1.85929 z" /><path
       style="fill:#000000;stroke-width:0.5"
       id="path420"
       d="m 114.13767,130.4161 c -0.71775,-0.14274 -1.45014,-0.16829 -2.17929,-0.12521 -0.52121,0.0308 -1.10432,0.0851 -1.58113,0.32442 -0.30448,0.15281 -0.55812,0.39082 -0.83718,0.58623 -0.21332,0.28826 -0.45993,0.55464 -0.63997,0.86477 -0.77132,1.32872 -0.97218,3.27056 -1.01717,4.78682 0.01,0.91578 0.18954,1.835 0.84693,2.52282 0.51727,0.5412 0.85123,0.67723 1.49173,1.05521 0.32116,0.12746 0.62578,0.30923 0.96347,0.38238 1.32381,0.2868 2.73664,-0.0497 3.78964,-0.91238 0.95485,-0.78228 1.19,-1.39935 1.78907,-2.43394 0.17097,-0.41658 0.36811,-0.82335 0.51293,-1.24973 0.39004,-1.14835 0.68135,-2.74404 0.35927,-3.94693 -0.074,-0.27636 -0.20772,-0.53316 -0.31158,-0.79974 -0.13501,-0.21829 -0.24539,-0.45389 -0.40504,-0.65487 -0.64013,-0.80581 -1.57314,-1.34727 -2.54701,-1.6329 -1.29035,-0.34725 -1.78143,1.47759 -0.49107,1.82484 v 0 c 0.47449,0.0955 1.12777,0.47405 1.44935,0.83137 0.0992,0.11024 0.16844,0.24417 0.25267,0.36625 0.0638,0.13084 0.14478,0.25463 0.1915,0.39251 0.135,0.39839 0.12536,0.71096 0.0916,1.13644 -0.0776,0.97738 -0.33169,1.9177 -0.74928,2.80558 -0.30978,0.57132 -0.62727,1.28314 -1.11937,1.74349 -0.50311,0.47065 -1.4274,0.88696 -2.13477,0.76602 -0.24478,-0.0419 -0.46626,-0.1711 -0.69939,-0.25665 -0.42152,-0.23338 -1.08165,-0.50008 -1.27104,-1.00776 -0.10587,-0.28378 -0.0998,-0.58611 -0.12048,-0.88242 0.0318,-1.44045 0.20049,-2.94897 0.93646,-4.21592 0.0864,-0.0921 0.1529,-0.20837 0.25936,-0.27639 0.3034,-0.19385 0.70286,-0.20704 1.04203,-0.23045 0.58764,-0.0406 1.17819,-0.0272 1.75716,0.0892 1.31032,0.26206 1.68093,-1.59101 0.37062,-1.85307 z" /><path
       style="fill:#000000;stroke-width:0.5"
       id="path422"
       d="m 121.63755,132.69378 c -0.65897,1.886 -1.09172,3.84423 -1.49441,5.79839 -0.0521,0.27781 -0.10417,0.55562 -0.15625,0.83342 -0.246,1.31343 1.61147,1.66133 1.85746,0.3479 v 0 c 0.0499,-0.26675 0.0998,-0.5335 0.14973,-0.80025 0.37951,-1.84507 0.78742,-3.69336 1.39807,-5.47761 0.49628,-1.2407 -1.25832,-1.94254 -1.7546,-0.70185 z" /><path
       style="fill:#000000;stroke-width:0.5"
       id="path424"
       d="m 122.58684,133.22959 c 0.23035,-0.47652 0.50368,-0.97612 0.93438,-1.3044 0.22313,-0.17006 0.49896,-0.25803 0.75413,-0.36053 0.67352,-0.15548 1.40219,-0.22473 2.07317,-0.0152 0.35675,0.11143 0.28679,0.0441 0.38659,0.28329 0.16419,0.64774 0.26108,1.34712 -0.001,1.9889 -0.18471,0.45266 -0.38284,0.54512 -0.7448,0.85816 -0.72616,0.37067 -1.51997,0.66755 -2.34082,0.73304 -0.43052,0.0343 -0.84045,-0.0948 -1.24627,-0.21111 -0.24509,0.0316 -0.62114,-0.12439 -0.73527,0.0948 -0.25124,0.48244 -0.23507,1.08528 -0.1598,1.62399 0.0264,0.18864 0.28708,0.25077 0.43796,0.36703 2.64585,2.03863 -1.68515,-1.374 1.56274,1.14261 0.30399,0.23554 0.59627,0.48583 0.89441,0.72874 1.07176,0.90568 2.0574,1.89602 2.83368,3.06699 0.74454,1.10962 2.31379,0.0567 1.56925,-1.05294 v 0 c -0.13508,-0.19942 -0.26181,-0.40475 -0.40523,-0.59826 -0.80231,-1.08243 -1.7957,-1.99813 -2.80548,-2.88202 -0.80801,-0.65576 -1.62821,-1.27758 -2.47324,-1.88429 -0.0649,-0.0466 -0.1592,-0.20802 -0.19632,-0.13732 -0.8028,1.52888 0.17352,1.29279 -1.02798,1.35164 0.38082,0.10335 0.72948,0.2097 1.13318,0.24263 1.07821,0.0879 2.19919,-0.15234 3.18002,-0.60315 0.38936,-0.17895 0.74191,-0.42903 1.11287,-0.64354 0.26446,-0.28344 0.57242,-0.5318 0.79339,-0.85031 0.74511,-1.074 0.87186,-2.65547 0.38786,-3.86053 -0.12432,-0.30953 -0.32964,-0.58 -0.49447,-0.87001 -0.22642,-0.17578 -0.43095,-0.38413 -0.67925,-0.52735 -0.18464,-0.1065 -0.39692,-0.15856 -0.60317,-0.21234 -1.05919,-0.27622 -2.16916,-0.1812 -3.20697,0.13402 -0.23324,0.10639 -0.47692,0.19238 -0.69973,0.31918 -0.93411,0.53157 -1.56189,1.41007 -1.98862,2.3764 -0.49628,1.24069 1.25832,1.94253 1.7546,0.70184 z" /><path
       style="fill:#000000;stroke-width:0.5"
       id="path426"
       d="m 134.6835,143.05486 c 0.42304,-1.60347 0.68669,-3.23904 0.95906,-4.87273 0.22732,-1.30453 0.45553,-2.60873 0.74601,-3.90085 0.16488,-0.63767 0.0564,-0.0956 0.0305,-0.0821 -0.30253,0.15647 -0.63346,0.25133 -0.956,0.36077 -0.0541,0.0183 -0.1863,-0.0335 -0.17005,0.0213 0.0785,0.26435 0.2662,0.48307 0.39245,0.72822 0.17421,0.33828 0.33921,0.68122 0.50882,1.02183 1.31045,2.56659 2.19525,5.31952 3.3943,7.93428 0.16484,0.19405 0.23999,0.57595 0.49452,0.58214 0.59493,0.0145 1.26184,-0.1317 1.70526,-0.52859 0.32254,-0.28869 0.22424,-0.83744 0.29757,-1.26406 0.0739,-0.43013 0.10087,-0.86708 0.14343,-1.30144 0.0974,-0.9944 0.15149,-1.79935 0.2253,-2.79316 0.12652,-1.63765 0.0653,-0.84752 0.18364,-2.37038 0.10355,-1.33225 -1.78053,-1.47869 -1.88408,-0.14644 v 0 c -0.11858,1.52564 -0.0572,0.73332 -0.18414,2.37696 -0.0966,1.30267 -0.22531,2.59936 -0.34404,3.89976 -0.018,0.19652 -0.2005,0.48153 -0.0362,0.59089 0.31293,0.20834 1.7346,0.35554 1.1157,0.16475 -1.21317,-2.62976 -2.09001,-5.40867 -3.42005,-7.98803 -0.12243,-0.24518 -0.82099,-1.68118 -1.0293,-1.96873 -0.18851,-0.26022 -0.34903,-0.62506 -0.66112,-0.70152 -1.12378,-0.27534 -1.42772,0.26773 -1.65022,1.04931 -0.29794,1.3265 -0.53341,2.66513 -0.76626,4.00439 -0.26761,1.60524 -0.52625,3.21218 -0.94283,4.78754 -0.27999,1.3066 1.56782,1.70256 1.84781,0.39596 z" /><path
       style="fill:#000000;stroke-width:0.5"
       id="path428"
       d="m 145.26986,136.75562 c -0.43471,2.17263 -0.79692,4.35957 -1.19982,6.53844 -0.0562,0.30155 -0.11242,0.60309 -0.16863,0.90464 -0.24488,1.31364 1.61289,1.65994 1.85776,0.3463 v 0 c 0.0564,-0.30246 0.11276,-0.60492 0.16915,-0.90738 0.39867,-2.15669 0.75809,-4.32117 1.18631,-6.47206 0.28987,-1.30444 -1.55489,-1.71439 -1.84477,-0.40994 z" /><path
       style="fill:#000000;stroke-width:0.5"
       id="path430"
       d="m 150.17619,148.56645 c 1.09395,-1.45752 2.13579,-2.95357 3.20229,-4.4314 0.93286,-1.26113 1.84735,-2.55384 2.94625,-3.67845 0.11706,-0.10621 0.22568,-0.22252 0.35117,-0.31862 0.0636,-0.0487 0.28949,-0.13362 0.21216,-0.11279 -0.18159,0.0489 -0.35417,0.12696 -0.52831,0.19797 -0.0885,0.0361 -0.25006,0.0279 -0.2591,0.12311 -0.0286,0.30141 0.1236,0.59339 0.16249,0.89365 0.0529,0.40846 0.0751,0.82031 0.11267,1.23046 0.11186,2.49184 -0.008,5.00941 -0.52219,7.45407 -0.0532,0.12874 -0.10634,0.25747 -0.15952,0.3862 -0.47493,1.24902 1.29144,1.92068 1.76638,0.67167 v 0 c 0.0811,-0.22446 0.16225,-0.44892 0.24338,-0.67338 0.5411,-2.63271 0.69115,-5.3365 0.55309,-8.01889 -0.0593,-0.59528 -0.15224,-2.09232 -0.41862,-2.68652 -0.19048,-0.42488 -0.40305,-0.90255 -0.8009,-1.14445 -0.85512,-0.51992 -1.53911,0.19005 -2.06872,0.6813 -1.1559,1.19742 -2.14327,2.54639 -3.12262,3.88879 -1.05326,1.45948 -2.08259,2.93665 -3.16158,4.37708 -0.82039,1.05479 0.6713,2.21499 1.49168,1.1602 z" /><path
       style="fill:#000000;stroke-width:0.5"
       id="path432"
       d="m 151.67808,143.98908 c 1.06694,0.76956 2.05522,1.63927 3.12883,2.39829 1.09341,0.76816 2.17975,-0.77815 1.08634,-1.54631 v 0 c -1.02355,-0.71364 -1.94875,-1.55642 -2.97075,-2.27417 -1.00564,-0.87994 -2.25006,0.54226 -1.24442,1.42219 z" /><path
       style="fill:#000000;stroke-width:0.5"
       id="path434"
       d="m 65.036606,171.82477 c 1.889433,0.97577 3.796455,1.92049 5.77401,2.70519 0.811715,0.20467 1.610659,0.21972 2.32903,-0.2777 0.576141,-0.39893 1.248375,-1.32969 1.706518,-1.87637 0.972608,-1.10868 2.081015,-2.11636 3.398128,-2.80236 1.16215,-0.60528 1.688071,-0.71992 2.949046,-1.13668 1.413965,-0.31881 2.018065,-0.524 3.482975,-0.57351 1.77995,-0.0602 3.702065,0.20823 5.432535,0.62188 0.448885,0.1073 0.88545,0.26081 1.328175,0.39121 1.00547,0.37982 2.17824,0.88898 2.59714,1.9788 0.227665,0.5923 0.143475,0.84525 0.112395,1.47896 -0.182675,0.66662 -0.300265,1.2195 -0.614085,1.84558 -0.716015,1.42847 -1.986485,2.4652 -3.176785,3.47809 -2.2338,1.79684 -4.761695,3.16166 -7.2428,4.57639 -2.630215,1.66379 -5.092622,3.59424 -7.326827,5.76182 -0.39165,0.37997 -0.766573,0.77681 -1.149859,1.16521 -1.370702,1.4129 -2.547256,2.99857 -3.55132,4.69005 -0.569751,0.95981 -0.82857,1.51397 -1.330555,2.50782 -0.858228,1.77609 -1.428928,3.66454 -1.743026,5.60967 -0.175579,1.08731 -0.224648,1.79953 -0.325923,2.88464 -0.181409,2.39772 -0.206263,4.80542 -0.09836,7.20685 0.03586,1.22531 0.198577,2.43728 0.36734,3.64908 0.06962,0.67956 0.194624,1.19353 0.961908,1.48457 0.308931,0.11718 1.536282,-0.11864 1.749906,-0.15109 4.801163,-0.54158 9.634446,-0.59149 14.459486,-0.52643 4.489405,0.12533 8.97725,0.2975 13.466915,0.41417 2.472957,0.0486 4.947167,0.10206 7.420537,0.0581 0.2985,-0.0386 0.60692,-0.0302 0.89552,-0.11572 0.68167,-0.20191 1.25761,-0.55992 1.54069,-1.26196 0.4658,-1.15519 0.082,-2.70539 -0.12755,-3.86375 -0.31679,-1.44213 -0.68753,-2.87288 -1.08958,-4.29351 -0.0841,-0.29714 -0.49143,-1.7095 -0.65564,-2.06609 -0.13191,-0.28647 -0.32101,-0.54297 -0.48152,-0.81445 -0.28506,-0.22636 -0.53766,-0.50109 -0.85518,-0.67909 -1.02351,-0.57375 -2.59424,-0.568 -3.73224,-0.60203 -1.39639,-0.0417 -2.327732,-0.0146 -3.764237,0.001 -4.44263,0.065 -8.874825,0.37716 -13.30878,0.63541 -1.344355,0.0451 -2.686725,0.19469 -4.03304,0.19251 -0.2611,-4.3e-4 -0.869843,0.0339 -1.149226,-0.17644 -0.055,-0.0414 -0.04134,-0.13134 -0.06201,-0.19701 -0.243954,-0.93131 -0.03941,-1.86797 0.250641,-2.76588 0.122338,-0.37873 0.248153,-0.75904 0.423152,-1.1165 0.196837,-0.40207 0.458712,-0.7689 0.688072,-1.15334 0.69299,-0.9213 1.13573,-1.58736 1.986565,-2.38998 1.00271,-0.94588 2.364725,-1.90656 3.49431,-2.65567 1.68172,-1.11526 2.594445,-1.60207 4.342915,-2.6062 2.38183,-1.41908 4.97586,-2.50171 7.201535,-4.17701 1.543765,-1.16201 1.77423,-1.50519 3.144243,-2.90281 1.90562,-2.19987 3.54941,-4.66956 4.43074,-7.46872 0.50804,-1.61358 0.53307,-2.33487 0.74416,-3.96533 -0.0447,-0.66063 -0.0343,-1.3273 -0.13406,-1.98189 -0.16106,-1.05722 -0.62736,-2.63509 -1.17723,-3.56868 -0.65313,-1.10892 -1.97026,-2.5896 -2.96194,-3.39896 -0.70713,-0.57712 -1.5009,-1.03906 -2.251353,-1.55859 -4.213125,-2.30978 -8.85423,-3.76052 -13.63188,-4.28019 -0.877005,-0.0954 -1.759895,-0.12534 -2.639845,-0.18801 -2.997685,-0.0954 -6.055596,-0.0281 -9.008535,0.5578 -1.673142,0.33194 -1.993518,0.50884 -3.559632,1.06843 -0.568523,0.31784 -1.163868,0.59186 -1.705567,0.95352 -2.029338,1.3549 -3.66242,3.25836 -4.913335,5.33556 -0.227542,0.37785 -0.421881,0.77472 -0.632821,1.16208 -0.428692,0.82298 -0.707357,1.69406 -0.932214,2.58857 -0.317727,1.29794 1.517839,1.74727 1.835567,0.44933 v 0 c 0.174769,-0.74044 0.412736,-1.45587 0.758324,-2.13788 0.18533,-0.34427 0.355973,-0.69685 0.55599,-1.03279 1.087348,-1.82627 2.50139,-3.50849 4.262277,-4.72193 0.448043,-0.30875 0.941533,-0.54571 1.412299,-0.81856 1.388086,-0.50467 1.71344,-0.67942 3.203047,-0.97801 2.820452,-0.56537 5.72833,-0.62752 8.592245,-0.54099 0.833015,0.0576 1.668765,0.0841 2.49904,0.17279 4.492645,0.48005 8.860455,1.82908 12.8376,3.9697 0.66535,0.4496 1.36887,0.84733 1.996043,1.34882 0.7266,0.58098 2.03973,1.96924 2.54981,2.79857 0.27179,0.44191 0.45856,0.93367 0.62849,1.42385 0.4708,1.35811 0.41548,1.71963 0.54289,3.14003 -0.17398,1.40871 -0.20377,2.1299 -0.63057,3.51764 -0.78801,2.56222 -2.29076,4.81843 -4.022058,6.83403 -1.23571,1.27265 -1.457775,1.60053 -2.852925,2.65895 -2.181465,1.65496 -4.748635,2.69523 -7.08192,4.10219 -2.872915,1.652 -5.88233,3.3258 -8.296485,5.63196 -0.96451,0.92137 -1.434225,1.64764 -2.218393,2.70675 -0.275257,0.48131 -0.587908,0.94307 -0.825771,1.44391 -0.20079,0.42278 -0.349516,0.86965 -0.485674,1.31744 -0.353166,1.16149 -0.624283,2.49441 -0.205541,3.68389 0.115854,0.3291 0.330792,0.61439 0.496188,0.92159 0.274146,0.21037 0.514494,0.47432 0.822438,0.6311 0.489906,0.24943 1.208968,0.25139 1.734193,0.25187 1.365035,0.001 2.72611,-0.14802 4.08914,-0.19494 4.404245,-0.25654 8.806715,-0.56707 13.21956,-0.63233 1.44248,-0.016 2.263048,-0.0414 3.652528,-0.003 0.58632,0.0163 1.63164,0.0643 2.24741,0.15343 0.37147,0.0537 0.50955,0.12175 0.8296,0.2434 0.0988,0.14251 0.22357,0.2702 0.29655,0.42753 0.15724,0.33896 0.54366,1.68119 0.61842,1.94527 0.38798,1.37036 0.74614,2.75035 1.05481,4.14078 0.35198,1.8662 0.12506,0.46784 0.30587,2.06637 0.0177,0.15637 0.045,0.31151 0.0689,0.46706 0.01,0.0622 0.0591,0.12958 0.0314,0.18602 -0.15064,0.30664 -0.67813,0.25864 -0.89034,0.28971 -2.44565,0.0446 -4.89221,-0.0108 -7.337463,-0.0578 -4.49758,-0.11686 -8.99332,-0.28974 -13.490655,-0.41464 -4.92886,-0.0658 -9.866614,-0.0133 -14.770296,0.54794 -0.300077,0.0462 -0.605412,0.066 -0.900231,0.13846 -0.02625,0.006 -0.0061,0.059 0.01035,0.0804 0.12674,0.16522 0.282076,0.30687 0.411723,0.46982 0.0086,0.0108 -7.5e-4,0.0542 -0.0052,0.0411 -0.03764,-0.11034 -0.06135,-0.37582 -0.07131,-0.45604 -0.160889,-1.15366 -0.318514,-2.30705 -0.35119,-3.47382 -0.105905,-2.31458 -0.07962,-4.63534 0.0922,-6.94652 0.09371,-1.01439 0.140371,-1.69209 0.300624,-2.70569 0.280249,-1.77256 0.793539,-3.4936 1.573908,-5.11225 0.455202,-0.90362 0.72552,-1.47866 1.240351,-2.34867 0.933047,-1.57675 2.022392,-3.05799 3.300074,-4.37365 0.363946,-0.36961 0.71983,-0.74733 1.091837,-1.10882 2.127935,-2.0678 4.472499,-3.91044 6.975114,-5.50324 2.58424,-1.47354 5.214065,-2.90029 7.533905,-4.78092 1.098115,-0.94067 2.19603,-1.87013 3.028,-3.0698 0.77463,-1.11697 1.208985,-2.34944 1.425455,-3.68523 -0.02805,-1.12994 0.08798,-1.46779 -0.4069,-2.49781 -0.50088,-1.04251 -1.462615,-1.80032 -2.47564,-2.30481 -0.381825,-0.19015 -0.7921,-0.31681 -1.18815,-0.47521 -0.499605,-0.14415 -0.992755,-0.31294 -1.498825,-0.43244 -1.93864,-0.45777 -4.003345,-0.72676 -5.99692,-0.64478 -1.633495,0.0672 -2.30365,0.29703 -3.87511,0.6595 -1.443097,0.48634 -2.010628,0.6089 -3.344826,1.32214 -1.487152,0.795 -2.749035,1.93366 -3.852197,3.19558 -0.4343,0.51827 -0.581187,0.68802 -0.977254,1.17824 -0.12352,0.15288 -0.27068,0.44612 -0.50646,0.46531 -0.135905,0.011 -0.271834,-0.0219 -0.407751,-0.0328 -1.902591,-0.75147 -3.733139,-1.66652 -5.551924,-2.60007 -1.168105,-0.64895 -2.085856,1.003 -0.91775,1.65195 z" /><path
       style="fill:#000000;stroke-width:0.5"
       id="path436"
       d="m 137.41255,158.20483 c -1.12089,1.99786 -2.30001,3.96172 -3.60133,5.84844 -0.41093,0.59579 -0.84082,1.17828 -1.26122,1.76742 -0.44122,0.59015 -0.87749,1.18402 -1.32364,1.77045 -0.83651,1.09955 -1.70392,2.21388 -2.60044,3.26635 -1.42927,1.6779 -2.9658,3.25401 -4.50458,4.83007 -1.95819,1.98333 -3.98328,3.90088 -5.89295,5.93206 -1.14036,1.21292 -1.38964,1.52611 -2.46284,2.76636 -1.94638,2.39546 -3.86067,4.82329 -5.61768,7.3622 -1.09394,1.78164 -1.32018,3.76491 -1.4857,5.80077 -0.0268,0.47741 -0.0597,0.83685 -0.0414,1.30863 0.0281,0.7223 0.0907,1.1236 1.11499,1.47001 0.52758,0.17842 3.40942,-0.14856 3.83154,-0.18738 3.19725,-0.33775 6.40261,-0.62501 9.61761,-0.71654 1.50603,-0.0428 2.59064,-0.028 4.09178,-0.0234 3.0696,0.0435 6.13045,0.24817 9.18033,0.58815 0.32937,0.0495 0.68466,0.0747 1.00057,0.20072 0.0488,0.0195 0.13022,0.0394 0.12826,0.092 -0.001,0.0447 -0.11957,-0.0212 -0.13249,0.0217 -0.0435,0.14407 -0.0152,0.30093 -0.0102,0.45132 0.0106,0.31587 0.038,0.63094 0.0571,0.94641 0.0169,2.84964 -0.15103,5.698 -0.32131,8.54169 0.014,0.87591 -0.33602,2.11897 0.12148,2.94316 0.6495,1.17007 1.81496,1.56643 2.97643,2.00355 0.30926,0.0873 0.61367,0.19407 0.92779,0.26178 1.16003,0.25006 2.53186,0.33158 3.63986,-0.17755 0.29001,-0.13326 0.54224,-0.3368 0.81337,-0.50519 0.23945,-0.28871 0.51606,-0.55028 0.71836,-0.86614 0.7228,-1.12849 0.86504,-2.43984 0.89999,-3.74474 0.0308,-1.14748 -0.0563,-2.2322 -0.12201,-3.37689 -0.0512,-1.41141 -0.27591,-2.81339 -0.346,-4.22306 -0.009,-0.1829 -0.0305,-1.26321 0.0813,-1.53124 0.0316,-0.0758 0.15063,-0.0657 0.22595,-0.0985 0.4122,-0.18972 0.85721,-0.33384 1.3109,-0.38109 0.45915,-0.0478 0.8464,0.045 1.31066,0.12012 0.36716,0.0594 0.73306,0.12634 1.09959,0.1895 0.93677,0.13889 1.86262,0.41231 2.81346,0.45605 0.6054,0.0279 1.23636,0.001 1.6315,-0.62491 0.25131,-0.39805 0.20652,-0.91856 0.30978,-1.37784 -0.1034,-1.26553 -0.35616,-2.51196 -0.61179,-3.75349 -0.0947,-0.45973 -0.36298,-1.85982 -0.60067,-2.29516 -0.21142,-0.38723 -0.54954,-0.69036 -0.82431,-1.03554 -1.42063,-0.66841 -0.99249,-0.61339 -2.44958,-0.78327 -0.50086,-0.0584 -1.03171,0.0147 -1.49928,-0.23145 -0.25126,-0.13228 -0.30682,-0.39853 -0.40309,-0.63212 -0.0592,-0.30809 -0.12924,-0.61428 -0.17753,-0.92425 -0.13893,-0.89167 -0.30033,-2.42312 -0.40365,-3.26216 -0.27937,-2.26853 -0.59545,-4.53231 -0.90997,-6.79616 -0.57359,-4.0019 -1.16689,-8.00267 -1.49474,-12.03352 -0.14205,-2.39181 -0.27933,-4.79236 -0.0574,-7.18259 0.0311,-0.52442 0.47911,-1.84235 0.19785,-2.29852 -0.70346,-1.14089 -1.22583,-1.04339 -2.4396,-1.41438 -1.6373,-0.2908 -3.28433,-0.59563 -4.94632,-0.71127 -0.39067,-0.0272 -0.78306,-0.0166 -1.17459,-0.0249 -1.33605,-0.0241 -1.37016,1.86533 -0.0341,1.88945 v 0 c 0.33577,0.005 0.6723,-0.009 1.00732,0.0145 1.56079,0.10722 3.10695,0.3932 4.64664,0.65439 0.32102,0.0731 0.63411,0.23271 0.96306,0.21916 0.097,-0.004 0.0624,-0.18811 0.12303,-0.2639 0.015,-0.0188 0.0674,0.002 0.0672,0.0261 -0.001,0.13967 -0.0448,0.27576 -0.0698,0.41318 -0.19457,1.06885 -0.0373,0.0867 -0.22262,1.32404 -0.22561,2.49925 -0.10101,5.00772 0.0558,7.50844 0.3327,4.06627 0.92561,8.10291 1.50646,12.13991 0.31269,2.25055 0.62705,4.50103 0.90485,6.75623 0.0613,0.4977 0.32551,2.91106 0.44531,3.49268 0.10324,0.50123 0.27502,0.98587 0.41253,1.4788 0.21592,0.30065 0.38054,0.64582 0.64776,0.90196 1.07281,1.02829 2.58854,0.70333 3.90574,1.01046 0.14052,0.11191 0.33277,0.17958 0.42156,0.33573 0.2228,0.39184 0.47217,1.72193 0.54855,2.09229 0.22441,1.08823 0.43524,2.18056 0.57837,3.28292 0.0754,0.0529 0.13962,0.12756 0.22632,0.15883 0.0996,0.0359 0.39168,-0.0369 0.3154,0.0365 -0.0931,0.0896 -0.25727,0.0369 -0.38641,0.0318 -0.91404,-0.0366 -1.8024,-0.31468 -2.7033,-0.44046 -0.64121,-0.10968 -1.6826,-0.30786 -2.33689,-0.34047 -0.74319,-0.037 -1.73705,0.1768 -2.3849,0.53869 -0.30381,0.16971 -0.56143,0.41134 -0.84215,0.61701 -0.19333,0.33287 -0.44896,0.63666 -0.57999,0.99862 -0.12673,0.35006 -0.10147,1.61729 -0.0868,1.91432 0.0686,1.39127 0.29117,2.77493 0.34199,4.16787 0.0704,1.20603 0.13649,1.95575 0.12231,3.15339 -0.0137,1.16021 -0.11677,2.17988 -0.78483,3.15581 -0.12041,0.0943 -0.22741,0.20879 -0.36123,0.28278 -0.93204,0.51526 -2.3595,0.21102 -3.31486,-0.0661 -1.38763,-0.49473 -0.23876,-0.0559 -1.45494,-0.5932 -0.11486,-0.0507 -0.26501,-0.045 -0.35114,-0.1364 -0.35099,-0.3724 -0.0251,-1.86582 -0.0576,-2.33049 0.17491,-2.9217 0.34909,-5.8486 0.32076,-8.77647 -0.0462,-0.67606 -0.0556,-1.66943 -0.34562,-2.30168 -0.42858,-0.93444 -1.49878,-1.04305 -2.37419,-1.1668 -3.11749,-0.34724 -6.24633,-0.55611 -9.38395,-0.59976 -1.54432,-0.005 -2.6251,-0.0195 -4.17617,0.025 -3.24679,0.0933 -6.48399,0.38168 -9.71289,0.72293 -0.64588,0.0601 -1.29247,0.11291 -1.93763,0.1802 -0.34434,0.0359 -0.76063,-0.0874 -1.03052,0.12938 -0.15949,0.12813 0.0624,0.40565 0.12032,0.60186 0.0297,0.10057 -0.0301,-0.20789 -0.0349,-0.31265 -0.0188,-0.41322 0.0119,-0.73444 0.0353,-1.15635 0.13453,-1.68164 0.28377,-3.39033 1.15631,-4.87779 1.71685,-2.48396 3.59217,-4.85595 5.49272,-7.20087 1.03667,-1.19902 1.29066,-1.51719 2.39273,-2.68968 1.90716,-2.02902 3.93088,-3.94329 5.88606,-5.92497 1.57687,-1.6157 3.1499,-3.23213 4.61411,-4.95249 0.91162,-1.0711 1.80153,-2.21388 2.65228,-3.33258 0.45455,-0.5977 0.89901,-1.20302 1.34852,-1.80453 0.43239,-0.60655 0.87445,-1.20632 1.29717,-1.81965 1.32454,-1.92181 2.52569,-3.92165 3.66762,-5.95594 0.66297,-1.1602 -0.9778,-2.09779 -1.64077,-0.93758 z" /><path
       style="fill:#000000;stroke-width:0.5"
       id="path438"
       d="m 139.11139,173.40621 c -0.22054,0.13138 -0.4503,0.24836 -0.66161,0.39412 -1.58183,1.09112 -3.01505,2.39715 -4.43178,3.68848 -1.4022,1.27808 -2.16042,2.01509 -3.53713,3.32671 -2.1132,2.04765 -4.08586,4.2395 -5.90662,6.55081 -0.32239,0.40925 -0.65182,0.81413 -0.94658,1.24371 -0.23932,0.34878 -0.43551,0.72527 -0.65327,1.0879 0.002,0.47906 -0.24932,1.03203 0.006,1.43719 0.84303,1.33615 2.58605,1.63513 3.93632,1.94413 1.94509,0.44511 3.9364,0.66427 5.91737,0.86901 1.46058,0.008 3.09696,0.1432 4.43363,-0.59528 0.24392,-0.13477 0.49079,-0.28411 0.67508,-0.49314 0.23675,-0.26854 0.37664,-0.60893 0.56497,-0.91339 0.0913,-0.43518 0.22198,-0.86392 0.27381,-1.30554 0.0778,-0.66312 0.13345,-3.45638 0.14394,-3.97653 0.0473,-2.34641 0.0786,-4.69236 0.14027,-7.03852 0.021,-0.67863 0.042,-1.35726 0.063,-2.03589 0.0413,-1.33562 -1.8475,-1.3941 -1.88886,-0.0585 v 0 c -0.0211,0.68159 -0.0422,1.36318 -0.0633,2.04477 -0.0616,2.34709 -0.0933,4.69396 -0.14033,7.04131 -0.0127,0.63225 -0.0623,2.89653 -0.11573,3.69471 -0.0172,0.2572 -0.0615,0.51187 -0.0923,0.7678 -0.0204,0.10004 -0.0109,0.21121 -0.061,0.30012 -0.12717,0.22529 -0.50334,0.38589 -0.70902,0.45235 -0.97527,0.31514 -2.02453,0.24412 -3.03064,0.23588 -1.88974,-0.19373 -3.77084,-0.4211 -5.63152,-0.81714 -0.60145,-0.12801 -1.18323,-0.34707 -1.79033,-0.44481 -0.24992,-0.0402 -0.50803,0.0702 -0.75864,0.0344 -0.10081,-0.0144 -0.16548,-0.11871 -0.24822,-0.17806 0.17751,-0.30293 0.33409,-0.61912 0.53252,-0.90877 0.39708,-0.57962 1.67882,-2.16353 2.06985,-2.63021 1.44319,-1.72242 2.96603,-3.379 4.58285,-4.94022 1.37304,-1.30831 2.09688,-2.01242 3.4938,-3.2867 1.32792,-1.21134 2.67081,-2.44039 4.14459,-3.47668 0.17022,-0.11969 0.35579,-0.2159 0.53368,-0.32385 1.1952,-0.59759 0.35007,-2.28785 -0.84512,-1.69026 z" /><path
       style="fill:#000000;stroke-width:0.5"
       id="path444"
       d="m 107.81493,94.832209 c -1.94754,1.284696 -3.97977,2.438955 -6.0077,3.591322 -2.166322,1.236018 -4.441042,2.268239 -6.713287,3.291239 -2.230945,0.96478 -4.47552,1.89771 -6.70255,2.87137 -1.90965,0.82289 -3.70439,1.88266 -5.45629,2.99597 -1.706775,1.06093 -3.213071,2.39412 -4.763537,3.66232 -2.416405,2.10247 -4.857215,4.17628 -7.272505,6.28014 -2.245527,1.98462 -4.499594,3.97493 -6.527189,6.18593 -1.119138,1.21506 -2.12764,2.52096 -3.140735,3.82334 -1.134476,1.50091 -2.273587,2.99913 -3.363226,4.53322 -1.083023,1.50697 -2.206107,2.98623 -3.351113,4.44673 -1.089839,1.31419 -2.050546,2.72951 -3.016374,4.13554 -1.13123,1.66144 -2.042186,3.44746 -2.820499,5.29634 -0.754735,1.86706 -1.377144,3.78456 -2.027941,5.68966 -0.635731,1.96843 -1.348219,3.90934 -2.071241,5.84696 -1.079324,2.64252 -1.996207,5.3416 -2.836637,8.06818 -0.827023,2.646 -1.362672,5.36668 -1.806662,8.09894 -0.402971,2.37837 -0.562897,4.78493 -0.740554,7.18766 -0.13626,1.79151 -0.214912,3.58617 -0.245361,5.38236 -0.01183,1.36281 -0.132381,2.72116 -0.183537,4.08291 -0.135746,1.90823 -0.208505,3.81946 -0.25631,5.73163 -0.0279,1.8363 -0.03603,3.67142 -0.11198,5.5065 -0.07032,1.52206 -0.127925,3.04457 -0.153756,4.56806 -0.05398,1.13616 0.01222,2.26649 0.09341,3.39885 0.107098,1.09163 0.268342,2.1756 0.46627,3.25409 0.210796,1.30553 0.528896,2.58939 0.897463,3.85831 0.283421,1.08874 0.705161,2.12968 1.133965,3.16654 0.448437,1.02869 0.988766,2.0134 1.562969,2.9764 0.64636,1.15322 1.376003,2.25574 2.079234,3.37435 0.87618,1.39819 2.248373,2.22329 3.612652,3.07681 1.727366,1.1106 3.61409,1.9104 5.531928,2.62297 1.574293,0.54143 3.178615,0.98651 4.803326,1.34724 1.501152,0.31204 3.007354,0.59686 4.508655,0.90844 2.108148,0.45885 4.258357,0.63667 6.401533,0.83926 2.116627,0.18004 4.236156,0.32368 6.3533,0.4966 2.187823,0.18888 4.382691,0.26772 6.572131,0.43414 1.92906,0.17749 3.85718,0.36256 5.78705,0.53233 2.03493,0.15446 4.069,0.31418 6.102055,0.49205 2.35261,0.26937 4.71136,0.4696 7.074913,0.61086 2.72502,0.20403 5.4507,0.38902 8.18032,0.52031 1.98705,0.0823 3.97469,0.13281 5.9618,0.0425 1.58714,-0.0954 3.17565,-0.2051 4.75843,-0.35907 1.70928,-0.1371 3.41494,-0.30208 5.11754,-0.50664 2.53898,-0.33161 5.08172,-0.63388 7.62528,-0.92799 2.81439,-0.39152 5.64201,-0.64463 8.47513,-0.84778 3.81714,-0.18559 7.61849,-0.56365 11.41156,-1.01976 2.88387,-0.34805 5.70642,-1.00182 8.46724,-1.89226 1.64368,-0.58798 3.29246,-1.15916 4.87585,-1.89721 1.4523,-0.68089 2.77104,-1.57188 4.04253,-2.53998 1.57452,-1.2231 2.83156,-2.79083 4.08022,-4.33084 1.01795,-1.27842 1.88178,-2.65862 2.54877,-4.14879 0.6854,-1.65245 1.21735,-3.35749 1.58251,-5.10744 0.36656,-1.94624 0.41587,-3.92591 0.45191,-5.89955 0.0333,-2.61994 -0.20753,-5.22447 -0.50496,-7.82347 -0.24333,-2.24487 -0.69711,-4.45487 -1.14151,-6.66571 -0.65317,-3.0325 -1.00138,-6.12185 -1.36066,-9.2001 -0.36513,-3.08692 -0.72808,-6.17409 -1.07192,-9.26347 -0.40878,-3.3485 -0.94557,-6.68082 -1.55327,-9.99854 -0.89816,-4.75963 -2.0318,-9.46691 -3.272,-14.14735 -0.75639,-2.77975 -1.59496,-5.5446 -2.7503,-8.18857 -0.90811,-2.0782 -1.33213,-2.80531 -2.38623,-4.82672 -1.67294,-3.14486 -3.71217,-6.09152 -5.9895,-8.82876 -1.1655,-1.40089 -1.97926,-2.22882 -3.21513,-3.54388 -3.14235,-3.25875 -6.5962,-6.18772 -10.0948,-9.05162 -4.22599,-3.47536 -8.66963,-6.66677 -13.13773,-9.81969 -3.90755,-2.80879 -7.96695,-5.39187 -11.98423,-8.037557 -2.65282,-1.752636 -5.28143,-3.5408 -7.90848,-5.331738 -0.26101,-0.17233 -0.52201,-0.344661 -0.78302,-0.516992 -1.11521,-0.736144 -2.15627,0.841002 -1.04106,1.577146 v 0 c 0.2532,0.167097 0.5064,0.334193 0.75961,0.50129 2.63539,1.796585 5.27238,3.590343 7.93358,5.348551 4.00045,2.63444 8.04294,5.20641 11.93406,8.00336 4.43142,3.12686 8.83907,6.29124 13.03031,9.73798 3.43535,2.81163 6.82791,5.68583 9.91497,8.88376 1.17544,1.24957 2.0025,2.09257 3.10857,3.42023 2.20362,2.6451 4.18014,5.4913 5.79751,8.53225 1.01427,1.94188 1.43578,2.66633 2.30898,4.65926 1.12655,2.57113 1.93995,5.26168 2.67618,7.96578 1.22782,4.63302 2.35045,9.29252 3.23991,14.00393 0.60032,3.27399 1.1294,6.56263 1.53391,9.86696 0.34432,3.09272 0.70748,6.18326 1.07307,9.27353 0.36547,3.12964 0.72125,6.2702 1.38497,9.35341 0.434,2.15869 0.87917,4.31617 1.1167,6.50817 0.28808,2.51629 0.52462,5.03749 0.49302,7.57419 -0.0336,1.85666 -0.0741,3.7193 -0.41306,5.55121 -0.33136,1.61881 -0.83237,3.19189 -1.45835,4.72165 -0.59346,1.34179 -1.38009,2.57601 -2.29045,3.72741 -1.15321,1.42345 -2.30807,2.88053 -3.7572,4.01742 -1.16425,0.88724 -2.36727,1.70828 -3.69835,2.33164 -1.50966,0.70948 -3.08903,1.24285 -4.65586,1.8106 -2.64447,0.85578 -5.34903,1.47964 -8.11199,1.81427 -3.76296,0.45271 -7.53416,0.82736 -11.32106,1.01108 -2.86045,0.20517 -5.71543,0.46063 -8.55701,0.85545 -2.54638,0.29444 -5.09193,0.59699 -7.63371,0.92898 -1.68873,0.203 -3.38053,0.36602 -5.07589,0.5021 -1.55013,0.1523 -3.10636,0.25718 -4.66079,0.35208 -1.9281,0.0885 -3.85675,0.0362 -5.78484,-0.0423 -2.72235,-0.13085 -5.4407,-0.31598 -8.15848,-0.51913 -2.346213,-0.13987 -4.687453,-0.34019 -7.022823,-0.60703 -2.032765,-0.17781 -4.06653,-0.33772 -6.10118,-0.49197 -1.93741,-0.17036 -3.873015,-0.35654 -5.80966,-0.53419 -2.185925,-0.16553 -4.377085,-0.24581 -6.561415,-0.4333 -2.10912,-0.1719 -4.220517,-0.31576 -6.329143,-0.49447 -2.073945,-0.19601 -4.155218,-0.36437 -6.195389,-0.80823 -1.493152,-0.30982 -2.991066,-0.59363 -4.48421,-0.90319 -1.540567,-0.33989 -3.060602,-0.76432 -4.554034,-1.27375 -1.798164,-0.667 -3.5689,-1.41087 -5.18758,-2.45358 -1.122687,-0.70192 -2.281229,-1.33702 -3.014839,-2.48038 -0.695497,-1.10628 -1.417421,-2.19641 -2.056399,-3.33708 -0.528015,-0.88371 -1.024959,-1.78722 -1.439491,-2.73042 -0.402894,-0.97321 -0.801599,-1.9492 -1.065669,-2.97208 -0.35214,-1.20733 -0.653229,-2.42968 -0.85339,-3.67226 -0.186434,-1.00998 -0.336447,-2.02512 -0.439897,-3.04721 -0.07722,-1.07689 -0.142996,-2.15107 -0.08884,-3.23175 0.02542,-1.50811 0.08293,-3.01524 0.152414,-4.52195 0.07622,-1.84538 0.08574,-3.69077 0.113004,-5.53738 0.04752,-1.90435 0.121096,-3.80765 0.255575,-5.70811 0.05128,-1.37466 0.174232,-2.74587 0.184592,-4.12169 0.02964,-1.76036 0.106959,-3.51919 0.240487,-5.27496 0.173535,-2.34796 0.327525,-4.69986 0.721259,-7.02406 0.429529,-2.64658 0.946118,-5.28238 1.747308,-7.84538 0.829131,-2.69173 1.735334,-5.35555 2.801181,-7.96399 0.729179,-1.95412 1.44749,-3.91168 2.089026,-5.89674 0.636845,-1.8643 1.245571,-3.74081 1.981942,-5.56871 0.725595,-1.73154 1.578982,-3.40227 2.635924,-4.95828 0.943209,-1.37343 1.880635,-2.75663 2.945945,-4.03961 1.16319,-1.48416 2.304476,-2.98707 3.404647,-4.51846 1.07329,-1.512 2.196625,-2.98774 3.314049,-4.46707 0.981932,-1.26249 1.957983,-2.52949 3.042783,-3.70734 1.976279,-2.16155 4.186056,-4.09625 6.374725,-6.03721 2.400583,-2.09108 4.826912,-4.15185 7.227833,-6.24242 1.49211,-1.22081 2.93954,-2.50718 4.580905,-3.53028 1.669495,-1.06205 3.379205,-2.07468 5.19954,-2.85926 2.23307,-0.97683 4.48446,-1.91116 6.721205,-2.87965 2.326035,-1.04734 4.653725,-2.10569 6.871125,-3.3714 2.07929,-1.18168 4.16299,-2.365459 6.15773,-3.686166 1.09471,-0.766298 0.011,-2.314453 -1.08371,-1.548155 z" /></g></svg>
