<?xml version="1.0" encoding="UTF-8" standalone="no"?>
<!-- Created with Inkscape (http://www.inkscape.org/) -->

<svg
   width="315.02588"
   height="299.25259"
   viewBox="0 0 157.51294 149.6263"
   version="1.1"
   id="svg460"
   inkscape:version="1.2.1 (9c6d41e410, 2022-07-14)"
   sodipodi:docname="ibahm.svg"
   xmlns:inkscape="http://www.inkscape.org/namespaces/inkscape"
   xmlns:sodipodi="http://sodipodi.sourceforge.net/DTD/sodipodi-0.dtd"
   xmlns="http://www.w3.org/2000/svg"
   xmlns:svg="http://www.w3.org/2000/svg">
  <sodipodi:namedview
     id="namedview462"
     pagecolor="#ffffff"
     bordercolor="#999999"
     borderopacity="1"
     inkscape:showpageshadow="0"
     inkscape:pageopacity="0"
     inkscape:pagecheckerboard="0"
     inkscape:deskcolor="#d1d1d1"
     inkscape:document-units="mm"
     showgrid="false"
     inkscape:zoom="0.74564394"
     inkscape:cx="193.12167"
     inkscape:cy="136.12395"
     inkscape:window-width="1278"
     inkscape:window-height="1008"
     inkscape:window-x="3186"
     inkscape:window-y="0"
     inkscape:window-maximized="0"
     inkscape:current-layer="layer1" />
  <defs
     id="defs457" />
  <g
     inkscape:label="Layer 1"
     inkscape:groupmode="layer"
     id="layer1"
     transform="translate(-29.930062,-90.66619)">
    <path
       style="fill:#000000;stroke-width:0.264583"
       id="path464"
       d="m 60.098855,120.63793 c -4.096242,13.7636 -8.241432,27.51208 -12.425416,41.24933 -4.071765,13.48417 -8.120578,26.97594 -11.917531,40.54045 -0.773928,3.10596 -1.587564,6.19037 -2.570253,9.23641 -0.980487,3.00985 -2.129007,5.96181 -3.024449,8.9989 -0.155938,0.6933 -0.434547,1.36423 0.0069,2.06984 0.681479,1.0894 1.758407,1.29828 2.898237,1.6067 1.414246,0.38267 2.861231,0.63202 4.291613,0.94909 6.744944,1.91393 13.294024,4.43326 19.880247,6.81804 7.316208,2.6491 6.189197,2.22919 13.387345,4.69915 4.839287,1.50674 9.763987,3.69773 14.964396,3.47026 6.349643,-0.27774 12.185833,-3.50962 17.813176,-6.07614 13.67625,-6.52631 27.08618,-13.57962 40.46162,-20.69478 1.21342,-0.48702 2.37291,-1.13953 3.64028,-1.46106 1.75973,-0.44644 4.56316,-0.38862 6.33876,0.067 3.86281,0.99118 7.4416,3.6489 10.69214,5.81787 3.59262,2.56119 7.11306,5.22556 10.5442,7.99961 1.13082,0.91425 3.29148,2.68595 4.37724,3.78788 0.5656,0.57402 1.06296,1.21152 1.59444,1.81727 1.4279,1.90516 1.0496,1.35962 2.30288,3.17497 0.25835,0.37422 0.4623,0.79091 0.76831,1.12727 0.56779,0.62409 1.59502,1.25274 2.41397,0.19814 0.49985,-0.64366 0.3963,-1.58099 0.59445,-2.37149 0.0696,-1.10726 0.16841,-2.21307 0.20884,-3.32178 0.22922,-6.28604 0.0379,-12.58121 -0.21177,-18.86282 -0.2425,-6.10009 -0.47952,-9.93668 -0.81919,-16.07776 -0.90519,-15.05394 -1.6833,-30.11507 -2.46797,-45.17567 -0.39771,-4.09806 -0.10868,-8.29436 -0.91596,-12.35574 -0.19948,-1.00355 -0.49484,-1.98767 -0.81669,-2.95891 -0.83607,-2.52296 -1.1625,-2.81079 -2.51243,-5.18718 -3.32179,-5.16258 -7.54588,-9.63435 -11.61568,-14.19787 -4.18991,-4.6982 -3.43039,-3.85238 -7.51781,-8.52713 -3.09029,-3.63778 -6.08555,-7.353428 -9.03912,-11.10237 -0.11037,-0.140095 -2.9123,-3.748985 -3.34678,-4.174721 -0.42088,-0.412427 -0.94592,-0.703 -1.41888,-1.054499 -0.73951,0.05823 -1.52404,-0.08598 -2.21854,0.174683 -1.16346,0.436676 -2.77896,2.207564 -3.54645,3.097972 -0.92846,1.077156 -2.80243,3.574489 -3.65104,4.665853 -0.66972,0.861317 -1.34902,1.715152 -2.02354,2.572722 -3.15001,4.0884 -6.48228,8.04212 -10.13256,11.69299 -3.31259,3.23115 -6.73019,6.35087 -10.1204,9.49953 -1.57406,1.47633 -3.12478,2.97674 -4.70402,4.44756 -0.21694,0.20205 -1.95854,1.83162 -2.31326,2.09547 -0.2942,0.21884 -0.63112,0.37344 -0.94669,0.56016 -0.30711,0.10669 -0.59844,0.28206 -0.92133,0.32006 -0.80901,0.0952 -3.06601,-0.25335 -3.6109,-0.34842 -3.489339,-0.60885 -6.85622,-1.66163 -10.241813,-2.67821 -6.964738,-2.31725 -14.069067,-4.07237 -21.222162,-5.68621 -1.379546,-0.31122 -1.819672,1.63976 -0.440127,1.95097 v 0 c 2.678711,0.60424 5.496684,1.22292 8.154136,1.89612 3.552523,0.89994 5.24252,1.40933 8.74664,2.46791 1.397577,0.4222 2.79105,0.85786 4.186576,1.28679 3.48615,1.04588 6.958624,2.13893 10.55596,2.74555 1.41089,0.23792 3.11359,0.48726 4.56439,0.24172 0.44754,-0.0757 0.8472,-0.32618 1.2708,-0.48927 0.40914,-0.25572 0.84059,-0.47879 1.2274,-0.76717 0.36091,-0.26907 2.12116,-1.91555 2.3572,-2.13539 1.57725,-1.4691 3.12635,-2.9674 4.69825,-4.44219 3.40845,-3.16565 6.84451,-6.30217 10.17425,-9.55146 3.70317,-3.70969 7.09345,-7.71708 10.28969,-11.8701 8.37434,-10.647981 -3.87523,4.94796 3.88035,-4.990563 1.45103,-1.859449 2.91476,-3.713123 4.82522,-5.129244 0.34597,0.233061 0.74057,0.406601 1.0379,0.699183 0.439,0.431985 3.22323,4.018716 3.3203,4.141911 2.97429,3.774983 5.9905,7.516493 9.10293,11.179133 4.08922,4.6767 3.3443,3.84764 7.53317,8.5445 3.97674,4.45901 8.10734,8.82503 11.37012,13.85748 0.46308,0.8025 0.98108,1.57573 1.38924,2.40752 0.6419,1.30815 1.41179,3.60659 1.69219,5.00139 0.80603,4.00961 0.49846,8.15772 0.90218,12.20353 0.78478,15.06273 1.563,30.126 2.46832,45.18208 0.6386,11.54382 1.434,23.13947 1.03168,34.7072 -0.0364,1.04698 -0.12589,2.09145 -0.18884,3.13717 0.0484,1.4773 -0.34496,1.09814 0.88475,1.43201 0.0886,0.0241 -0.20469,-0.008 -0.26435,-0.0776 -0.30014,-0.35119 -0.518,-0.7651 -0.78066,-1.14515 -1.31827,-1.90748 -0.91609,-1.32773 -2.44303,-3.35336 -0.58272,-0.65782 -1.13053,-1.34829 -1.74815,-1.97345 -1.11316,-1.12676 -3.31657,-2.93479 -4.4823,-3.87711 -3.47385,-2.80806 -7.03815,-5.50506 -10.67668,-8.09592 -3.60287,-2.39643 -7.2767,-5.10769 -11.57421,-6.1405 -2.17254,-0.52212 -5.17415,-0.488 -7.31314,0.0651 -1.33403,0.34495 -2.55465,1.03358 -3.83197,1.55037 -13.3398,7.09621 -26.71381,14.13104 -40.35305,20.64118 -5.135782,2.3478 -11.021049,5.59901 -16.826034,5.90158 -5.028628,0.2621 -9.793295,-1.93783 -14.471721,-3.36813 -7.176048,-2.46215 -6.049269,-2.04244 -13.349089,-4.68559 -6.669207,-2.41481 -13.30076,-4.96774 -20.134778,-6.89246 -1.381781,-0.30629 -2.769735,-0.58536 -4.147008,-0.91132 -0.409869,-0.097 -0.806511,-0.25092 -1.221285,-0.32417 -0.171593,-0.0303 -0.516337,0.094 -0.516546,-0.0803 -2.64e-4,-0.27037 0.115901,-0.52817 0.17385,-0.79226 0.888632,-3.02122 2.038421,-5.955 3.009349,-8.94994 0.990331,-3.0709 1.813846,-6.17978 2.592785,-9.31125 3.79282,-13.54995 7.837498,-27.02715 11.904792,-40.49684 4.178908,-13.72061 8.320272,-27.45207 12.409553,-41.19959 0.447212,-1.34165 -1.450154,-1.9741 -1.897366,-0.63246 z" />
    <path
       style="fill:#000000;stroke-width:0.264583"
       id="path466"
       d="m 66.468706,128.39398 c -0.42776,0.67623 -0.788704,1.21621 -1.15384,1.94839 -2.289741,4.59147 -3.861948,9.49947 -5.497996,14.34704 -3.688041,11.16919 -7.187944,22.39908 -10.462787,33.69616 -2.060342,7.19202 -3.959971,14.42811 -5.8987,21.65333 -1.079717,3.90453 -2.018138,7.84245 -2.669355,11.84072 -0.288777,1.80989 -0.186875,1.1355 -0.446029,2.896 -0.16727,1.13632 -0.458457,2.39845 0.648555,3.23172 0.392403,0.29537 0.916953,0.35228 1.375428,0.52842 0.580292,0.10507 1.160836,0.20876 1.740874,0.31521 0.64298,0.118 1.292466,0.20577 1.928175,0.35815 2.945265,0.706 5.765228,1.88307 8.604429,2.9119 1.242277,0.45016 2.48902,0.88789 3.733533,1.33183 6.050246,2.1609 12.202763,4.01372 18.334257,5.92593 2.797604,0.78232 5.564174,1.65299 8.307996,2.60502 1.889154,0.64806 3.271546,-0.42097 4.767321,-1.46218 1.571262,-1.09377 3.109515,-2.23422 4.666956,-3.34757 7.477197,-5.4196 15.571317,-9.87719 23.776867,-14.07637 4.9055,-2.41379 9.88573,-4.67952 14.99586,-6.62779 2.0465,-0.78025 3.94814,-1.42658 6.00764,-2.14299 3.66021,-1.30186 7.45818,-2.05529 11.30099,-2.54456 2.90731,-0.13557 5.81582,0.41552 8.6302,1.10469 1.97631,0.47729 3.77891,1.38887 5.54568,2.36543 1.64416,0.99756 3.01725,2.36024 4.44792,3.62877 2.04914,1.81689 1.70274,1.5066 3.78794,3.31777 4.85084,4.30807 -1.13446,-1.01801 3.28782,2.94797 0.86763,0.77811 2.47412,2.65869 3.92563,1.7013 0.5681,-0.3747 0.77859,-1.11641 1.16789,-1.67462 0.16688,-0.76524 0.38548,-1.52102 0.50063,-2.29574 0.29066,-1.95555 0.46153,-5.27544 0.54874,-7.16801 0.18176,-3.94427 0.19946,-7.87548 0.14937,-11.82228 -0.0975,-5.52727 -0.60027,-11.03453 -0.89047,-16.5527 -0.36295,-6.22521 -0.87917,-12.43997 -1.27111,-18.6637 -0.41961,-5.19151 -0.54971,-10.39927 -0.83745,-15.59777 -0.11853,-1.4728 -0.35916,-2.92666 -0.96397,-4.28515 -0.58345,-1.31049 -1.46044,-2.48005 -2.26165,-3.6597 -2.4923,-3.72488 -5.32873,-7.19864 -8.20117,-10.63265 -3.2079,-3.90473 -6.63793,-7.61949 -10.03806,-11.35579 -2.5972,-2.87964 -4.8709,-6.02485 -7.34075,-9.00998 -0.95704,-1.06904 -1.94033,-2.17213 -3.20164,-2.88368 -0.94536,-0.50307 -1.9238,-0.70055 -2.91372,-0.15644 -0.29235,0.16069 -0.53669,0.39637 -0.80503,0.59456 -2.69272,2.48648 -5.16917,5.19817 -7.66821,7.87624 -4.64439,4.81081 -8.92127,9.90137 -13.20272,15.0297 -2.94785,3.43502 -6.00549,6.79776 -9.36105,9.84169 -1.30743,1.10775 -2.59774,2.26005 -4.06288,3.15845 -1.74206,0.60714 -3.65918,0.26537 -5.44028,0.0537 -0.90683,-0.10775 -1.81151,-0.23291 -2.71726,-0.34937 -3.753293,-0.52117 -7.537176,-0.92215 -11.229264,-1.8071 -2.076405,-0.49769 -3.405402,-0.95473 -5.42353,-1.59188 -3.318084,-1.06791 -6.535063,-2.4164 -9.613442,-4.04811 -0.28162,-0.14313 -0.563242,-0.28625 -0.844862,-0.42938 -1.260835,-0.64054 -2.166705,1.14254 -0.90587,1.78309 v 0 c 0.271621,0.13794 0.54324,0.27588 0.814861,0.41382 3.186729,1.68558 6.513425,3.0851 9.947733,4.18796 2.128784,0.67076 3.425269,1.11855 5.621789,1.64342 3.741494,0.89404 7.574426,1.30549 11.377725,1.83188 0.92103,0.11824 1.84088,0.24597 2.76308,0.35472 2.23168,0.26317 4.5836,0.62053 6.70125,-0.34177 1.56319,-0.97338 2.96329,-2.1798 4.35578,-3.37911 3.41926,-3.11049 6.54813,-6.53103 9.5515,-10.04029 2.16533,-2.59362 4.30006,-5.21771 6.53174,-7.75502 1.41799,-1.61219 3.00112,-3.30265 4.46028,-4.88011 0.7127,-0.77048 1.42512,-1.54123 2.13768,-2.31185 2.427,-2.60098 4.83616,-5.22806 7.4334,-7.66166 0.73066,-0.62145 0.6071,-0.70575 1.55285,-0.25101 0.94872,0.43176 1.88192,1.68002 2.59927,2.39262 2.49038,3.00876 4.78043,6.1812 7.40238,9.08098 3.38143,3.71574 6.79312,7.40961 9.98324,11.29297 2.83007,3.38265 5.62564,6.80379 8.08087,10.47331 0.71146,1.04685 1.50796,2.08929 2.04529,3.2433 0.54148,1.16293 0.73052,2.42026 0.83771,3.68832 0.28892,5.20343 0.41763,10.41631 0.83833,15.61277 0.3916,6.21686 0.90683,12.42478 1.26992,18.64307 0.28906,5.49168 0.78849,10.97253 0.88787,16.47317 0.0502,3.90058 0.032,7.78545 -0.14632,11.68357 -0.0941,2.05672 -0.23737,4.7898 -0.5112,6.87947 -0.0809,0.6177 -0.23106,1.22434 -0.34659,1.83651 0.0251,0.20537 0.0474,0.41111 0.0754,0.61612 0.0147,0.10788 0.15951,0.34394 0.0528,0.32237 -0.57676,-0.11651 -1.86277,-1.39726 -2.07345,-1.58621 -4.41483,-3.95934 1.52106,1.32241 -3.31937,-2.97596 -2.0767,-1.80369 -1.72599,-1.48971 -3.7695,-3.30156 -1.54195,-1.36715 -3.02693,-2.82827 -4.81083,-3.88569 -1.92226,-1.06115 -3.88974,-2.0397 -6.03871,-2.55778 -3.05282,-0.74209 -6.2046,-1.33137 -9.35726,-1.1456 -3.98005,0.50862 -7.91389,1.29204 -11.70508,2.63953 -2.10211,0.73142 -3.9964,1.37503 -6.08807,2.17292 -5.16915,1.97185 -10.20738,4.26377 -15.16948,6.70646 -8.29271,4.24485 -16.47177,8.75237 -24.028758,14.22971 -1.53983,1.10077 -3.065028,2.2221 -4.613518,3.31066 -0.218382,0.15352 -1.876229,1.41503 -2.376212,1.39894 -0.215408,-0.007 -0.417232,-0.10822 -0.625848,-0.16233 -2.763737,-0.95893 -5.550265,-1.83684 -8.368141,-2.62482 -6.105832,-1.90421 -12.232733,-3.74885 -18.257769,-5.90037 -1.237924,-0.44156 -2.478074,-0.87692 -3.713776,-1.32467 -2.949586,-1.06876 -5.871427,-2.26964 -8.930907,-3.00169 -0.640451,-0.15324 -1.294376,-0.24343 -1.942375,-0.36074 -0.516253,-0.0935 -1.033555,-0.18102 -1.550331,-0.27153 -0.159687,0.002 -0.321882,-0.0215 -0.47906,0.007 -0.07019,0.0126 -0.143092,0.17187 -0.182179,0.11221 -0.235463,-0.35937 0.05247,-1.51375 0.07412,-1.66088 0.256572,-1.74367 0.15403,-1.06511 0.441613,-2.8676 0.639784,-3.93204 1.565553,-7.80393 2.627011,-11.64376 1.935242,-7.21236 3.831474,-14.43556 5.887953,-21.61482 3.266617,-11.26943 6.758228,-22.47167 10.436894,-33.61357 1.595154,-4.72863 3.12311,-9.52251 5.346298,-14.00626 0.267046,-0.53858 0.650327,-1.15088 0.972246,-1.6792 0.883451,-1.10431 -0.678286,-2.3537 -1.561738,-1.24939 z" />
    <path
       style="fill:#000000;stroke-width:0.264583"
       id="path470"
       d="m 174.46774,176.41851 c 0.0443,1.38235 0.17753,2.7615 0.2752,4.14111 0.20895,2.96398 0.27946,5.93528 0.30321,8.90578 -0.007,0.51768 -0.008,1.03548 -0.0203,1.55306 -0.0399,1.64075 -0.16037,3.27143 -0.35023,4.9017 -0.13216,1.13489 -0.27666,2.07804 -0.43997,3.20357 -0.24334,1.67115 -0.57541,3.32947 -0.76557,5.00811 -0.0741,0.72567 -0.0595,1.45628 -0.12309,2.18259 -0.008,0.037 -0.038,0.1464 -0.0248,0.11092 0.25351,-0.67806 -0.18588,-0.24316 1.2875,-0.66691 0.0373,-0.0107 0.13252,0.0476 0.11584,0.0125 -0.0685,-0.14396 -0.18951,-0.25658 -0.2906,-0.37985 -0.16333,-0.19916 -0.33493,-0.39139 -0.50239,-0.58708 -2.11435,-2.34391 -4.9234,-3.86218 -7.65111,-5.37064 -2.85738,-1.54042 -5.82039,-2.8684 -8.82251,-4.09776 -1.15775,-0.4684 -2.33808,-0.87891 -3.46799,-1.41294 -0.87643,-0.46072 -1.77381,-0.88409 -2.62523,-1.39079 -0.0972,-0.0924 -0.34157,-0.1635 -0.39123,-0.30614 -0.008,-0.0232 -0.036,-0.0451 -0.0276,-0.0682 0.007,-0.0188 0.0387,-0.01 0.058,-0.0151 0.0311,-0.0921 0.0621,-0.18422 0.0932,-0.27633 0.0499,-0.22366 0.0957,-0.44826 0.14964,-0.67097 0.33497,-1.38253 0.27595,-0.98205 0.63164,-2.55262 0.13498,-0.59601 0.26375,-1.1935 0.38262,-1.79293 0.25728,-1.29739 0.54036,-2.9757 0.76507,-4.26949 0.5677,-3.36625 1.02715,-6.75378 1.79208,-10.08366 0.1038,-0.45183 0.22347,-0.89988 0.3352,-1.34983 0.16547,-0.58922 0.34471,-1.27818 0.55523,-1.86334 0.0591,-0.16424 0.10981,-0.33532 0.20411,-0.4822 0.0178,-0.0276 0.0638,0.0536 0.0515,0.0841 -0.046,0.11325 -0.27769,0.20137 -0.20812,0.30186 0.12401,0.17916 0.39913,0.17493 0.5987,0.2624 3.2996,1.54142 6.62452,3.02771 9.91353,4.59187 1.8135,0.82881 3.52565,1.86166 5.34176,2.68336 0.40299,0.18645 0.83214,0.32835 1.21621,0.55504 0.16125,0.0952 0.22549,0.15889 0.3798,0.28419 0.38817,0.31877 0.20043,0.15859 0.56383,0.47982 1.06121,0.9348 2.38321,-0.56598 1.322,-1.50077 v 0 c -0.42838,-0.37625 -0.2111,-0.19193 -0.65184,-0.55299 -0.12561,-0.0965 -0.24724,-0.19831 -0.37682,-0.28936 -0.4975,-0.34957 -1.08023,-0.55267 -1.63066,-0.79897 -1.80556,-0.81204 -3.50029,-1.8515 -5.30538,-2.6665 -1.75176,-0.83297 -1.79529,-0.86095 -3.61246,-1.69375 -2.26725,-1.03907 -1.51117,-0.67253 -3.70985,-1.69386 -0.51078,-0.23728 -1.01774,-0.48275 -1.52894,-0.71913 -0.40532,-0.18741 -0.8137,-0.36814 -1.22055,-0.55221 -0.97497,-0.33124 -1.36262,-0.65652 -2.42966,-0.17712 -0.43662,0.19617 -0.67818,0.8727 -0.82184,1.27425 -0.2243,0.62694 -0.41467,1.3595 -0.59176,1.99206 -0.11656,0.47084 -0.24122,0.93976 -0.34967,1.41254 -0.76972,3.35538 -1.23665,6.76789 -1.80688,10.16003 -0.34446,1.98384 -0.67629,3.96884 -1.1209,5.93344 -0.55936,2.47167 -0.13585,0.45034 -0.64249,2.59989 -0.0663,0.28117 -0.11984,0.56518 -0.17975,0.84777 -0.0202,0.31959 -0.0896,0.63986 -0.0606,0.95878 0.048,0.52725 0.35784,0.95611 0.73684,1.29276 0.13083,0.1162 0.41643,0.2916 0.55717,0.38232 0.90742,0.53484 1.85591,0.99441 2.79078,1.47857 1.16218,0.54727 2.37137,0.97845 3.56348,1.45498 2.93059,1.19951 5.82314,2.49498 8.61291,3.99736 2.51975,1.39149 5.13205,2.77545 7.10152,4.92355 0.14406,0.16687 0.29245,0.33008 0.43216,0.50059 0.13199,0.16108 0.65204,0.90597 0.84227,0.92643 1.2396,0.13334 1.50889,-0.15491 1.64977,-1.05104 0.0586,-0.70836 0.0565,-1.41949 0.11767,-2.12764 0.18568,-1.65772 0.52165,-3.29426 0.75744,-4.94498 0.16861,-1.16318 0.31402,-2.1115 0.45019,-3.28604 0.19589,-1.68963 0.31965,-3.38006 0.36056,-5.08046 0.0128,-0.53156 0.0136,-1.06333 0.0204,-1.59499 -0.0244,-3.01226 -0.096,-6.02533 -0.30815,-9.03097 -0.0944,-1.3326 -0.22146,-2.66492 -0.2702,-3.99983 0,-1.41421 -2,-1.41421 -2,0 z" />
    <path
       style="fill:#000000;stroke-width:0.264583"
       id="path472"
       d="m 114.09818,140.54636 c -0.0361,0.6997 -0.0713,1.39944 -0.10502,2.09926 -0.0124,0.25833 -0.0254,0.51664 -0.037,0.77501 -0.008,0.18819 -0.0273,0.37632 -0.0234,0.56467 0.003,0.13292 0.029,0.26433 0.0435,0.39649 0.67511,0.009 1.38345,0.23549 2.02534,0.0261 0.29581,-0.0965 0.28278,-0.55441 0.43176,-0.82756 0.37647,-0.6902 0.71481,-1.31484 1.2139,-1.92759 0.18664,-0.22914 0.38254,-0.45868 0.6222,-0.63159 0.10899,-0.0786 0.26051,-0.0662 0.39077,-0.0992 0.1794,0.0187 0.30839,0.15812 0.4726,0.21103 0.55775,0.17968 1.09706,0.26447 1.66284,-0.10054 0.94445,-0.60929 1.09303,-1.58608 1.44218,-2.55032 0.19949,-0.70641 0.73964,-2.6513 0.97377,-3.35267 0.23499,-0.70392 0.56242,-1.7438 1.11811,-2.32571 0.42273,-0.44268 0.98849,-0.44573 1.53964,-0.5498 1.04808,-0.13358 2.45635,-0.27641 3.44102,-0.58368 0.71535,-0.22323 1.42105,-0.49845 2.07616,-0.8623 1.21525,-0.67494 2.35325,-1.70289 3.27979,-2.73112 0.38705,-0.42952 0.71327,-0.91018 1.06989,-1.36527 0.53945,-0.58529 0.79624,-1.34991 1.24212,-1.99346 0.0162,-0.0233 0.0683,0.0664 0.0411,0.0746 -0.34612,0.10476 -0.7995,-0.0178 -1.05944,0.23357 -0.14586,0.14107 0.14829,0.37838 0.23908,0.55985 0.12341,0.2467 0.26844,0.48198 0.40266,0.72297 0.38411,0.19236 0.72466,0.61774 1.15231,0.57709 1.19901,-0.11398 1.67709,-1.18091 2.21984,-2.00537 0.26699,-0.40558 0.51776,-0.82191 0.79265,-1.22218 0.81304,-1.18386 0.67481,-0.96854 1.58198,-1.93091 0.19401,-0.0636 0.39033,-0.2609 0.58206,-0.1907 0.16231,0.0594 0.10074,0.33745 0.20179,0.47769 0.22383,0.31059 0.50789,0.573 0.76183,0.8595 0.29283,0.40773 0.58565,0.81546 0.87848,1.22318 0.83363,1.14239 2.44921,-0.0365 1.61559,-1.17893 v 0 c -1.08672,-1.46966 -2.14798,-3.3132 -4.30307,-3.19399 -0.45304,0.025 -0.80058,0.42723 -1.20088,0.64085 -0.30801,0.33459 -0.63686,0.65113 -0.92404,1.00376 -0.55322,0.6793 -1.19722,1.68741 -1.66637,2.42652 -0.1792,0.28232 -0.47098,0.52461 -0.52549,0.85453 -0.0485,0.29339 0.83219,0.22227 0.57738,0.68004 -0.11174,-0.19722 -0.23032,-0.39071 -0.33521,-0.59164 -0.15636,-0.29953 -0.17403,-0.71176 -0.44826,-0.90915 -0.49804,-0.3585 -1.10851,-0.62174 -1.72138,-0.65259 -0.26583,-0.0134 -0.42594,0.32793 -0.59172,0.53616 -0.43228,0.54299 -0.56914,1.28749 -1.09293,1.77224 -0.30079,0.39186 -0.57598,0.80478 -0.90238,1.17558 -0.70946,0.80597 -1.72044,1.76377 -2.65126,2.30717 -0.5315,0.31028 -1.10398,0.55599 -1.69053,0.74234 -0.88541,0.28129 -2.63327,0.48378 -3.55871,0.61132 -1.33354,0.41582 -1.77681,0.3454 -2.72463,1.42999 -0.32427,0.37106 -0.54974,0.82221 -0.76129,1.26728 -0.23489,0.49416 -0.39924,1.01938 -0.57234,1.53842 -0.24967,0.74868 -0.73204,2.50089 -0.95139,3.28244 -0.10802,0.3528 -0.24334,0.69838 -0.32408,1.0584 -0.0206,0.0918 -0.008,0.19262 0.0237,0.28115 0.0218,0.0609 0.19315,0.13607 0.12906,0.14503 -0.15057,0.0211 -0.2971,-0.0649 -0.44482,-0.10086 -1.23805,-0.30147 -0.54328,-0.2536 -1.89518,-0.12219 -0.33576,0.1788 -0.70617,0.30392 -1.00727,0.53639 -0.3168,0.24459 -0.57157,0.56306 -0.82158,0.87561 -0.54795,0.68503 -0.92673,1.37819 -1.3436,2.14229 -0.14305,0.26219 -0.61597,0.57439 -0.41415,0.79455 0.40814,0.44521 1.13661,0.409 1.70492,0.61349 -0.19931,0.0448 -0.0221,0.0116 0.003,-0.54758 0.0431,-0.9568 0.0935,-1.91326 0.14182,-2.8698 0.0706,-1.41245 -1.92689,-1.51233 -1.99751,-0.0999 z" />
    <path
       style="fill:#000000;stroke-width:0.264583"
       id="path474"
       d="m 101.69693,142.32019 c -0.055,0.11695 -0.12564,0.22775 -0.16498,0.35086 -0.14203,0.44441 -0.24228,1.17079 -0.23568,1.64078 0.002,0.17711 -0.0538,0.3836 0.0469,0.52931 0.25524,0.36928 0.6446,0.62494 0.9669,0.93742 0.48347,-0.0794 0.97713,-0.11138 1.45041,-0.23807 0.28342,-0.0759 2.26066,-0.90647 2.50868,-1.00582 0.71887,-0.28795 1.44711,-0.56552 2.18023,-0.8161 0.26513,-0.0906 0.53354,-0.17136 0.80031,-0.25704 0.5529,-0.18423 1.13273,-0.20055 1.70447,-0.27028 0.25752,-0.0314 0.51497,-0.0649 0.77054,-0.10942 0.76606,-0.1335 0.88912,-0.18571 1.63589,-0.38928 0.89469,-0.26717 0.46495,-0.14733 1.2881,-0.36351 1.36751,-0.36045 0.85775,-2.2944 -0.50976,-1.93395 v 0 c -0.87209,0.23061 -0.43564,0.1077 -1.3092,0.36921 -0.62646,0.17447 -0.74352,0.22304 -1.3889,0.33778 -0.933,0.16587 -1.89537,0.15471 -2.80396,0.45565 -0.88909,0.28678 -0.98118,0.30612 -1.91246,0.65511 -1.33831,0.50152 -1.11977,0.44378 -2.45844,0.98468 -0.36331,0.1468 -0.7493,0.24415 -1.09353,0.43137 -0.0957,0.052 -0.12621,0.17755 -0.18932,0.26632 0.68864,1.42156 0.31991,0.81793 0.31021,0.52484 -0.009,-0.27703 0.0373,-0.51397 0.0697,-0.7883 0.008,-0.0677 0.0208,-0.13543 0.0201,-0.20364 -8e-5,-0.007 -0.0147,0.001 -0.0221,0.002 0.78447,-1.17669 -0.87963,-2.28609 -1.6641,-1.1094 z" />
    <path
       style="fill:#000000;stroke-width:0.264583"
       id="path478"
       d="m 69.903056,132.63005 c -0.263578,0.65114 -0.337685,1.34673 -0.270388,2.04593 0.02371,0.24623 0.07473,0.48906 0.112093,0.7336 0.186465,0.89339 0.483039,1.50379 1.036341,2.23224 0.09341,0.12298 1.004753,1.17146 1.123471,1.32422 0.150448,0.19358 0.282049,0.40109 0.423074,0.60164 0.307023,0.62249 0.317987,1.28424 0.295349,1.96338 -0.01968,0.59048 -0.100965,0.86354 -0.03812,1.46045 0.02564,0.2435 0.09556,0.48026 0.143343,0.72039 0.150495,0.50837 0.506143,0.91197 0.728972,1.38273 0.09346,0.19745 0.11067,0.3686 0.168129,0.57908 0.04524,0.16571 0.09682,0.32961 0.145233,0.49441 0.230381,0.8637 0.821571,1.55452 1.205783,2.34665 0.262501,0.5412 0.330171,0.78838 0.535358,1.36907 0.524446,1.41611 0.75747,2.91274 1.208667,4.34949 0.387797,1.07641 1.226732,1.82615 2.068054,2.55326 0.533932,0.49851 1.307055,0.87266 1.675612,1.53272 0.04297,0.077 0.0602,0.16569 0.09029,0.24854 -0.02918,0.0816 -0.05836,0.16322 -0.08755,0.24482 -0.03649,0.19387 -0.04978,0.39357 -0.109466,0.58159 -0.08185,0.25782 -0.193997,0.50579 -0.312875,0.74877 -0.309046,0.63168 -0.78173,1.40922 -1.178674,1.9775 -0.261725,0.37469 -0.549531,0.73048 -0.824298,1.09572 -1.888678,2.20458 -3.993081,4.20841 -5.998311,6.30401 -0.65414,0.74619 -1.329571,1.34468 -0.0204,2.38458 0.285498,0.22677 1.302631,-0.27981 1.616054,-0.39222 0.247718,-0.0888 0.501226,-0.16062 0.75184,-0.24093 1.74912,-0.43793 3.556494,-0.48991 5.34974,-0.48612 0.70717,-1.1e-4 1.201576,0.0684 1.800807,0.42364 0.352073,0.29049 0.55822,0.71395 0.773488,1.10638 0.421365,0.70971 0.566391,1.50678 0.703395,2.30666 0.242205,0.71747 0.458922,1.1718 1.145227,1.58204 0.505243,0.30201 1.13778,0.36574 1.706079,0.45278 0.08816,0.0263 0.180033,0.0423 0.264488,0.0787 0.0788,0.034 0.147463,0.0879 0.221625,0.13108 0.164725,0.096 0.328153,0.19425 0.495023,0.28644 0.262112,0.1448 0.523517,0.29132 0.791763,0.42441 0.994566,0.49346 1.138409,0.52186 2.202997,0.93919 1.489837,0.50114 2.989278,1.0111 4.538758,1.29807 0.351194,0.065 0.703537,0.13013 1.059413,0.16051 0.388199,0.0331 0.77897,0.0198 1.168453,0.0297 1.315082,-0.0814 2.904077,-0.20583 3.655157,-1.49821 0.54704,-0.94129 0.48075,-1.71129 0.5553,-2.75036 -0.0692,-0.6002 -0.10493,-1.20519 -0.20748,-1.80059 -0.20292,-1.17808 -0.662698,-2.84198 -0.985526,-3.99138 -0.479097,-1.70577 -0.985777,-3.40284 -1.454526,-5.11168 -0.327398,-1.23832 -0.549569,-2.5013 -0.659524,-3.77727 -0.05082,-0.58977 -0.07415,-1.07572 -0.03513,-1.65695 0.01095,-0.16316 0.04093,-0.32448 0.06139,-0.48672 0.02673,-0.10361 0.0448,-0.20985 0.08018,-0.31083 0.06521,-0.1861 0.24172,-0.37402 0.353274,-0.52889 0.405188,-0.56256 0.105931,-0.14933 0.551109,-0.76201 0.278741,-0.36869 0.54811,-0.74555 0.852887,-1.09372 0.06087,-0.0695 0.121335,-0.13999 0.189772,-0.20209 0.02215,-0.0201 0.08772,-0.0707 0.07926,-0.042 -0.01177,0.0399 -0.06121,0.0564 -0.09181,0.0846 -0.09085,0.0257 -0.181706,0.0514 -0.272561,0.0771 -0.008,0.008 -0.03228,0.0162 -0.02405,0.024 0.03589,0.0339 0.08396,0.0523 0.128116,0.0744 0.353311,0.17699 0.655139,0.23574 1.044849,0.27089 0.43038,-0.0286 0.85174,-0.0154 1.27759,0.0508 0.24754,0.0742 0.53942,0.1153 0.75096,0.27852 0.0539,0.0416 0.0854,0.106 0.12752,0.15944 0.28742,0.36452 0.16123,0.17207 0.38853,0.64581 0.44572,1.09832 0.8028,2.22934 1.28475,3.31345 0.30737,0.69142 0.45396,0.94932 0.79396,1.60082 0.39056,0.69784 0.83337,1.38627 1.41621,1.94216 0.30987,0.29553 0.51531,0.43021 0.85647,0.68086 0.69448,0.45089 2.02304,1.3501 2.8939,1.0933 0.34715,-0.10238 0.62969,-0.35704 0.94453,-0.53556 0.19532,-0.36892 0.44525,-0.71374 0.58595,-1.10675 0.29282,-0.81791 0.31109,-1.96301 0.31816,-2.7939 0.0134,-1.57785 -0.1154,-3.16125 -0.19739,-4.73605 0.0413,-0.96095 -0.1697,-2.01719 0.1874,-2.94817 0.30836,-0.80392 1.07086,-1.3311 1.70505,-1.84925 0.66953,-0.44599 1.46453,-1.14442 2.35481,-0.92118 0.25092,0.0629 0.47489,0.20614 0.70544,0.32347 0.83326,0.42405 1.28969,0.72123 2.10961,1.21527 1.36984,0.79337 2.7823,1.84518 4.45244,1.79434 1.04069,-0.0317 1.59261,-0.36112 2.55677,-0.74662 2.02567,-0.85099 4.12522,-1.5474 6.26748,-2.04173 0.83201,-0.19198 1.67328,-0.34308 2.51521,-0.48541 1.84841,-0.31249 2.57604,-0.36151 4.37808,-0.54865 0.69279,-0.052 1.66837,-0.2296 2.40766,-0.0171 0.0459,0.0132 0.0591,0.1721 0.0223,0.14165 -0.26015,-0.21499 -0.37904,-0.72118 -0.71647,-0.71535 -0.45676,0.008 -0.75199,0.52093 -1.14862,0.7476 -0.77367,0.44214 -1.57285,0.83806 -2.35926,1.2571 -5.13482,2.48148 -10.43094,4.60242 -15.65272,6.88831 -0.47284,0.27954 -1.04377,0.42585 -1.49673,0.74927 -0.0531,0.0379 -0.36436,0.33721 -0.4502,0.37734 -0.5211,0.18511 -1.13421,0.16152 -1.59304,0.5141 -0.23049,0.17711 -0.40419,0.41788 -0.60629,0.62682 -0.72329,1.434 -0.64305,3.08054 -1.09597,4.59469 -0.27777,0.9286 -0.50073,1.24749 -0.94728,2.07733 -0.20014,0.19602 -0.36514,0.436 -0.60041,0.58807 -0.55206,0.35681 -1.07836,0.27323 -1.70345,0.19182 -0.44479,-0.0579 -0.88896,-0.13257 -1.32308,-0.24546 -0.85056,-0.22118 -1.60447,-0.56729 -2.41003,-0.90377 -0.32243,-0.12118 -0.63105,-0.28878 -0.96728,-0.36353 -0.71244,-0.15839 -1.46996,-0.13345 -1.93251,0.60834 -0.56761,0.91028 0.13011,2.11246 0.50893,2.91907 0.86651,1.70503 1.22571,3.58396 1.56655,5.44767 0.173,0.94693 0.30973,1.89979 0.4633,2.84992 0.0236,0.14561 0.15628,0.9041 0.16991,1.11916 0.006,0.0896 -0.0104,0.17925 -0.0155,0.26888 -0.0224,0.0425 -0.0404,0.0877 -0.0673,0.12752 -0.0343,0.0507 -0.23218,0.27221 -0.25596,0.2986 -0.18657,0.20707 -0.37625,0.40985 -0.5579,0.62135 -0.0792,0.13617 -0.18573,0.25977 -0.2376,0.40851 -0.0699,0.20047 -0.12148,0.41267 -0.12278,0.62498 -0.004,0.66351 0.38453,1.36689 0.8121,1.84625 0.24695,0.27686 0.53653,0.51252 0.8048,0.76878 1.24257,0.97698 2.66948,1.6646 4.07205,2.37315 0.76654,0.38723 1.53988,0.73773 2.25923,1.21028 0.21126,0.13879 0.39868,0.31087 0.59803,0.4663 0.0867,0.11417 0.18941,0.21783 0.26023,0.34252 0.0923,0.16246 0.0468,0.24103 0.067,0.40655 0.0149,0.12195 0.0292,0.24481 0.0608,0.36351 0.16141,0.60488 0.19117,0.57071 0.50916,1.12905 0.1551,0.18958 0.30395,0.38447 0.46532,0.56875 0.18704,0.21359 0.93076,0.98869 1.11561,1.18406 0.56007,0.59196 1.10845,1.19198 1.64751,1.80308 0.64243,0.77076 1.0484,1.70955 1.0524,2.72493 8e-4,0.23149 -0.0358,0.4616 -0.0537,0.69241 -0.0929,0.6397 -0.18763,1.30091 -0.47102,1.89108 -0.23072,0.4805 -0.62157,0.87948 -0.96839,1.27468 -0.10533,0.10162 -0.35684,0.41005 -0.56608,0.44183 -0.0315,0.005 -0.041,-0.0499 -0.0673,-0.0679 -0.0422,-0.0289 -0.0904,-0.0479 -0.1359,-0.0714 -0.3259,-0.16791 -0.46493,-0.23618 -0.82634,-0.41763 -0.68886,-0.39366 -1.37713,-0.80362 -1.97924,-1.32497 -0.29474,-0.25521 -0.62892,-0.60446 -0.90095,-0.87955 -0.68127,-0.73419 -1.40109,-1.43059 -2.10454,-2.14318 -0.47298,-0.45793 -0.96809,-0.89393 -1.48666,-1.29965 -0.65056,-0.47628 -1.25288,-1.01311 -1.87698,-1.52278 -1.21529,-0.97782 -2.49003,-1.87787 -3.732,-2.82124 -0.68875,-0.50843 -1.37515,-1.0182 -2.00763,-1.59566 -0.50773,-0.52387 -1.13371,-0.89084 -1.77059,-1.2335 -0.57764,-0.28476 -1.17041,-0.53673 -1.75776,-0.80027 -0.31723,-0.14234 -0.70365,-0.33579 -1.038651,-0.43148 -0.224758,-0.0642 -0.457292,-0.0971 -0.685937,-0.14569 -1.114121,-0.1269 -2.230742,0.0387 -3.345916,-0.0536 -0.151278,0.006 -0.311793,-0.0344 -0.453832,0.018 -0.879581,0.32452 -1.128781,0.57734 -1.048284,1.65808 0.02463,0.3308 0.242596,0.61932 0.400978,0.91078 0.24088,0.44326 0.792991,1.16328 1.094582,1.57199 0.165732,0.21734 0.334428,0.43245 0.497197,0.65202 0.133905,0.18063 0.271986,0.35876 0.392723,0.54845 0.394873,0.62036 0.65354,1.3326 0.958948,1.99834 0.155827,0.25714 0.299395,0.52212 0.467477,0.77143 2.057275,3.05137 -0.733121,-1.25572 1.246417,1.7418 0.464847,0.7039 0.861208,1.43672 1.238788,2.18941 0.47337,0.93252 0.6397,1.96133 0.82579,2.97844 0.18892,0.9604 0.26629,1.93476 0.3023,2.91114 -0.006,0.172 -0.006,0.34432 -0.0189,0.51598 -0.041,0.56744 -0.0653,0.66586 -0.21245,1.23736 -0.10823,0.42041 -0.31296,1.04846 -0.38434,1.4777 -0.0433,0.26013 -0.0504,0.525 -0.0756,0.7875 0.1039,0.34754 0.12849,0.72955 0.31171,1.04261 0.46095,0.78758 1.29385,1.25984 2.03145,1.72096 1.0782,0.67406 2.20751,1.27454 3.31024,1.90746 0.76369,0.37104 1.40226,0.9405 2.12546,1.37265 1.23077,0.69658 2.21587,-1.04399 0.9851,-1.74057 v 0 c -0.15917,-0.0673 -0.0268,-0.006 -0.32013,-0.21751 -0.57704,-0.41568 -1.17522,-0.79942 -1.79487,-1.14917 -1.56627,-0.89894 -3.16471,-1.75309 -4.65546,-2.77537 0.009,-0.16083 10e-4,-0.3235 0.027,-0.4825 0.0651,-0.40036 0.30332,-1.1472 0.39218,-1.51177 0.17027,-0.69848 0.21495,-0.9236 0.25865,-1.60559 0.014,-0.21786 0.0123,-0.43644 0.0185,-0.65465 -0.0408,-1.07198 -0.12716,-2.14182 -0.3336,-3.19639 -0.22064,-1.2045 -0.44157,-2.41618 -1.00662,-3.51746 -0.42257,-0.83708 -0.8663,-1.65083 -1.38466,-2.43409 -1.1079,-1.67408 -0.16768,-0.18894 -1.185263,-1.64868 -0.125291,-0.17973 -0.234456,-0.37018 -0.351682,-0.55527 -0.361736,-0.78699 -0.682003,-1.59653 -1.151154,-2.32921 -0.131869,-0.20594 -0.282258,-0.39947 -0.427858,-0.59595 -0.156911,-0.21174 -0.31972,-0.41904 -0.479581,-0.62857 -1.041596,-1.40387 0.0075,0.029 -0.92133,-1.29232 -0.06356,-0.0904 -0.09695,-0.30592 -0.199535,-0.2648 -0.182298,0.0731 -0.18228,0.36424 -0.340117,0.48112 -0.120023,0.0889 -0.785471,0.15666 -0.294918,0.10065 1.042612,0.0768 2.081451,-0.0161 3.124703,0.0239 0.120497,0.0182 0.243734,0.0233 0.361495,0.0547 0.280519,0.0748 0.67905,0.27458 0.92908,0.38678 0.54281,0.24357 1.09029,0.47708 1.62607,0.73609 0.49367,0.26062 0.97741,0.53694 1.36466,0.94692 0.67742,0.61689 1.40709,1.16844 2.14543,1.71042 1.2234,0.92913 2.47854,1.81623 3.67681,2.77777 0.63598,0.51912 1.24973,1.06606 1.91263,1.55122 0.452,0.35026 0.87913,0.73248 1.29259,1.12706 0.70447,0.71359 1.42521,1.41105 2.10754,2.14622 0.38133,0.38376 0.66948,0.68901 1.08297,1.042 0.71035,0.60642 1.51542,1.09046 2.32751,1.54547 0.41518,0.20459 0.95586,0.49744 1.40656,0.60243 1.11817,0.26048 1.85595,-0.17956 2.58759,-0.96528 0.35743,-0.41333 0.65352,-0.72815 0.9522,-1.19481 0.61034,-0.9536 0.84996,-2.05737 0.97534,-3.16827 0.0152,-0.34045 0.0564,-0.68072 0.0457,-1.02133 -0.0449,-1.4272 -0.63844,-2.75023 -1.54146,-3.83522 -0.98358,-1.11405 -2.01657,-2.18116 -3.02148,-3.27547 -0.10473,-0.14422 -0.19699,-0.24122 -0.24333,-0.41752 -0.13783,-0.52435 0.0146,-0.43265 -0.22056,-1.04782 -0.26411,-0.69087 -0.42992,-0.7688 -0.92689,-1.32351 -0.26968,-0.20234 -0.52656,-0.42298 -0.80904,-0.60702 -0.75842,-0.49411 -1.5489,-0.85575 -2.35616,-1.26289 -1.23899,-0.62488 -2.50158,-1.22728 -3.62023,-2.05896 -0.18225,-0.15977 -0.37584,-0.30745 -0.54674,-0.4793 -0.0998,-0.10037 -0.17475,-0.22273 -0.26213,-0.33409 -0.0387,-0.0628 -0.065,-0.13514 -0.11606,-0.18836 -0.0641,-0.0669 -0.10284,0.18741 -0.16824,0.12216 0.62087,-0.73082 1.24997,-1.28107 1.36069,-2.31478 -8e-4,-0.1892 0.0106,-0.37882 -0.002,-0.56761 -0.0153,-0.22842 -0.14665,-0.9797 -0.17692,-1.16698 -0.15607,-0.96553 -0.29513,-1.93381 -0.4712,-2.89604 -0.37351,-2.03574 -0.78319,-4.0826 -1.72722,-5.94533 -0.10461,-0.21722 -0.20996,-0.43407 -0.31382,-0.65165 -0.0599,-0.12543 -0.0477,-0.32749 -0.17739,-0.37735 -0.10336,-0.0397 -0.15337,0.17152 -0.25704,0.21041 -1.30639,0.49006 -0.44781,-0.005 -0.33729,0.0217 0.31249,0.0757 0.60221,0.22552 0.90331,0.33827 1.45903,0.6018 2.94523,1.23659 4.55193,1.30126 0.6034,0.0243 1.22307,0.0228 1.80687,-0.13171 1.1774,-0.31149 1.46602,-0.87425 2.21278,-1.71273 0.56875,-1.09148 0.77294,-1.36093 1.13197,-2.58016 0.36473,-1.23858 0.44438,-2.53897 0.71987,-3.79619 -0.0724,-0.10227 -0.10901,-0.0983 0.0814,-0.17456 0.16885,-0.0676 0.69045,-0.16174 0.81477,-0.19693 0.50747,-0.14365 0.48701,-0.16235 0.92862,-0.40148 0.092,-0.0739 0.1863,-0.14494 0.27592,-0.22168 0.0309,-0.0264 0.10157,-0.0503 0.085,-0.0873 -0.0155,-0.0346 -0.13018,0.078 -0.0986,0.057 0.39876,-0.2646 0.8686,-0.41305 1.28455,-0.64088 5.27058,-2.30791 10.61777,-4.44614 15.79725,-6.95864 0.42725,-0.23134 3.81958,-1.88126 4.25864,-2.70876 1.15674,-2.1801 -0.48171,-2.58926 -1.97818,-2.58019 -0.54823,0.003 -1.09335,0.0827 -1.64003,0.12401 -1.85846,0.19441 -2.64731,0.2492 -4.55178,0.57451 -0.88971,0.15198 -1.77847,0.31438 -2.65768,0.51852 -2.22437,0.51648 -4.40403,1.24179 -6.5087,2.12398 -0.34732,0.15033 -1.14703,0.54968 -1.61266,0.60269 -1.25451,0.14283 -2.57241,-0.96484 -3.60145,-1.51656 -1.19093,-0.71425 -2.55542,-1.67491 -3.9801,-1.82004 -1.34184,-0.13669 -2.48339,0.64889 -3.50445,1.3835 -0.78368,0.6691 -1.29329,1.00295 -1.85854,1.88057 -0.90694,1.40813 -0.78205,2.96118 -0.74688,4.55398 0.0133,0.25504 0.14796,2.82947 0.15573,3.0302 0.0314,0.81254 0.0708,1.96687 0.005,2.7999 -0.0217,0.27691 -0.0938,0.54771 -0.12937,0.82318 -0.0147,0.11347 -0.0141,0.22839 -0.0211,0.34259 0.0699,0.0255 0.15243,0.0289 0.20978,0.0763 0.0206,0.017 7.9e-4,0.0781 -0.0258,0.0757 -0.11955,-0.0106 -0.23174,-0.0643 -0.34334,-0.1085 -0.43466,-0.17211 -0.83855,-0.41554 -1.22145,-0.68097 -0.13902,-0.10016 -0.44265,-0.31092 -0.5793,-0.43673 -0.45789,-0.42159 -0.79541,-0.96 -1.09882,-1.49666 -0.30319,-0.57838 -0.44784,-0.83389 -0.72104,-1.44551 -0.51095,-1.14393 -0.86636,-2.34694 -1.37073,-3.49334 -0.13786,-0.24043 -0.25564,-0.49355 -0.41359,-0.72128 -0.57125,-0.8236 -1.36828,-1.20292 -2.31719,-1.38911 -0.48036,-0.0697 -0.96336,-0.11692 -1.44871,-0.0689 -0.0229,0.002 -0.0477,-0.004 -0.0687,0.005 -0.008,0.003 0.008,0.0275 -5.3e-4,0.0255 -0.0865,-0.0216 -0.42292,-0.21086 -0.42926,-0.21356 -0.576717,-0.24562 -0.441571,-0.16543 -1.158652,-0.15662 -0.154623,0.0713 -0.3185,0.1252 -0.463862,0.21385 -0.218877,0.13348 -0.429178,0.36585 -0.595866,0.55765 -0.33166,0.38163 -0.628208,0.79164 -0.931825,1.19532 -0.340344,0.46845 -0.79066,1.01118 -1.043088,1.5293 -0.208283,0.42752 -0.205388,0.54758 -0.309939,1.0158 -0.02482,0.22505 -0.0612,0.44912 -0.07444,0.67515 -0.11734,2.0035 0.301103,4.07164 0.765444,6.00717 0.475375,1.73247 0.393089,1.45429 0.918192,3.27184 0.529939,1.83428 1.113644,3.66868 1.465844,5.54866 0.08931,0.47672 0.130247,0.96123 0.195371,1.44185 -0.0076,0.22158 0.03892,1.62822 -0.232973,1.89412 -0.434623,0.42503 -1.407179,0.40527 -1.94436,0.46693 -0.302992,-0.003 -0.606914,0.0158 -0.908981,-0.008 -0.313092,-0.0247 -0.623139,-0.0811 -0.932145,-0.13725 -1.446194,-0.26276 -2.843366,-0.74496 -4.234672,-1.20647 -0.943486,-0.36635 -1.10457,-0.40363 -1.986077,-0.83922 -0.646467,-0.31945 -1.248312,-0.75885 -1.928148,-1.00881 -0.158303,-0.0582 -0.32666,-0.0841 -0.48999,-0.12622 -0.603276,-0.0896 -0.13984,-0.0182 -0.694933,-0.10996 -0.06842,-0.0113 -0.136494,-0.0398 -0.205473,-0.0327 -0.02843,0.003 -0.03616,0.0746 -0.06093,0.0603 -0.03545,-0.0204 -0.189648,-0.26946 -0.21754,-0.31314 -0.175308,-1.02035 -0.39447,-2.03168 -0.924764,-2.93703 -0.398598,-0.71507 -0.820243,-1.43311 -1.533993,-1.87601 -0.920319,-0.51255 -1.723986,-0.69066 -2.78651,-0.68546 -2.003298,-0.003 -4.021947,0.0679 -5.970003,0.58354 -0.295859,0.0968 -0.594505,0.18548 -0.887582,0.29042 -0.18982,0.068 -0.441092,0.0653 -0.560255,0.22796 -0.06504,0.0888 0.260017,0.0156 0.309915,0.11371 0.223295,0.43889 0.299016,0.9385 0.461862,1.40323 0.0067,0.0191 0.0058,-0.0401 0.0088,-0.0602 0.127196,-0.14714 0.254395,-0.29429 0.38159,-0.44144 2.060152,-2.15381 4.22706,-4.20946 6.153846,-6.48751 0.303144,-0.40624 0.620985,-0.80191 0.909434,-1.21871 0.438232,-0.63322 1.039582,-1.6221 1.358037,-2.33174 0.289828,-0.64583 0.544478,-1.35132 0.557054,-2.07193 0.0063,-0.35886 -0.06702,-0.71469 -0.100536,-1.07204 -0.105045,-0.20625 -0.192392,-0.42252 -0.31513,-0.61876 -0.481364,-0.76963 -1.276961,-1.26111 -1.956681,-1.83035 -0.555934,-0.47791 -1.165182,-0.95382 -1.467006,-1.64137 -0.464534,-1.45758 -0.682641,-2.98535 -1.23213,-4.41921 -0.264734,-0.73476 -0.322535,-0.96235 -0.660805,-1.64999 -0.112834,-0.22937 -0.239122,-0.452 -0.367001,-0.67334 -0.02732,-0.0473 -0.471302,-0.74742 -0.531802,-0.87724 -0.06102,-0.13095 -0.09773,-0.2719 -0.146595,-0.40785 -0.09569,-0.32356 -0.167579,-0.65442 -0.277174,-0.97353 -0.16705,-0.4864 -0.424982,-0.95437 -0.734063,-1.36381 -0.03109,-0.10426 -0.08017,-0.20477 -0.09325,-0.31277 -0.06012,-0.4962 0.03106,-0.95203 0.03826,-1.45256 0.01569,-1.08979 -0.106222,-2.12982 -0.664826,-3.09097 -0.175948,-0.2455 -0.342442,-0.49806 -0.527849,-0.7365 -0.291132,-0.3744 -0.714037,-0.81966 -1.019239,-1.19013 -0.114249,-0.13868 -0.2346,-0.27418 -0.328588,-0.42732 -0.208812,-0.34024 -0.252929,-0.5889 -0.363771,-0.96878 -0.104312,-0.57856 -0.08774,-0.36472 -0.107423,-0.92517 -0.0031,-0.0899 -0.01352,-0.18025 -0.0047,-0.26975 0.0217,-0.22038 0.139094,-0.41764 0.19408,-0.629 0.447212,-1.34164 -1.450155,-1.9741 -1.897367,-0.63246 z" />
    <path
       style="fill:#000000;stroke-width:0.264583"
       id="path480"
       d="m 66.422521,140.85575 c -0.872591,1.18799 -2.046386,2.27212 -2.812781,3.52728 -0.144563,0.23676 -0.250788,0.49489 -0.376179,0.74233 -0.06611,0.21642 -0.132212,0.43284 -0.198321,0.64926 -0.380905,1.36195 1.545183,1.90063 1.92609,0.53868 v 0 c 0.02365,-0.10451 0.0473,-0.20902 0.07095,-0.31353 0.06894,-0.1523 0.120541,-0.3137 0.206806,-0.4569 0.249288,-0.41381 0.765474,-1.03362 1.056431,-1.38947 0.548508,-0.67085 1.114962,-1.32698 1.653775,-2.00576 0.913501,-1.07959 -0.613272,-2.37148 -1.526771,-1.29189 z" />
    <path
       style="fill:#000000;stroke-width:0.264583"
       id="path482"
       d="m 69.127512,146.37822 c -1.925637,3.09994 -3.823343,6.21672 -5.679152,9.35914 -0.433451,0.73631 -1.559956,2.62001 -2.004332,3.47451 -0.186576,0.35877 -0.339225,0.73418 -0.508839,1.10128 -0.589637,1.28543 1.228233,2.1193 1.81787,0.83388 v 0 c 0.144913,-0.31858 0.273288,-0.6452 0.434732,-0.95572 0.441121,-0.84848 1.556991,-2.7138 1.9827,-3.43696 1.860537,-3.15071 3.765158,-6.2744 5.693508,-9.38385 0.701646,-1.22788 -1.034841,-2.22016 -1.736487,-0.99228 z" />
    <path
       style="fill:#000000;stroke-width:0.264583"
       id="path484"
       d="m 74.174053,157.56779 c -2.313869,2.42166 -4.404204,5.03976 -6.500273,7.64826 -1.83479,2.26246 -3.655745,4.53649 -5.444728,6.83543 -0.673142,0.86502 -1.752645,2.25199 -2.402679,3.20082 -0.242742,0.35431 -0.458261,0.72653 -0.68739,1.0898 -0.752356,1.19748 0.941136,2.26147 1.693492,1.06399 v 0 c 0.203957,-0.32604 0.394674,-0.66076 0.61187,-0.97814 0.638578,-0.93313 1.698588,-2.29426 2.357491,-3.14101 1.784429,-2.29317 3.600826,-4.56143 5.431009,-6.81816 2.088629,-2.59952 4.174051,-5.20551 6.477651,-7.62062 0.905357,-1.08643 -0.631087,-2.36679 -1.536443,-1.28037 z" />
    <path
       style="fill:#000000;stroke-width:0.264583"
       id="path486"
       d="m 73.42152,176.76857 c -1.658308,1.94478 -3.261802,3.937 -4.953471,5.85335 -1.238602,1.4031 -3.157112,3.4672 -4.420217,4.83633 -2.01082,2.14378 -3.962447,4.34182 -5.841336,6.6021 -0.570333,0.68611 -2.038958,2.48484 -2.627222,3.28607 -0.259128,0.35293 -0.488482,0.72679 -0.732724,1.09019 -0.786522,1.17533 0.875636,2.28764 1.662157,1.11231 v 0 c 0.215893,-0.32419 0.417235,-0.65856 0.647677,-0.97257 0.579273,-0.78935 2.017818,-2.55129 2.5777,-3.22508 1.859942,-2.23832 3.792606,-4.41441 5.783749,-6.53689 1.308278,-1.41817 3.18914,-3.44116 4.469048,-4.89125 1.683473,-1.90732 3.280471,-3.88912 4.929458,-5.82583 0.939551,-1.057 -0.555266,-2.38572 -1.494819,-1.32873 z" />
    <path
       style="fill:#000000;stroke-width:0.264583"
       id="path488"
       d="m 79.775157,182.6843 c -3.600696,5.16064 -7.059154,10.42052 -10.574821,15.6396 -1.937967,2.90794 -3.876974,5.8152 -5.816187,8.72232 -0.784784,1.17648 0.879017,2.28633 1.6638,1.10985 v 0 c 1.937539,-2.90461 3.874879,-5.80935 5.811147,-8.7148 3.485221,-5.17389 6.918502,-10.38449 10.477799,-15.50758 0.883452,-1.10432 -0.678286,-2.3537 -1.561738,-1.24939 z" />
    <path
       style="fill:#000000;stroke-width:0.264583"
       id="path490"
       d="m 87.792355,193.0074 c -2.605288,5.34686 -5.843225,10.34721 -9.018849,15.36547 -2.097209,3.30752 -1.110202,1.73817 -2.964524,4.70582 -0.749387,1.19934 0.946737,2.25914 1.696125,1.0598 v 0 c 1.847574,-2.95697 0.862626,-1.39084 2.958441,-4.69615 3.218968,-5.08693 6.498317,-10.15729 9.136284,-15.57877 0.605404,-1.27808 -1.20207,-2.13425 -1.807477,-0.85617 z" />
    <path
       style="fill:#000000;stroke-width:0.264583"
       id="path492"
       d="m 98.155981,210.34857 c -0.149463,0.20567 -0.290722,0.41757 -0.448392,0.61702 -1.094917,1.38508 -2.332212,2.64906 -3.566864,3.90785 -1.059545,1.08027 -2.132565,2.14724 -3.198746,3.22096 -0.996471,1.00351 0.422717,2.41273 1.419188,1.40922 v 0 c 1.072327,-1.07991 2.151721,-2.15285 3.217063,-3.23965 1.301224,-1.32743 2.605146,-2.66149 3.7514,-4.12834 0.18659,-0.23878 0.353111,-0.49258 0.529667,-0.73887 0.741183,-1.20443 -0.962131,-2.25262 -1.703316,-1.04819 z" />
    <path
       style="fill:#000000;stroke-width:0.264583"
       id="path496"
       d="m 99.769677,196.17626 c 0.545663,0.24734 1.123183,0.14359 1.674743,-0.0178 0.33659,-0.0985 0.20517,-0.14014 0.34995,-0.0827 -0.002,0.009 -0.0121,0.0195 -0.006,0.0263 0.0188,0.0214 0.0448,0.0363 0.071,0.0474 0.0984,0.0417 0.19843,0.0802 0.30096,0.11022 0.36843,0.10789 0.65978,0.172 1.05238,0.15392 0.21421,-0.01 0.4244,-0.0618 0.63659,-0.0928 0.73216,-0.18726 1.3877,-0.56109 2.0245,-0.95485 1.2002,-0.748 0.14237,-2.44534 -1.05784,-1.69734 v 0 c -0.42008,0.26456 -0.85214,0.51872 -1.32249,0.6841 -0.15369,0.0435 -0.25019,0.0872 -0.41052,0.0747 -0.22942,-0.0178 -0.34404,-0.0948 -0.57156,-0.1687 -0.55559,-0.18055 -0.37374,-0.1348 -0.93416,-0.17115 -0.5708,0.0899 -0.28014,0.0192 -0.67409,0.14558 -0.0639,0.0205 -0.12852,0.039 -0.19252,0.0594 -0.0355,0.0113 -0.0846,0.005 -0.10595,0.0356 -0.0161,0.023 0.0604,0.03 0.0596,0.0593 -1.264916,-0.63245 -2.159343,1.1564 -0.894433,1.78886 z" />
    <path
       style="fill:#000000;stroke-width:0.264583"
       id="path498"
       d="m 118.44109,203.8335 c 0.0583,0.0488 0.2299,0.17387 0.26253,0.26305 0.007,0.0193 -0.0305,0.0303 -0.0357,0.0502 -0.0104,0.0394 0.001,0.0825 -0.01,0.12177 -0.0121,0.0438 -0.0402,0.0815 -0.058,0.12333 -0.039,0.0919 -0.0747,0.18522 -0.11212,0.27784 -0.33179,0.81825 -0.78975,1.64152 -0.78435,2.54997 10e-4,0.2012 0.0472,0.39964 0.0708,0.59946 0.1619,0.56151 0.32341,1.12126 0.38556,1.70371 0.16285,1.4048 2.14955,1.1745 1.9867,-0.23031 v 0 c -0.074,-0.60734 -0.19434,-1.20837 -0.39702,-1.78718 -0.0988,-0.31754 -0.0665,-0.39057 0.0461,-0.73697 0.16328,-0.50249 0.39631,-0.97664 0.58996,-1.46731 0.16898,-0.5584 0.28238,-0.75687 0.24598,-1.35624 -0.0416,-0.68483 -0.4101,-1.26542 -0.94122,-1.67305 -1.10431,-0.88345 -2.3537,0.67829 -1.24939,1.56174 z" />
    <path
       style="fill:#000000;stroke-width:0.264583"
       id="path500"
       d="m 116.92329,190.13743 c 0.20919,-0.009 0.41904,-0.008 0.62757,-0.0271 0.34614,-0.0314 0.6899,-0.0852 1.03532,-0.12377 1.40299,-0.1568 2.12573,-0.23989 3.59394,-0.29837 1.93854,-0.0772 2.8765,-0.0368 4.83208,-0.009 2.36911,0.0269 4.73257,0.21825 7.10026,0.28152 0.91357,0.0244 1.47584,0.0147 2.37622,0.01 1.34536,-0.0311 2.6912,-0.0148 4.03668,-0.0277 0.5262,-0.005 1.73523,-0.0114 2.30063,-0.0955 0.2805,-0.0417 0.55066,-0.13582 0.82599,-0.20373 0.26726,-0.26741 0.70676,-0.43629 0.80177,-0.80222 0.25964,-0.99991 -0.29803,-1.63699 -0.73305,-2.38514 -0.15877,-0.27304 -0.33248,-0.53861 -0.46792,-0.82395 -0.28154,-0.59313 -0.26184,-0.71161 -0.35922,-1.31266 0.0266,-0.11566 0.001,-0.25821 0.0798,-0.347 0.0416,-0.0469 0.11747,0.0585 0.17997,0.0542 0.12514,-0.009 0.24374,-0.0595 0.36497,-0.0917 0.19956,-0.053 0.39609,-0.11787 0.59735,-0.16403 0.41975,-0.0963 0.81585,-0.14515 1.24066,-0.20662 0.72294,-0.0924 1.45749,-0.2344 2.08108,-0.63542 0.37804,-0.2431 0.42865,-0.33971 0.71902,-0.661 0.91254,-1.0804 -0.61538,-2.37093 -1.52792,-1.29053 v 0 c -0.32238,0.50879 -1.03281,0.51819 -1.56219,0.60809 -0.77857,0.11535 -1.72641,0.23154 -2.44195,0.56042 -0.35111,0.16138 -0.72294,0.31827 -0.99824,0.58944 -0.28731,0.283 -0.50609,0.64589 -0.64155,1.02575 -0.10437,0.29268 -0.0374,0.62034 -0.056,0.93052 0.065,0.31437 0.10169,0.63594 0.19494,0.94312 0.23705,0.78085 0.47784,1.16692 0.88694,1.85809 0.12962,0.21899 0.17404,0.53814 0.40356,0.64804 0.25127,0.12033 0.32871,-0.7745 0.71762,-0.42848 -0.14984,0.0467 -0.29435,0.11654 -0.44952,0.14002 -0.53977,0.0817 -1.67615,0.0857 -2.16164,0.0903 -1.34746,0.0129 -2.69527,-0.003 -4.0426,0.0277 -0.84651,0.005 -1.43049,0.0144 -2.28614,-0.008 -2.3848,-0.0635 -4.76533,-0.25686 -7.15159,-0.28289 -2.03145,-0.0279 -2.97222,-0.069 -4.98949,0.0131 -0.6999,0.0285 -1.39892,0.0788 -2.09698,0.137 -1.65598,0.13799 -1.21702,0.14253 -2.51238,0.28395 -0.12788,0.014 -0.25658,0.019 -0.38487,0.0285 -1.41108,-0.0941 -1.54412,1.9015 -0.13304,1.99557 z" />
    <path
       style="fill:#000000;stroke-width:0.264583"
       id="path502"
       d="m 141.79439,155.07634 c -0.39236,2.39498 -2.6e-4,4.8073 0.25716,7.19245 0.0794,0.73565 0.14988,1.47223 0.22482,2.20835 0.20056,2.04528 0.2981,4.09864 0.28496,6.15355 -0.001,0.20321 -0.0709,3.05732 -0.0665,3.3463 0.008,0.52338 0.0508,1.04564 0.0762,1.56846 0.11871,1.27992 0.34286,2.55799 0.81217,3.76048 0.35616,0.91258 0.88651,1.74304 1.36582,2.59267 0.78947,1.45262 1.27927,3.04369 1.58502,4.66369 0.0637,0.33775 0.11031,0.67852 0.16547,1.01779 0.35757,2.63973 0.67173,5.28449 1.08246,7.91678 0.0784,0.35911 0.15677,0.71822 0.23515,1.07733 0.30398,1.38116 2.25723,0.95127 1.95325,-0.42989 v 0 c -0.0708,-0.31864 -0.14156,-0.63728 -0.21234,-0.95592 -0.41189,-2.63721 -0.72376,-5.28735 -1.08484,-7.93168 -0.0614,-0.37232 -0.11328,-0.74635 -0.18429,-1.11696 -0.34806,-1.81636 -0.90971,-3.59635 -1.79798,-5.22389 -0.14698,-0.26051 -0.29253,-0.52182 -0.44095,-0.78152 -0.31517,-0.55147 -0.52852,-0.86156 -0.76833,-1.45761 -0.41462,-1.03054 -0.60618,-2.13098 -0.71311,-3.23125 -0.0247,-0.4775 -0.0668,-0.95441 -0.074,-1.43249 -0.003,-0.21977 0.0663,-3.31178 0.0668,-3.39861 0.009,-1.51205 -0.0202,-2.57035 -0.117,-4.09234 -0.0477,-0.75001 -0.1188,-1.49835 -0.17819,-2.24753 -0.0759,-0.74464 -0.14719,-1.48976 -0.22759,-2.23392 -0.23359,-2.16208 -0.60244,-4.34554 -0.29384,-6.521 0.31342,-1.37904 -1.63684,-1.82229 -1.95026,-0.44324 z" />
    <path
       style="fill:#000000;stroke-width:0.264583"
       id="path504"
       d="m 77.158677,147.06462 c 1.046827,0.52546 2.135587,0.96053 3.207171,1.43147 0.96316,0.42329 1.511816,0.61472 2.351746,1.22147 0.287824,0.20793 0.536173,0.46564 0.804259,0.69846 0.930497,1.0651 1.558012,2.35615 2.541376,3.38042 0.608354,0.63366 0.916707,0.81409 1.602478,1.31068 0.197162,0.14134 0.395862,0.28056 0.591489,0.42402 0.748488,0.54888 1.364584,1.20943 2.036945,1.8429 0.362355,0.38581 0.810387,0.61972 1.27603,0.85314 1.278517,0.60448 2.133378,-1.20362 0.854861,-1.8081 v 0 c -0.293415,-0.12066 -0.544023,-0.26407 -0.762656,-0.50379 -0.389536,-0.36336 -0.747877,-0.75669 -1.140709,-1.11677 -0.478679,-0.43876 -0.58239,-0.51386 -1.099219,-0.89286 -0.196173,-0.14386 -0.395423,-0.28347 -0.593135,-0.4252 -0.471048,-0.33169 -0.823884,-0.54987 -1.233586,-0.96911 -1.070356,-1.09527 -1.683265,-2.54699 -2.780948,-3.62123 -0.355282,-0.29537 -0.687911,-0.62035 -1.065844,-0.88613 -1.686108,-1.18574 -3.739748,-1.72168 -5.561264,-2.65435 -1.212678,-0.72761 -2.241672,0.98738 -1.028994,1.71498 z" />
    <path
       style="fill:#000000;stroke-width:0.264583"
       id="path506"
       d="m 111.66853,150.68784 c -0.53703,-0.57504 -1.04777,-1.17654 -1.54813,-1.78365 -0.42951,-0.52115 -0.72342,-0.81819 -0.9678,-1.43861 -0.0692,-0.17572 -0.0829,-0.36851 -0.12434,-0.55276 -0.0502,-0.37164 -0.0372,-0.74587 -0.0322,-1.1193 0.0174,-1.41411 -1.98244,-1.43873 -1.99985,-0.0246 v 0 c -0.006,0.56211 -0.0113,1.12297 0.10463,1.67786 0.1009,0.32959 0.16462,0.67294 0.3027,0.98876 0.3309,0.75683 0.67767,1.13887 1.19089,1.7615 0.50714,0.61526 1.02522,1.22459 1.56895,1.80784 0.93127,1.0643 2.43642,-0.25271 1.50515,-1.31702 z" />
  </g>
</svg>
