<?xml version="1.0" encoding="UTF-8" standalone="no"?>
<!-- Created with Inkscape (http://www.inkscape.org/) -->

<svg
   width="161.761"
   height="238.18974"
   viewBox="0 0 80.88051 119.09487"
   version="1.1"
   id="svg306"
   inkscape:version="1.2.1 (9c6d41e410, 2022-07-14)"
   sodipodi:docname="passiflora.svg"
   xmlns:inkscape="http://www.inkscape.org/namespaces/inkscape"
   xmlns:sodipodi="http://sodipodi.sourceforge.net/DTD/sodipodi-0.dtd"
   xmlns="http://www.w3.org/2000/svg"
   xmlns:svg="http://www.w3.org/2000/svg">
  <sodipodi:namedview
     id="namedview308"
     pagecolor="#ffffff"
     bordercolor="#999999"
     borderopacity="1"
     inkscape:showpageshadow="0"
     inkscape:pageopacity="0"
     inkscape:pagecheckerboard="0"
     inkscape:deskcolor="#d1d1d1"
     inkscape:document-units="px"
     showgrid="false"
     inkscape:zoom="1.0544998"
     inkscape:cx="256.99389"
     inkscape:cy="142.7217"
     inkscape:window-width="1278"
     inkscape:window-height="1008"
     inkscape:window-x="2228"
     inkscape:window-y="13"
     inkscape:window-maximized="0"
     inkscape:current-layer="layer1" />
  <defs
     id="defs303" />
  <g
     inkscape:label="Layer 1"
     inkscape:groupmode="layer"
     id="layer1"
     transform="translate(23.575279,-78.943818)">
    <path
       style="fill:#000000;stroke-width:0.264583"
       id="path312"
       d="m 12.145901,123.74866 c -0.582639,1.38839 -1.406316,3.25773 -1.787429,4.65511 -1.011143,3.70742 -1.623973,7.78027 -2.079697,11.56016 -0.815298,6.76229 -0.99791,10.92779 -1.46449,17.8366 -0.714002,13.04386 -0.984401,26.10519 -1.140124,39.16559 -0.01685,1.41411 1.983007,1.43794 1.999859,0.0238 v 0 c 0.155096,-13.02343 0.424674,-26.04779 1.135726,-39.05476 0.463669,-6.876 0.641321,-10.95641 1.447668,-17.67973 0.420793,-3.50858 1.039466,-7.6901 1.983563,-11.17629 0.307792,-1.13656 1.128355,-3.0913 1.619911,-4.30152 0.727607,-1.21268 -0.98738,-2.24167 -1.714987,-1.02899 z" />
    <path
       style="fill:#000000;stroke-width:0.264583"
       id="path314"
       d="m 17.841232,118.49153 c -0.248108,-0.21882 -0.470429,-0.47093 -0.744323,-0.65647 -1.606079,-1.08795 -3.613139,-1.88433 -5.534335,-2.16094 -0.632878,-0.0911 -1.292333,-0.18361 -1.917562,-0.0497 -0.536239,0.11483 -0.968722,0.51433 -1.453081,0.77149 -0.111173,0.68233 -0.4855,1.37259 -0.333518,2.04701 0.168066,0.74579 0.735523,1.3529 1.230913,1.93517 1.542005,1.81244 3.762153,2.96141 5.800513,4.09275 1.237689,0.6842 2.205295,-1.06615 0.967605,-1.75035 v 0 c -1.483862,-0.81673 -2.286142,-1.18999 -3.651403,-2.22314 -0.526719,-0.39859 -0.99954,-0.8638 -1.499312,-1.2957 -0.285337,-0.31134 -0.531053,-0.66429 -0.856011,-0.93401 -0.147744,-0.12263 -0.355238,-0.14585 -0.532855,-0.21877 0.532929,-0.74713 0.276987,-0.631 1.76417,-0.43331 1.521497,0.20226 3.401338,0.87069 4.695126,1.72229 0.2403,0.15817 0.43324,0.37862 0.649859,0.56793 1.000001,1 2.414212,-0.41422 1.414214,-1.41422 z" />
    <path
       style="fill:#000000;stroke-width:0.264583"
       id="path318"
       d="m 10.916975,94.209213 c -0.569039,3.449055 -1.144055,6.906257 -1.449665,10.391357 -0.08813,1.00506 -0.113525,2.01464 -0.170289,3.02196 -0.07879,1.41202 1.918108,1.52344 1.996895,0.11142 v 0 c 0.05351,-0.96897 0.07606,-1.94015 0.160531,-2.90692 0.299334,-3.42575 0.864756,-6.823867 1.421442,-10.214513 0.285181,-1.38516 -1.673733,-1.788467 -1.958914,-0.403304 z" />
    <path
       style="fill:#000000;stroke-width:0.264583"
       id="path328"
       d="m 20.075583,97.63667 c -1.277311,3.59896 -2.681304,7.15009 -4.107313,10.69215 -0.2262,0.55116 -0.4524,1.10232 -0.6786,1.65349 -0.536924,1.30832 1.313325,2.06764 1.85025,0.75932 v 0 c 0.227883,-0.5553 0.455763,-1.1106 0.683646,-1.6659 1.428901,-3.54938 2.836566,-7.1076 4.116024,-10.714168 0.51258,-1.318053 -1.35143,-2.042946 -1.864007,-0.724892 z" />
    <path
       style="fill:#000000;stroke-width:0.264583"
       id="path330"
       d="m 25.20334,104.01238 c -0.18564,0.33852 -0.36224,0.68216 -0.55691,1.01557 -2.16133,3.7017 -4.651222,7.20232 -7.079206,10.73057 -1.360942,1.95278 -0.744318,1.07082 -1.848487,2.64682 -0.811475,1.15823 0.826516,2.30584 1.637993,1.1476 v 0 c 1.109279,-1.58331 0.48945,-0.69676 1.858076,-2.66063 2.466444,-3.58416 4.998464,-7.14012 7.186544,-10.90507 0.21269,-0.36597 0.40514,-0.74333 0.60771,-1.11499 0.60802,-1.27684 -1.1977,-2.13671 -1.80572,-0.85987 z" />
    <path
       style="fill:#000000;stroke-width:0.264583"
       id="path332"
       d="m 34.88239,102.23479 c -1.31966,2.53458 -3.26472,4.67641 -5.18013,6.7677 -2.12936,2.32491 -3.35063,3.52328 -5.55177,5.7557 -0.99286,1.00709 0.43138,2.41121 1.42423,1.40412 v 0 c 2.19802,-2.22977 3.50134,-3.51096 5.62631,-5.83555 2.05072,-2.24336 4.12226,-4.54831 5.50899,-7.27969 0.57436,-1.29233 -1.25326,-2.1046 -1.82763,-0.81228 z" />
    <path
       style="fill:#000000;stroke-width:0.264583"
       id="path334"
       d="m 7.449928,117.17523 c -2.63875,-0.5225 -5.288007,-0.99781 -7.89429108,-1.67206 -0.83086002,-0.21494 -1.65230902,-0.46474 -2.47846502,-0.69711 -0.733632,-0.26473 -1.488784,-0.47609 -2.200897,-0.7942 -1.533999,-0.68527 -2.81717,-1.53579 -3.473768,-3.13471 -0.4307569,-1.04897 -0.283554,-1.33023 -0.229893,-2.47211 0.386431,-3.13438 1.162486,-6.2026 1.432369,-9.354026 0.194934,-2.276266 0.131987,-2.875267 0.09774,-5.106956 -0.182385,-2.099733 -0.151908,-2.203905 -0.46464,-4.184819 -0.07425,-0.470318 -0.179773,-0.935281 -0.257045,-1.405113 -0.0213,-0.1295 0.08728,-0.429331 -0.03849,-0.391834 -2.4313829,0.72491 -1.7586769,0.753086 -0.791675,2.333643 0.690705,0.93494 1.359011,1.88685 2.072118,2.804816 1.744928,2.246204 4.083085,5.020096 5.92368002,7.164109 2.48276508,2.89204 5.02890108,5.72984 7.56292408,8.57683 1.117558,1.32484 2.407936,2.57955 3.187097,4.1555 0.117191,0.23704 0.180268,0.49718 0.270404,0.74576 0.506717,1.32032 2.373929,0.60371 1.867209,-0.71661 v 0 C 11.8941,112.67475 11.78538,112.3089 11.613687,111.97156 10.758955,110.2922 9.417301,108.92467 8.203536,107.51197 5.680778,104.67765 3.145925,101.85252 0.67394398,98.973567 -1.1725891,96.823031 -3.4168081,94.15981 -5.1697021,91.910558 c -0.678503,-0.87063 -1.315802,-1.7726 -1.973704,-2.658899 -0.967682,-1.579594 -0.68779,-2.16831 -2.9029659,-1.079156 -0.163354,0.08032 0.03101,0.363093 0.06029,0.542753 0.07205,0.442161 0.17312,0.879303 0.243552,1.321724 0.296804,1.864378 0.269846,1.970143 0.445524,3.939547 0.03609,2.100546 0.09711,2.69335 -0.08379,4.836436 -0.271925,3.221497 -1.097843,6.353217 -1.446387,9.563667 0.01389,1.615 -0.170233,2.08349 0.519023,3.53667 0.944975,1.99231 2.538717,3.10828 4.5076239,3.98055 0.756563,0.33518 1.557901,0.55846 2.336853,0.83769 0.853281,0.23938 1.701797,0.49645 2.55984902,0.71814 2.56735808,0.66329 5.17518118,1.14888 7.77907018,1.6412 1.354571,0.40637 1.929268,-1.50928 0.574696,-1.91565 z" />
    <path
       style="fill:#000000;stroke-width:0.264583"
       id="path336"
       d="m 21.58423,120.35606 c 1.79044,0.48021 3.65454,0.92346 5.50286,1.08053 2.54765,0.2165 5.08523,0.17112 7.61611,-0.23202 1.34789,-0.2147 2.65996,-0.61334 3.98995,-0.92001 3.61985,-1.49641 3.72141,-1.33213 6.93105,-3.44048 0.92852,-0.60993 1.80779,-1.29264 2.68646,-1.97242 0.13261,-0.10259 3.3747,-2.79861 3.79642,-3.08894 0.38297,-0.26365 0.8195,-0.43947 1.22925,-0.65921 0.23644,0.0315 0.49775,-0.0158 0.70932,0.0944 0.1772,0.0923 0.28362,0.29045 0.37298,0.46913 0.67386,1.34735 0.34295,2.71672 -0.50153,3.9255 -0.49712,0.71155 -1.16121,1.29047 -1.74181,1.9357 -0.9543,0.64662 -1.84572,1.39748 -2.86288,1.93985 -4.12369,2.19884 -8.7685,3.02086 -13.35361,3.57501 -1.39593,0.16871 -2.80174,0.24201 -4.20261,0.36302 -1.40891,0.1224 -1.23581,2.11489 0.1731,1.99249 v 0 c 1.44367,-0.12612 2.8926,-0.20213 4.33102,-0.37836 4.87684,-0.59753 9.83319,-1.50021 14.18924,-3.90689 1.15532,-0.63831 2.15945,-1.51843 3.23918,-2.27764 0.69357,-0.82965 1.52416,-1.5618 2.0807,-2.48896 0.46123,-0.76836 0.78838,-1.63804 0.92798,-2.52326 0.29792,-1.88906 -0.65899,-4.20247 -2.70172,-4.62497 -0.53223,-0.11008 -1.08221,0.10177 -1.62332,0.15265 -0.50535,0.28365 -1.0385,0.52264 -1.51605,0.85094 -0.47816,0.32873 -3.4681,2.83428 -3.73159,3.03912 -0.82593,0.6421 -1.65275,1.28626 -2.52437,1.86481 -2.9561,1.96214 -3.03398,1.80724 -6.36118,3.21075 -1.23847,0.29196 -2.45966,0.67062 -3.71541,0.87588 -2.34196,0.3828 -4.77057,0.44247 -7.13339,0.24708 -1.7382,-0.14375 -3.46138,-0.5552 -5.14545,-0.99137 -1.334817,-0.46719 -1.995516,1.42053 -0.6607,1.88771 z" />
    <path
       style="fill:#000000;stroke-width:0.264583"
       id="path340"
       d="m 15.225432,114.13041 c -0.02471,-0.2553 -0.02919,-0.51336 -0.07416,-0.76587 -0.155908,-0.87551 -0.465275,-1.81937 -0.754099,-2.64423 -0.782402,-2.23448 -0.775288,-1.90618 -1.583206,-4.30309 -0.28861,-0.85624 -0.539205,-1.72483 -0.808808,-2.58725 -0.232867,-0.85206 -0.514662,-1.69223 -0.698603,-2.55618 -0.522091,-2.452168 -0.624538,-4.952009 -0.182089,-7.424667 0.291434,-1.628701 0.719971,-2.727566 1.239965,-4.284967 0.783971,-1.975982 1.488535,-3.978923 2.09768,-6.015426 0.117105,-0.391504 0.613275,-2.383134 0.962956,-2.896556 0.07514,-0.11032 0.258887,-0.06514 0.388329,-0.09771 0.0739,0.159062 0.104889,0.346342 0.221687,0.477183 0.339939,0.38081 0.796459,0.64751 1.128442,1.035278 0.573699,0.670089 1.087903,1.39105 1.577234,2.125014 1.206109,1.809089 2.29584,3.651486 2.86219,5.78044 0.30509,1.146878 0.34613,2.348161 0.5192,3.522244 -0.0119,1.185958 0.0995,2.379578 -0.0356,3.557878 -0.27127,2.366225 -1.184381,4.901879 -1.996808,7.113599 -0.699579,1.90451 -1.782212,4.48114 -2.567127,6.38374 -0.539279,1.30735 1.3096,2.07001 1.848879,0.76266 v 0 c 0.780457,-1.89228 1.924406,-4.61636 2.611396,-6.50141 0.91824,-2.51959 1.81655,-5.054478 2.10362,-7.745788 0.13708,-1.285068 0.008,-2.584701 0.012,-3.877053 -0.21386,-1.322004 -0.28542,-2.675057 -0.6416,-3.966014 -0.60937,-2.208623 -1.83657,-4.363207 -3.122375,-6.238513 -0.792271,-1.155507 -2.252842,-3.255809 -3.734204,-3.870529 -0.609563,-0.252952 -1.315088,-0.112918 -1.972633,-0.169375 -0.353695,0.32309 -0.789694,0.574511 -1.061085,0.969272 -0.357751,0.52038 -0.870622,2.560079 -1.014846,3.043449 -0.603946,2.024136 -1.308823,4.012634 -2.08538,5.977117 -0.576488,1.743715 -1.01554,2.861765 -1.329748,4.694902 -0.633183,3.69407 -0.168225,7.252362 0.959826,10.798902 0.279384,0.89132 0.539708,1.78885 0.838158,2.67398 0.725511,2.1517 1.737807,4.28107 2.230718,6.50012 0.02898,0.13049 0.04299,0.26387 0.06449,0.39581 -0.09407,1.41108 1.901497,1.54412 1.995569,0.13304 z" />
    <path
       style="fill:#000000;stroke-width:0.264583"
       id="path342"
       d="m 32.11455,108.22724 c 1.18823,-0.72189 2.43433,-1.43106 3.51219,-2.31562 3.13323,-2.57131 5.5506,-5.88057 8.02678,-9.052047 0.55203,-0.649994 1.05277,-1.34728 1.65607,-1.949982 1.49278,-1.491295 3.38207,-2.61597 5.49662,-2.923106 1.32097,-0.19187 2.0722,0.02553 3.34356,0.234426 0.32774,0.205743 0.74488,0.312367 0.9832,0.617226 0.18516,0.23686 0.18024,0.581435 0.18878,0.881959 0.0394,1.386038 -0.30631,1.852417 -1.23515,3.054712 -1.99624,2.583953 -2.84142,3.010263 -5.4991,5.229222 -3.96333,2.67101 -4.30292,3.0753 -8.63,5.26712 -2.71557,1.37554 -5.75943,2.6263 -8.60168,3.73373 -0.41369,0.16118 -5.41128,2.00602 -6.16057,2.28288 -1.2927,0.5001 -2.37232,0.87982 -3.60031,1.478 -0.36769,0.17912 -0.716744,0.39422 -1.075119,0.59133 -1.236972,0.68549 -0.267536,2.43484 0.969439,1.74934 v 0 c 0.30556,-0.17082 0.60221,-0.35865 0.91667,-0.51247 1.18399,-0.57916 2.23265,-0.9465 3.4825,-1.43017 0.81326,-0.30049 5.75317,-2.12378 6.21848,-2.3053 2.92369,-1.14057 6.02668,-2.41822 8.81918,-3.83753 4.48555,-2.27981 4.83296,-2.69947 8.94742,-5.4852 2.38906,-2.01625 4.21521,-3.24012 5.96915,-5.803726 1.04573,-1.528472 1.81355,-2.982643 1.29806,-4.843407 -0.18477,-0.666962 -0.54338,-1.313479 -1.03666,-1.798913 -0.44063,-0.433617 -1.10042,-0.563742 -1.65062,-0.845613 -1.67665,-0.242991 -2.44132,-0.476107 -4.1908,-0.182333 -2.53555,0.425773 -4.68525,1.757442 -6.4779,3.553667 -0.62165,0.622887 -1.13845,1.342255 -1.70768,2.013384 -1.80536,2.312654 -3.56449,4.683931 -5.61742,6.788691 -0.63259,0.64856 -1.28492,1.28131 -1.98347,1.85821 -0.95865,0.7917 -2.15808,1.49057 -3.22308,2.14656 -1.2763,0.60914 -0.41484,2.41411 0.86146,1.80496 z" />
    <path
       style="fill:#000000;stroke-width:0.264583"
       id="path346"
       d="m 24.25299,125.6914 c 0.32492,0.23266 0.62967,0.49645 0.97476,0.69799 1.37498,0.80302 4.0959,2.11423 5.43159,2.77421 2.35707,1.16467 4.68238,2.28744 7.00236,3.52483 0.96358,0.51393 1.90782,1.06332 2.86174,1.59498 0.64455,0.44065 1.32511,0.83279 1.93366,1.32196 0.3405,0.2737 0.67475,0.57901 0.89822,0.95439 0.0569,0.0956 -0.0473,0.26371 -0.15368,0.29627 -0.15237,0.0466 -0.31022,-0.14003 -0.46602,-0.10658 -0.46935,0.10078 -0.89348,0.35381 -1.3517,0.49689 -0.67035,0.20932 -1.35411,0.37297 -2.03117,0.55945 -0.74355,0.13482 -1.48221,0.30015 -2.23064,0.40448 -1.92509,0.26835 -4.05898,0.41522 -5.95702,-0.12153 -1.54437,-0.43673 -2.0144,-0.86232 -3.38104,-1.70502 -1.59873,-1.16527 -2.87418,-2.62084 -4.05282,-4.19318 -0.29999,-0.40021 -1.06367,-1.48268 -1.35734,-2.00533 -0.0711,-0.12658 -0.11037,-0.26861 -0.16555,-0.40292 0.19339,0.28393 0.14817,0.1453 -0.0945,0.72369 -0.0204,0.0487 -0.12372,0.0588 -0.11337,0.11061 0.009,0.0444 0.0831,-0.0363 0.12459,-0.0545 1.29557,-0.567 0.49371,-2.39922 -0.80186,-1.83221 v 0 c -0.17596,0.0771 -0.490001,0.20791 -0.578719,0.31838 -0.594677,0.74049 -0.458454,0.7562 -0.365538,1.54229 0.102717,0.22307 0.187661,0.45522 0.30815,0.66921 0.311764,0.55371 1.155237,1.74738 1.474367,2.17003 0.39683,0.52554 0.79386,1.05237 1.22729,1.54816 1.4802,1.69315 1.60364,1.67185 3.35953,3.11663 1.69626,1.01095 2.16883,1.45528 4.08341,1.96615 2.1402,0.57107 4.48538,0.42612 6.65088,0.11676 0.80835,-0.11548 1.60586,-0.29708 2.4088,-0.44562 0.7578,-0.21477 1.53394,-0.37307 2.27342,-0.6443 1.29782,-0.47601 2.67492,-0.92357 3.01766,-2.50796 0.10335,-0.47777 -0.138,-0.99552 -0.39219,-1.41305 -0.61055,-1.00291 -2.4864,-2.0825 -3.29345,-2.63033 -3.34572,-1.8632 -2.75916,-1.57976 -6.38988,-3.40738 -2.16725,-1.09095 -4.36187,-2.1271 -6.52617,-3.2239 -0.74164,-0.37585 -1.48406,-0.7512 -2.20991,-1.15672 -0.24641,-0.13767 -0.46909,-0.31405 -0.70364,-0.47107 -1,-1 -2.41422,0.41421 -1.41422,1.41421 z" />
    <path
       style="fill:#000000;stroke-width:0.264583"
       id="path348"
       d="m 5.416402,120.51377 c -2.391408,-0.0911 -4.74303502,0.40461 -7.0719501,0.87926 -1.060072,0.21605 -5.380461,1.15323 -6.303674,1.35274 -3.1068489,0.67323 -6.2096049,1.37008 -9.2932569,2.14369 -1.095357,0.27479 -2.613581,0.66606 -3.731609,1.02901 -0.329843,0.10708 -0.650473,0.2407 -0.975707,0.36105 -0.234706,0.26994 -0.672473,0.45351 -0.70412,0.80981 -0.114157,1.28522 0.552268,1.49613 1.334384,2.03968 0.282885,0.19659 0.564457,0.39507 0.847341,0.59166 1.402461,0.97468 0.800833,0.56744 2.30391,1.53915 0.61101,0.27336 1.203362,0.59298 1.833033,0.82007 1.742345,0.62839 3.610536,0.99586 5.423207,1.32424 1.9882989,0.36019 5.0909699,0.81246 7.0873779,1.04503 1.104916,0.12872 2.214282,0.21587 3.32142302,0.32381 2.00329508,-0.0115 3.23296008,0.15902 5.12527008,-0.46972 0.67342,-0.22375 1.306539,-0.5674 1.90862,-0.94299 1.169511,-0.72955 1.725776,-1.41552 2.65286,-2.37825 0.975649,-1.02377 -0.472186,-2.40355 -1.447834,-1.37978 v 0 c -0.31809,0.33794 -0.615,0.69715 -0.954273,1.01382 -0.711086,0.66372 -1.630992,1.39692 -2.563143,1.72838 -1.648613,0.58624 -2.750521,0.42055 -4.52783308,0.43794 -1.08319902,-0.10517 -2.16858602,-0.18982 -3.24959702,-0.31551 -1.982319,-0.23048 -4.978373,-0.66801 -6.9551389,-1.02279 -1.667443,-0.29926 -3.404975,-0.63592 -5.015695,-1.19491 -0.532548,-0.18482 -1.035362,-0.4462 -1.553046,-0.6693 -0.389361,-0.25132 -0.782722,-0.49654 -1.168085,-0.75395 -0.362924,-0.24242 -0.717653,-0.49689 -1.076479,-0.74534 -0.295365,-0.20601 -0.586689,-0.41794 -0.886092,-0.61804 -0.171677,-0.11474 -0.365067,-0.45468 -0.526661,-0.32613 -0.222012,0.17661 -0.08143,0.5615 -0.12215,0.84226 -0.129659,0.0583 -0.259316,0.11666 -0.388975,0.17499 0.28194,-0.10588 0.559427,-0.22448 0.845818,-0.31765 1.092848,-0.35554 2.56573,-0.73469 3.634658,-1.00291 3.067356,-0.76966 6.153766,-1.46281 9.2442399,-2.13245 0.928179,-0.20057 5.189915,-1.12497 6.262989,-1.34439 2.15488508,-0.44061 4.3291731,-0.91315 6.5424441,-0.84795 1.410348,0.10447 1.558092,-1.89006 0.147744,-1.99453 z" />
    <path
       style="fill:#000000;stroke-width:0.264583"
       id="path350"
       d="m 15.34496,127.00949 c -1.151012,2.38676 -2.06919,4.90336 -2.658142,7.49006 -0.205102,0.90081 -0.348993,1.81448 -0.523489,2.72172 -1.220107,8.94026 -1.061508,18.00281 -0.972156,27.00493 0.09402,6.16507 0.484979,12.31775 0.937321,18.46483 0.10381,1.4104 2.098413,1.26359 1.994604,-0.14681 v 0 c -0.449429,-6.10482 -0.838216,-12.21519 -0.932024,-18.33789 -0.08822,-8.8699 -0.246449,-17.79841 0.936646,-26.60934 0.163145,-0.85806 0.296831,-1.72225 0.489435,-2.57418 0.555738,-2.45818 1.424172,-4.85099 2.516661,-7.11889 0.632454,-1.26491 -1.156399,-2.15934 -1.788856,-0.89443 z" />
    <circle
       id="path380"
       style="fill:#000000;stroke:#000000;stroke-width:0.264583"
       cx="-23.419355"
       cy="95.451607"
       r="0.023632256" />
    <circle
       id="path382"
       style="fill:#000000;stroke:#000000;stroke-width:0.264583"
       cx="29.096775"
       cy="107.51613"
       r="0.023632256" />
  </g>
</svg>
