<?xml version="1.0" encoding="UTF-8" standalone="no"?>
<!-- Created with Inkscape (http://www.inkscape.org/) -->

<svg
   width="141.45517mm"
   height="165.86223mm"
   viewBox="0 0 141.45517 165.86223"
   version="1.1"
   id="svg5"
   inkscape:version="1.2.1 (9c6d41e410, 2022-07-14)"
   sodipodi:docname="pot.svg"
   xmlns:inkscape="http://www.inkscape.org/namespaces/inkscape"
   xmlns:sodipodi="http://sodipodi.sourceforge.net/DTD/sodipodi-0.dtd"
   xmlns="http://www.w3.org/2000/svg"
   xmlns:svg="http://www.w3.org/2000/svg">
  <sodipodi:namedview
     id="namedview7"
     pagecolor="#ffffff"
     bordercolor="#999999"
     borderopacity="1"
     inkscape:showpageshadow="0"
     inkscape:pageopacity="0"
     inkscape:pagecheckerboard="0"
     inkscape:deskcolor="#d1d1d1"
     inkscape:document-units="mm"
     showgrid="false"
     inkscape:zoom="0.74564394"
     inkscape:cx="229.33198"
     inkscape:cy="116.67767"
     inkscape:window-width="2560"
     inkscape:window-height="1017"
     inkscape:window-x="1912"
     inkscape:window-y="-8"
     inkscape:window-maximized="1"
     inkscape:current-layer="layer1" />
  <defs
     id="defs2" />
  <g
     inkscape:label="Layer 1"
     inkscape:groupmode="layer"
     id="layer1"
     transform="translate(-41.899975,-119.37559)">
    <path
       style="fill:#000000;stroke-width:0.264583"
       id="path114"
       d="m 68.460794,126.56505 c 0.467519,-0.19905 0.921287,-0.43413 1.402551,-0.59717 6.877409,-2.32992 14.151329,-3.5647 21.370443,-4.16032 2.851626,-0.23527 5.715463,-0.28639 8.573193,-0.42959 7.967619,-0.0425 15.990389,0.2508 23.737659,2.29793 3.75035,0.99098 6.79046,2.08899 9.88039,4.41944 1.04626,0.7891 1.85778,1.84879 2.78668,2.77318 0.49378,0.97279 1.1744,1.87151 1.48136,2.91837 0.52271,1.78266 0.32408,4.25669 -0.7248,5.8402 -0.75233,1.13581 -1.82458,2.03988 -2.8856,2.89446 -4.07781,3.28442 -5.26455,3.24756 -10.42458,5.29025 -2.46348,0.6652 -4.89945,1.44229 -7.39046,1.9956 -2.77546,0.6165 -5.58368,1.0832 -8.39448,1.51061 -6.14966,0.93513 -10.753447,1.3438 -16.976306,1.55731 -6.491714,0.22275 -9.083535,0.0271 -15.429278,-0.19726 -3.177429,-0.30445 -7.971324,-0.65789 -11.214907,-1.3313 -2.617372,-0.5434 -4.118665,-0.96568 -6.134264,-2.59069 -0.565298,-0.45576 -1.08228,-0.99321 -1.47175,-1.60606 -0.307064,-0.48318 -0.384638,-1.07846 -0.576955,-1.61769 0.02772,-2.44201 1.238228,-4.4907 2.530522,-6.47067 0.768477,-1.1872 -0.910476,-2.27399 -1.678953,-1.08679 v 0 c -1.142897,1.77859 -2.343983,3.66135 -2.674562,5.80426 -0.127092,0.82384 -0.0214,1.66704 -0.03212,2.50057 0.326358,0.74822 0.518414,1.57076 0.979072,2.24466 0.507611,0.74258 1.165979,1.3885 1.879163,1.93664 2.281627,1.75363 4.028811,2.27279 6.889062,2.86452 3.316751,0.68617 8.183412,1.0416 11.435279,1.35131 6.420874,0.22541 9.049972,0.42315 15.619658,0.1949 6.28265,-0.21827 11.003769,-0.63706 17.211409,-1.58548 2.86718,-0.43806 5.73197,-0.91533 8.56248,-1.54845 2.56534,-0.57381 5.07332,-1.3793 7.60998,-2.06895 2.19017,-0.88407 4.47369,-1.56513 6.57053,-2.6522 2.55396,-1.32405 6.37412,-4.21945 7.91187,-6.81204 1.23729,-2.08602 1.31151,-5.10431 0.57993,-7.349 -0.40126,-1.23117 -1.23415,-2.27685 -1.85122,-3.41528 -1.05753,-1.02292 -1.99011,-2.19326 -3.17258,-3.06877 -3.28298,-2.43072 -6.54851,-3.61986 -10.49743,-4.65583 -7.91227,-2.07573 -16.10067,-2.38579 -24.235436,-2.33522 -2.903151,0.14705 -5.812554,0.20052 -8.709451,0.44114 -7.407375,0.61528 -14.870009,1.89227 -21.919207,4.30702 -0.518488,0.17761 -1.007544,0.43169 -1.511319,0.64754 -1.264909,0.63245 -0.370483,2.42131 0.894427,1.78885 z" />
    <path
       style="fill:#000000;stroke-width:0.264583"
       id="path116"
       d="m 59.167378,153.14746 c 0.89135,3.44598 2.220098,6.75539 3.377729,10.11608 2.806089,8.28966 5.543341,16.60178 8.435462,24.86211 0.700683,2.03479 1.430322,3.65611 1.645962,5.77094 0.04852,0.47585 0.116716,0.99797 -0.0831,1.43256 -0.126137,0.27433 -0.506417,0.33499 -0.784114,0.45355 -1.820571,0.77726 -3.715972,1.36607 -5.577421,2.03959 -4.472541,1.70813 -8.940636,3.78907 -12.512403,7.07093 -2.510782,2.307 -5.936334,6.63034 -7.541238,9.63843 -1.044885,1.95843 -1.703679,4.09956 -2.555518,6.14934 -0.462741,2.28807 -1.115682,4.54579 -1.388221,6.86422 -0.847371,7.20839 0.203001,14.40909 3.082509,21.07325 2.656933,6.14905 4.142909,7.40422 8.19935,12.69382 6.201331,5.12043 7.711631,6.91349 14.997512,10.66801 7.181649,3.70078 13.262909,5.56445 21.099915,7.66987 3.719054,0.99912 7.466531,1.90823 11.248228,2.63509 3.98963,0.76684 8.03193,1.22841 12.04789,1.84261 9.55247,0.76055 14.42611,1.50508 23.98275,0.87085 3.751,-0.24894 7.48155,-0.79497 11.18654,-1.43139 6.18582,-1.0626 12.27402,-2.42245 17.79727,-5.56797 2.42019,-1.3783 4.44764,-3.35362 6.67146,-5.03042 1.6803,-1.83502 3.5808,-3.49041 5.04091,-5.50505 2.77427,-3.82788 4.84245,-8.62977 5.5271,-13.32484 0.67691,-4.64196 0.0865,-10.65107 -0.95339,-15.19005 -0.57844,-2.52477 -1.53583,-4.94747 -2.30375,-7.42121 -1.01475,-2.29919 -1.90389,-4.65802 -3.04426,-6.89757 -3.1228,-6.1328 -7.27671,-11.83797 -12.02463,-16.81412 -3.20912,-3.36339 -4.87379,-4.54737 -8.38299,-7.40243 -7.09147,-5.25873 -0.11727,-0.13082 -6.13781,-4.44959 -1.48751,-1.06704 -2.42498,-1.4651 -3.16236,-3.18722 -0.62807,-1.46682 -0.73507,-3.74814 -0.89391,-5.25869 -0.0124,-1.20364 -0.0476,-2.40726 -0.0371,-3.61092 0.0262,-3.00335 0.23422,-6.00395 0.23162,-9.00742 -0.003,-3.08826 -0.18636,-7.28054 -0.46922,-10.37013 -0.14611,-1.59581 -0.3782,-3.18258 -0.5673,-4.77387 -0.69446,-4.96109 -1.61944,-9.89961 -3.136,-14.67843 -0.42886,-1.34762 -2.33468,-0.74112 -1.90582,0.6065 v 0 c 1.48604,4.65581 2.3704,9.47495 3.05586,14.30851 0.18587,1.55639 0.41413,3.1083 0.55761,4.66917 0.27647,3.00759 0.46298,7.17811 0.46558,10.18497 0.003,3.02895 -0.21084,6.055 -0.2322,9.08388 -0.009,1.26859 0.0326,2.53704 0.0489,3.80557 0.24345,2.14421 0.29158,4.20602 1.25479,6.20367 0.93978,1.94907 1.97648,2.46777 3.63855,3.65999 6.0243,4.3213 -1.05075,-0.87767 6.02749,4.3661 3.38327,2.74638 5.04388,3.93019 8.13444,7.16189 4.61603,4.82684 8.66272,10.36153 11.70552,16.3117 1.10972,2.17004 1.97606,4.45617 2.96409,6.68426 0.74508,2.37442 1.67083,4.69953 2.23525,7.12326 0.97803,4.19988 1.59798,10.03948 1.00462,14.35481 -0.60163,4.37554 -2.51339,8.93674 -5.07864,12.51481 -1.37952,1.92419 -3.18201,3.50671 -4.77302,5.26008 -2.07915,1.59316 -3.967,3.47334 -6.23746,4.77951 -5.36975,3.08917 -11.2476,4.38492 -17.27626,5.42759 -3.62599,0.62711 -7.27683,1.16863 -10.94838,1.41512 -9.42441,0.63272 -14.2385,-0.10165 -23.66394,-0.84802 -3.96464,-0.60428 -7.95528,-1.05743 -11.89391,-1.81287 -3.740527,-0.71742 -7.446681,-1.61742 -11.125842,-2.60233 -7.651969,-2.04843 -13.619763,-3.86501 -20.6352,-7.46181 -6.976031,-3.57661 -8.523452,-5.34146 -14.455519,-10.18129 -3.906244,-5.05657 -5.317807,-6.23433 -7.889142,-12.11305 -2.772595,-6.33887 -3.788748,-13.17119 -3.016295,-20.04299 0.246415,-2.19211 0.850702,-4.32903 1.276051,-6.49355 0.78843,-1.93139 1.390605,-3.94975 2.365288,-5.79416 1.465072,-2.7724 4.760714,-7.00305 7.073069,-9.14862 3.41448,-3.16821 7.709951,-5.15877 12.002614,-6.79731 0.813284,-0.29478 5.421299,-1.86961 6.34021,-2.53608 0.596948,-0.43296 1.078632,-1.07117 1.338858,-1.76116 0.224372,-0.59492 0.11367,-1.27491 0.04456,-1.90698 -0.243208,-2.22411 -0.983567,-3.90017 -1.718315,-6.03383 -2.891153,-8.25714 -5.62686,-16.56628 -8.432189,-24.85268 -1.139238,-3.30584 -2.446121,-6.56143 -3.328358,-9.94966 -0.342998,-1.37199 -2.283283,-0.88692 -1.940285,0.48507 z" />
  </g>
</svg>
