<?xml version="1.0" encoding="UTF-8" standalone="no"?>
<!-- Created with Inkscape (http://www.inkscape.org/) -->

<svg
   width="144.53426mm"
   height="73.163658mm"
   viewBox="0 0 144.53426 73.163658"
   version="1.1"
   id="svg623"
   inkscape:version="1.2.1 (9c6d41e410, 2022-07-14)"
   sodipodi:docname="tiramisu.svg"
   xmlns:inkscape="http://www.inkscape.org/namespaces/inkscape"
   xmlns:sodipodi="http://sodipodi.sourceforge.net/DTD/sodipodi-0.dtd"
   xmlns="http://www.w3.org/2000/svg"
   xmlns:svg="http://www.w3.org/2000/svg">
  <sodipodi:namedview
     id="namedview625"
     pagecolor="#ffffff"
     bordercolor="#999999"
     borderopacity="1"
     inkscape:showpageshadow="0"
     inkscape:pageopacity="0"
     inkscape:pagecheckerboard="0"
     inkscape:deskcolor="#d1d1d1"
     inkscape:document-units="mm"
     showgrid="false"
     inkscape:zoom="1.0544998"
     inkscape:cx="430.53589"
     inkscape:cy="55.476541"
     inkscape:window-width="1278"
     inkscape:window-height="1008"
     inkscape:window-x="3193"
     inkscape:window-y="0"
     inkscape:window-maximized="0"
     inkscape:current-layer="layer1" />
  <defs
     id="defs620" />
  <g
     inkscape:label="Layer 1"
     inkscape:groupmode="layer"
     id="layer1"
     transform="translate(-35.256007,-153.09378)">
    <path
       style="fill:#000000;stroke-width:0.264583"
       id="path639"
       d="m 80.45765,170.85413 c 0.532178,5.68701 0.87643,11.38612 1.146405,17.09081 0.06687,1.41263 2.064629,1.31807 1.997763,-0.0946 v 0 c -0.269938,-5.70206 -0.611158,-11.39894 -1.146056,-17.08312 -0.06143,-1.41288 -2.059543,-1.32601 -1.998112,0.0869 z" />
    <path
       style="fill:#000000;stroke-width:0.264583"
       id="path641"
       d="m 89.957554,167.24193 c 7.708398,0.20923 15.418736,0.31907 23.129496,0.40235 4.20967,0.0671 8.42596,-0.01 12.62921,0.28575 1.06731,0.075 2.76858,0.021 3.71188,0.86074 0.32589,0.29014 0.42931,0.75975 0.64397,1.13963 0.18738,0.66897 0.42643,1.32557 0.56213,2.00691 0.19652,0.98671 0.32611,1.98667 0.43251,2.98711 0.48346,4.54569 0.3066,9.10659 0.0895,13.66069 -0.0573,0.77083 -0.11461,1.54166 -0.17191,2.3125 -0.10463,1.41034 1.88989,1.5583 1.99452,0.14797 v 0 c 0.0584,-0.78849 0.11675,-1.57697 0.17513,-2.36545 0.16405,-3.45605 0.32028,-6.91432 0.16774,-10.37508 -0.0831,-1.88467 -0.34125,-5.06559 -0.77584,-6.95547 -0.20342,-0.88466 -0.56683,-1.72473 -0.85025,-2.58709 -0.49232,-0.60295 -0.85675,-1.33847 -1.47698,-1.80883 -1.20827,-0.91633 -3.01438,-0.9241 -4.40176,-1.02109 -4.22965,-0.29568 -8.47218,-0.22228 -12.70829,-0.28817 -7.71797,-0.0833 -15.435475,-0.19416 -23.151096,-0.40247 -1.414213,0 -1.414213,2 0,2 z" />
    <path
       style="fill:#000000;stroke-width:0.264583"
       id="path643"
       d="m 91.181588,192.56805 c 0.733933,0.30891 1.458905,0.64005 2.201799,0.92675 2.62092,1.01144 7.156343,2.60403 9.681283,3.46495 6.19254,2.11145 12.42461,4.10111 18.66203,6.07467 1.34833,0.42662 1.95165,-1.48022 0.60332,-1.90683 v 0 c -6.21845,-1.96749 -12.43155,-3.95103 -18.60532,-6.05579 -2.62585,-0.89521 -6.865881,-2.38653 -9.569534,-3.42209 -0.679495,-0.26027 -1.343916,-0.55831 -2.015873,-0.83745 -1.241531,-0.6772 -2.199236,1.07859 -0.957705,1.75579 z" />
    <path
       style="fill:#000000;stroke-width:0.264583"
       id="path649"
       d="m 84.67623,160.84384 c 0.276302,-0.20461 0.542486,-0.42363 0.828903,-0.61381 1.322435,-0.8781 2.310363,-1.42096 3.732929,-2.1936 0.530739,-0.28826 3.321672,-1.76528 3.969732,-2.05626 0.534596,-0.24003 1.094081,-0.42025 1.641123,-0.63037 0.701818,-0.0803 1.399558,-0.21434 2.105456,-0.24098 2.484779,-0.0938 6.718067,0.21609 8.881037,0.34795 7.56587,0.4612 15.12783,0.99057 22.69193,1.47987 0.45125,0.0298 10.84317,0.70616 11.97823,0.81906 1.51727,0.15092 4.53425,0.45704 6.13115,1.24423 1.41728,0.69865 0.61173,0.76762 0.0911,0.93802 -2.63762,1.88385 -5.65794,3.13093 -8.60353,4.44024 -1.29221,0.57462 -0.47958,2.40208 0.81263,1.82747 v 0 c 1.62346,-0.7222 3.82852,-1.67287 5.38453,-2.49474 0.88466,-0.46727 1.79973,-0.90045 2.59669,-1.50527 0.66644,-0.50577 1.16884,-1.19732 1.75325,-1.79599 -0.004,-0.71006 0.27195,-1.47958 -0.0125,-2.1302 -0.53974,-1.23454 -3.16826,-1.79513 -4.04631,-1.97227 -1.30782,-0.26385 -2.63742,-0.41434 -3.96504,-0.54645 -1.13432,-0.11287 -11.53672,-0.78987 -11.99107,-0.81993 -7.56956,-0.48965 -15.13695,-1.02099 -22.70839,-1.48087 -2.11487,-0.12846 -6.780117,-0.47066 -9.248367,-0.33484 -0.86473,0.0476 -1.715399,0.2398 -2.573099,0.3597 -0.607296,0.23696 -1.227281,0.44366 -1.821884,0.71088 -0.659474,0.29637 -3.503602,1.80173 -4.041788,2.09459 -1.33092,0.72424 -2.721999,1.48835 -3.974182,2.3522 -0.383492,0.26456 -0.732726,0.57562 -1.099087,0.86344 -0.94606,1.05117 0.540528,2.3891 1.486588,1.33793 z" />
    <path
       style="fill:#000000;stroke-width:0.264583"
       id="path651"
       d="m 145.45831,164.15065 c 0.57851,6.88586 0.60194,13.80038 0.59529,20.70537 -0.0133,0.98987 -0.0481,4.29402 -0.0955,5.45722 -0.0566,1.39054 0.0224,1.92891 -0.60508,3.12686 -0.60249,1.15029 -1.24008,1.59143 -2.19113,2.50673 -0.70913,0.55778 -1.40203,1.13686 -2.1274,1.67336 -0.86392,0.63899 -1.75219,1.24458 -2.63872,1.85182 -1.20286,0.82389 -3.61903,2.41921 -4.90762,3.2247 -1.5763,0.98533 -2.0139,1.20903 -3.55348,2.07205 -1.50792,0.77106 -0.80553,0.45066 -2.09307,0.99149 -1.3023,0.55136 -0.52256,2.3931 0.77975,1.84174 v 0 c 1.44159,-0.6145 0.67392,-0.25957 2.29171,-1.08888 0.55248,-0.31007 1.11028,-0.61084 1.65744,-0.93019 2.38458,-1.39176 4.6988,-2.91302 6.97496,-4.47439 0.91704,-0.62906 1.83692,-1.25505 2.72896,-1.91908 0.78192,-0.58206 1.52722,-1.21176 2.29083,-1.81764 1.23414,-1.2386 1.93962,-1.71314 2.68009,-3.28433 0.68556,-1.45466 0.64853,-2.16167 0.71225,-3.72894 0.0477,-1.17396 0.0826,-4.50133 0.096,-5.50062 0.007,-6.95233 -0.0183,-13.91418 -0.6002,-20.84728 -0.099,-1.41075 -2.09409,-1.27074 -1.99509,0.14001 z" />
    <path
       style="fill:#000000;stroke-width:0.264583"
       id="path653"
       d="m 89.191345,177.58587 c 9.117732,1.51589 18.259915,2.87524 27.407295,4.19816 1.97515,0.21771 5.70007,0.68715 7.80077,0.71375 1.17696,0.0149 2.35629,-0.0402 3.52778,-0.15447 3.75871,-0.36661 7.39273,-1.41035 11.0218,-2.39304 4.52737,-1.42251 2.36655,-0.70011 6.48847,-2.14919 1.33409,-0.46927 0.67043,-2.35595 -0.66365,-1.88668 v 0 c -4.03291,1.41943 -1.91886,0.71174 -6.34799,2.10551 -3.48591,0.9456 -6.98056,1.96007 -10.5898,2.32549 -1.09549,0.11091 -2.19852,0.17004 -3.29954,0.15708 -2.05399,-0.0242 -5.72667,-0.48622 -7.65158,-0.69785 -9.14852,-1.32307 -18.291748,-2.68315 -27.410713,-4.19866 -1.4,-0.2 -1.682843,1.7799 -0.282842,1.9799 z" />
    <path
       style="fill:#000000;stroke-width:0.264583"
       id="path655"
       d="m 90.611692,186.19715 c 8.014615,3.56857 16.190988,6.74756 24.399958,9.83605 1.6841,0.59134 4.89695,1.77371 6.76818,2.25285 1.33574,0.34202 2.78544,0.62351 4.1736,0.35929 1.47474,-0.2807 1.95214,-0.82206 3.14141,-1.67128 1.11076,-0.96113 2.01221,-1.80618 3.26703,-2.60439 1.68143,-1.06957 3.16923,-1.72769 5.0864,-2.3345 2.55069,-0.80733 4.39032,-1.07195 7.02895,-1.57323 2.83175,-0.45076 5.66684,-0.87226 8.49227,-1.36089 1.39351,-0.24112 1.05252,-2.21183 -0.34099,-1.97072 v 0 c -2.83654,0.49105 -5.68323,0.91189 -8.52579,1.36699 -2.77717,0.53114 -4.68815,0.80563 -7.37622,1.67263 -3.44272,1.11041 -6.19694,2.73823 -8.82253,5.19731 -0.63447,0.4947 -1.23263,1.09044 -2.05383,1.28075 -1.15676,0.26807 -2.36412,0.0122 -3.4801,-0.27289 -1.84063,-0.47017 -5.00525,-1.63508 -6.65413,-2.21382 -8.17493,-3.07548 -16.317462,-6.24091 -24.298732,-9.79478 -1.29445,-0.56956 -2.099927,1.26107 -0.805476,1.83063 z" />
    <path
       style="fill:#000000;stroke-width:0.264583"
       id="path657"
       d="m 76.865849,181.10251 c -4.853037,0.56968 -9.737518,0.83748 -14.588698,1.4253 -4.790014,0.58041 -6.20667,0.88862 -10.874756,1.70446 -4.129707,0.8856 -8.225695,2.1277 -11.668048,4.67389 -0.876565,0.64836 -1.725216,1.36149 -2.415548,2.2054 -1.661287,2.03087 -1.543804,2.79222 -2.062792,5.19669 0.293952,1.01348 0.383124,2.1105 0.881853,3.04046 1.336355,2.49187 3.882731,4.42808 6.207464,5.8452 1.754399,1.06945 3.603701,1.98538 5.481941,2.81836 5.65998,2.51016 9.649431,3.56553 15.649131,5.4596 3.22359,0.86226 6.42997,1.79166 9.670772,2.5868 7.06874,1.73434 15.095873,3.40714 22.269203,4.5764 7.261239,1.18358 14.345179,2.08629 21.703379,2.3137 3.316,0.10248 6.63462,-0.0859 9.95193,-0.1288 3.13608,-0.30826 6.28437,-0.51062 9.40823,-0.92477 5.41972,-0.71853 11.31202,-1.91999 16.59955,-3.3535 4.56231,-1.23689 8.78043,-2.66037 13.08082,-4.60076 1.64615,-0.74277 3.21349,-1.64911 4.82023,-2.47366 2.53873,-1.65731 4.1381,-2.52004 6.29521,-4.53088 0.61937,-0.57738 1.21515,-1.19456 1.6942,-1.89277 0.36814,-0.53655 0.83641,-1.12106 0.81992,-1.77155 -0.063,-2.4852 -1.76323,-2.95011 -3.50892,-4.15871 -4.10829,-2.02681 -8.48669,-3.40366 -12.84027,-4.78739 -1.3478,-0.42829 -1.9535,1.47778 -0.6057,1.90608 v 0 c 4.18674,1.33015 8.39397,2.65659 12.36344,4.56302 0.64869,0.37569 1.3064,0.73624 1.94608,1.12706 0.27942,0.17072 0.75057,0.23441 0.80949,0.55651 0.0797,0.43573 -0.23504,0.87041 -0.48108,1.23875 -0.41075,0.61493 -0.92228,1.16295 -1.46132,1.6692 -2.02767,1.90428 -3.55195,2.73067 -5.94559,4.30203 -1.55059,0.79889 -3.06261,1.67753 -4.65176,2.39667 -4.21045,1.90536 -8.32647,3.29607 -12.79631,4.51039 -5.20535,1.41413 -10.99847,2.59791 -16.33439,3.30918 -3.06743,0.40887 -6.15896,0.61018 -9.23844,0.91528 -3.26058,0.0446 -6.52236,0.23296 -9.78174,0.13378 -7.28664,-0.22174 -14.28975,-1.11394 -21.480971,-2.28509 -7.12633,-1.16059 -15.09591,-2.82063 -22.118574,-4.54229 -3.212282,-0.78752 -6.390491,-1.70803 -9.585737,-2.56204 -5.947879,-1.87465 -9.739305,-2.87138 -15.34005,-5.33285 -3.645088,-1.60197 -8.434019,-3.99823 -10.704025,-7.51915 -0.3932,-0.60988 -0.543695,-1.3456 -0.815544,-2.0184 0.312648,-1.81957 0.220514,-2.55253 1.457457,-4.11343 0.596728,-0.75302 1.336675,-1.39195 2.1043,-1.96976 3.220162,-2.4239 7.085407,-3.56947 10.966744,-4.40855 4.586375,-0.80259 6.026774,-1.11441 10.730994,-1.68466 4.860618,-0.58921 9.754759,-0.85664 14.617174,-1.42838 1.404892,-0.1621 1.175644,-2.14892 -0.229249,-1.98682 z" />
    <path
       style="fill:#000000;stroke-width:0.264583"
       id="path661"
       d="m 42.587902,208.88861 c 1.884836,0.86222 3.701002,1.86094 5.551826,2.79158 2.368986,1.09164 4.81235,2.06662 7.330977,2.75974 0.542959,0.14942 1.093353,0.27036 1.64003,0.40554 0.586521,0.10846 1.169908,0.23547 1.759556,0.32538 1.429565,0.21796 2.808698,0.32893 4.244938,0.48877 2.746182,0.30562 5.475084,0.6905 8.206645,1.1054 5.202221,0.81895 10.363205,1.86517 15.511824,2.96553 5.384943,1.27319 10.847128,2.14338 16.325062,2.89602 5.59946,0.72011 11.22964,1.1514 16.84906,1.67852 6.85032,0.65628 13.70193,1.28437 20.5673,1.76062 4.89096,0.22211 9.82705,0.3737 14.69694,-0.26496 2.86976,-0.37635 3.391,-0.59808 6.12755,-1.30753 3.13218,-0.97021 6.11505,-2.35878 8.82436,-4.20841 1.22495,-0.83627 1.70059,-1.26212 2.82081,-2.17715 1.16563,-0.98854 2.22876,-2.08341 3.24158,-3.225 0.93793,-1.05844 -0.55893,-2.38487 -1.49686,-1.32643 v 0 c -0.94074,1.063 -1.92893,2.08179 -3.01118,3.0035 -1.04859,0.85942 -1.48948,1.25545 -2.6344,2.04178 -2.53043,1.73789 -5.32059,3.03968 -8.24847,3.9563 -2.58331,0.67634 -3.09364,0.89227 -5.80972,1.25164 -4.76174,0.63002 -9.58951,0.47547 -14.37223,0.26105 -6.84923,-0.47495 -13.68468,-1.10211 -20.51891,-1.75667 -5.59089,-0.5244 -11.19248,-0.95349 -16.76367,-1.66866 -5.429101,-0.74553 -10.842521,-1.60772 -16.179228,-2.87045 -5.187666,-1.10867 -10.387893,-2.16227 -15.629614,-2.98704 -3.022889,-0.45873 -2.957208,-0.47039 -5.883016,-0.83447 -2.164831,-0.26939 -4.349456,-0.42483 -6.507059,-0.74938 -0.5505,-0.0828 -1.09524,-0.2002 -1.642862,-0.30029 -0.511788,-0.12558 -1.027133,-0.23745 -1.535363,-0.37673 -2.41014,-0.6605 -4.747991,-1.59307 -7.015893,-2.6336 -1.819288,-0.91399 -3.601191,-1.90215 -5.457706,-2.74108 -1.227881,-0.70165 -2.220158,1.03484 -0.992277,1.73648 z" />
    <path
       style="fill:#000000;stroke-width:0.264583"
       id="path663"
       d="m 78.752416,190.94946 c -0.938033,-0.0453 -0.685178,-0.0491 -1.917324,0.002 -1.436926,0.0596 -2.00102,0.0935 -3.494358,0.33628 -1.712116,0.27833 -2.685097,0.5408 -4.383386,0.94187 -4.160988,1.14386 -8.326189,2.30117 -12.393967,3.74759 -0.983319,0.39061 -1.28832,0.48915 -2.193494,0.92531 -0.439481,0.21177 -0.968864,0.47781 -1.343906,0.80387 -0.529029,0.45995 -0.526777,0.57989 -0.847698,1.17431 -0.04872,0.23199 -0.131353,0.4594 -0.146153,0.69599 -0.05287,0.84505 0.379359,1.69766 0.948843,2.29744 0.150974,0.15901 0.326792,0.29242 0.490188,0.43863 0.19957,0.11613 0.382863,0.26639 0.598713,0.3484 0.924925,0.35141 1.951516,0.3275 2.920425,0.31904 0.620149,-0.005 2.944429,-0.0595 3.47262,-0.0713 2.403829,-0.0366 4.808003,-0.0151 7.211824,-0.053 1.514065,-0.0238 2.558082,-0.0162 4.046625,-0.23539 0.577905,-0.0851 1.144759,-0.23323 1.71714,-0.34984 1.74025,-0.55555 3.4074,-1.38051 4.732462,-2.66114 0.645573,-0.62393 0.730123,-0.82642 1.23266,-1.56018 0.428286,-0.76202 0.778443,-1.56441 1.117446,-2.369 0.09906,-0.23512 0.425815,-0.97611 0.415221,-1.24908 -0.01426,-0.36738 -0.154665,-0.71885 -0.231997,-1.07828 -0.705091,-0.90217 -0.31187,-0.52074 -1.157941,-1.16628 -1.150088,-0.82298 -2.313958,0.8035 -1.16387,1.62647 v 0 c 0.34589,0.21264 0.190635,0.11888 0.464904,0.28271 0.04838,-0.0452 0.124614,-0.19854 0.145148,-0.13559 0.04592,0.14076 -0.260339,0.815 -0.306546,0.92476 -0.291727,0.69302 -0.59373,1.38338 -0.942975,2.04967 -0.131053,0.2008 -0.248441,0.41122 -0.393163,0.6024 -1.06014,1.40049 -2.705129,2.19914 -4.31691,2.77509 -0.502502,0.10597 -0.999701,0.24129 -1.507508,0.31792 -1.419911,0.21425 -2.414381,0.20293 -3.869643,0.22586 -2.412343,0.038 -4.825044,0.0162 -7.237394,0.0534 -0.689858,0.0154 -2.659866,0.0614 -3.424187,0.0708 -1.010084,0.0124 -0.751313,0.0191 -1.597948,-0.0468 -0.124153,-0.01 -0.251153,-0.002 -0.372375,-0.0301 -0.0938,-0.0221 -0.175506,-0.0796 -0.263257,-0.11941 -0.346983,-0.25232 -0.657482,-0.61943 -0.778677,-1.0391 0.157784,-0.57485 0.716568,-0.77971 1.215832,-1.02173 0.837755,-0.40612 1.116965,-0.49542 2.036188,-0.86169 3.998082,-1.42427 8.094631,-2.55637 12.183755,-3.68552 1.622507,-0.38445 2.552219,-0.63551 4.182613,-0.90509 1.455063,-0.24058 1.885585,-0.2577 3.29121,-0.32015 1.121114,-0.0498 0.850845,-0.0473 1.707468,-0.007 1.410049,0.10847 1.563441,-1.88564 0.153392,-1.99411 z" />
    <circle
       id="path667"
       style="fill:#000000;stroke:#000000;stroke-width:0.264583"
       cx="92.790321"
       cy="204.3871"
       r="0.011816128" />
    <path
       style="fill:#000000;stroke-width:0.264583"
       id="path669"
       d="m 93.553342,203.68455 c -0.140298,0.83664 0.04918,1.54803 0.777026,2.05961 0.121457,0.0854 0.261797,0.14006 0.392695,0.2101 0.620035,0.25437 1.114041,0.0289 1.648528,-0.26826 1.236009,-0.68723 0.264121,-2.43521 -0.971888,-1.74798 v 0 c -0.421706,0.2345 -0.07106,0.0302 0.172812,0.20559 -0.0172,0.0113 -0.05061,0.0125 -0.05215,0.033 -0.0037,0.0496 0.02061,0.0986 0.01669,0.14822 -0.0016,0.0193 -0.02796,0.0671 -0.03219,0.0482 -0.01328,-0.0592 -0.0021,-0.12148 0.0021,-0.18201 0.0052,-0.0749 0.01746,-0.14908 0.02617,-0.22363 0.199998,-1.4 -1.7799,-1.68284 -1.979901,-0.28284 z" />
    <path
       style="fill:#000000;stroke-width:0.264583"
       id="path671"
       d="m 111.6398,207.68294 c -0.19006,0.57376 -0.50443,1.18478 -0.27095,1.80854 0.2641,0.70557 0.55467,0.76601 1.12168,1.11067 0.67534,0.28738 1.21092,0.29767 1.58093,0.9766 0.76482,1.18955 2.44711,0.10793 1.68229,-1.08163 v 0 c -0.088,-0.1296 -0.16585,-0.26674 -0.26405,-0.3888 -0.53959,-0.67071 -1.2759,-1.03732 -2.08255,-1.28376 -0.21502,0.005 -0.0474,-0.0343 -0.0829,0.24698 -0.007,0.0566 -0.0699,0.21149 -0.0737,0.15454 -0.0182,-0.26696 0.26739,-0.70237 0.30494,-0.96845 0.40637,-1.35457 -1.50928,-1.92926 -1.91565,-0.57469 z" />
    <path
       style="fill:#000000;stroke-width:0.264583"
       id="path673"
       d="m 94.175613,210.89807 c -0.324916,0.49872 -0.456583,0.94971 -0.188666,1.57598 0.222371,0.5198 0.882787,0.85259 1.331343,1.14888 0.137145,0.10592 0.335095,0.19919 0.389983,0.37894 0.798542,1.16719 2.449198,0.0379 1.650656,-1.1293 v 0 c -0.269266,-0.35874 -0.543486,-0.68833 -0.938429,-0.91851 -0.02257,-0.0149 -0.566659,-0.37604 -0.577165,-0.37638 -0.05143,-0.002 0.0077,0.10338 7.94e-4,0.15438 -0.02088,0.15549 -0.05019,0.30989 -0.0838,0.46313 -0.0033,0.015 -0.0052,-0.0303 -0.0078,-0.0454 0.046,-0.0742 0.092,-0.14847 0.137996,-0.2227 0.727607,-1.21268 -0.98738,-2.24167 -1.714987,-1.02899 z" />
    <path
       style="fill:#000000;stroke-width:0.264583"
       id="path681"
       d="m 86.544366,205.93491 c -0.388326,-0.20303 -0.823214,-0.39093 -1.100434,-0.74483 -0.296889,-0.39875 -0.716555,-0.61629 -1.168712,-0.79342 -1.317723,-0.51343 -2.043814,1.35012 -0.726091,1.86354 v 0 c 0.05477,0.0212 0.109546,0.0424 0.164317,0.0636 -0.0013,-0.01 -0.01331,-0.0289 -0.0037,-0.0287 0.09227,0.002 0.200351,0.20849 0.241099,0.22577 0.479759,0.51724 1.056254,0.91029 1.699059,1.20297 1.264912,0.63245 2.159339,-1.1564 0.894427,-1.78885 z" />
    <path
       style="fill:#000000;stroke-width:0.264583"
       id="path683"
       d="m 106.49162,206.93854 c -0.60334,-0.22042 -1.29717,-0.26209 -1.88629,0.0384 -0.12666,0.0646 -0.23997,0.15258 -0.35995,0.22887 -0.27882,0.18719 -0.419,0.5043 -0.66274,0.72489 -0.0704,0.0637 -0.15621,0.11482 -0.23525,0.16622 -1.16069,0.80796 -0.0181,2.44943 1.14263,1.64146 v 0 c 0.35454,-0.25407 0.7244,-0.53458 0.94057,-0.92158 -0.0197,0.003 -0.044,0.0205 -0.0592,0.008 -0.0115,-0.01 0.0229,-0.0194 0.0352,-0.028 0.0791,-0.0548 0.11735,-0.0181 0.2058,-0.0418 0.01,-0.003 -0.0101,-0.0182 -0.0151,-0.0273 1.26491,0.63245 2.15933,-1.1564 0.89442,-1.78886 z" />
    <path
       style="fill:#000000;stroke-width:0.264583"
       id="path685"
       d="m 106.75915,210.93247 c -0.12599,0.49252 -0.12337,0.98426 0.13344,1.4414 0.0467,0.0831 0.25831,0.32571 0.3635,0.44767 0.0189,0.0714 -0.0612,-0.0473 -0.0686,-0.0675 -0.0316,-0.0865 -0.005,-0.19317 -0.0606,-0.0232 -0.0597,0.12734 -0.0229,0.0444 -0.10191,0.25256 -0.50002,1.32287 1.3708,2.03 1.87082,0.70713 v 0 c 0.0821,-0.2184 0.0345,-0.0934 0.14361,-0.37465 0.20746,-0.69775 0.17405,-1.21171 -0.27624,-1.80916 -0.048,-0.0546 -0.0827,-0.12463 -0.14389,-0.16374 -0.0304,-0.0194 0.0345,0.0643 0.0431,0.0994 0.0198,0.0799 0.0126,0.32765 -0.004,0.24699 -0.01,-0.0469 0.0489,-0.3028 0.053,-0.32306 0.30678,-1.38054 -1.64559,-1.81439 -1.95238,-0.43386 z" />
  </g>
</svg>
