<?xml version="1.0" encoding="UTF-8" standalone="no"?>
<!-- Created with Inkscape (http://www.inkscape.org/) -->

<svg
   width="167.42392mm"
   height="106.97022mm"
   viewBox="0 0 167.42392 106.97022"
   version="1.1"
   id="svg534"
   inkscape:version="1.2.1 (9c6d41e410, 2022-07-14)"
   sodipodi:docname="toolbox.svg"
   xmlns:inkscape="http://www.inkscape.org/namespaces/inkscape"
   xmlns:sodipodi="http://sodipodi.sourceforge.net/DTD/sodipodi-0.dtd"
   xmlns="http://www.w3.org/2000/svg"
   xmlns:svg="http://www.w3.org/2000/svg">
  <sodipodi:namedview
     id="namedview536"
     pagecolor="#ffffff"
     bordercolor="#999999"
     borderopacity="1"
     inkscape:showpageshadow="0"
     inkscape:pageopacity="0"
     inkscape:pagecheckerboard="0"
     inkscape:deskcolor="#d1d1d1"
     inkscape:document-units="mm"
     showgrid="false"
     inkscape:zoom="1.0544998"
     inkscape:cx="397.3448"
     inkscape:cy="95.305853"
     inkscape:window-width="1278"
     inkscape:window-height="1008"
     inkscape:window-x="3193"
     inkscape:window-y="0"
     inkscape:window-maximized="0"
     inkscape:current-layer="layer1" />
  <defs
     id="defs531" />
  <g
     inkscape:label="Layer 1"
     inkscape:groupmode="layer"
     id="layer1"
     transform="translate(-21.587447,-141.37685)">
    <path
       style="fill:#000000;stroke-width:0.264583"
       id="path538"
       d="m 50.396944,151.96536 c -3.121337,4.39453 -5.655101,9.20683 -7.896053,14.10138 -0.795473,1.73741 -1.518039,3.50729 -2.277057,5.26093 -2.063234,5.06543 -4.169712,10.1131 -6.250271,15.17139 -1.210006,2.94179 -1.848051,4.33694 -2.763255,7.28507 -0.296815,0.95612 -0.522573,1.93287 -0.78386,2.89931 -0.181171,0.88848 -0.368543,1.77573 -0.543515,2.66546 -0.336849,1.71286 -0.638246,3.58305 -1.077259,5.27079 -0.901314,3.46501 -2.191078,6.78107 -3.511304,10.10122 -1.021233,2.60771 -2.361053,5.09734 -3.178147,7.78525 -0.374348,1.23145 -0.653624,2.40015 -0.47181,3.69836 0.08767,0.62599 0.350252,1.21473 0.525378,1.82209 1.06761,2.0174 2.474344,3.84201 3.997072,5.53564 0.908645,1.01063 1.746229,1.9354 3.037557,2.47273 0.679325,0.28268 1.427961,0.35564 2.141942,0.53345 0.935281,0.0346 1.869921,0.10245 2.80584,0.10382 1.257228,0.002 2.513549,-0.0684 3.770516,-0.0942 3.274735,-0.0674 7.664328,-0.13937 10.872483,-0.11357 5.005972,0.0403 9.166495,0.20607 14.191194,0.36772 10.042284,0.52407 20.126524,0.56687 30.141439,1.55621 5.053134,0.49918 8.533006,1.07953 13.505886,1.82337 12.73732,2.10447 25.55083,3.68872 38.291,5.77909 3.47708,0.67787 3.8009,0.68179 6.92464,1.47951 1.74557,0.44577 3.48382,1.16073 5.32317,0.75794 0.5437,-0.11906 1.04267,-0.38991 1.564,-0.58486 1.41092,-0.81596 2.75134,-1.74364 4.1203,-2.62652 0.88202,-0.56884 1.38201,-0.94201 2.32787,-1.37101 0.34805,-0.15786 0.71581,-0.26807 1.07371,-0.4021 1.70332,-0.53025 3.56842,-0.1917 5.24707,-0.81777 0.29976,-0.1118 0.57503,-0.28066 0.86254,-0.421 0.35549,-0.50515 0.84665,-0.9382 1.06648,-1.51546 0.74486,-1.95606 1.27299,-6.55874 1.49949,-8.3006 0.67141,-5.16352 0.78678,-6.86914 1.44254,-12.08968 0.25695,-2.04556 0.54545,-4.08703 0.81818,-6.13054 0.78337,-5.6786 2.08518,-11.26327 3.64522,-16.77357 2.29112,-8.0926 0.44868,-1.14214 2.57537,-8.47068 0.35094,-1.20935 0.65775,-2.43106 0.98662,-3.6466 0.97816,-3.78289 1.83773,-7.60343 2.30133,-11.48731 0.19477,-1.63168 0.33117,-3.57541 0.46006,-5.21104 0.24163,-3.90491 0.67305,-7.79398 1.57454,-11.60418 0.13497,-0.58093 0.50512,-1.61638 0.0626,-2.19894 -1.18062,-1.55419 -2.88366,-1.42808 -4.64428,-1.59847 -1.73358,-0.16777 -3.47355,-0.26165 -5.21129,-0.37874 -2.5053,-0.1688 -5.0118,-0.31927 -7.51769,-0.47891 -14.24187,-0.86957 -28.48342,-1.80139 -42.67675,-3.28499 -7.65858,-0.80054 -9.28858,-1.05435 -16.61181,-2.00369 -5.33676,-0.66939 -10.63097,-1.61178 -15.930206,-2.51835 -4.005794,-0.6853 -8.020499,-1.31494 -12.026429,-1.99959 -3.356858,-0.5407 -6.850242,-1.50502 -10.225513,-0.49549 -1.75881,0.52605 -2.345068,1.05141 -3.838077,2.02039 -1.676178,1.08542 -2.9073,2.92106 -4.546714,4.03419 -1.007147,0.68384 -1.506051,0.73382 -2.707511,1.11571 -3.2351,0.68618 -6.515983,1.08558 -9.713211,1.94502 -1.597017,0.45157 -2.290942,1.55167 -3.337724,2.68001 -0.432451,0.38156 -0.212648,0.18358 -0.658757,0.59467 -1.039844,0.9585 0.315683,2.42906 1.355527,1.47056 v 0 c 0.474252,-0.43729 0.216667,-0.20072 0.773276,-0.70915 0.733301,-0.79866 1.297546,-1.76058 2.38759,-2.10485 3.232478,-0.87159 6.557682,-1.24004 9.82033,-1.9771 1.645711,-0.5599 1.995281,-0.54124 3.368485,-1.48482 1.609928,-1.10624 2.750095,-2.78487 4.359293,-3.8943 1.176433,-0.78959 1.737535,-1.28286 3.117787,-1.72682 3.117842,-1.00285 6.401919,0.0526 9.508304,0.50339 4.003125,0.68409 8.014994,1.31336 12.017973,1.99813 5.328587,0.91154 10.652217,1.85858 16.018497,2.53181 7.35002,0.95255 8.99089,1.20787 16.67562,2.01092 14.21537,1.48548 28.47892,2.41957 42.74288,3.29031 3.40989,0.21719 8.95599,0.54916 12.6144,0.84703 0.80543,0.0656 1.60418,0.22388 2.41204,0.24348 0.1848,0.004 0.34429,-0.19924 0.52715,-0.17217 0.42317,0.0626 -0.0268,1.77891 -0.0624,1.2818 -0.91901,3.91075 -1.37818,7.89848 -1.62175,11.90616 -0.12262,1.55866 -0.26178,3.53159 -0.44679,5.08988 -0.45137,3.80174 -1.29487,7.54071 -2.25144,11.24343 -0.32235,1.193 -0.62262,2.39219 -0.96706,3.57901 -2.09182,7.2075 -0.33609,0.55063 -2.59619,8.54293 -1.58175,5.59351 -2.90043,11.26265 -3.69573,17.0264 -1.20901,9.06173 -0.46673,3.25789 -1.55031,12.34183 -0.31731,2.66018 -0.9069,7.78492 -1.36973,10.59639 -0.38835,2.35906 -0.34261,2.12358 -0.8373,3.58319 -0.1659,0.0923 -0.32229,0.20434 -0.4977,0.27701 -0.58602,0.24279 -0.94305,0.24361 -1.59815,0.30953 -1.2802,0.12883 -2.5755,0.17409 -3.81465,0.56341 -0.43316,0.16829 -0.8775,0.31022 -1.29948,0.50486 -2.23672,1.03167 -4.12654,2.69285 -6.25698,3.90836 -0.83364,0.37539 -1.12359,0.62457 -2.07456,0.57865 -1.07252,-0.0518 -2.65157,-0.60089 -3.59872,-0.84221 -3.18939,-0.81263 -3.53188,-0.81978 -7.06618,-1.50802 -12.74957,-2.09153 -25.57229,-3.67809 -38.31904,-5.78349 -5.05568,-0.75562 -8.507908,-1.33232 -13.650135,-1.83961 -10.044036,-0.99086 -20.157205,-1.03652 -30.228657,-1.56092 -5.075838,-0.16317 -9.208849,-0.32826 -14.265052,-0.36872 -3.180919,-0.0255 -7.659214,0.0462 -10.9137,0.11419 -1.219626,0.0255 -2.438588,0.0869 -3.658455,0.0945 -0.810638,0.005 -1.620866,-0.0378 -2.431298,-0.0567 -0.511106,-0.0957 -1.044996,-0.10844 -1.533321,-0.28713 -1.107628,-0.4053 -1.778701,-1.19717 -2.548261,-2.05073 -1.350669,-1.4981 -2.594219,-3.11408 -3.622461,-4.85055 -0.144585,-0.41199 -0.355113,-0.80648 -0.433755,-1.23596 -0.194775,-1.0637 0.04636,-1.99014 0.354603,-3.01125 0.805294,-2.66772 2.149942,-5.13165 3.154048,-7.72145 1.359283,-3.4235 2.679432,-6.84042 3.606583,-10.41295 0.438957,-1.69141 0.746916,-3.58064 1.083286,-5.29939 0.166116,-0.84881 0.343096,-1.69545 0.514643,-2.54318 0.24787,-0.92268 0.461233,-1.85534 0.743607,-2.76805 0.896363,-2.89732 1.525518,-4.26695 2.72039,-7.17193 2.076532,-5.0485 4.179104,-10.08633 6.237888,-15.14214 0.746633,-1.72668 1.45738,-3.46932 2.239899,-5.18004 2.186368,-4.77975 4.655352,-9.48176 7.697621,-13.77638 0.848529,-1.13137 -0.751473,-2.33137 -1.599999,-1.2 z" />
    <path
       style="fill:#000000;stroke-width:0.264583"
       id="path542"
       d="m 75.499038,150.40943 c -1.096102,0.56692 -2.151081,1.21111 -3.178468,1.89384 -0.634548,0.42167 -1.31663,0.87459 -1.856838,1.42088 -0.29233,0.29562 -0.53658,0.6352 -0.804873,0.9528 -1.004171,1.55497 -1.947439,3.14849 -2.899757,4.73546 -0.403802,0.67292 -1.317339,2.17148 -1.674706,2.92175 -0.200753,0.42147 -0.34756,0.86658 -0.521338,1.29987 -0.208248,1.00618 -0.385085,1.48939 -0.307271,2.51632 0.164396,2.1696 1.180912,4.17028 2.110637,6.0921 0.317933,0.61449 0.850214,1.65345 1.196813,2.28823 0.41324,0.75684 0.526423,1.0621 1.267153,1.62008 0.887693,0.66868 1.314892,0.62284 2.42148,0.86694 1.289928,0.14407 2.587625,0.10406 3.881501,0.16932 0.396568,0.02 0.947124,0.0305 1.348949,0.1695 0.06641,0.023 0.113594,0.0828 0.170389,0.12415 -0.0963,-0.0302 -0.188243,-0.0979 -0.288896,-0.0906 -0.324014,0.0236 -0.331316,0.56326 -0.441539,0.86886 -0.333571,0.92489 -0.709398,1.83422 -1.077323,2.74573 -0.626594,1.46051 -1.254955,2.91988 -1.921843,4.36243 -0.577794,1.18496 -1.012238,2.42814 -1.457976,3.66654 -1.158658,3.13965 -2.278155,6.29336 -3.382319,9.45253 -0.884301,2.43301 -1.773127,4.86208 -2.519331,7.34169 -0.07006,0.22706 -0.143412,0.45313 -0.210177,0.68118 -0.142288,0.486 -0.247134,0.93162 -0.403318,1.41415 -0.355653,1.0988 -0.820166,2.15949 -1.264004,3.22421 -0.662334,1.45829 -1.208657,3.00864 -2.17342,4.30742 -0.375047,0.50489 -0.557339,0.63323 -1.007859,1.04293 -0.852781,0.61911 -1.782434,1.12763 -2.762943,1.51171 -0.944898,0.35653 -1.592696,1.11589 -2.23905,1.85207 -0.700759,0.79815 -0.434964,0.50039 -1.142949,1.26972 -0.852419,0.94888 -1.650212,1.52377 -1.328867,2.98052 0.163634,0.7418 0.789096,1.45328 1.21962,2.0339 1.029883,1.16538 2.004185,2.3789 3.021492,3.55465 0.619672,0.6176 1.37116,1.26259 2.306605,1.24617 0.237617,-0.004 0.468442,-0.0805 0.702665,-0.12075 0.849373,-0.2842 1.60079,-0.84788 2.486215,-1.03336 0.18732,-0.0392 0.378553,-0.0566 0.567831,-0.085 0.862671,-0.10002 1.731621,-0.1132 2.596642,-0.1832 0.542438,-0.0439 1.045725,-0.0573 1.540176,-0.33296 0.254733,-0.14199 0.451332,-0.36946 0.676997,-0.55419 0.121606,-0.32769 0.302983,-0.63907 0.364813,-0.98308 0.07465,-0.41534 -0.0879,-1.18233 -0.196313,-1.58712 -0.0078,-0.0292 -0.382706,-1.16515 -0.402547,-1.29158 -0.01641,-0.10461 0.01998,-0.21084 0.02996,-0.31626 0.347959,-0.6925 0.993986,-1.18946 1.546492,-1.71104 1.097629,-1.03622 0.449958,-0.46405 1.521799,-1.37082 0.190701,-0.0682 0.370361,-0.18679 0.572105,-0.20459 0.223116,-0.0197 1.146908,0.30229 1.257549,0.34531 0.870207,0.33841 1.671032,0.81804 2.479723,1.27805 0.900274,0.51171 1.845762,0.93409 2.797841,1.33795 0.07692,0.0326 0.847667,0.27881 0.984081,0.5117 0.02545,0.0434 -0.100676,0.002 -0.151016,0.002 -0.05346,-0.0249 -0.10972,-0.10489 -0.160377,-0.0747 -0.108149,0.0645 -0.146267,0.20509 -0.224229,0.30396 -0.139063,0.17635 -0.280528,0.3509 -0.426654,0.52144 -0.526344,0.61428 -1.080736,1.20329 -1.644034,1.78341 -0.520731,0.62292 -1.419436,1.20838 -1.36974,2.14288 0.03681,0.69211 0.350764,0.95156 0.734214,1.40763 0.783304,0.67837 1.698799,1.18128 2.752087,1.26481 0.324517,0.0257 0.651068,0.001 0.976601,0.002 1.998842,-0.28254 3.234314,-0.97163 4.571939,-2.48503 0.266459,-0.30147 0.502076,-0.62886 0.753113,-0.94329 0.649292,-1.00809 1.618559,-2.10976 1.907884,-3.30537 0.212426,-0.87783 0.101166,-1.04617 -0.02612,-1.92828 -0.148958,-0.35836 -0.269462,-0.72992 -0.446876,-1.07507 -0.704881,-1.37134 -2.028274,-2.7419 -3.235748,-3.69127 -0.340799,-0.26795 -0.705239,-0.50439 -1.057857,-0.75658 -1.148297,-0.74651 -2.38497,-1.33727 -3.598508,-1.96608 -0.465767,-0.24135 -1.155935,-0.58869 -1.610275,-0.89399 -0.155496,-0.10449 -0.29391,-0.23238 -0.440865,-0.34858 -0.209055,-0.56378 -0.0798,-1.17841 0.02119,-1.75135 0.142357,-0.80753 0.325379,-1.59005 0.501724,-2.39232 1.050989,-4.41525 2.031762,-8.84635 3.122541,-13.25204 1.249365,-4.81793 2.727831,-9.57042 4.216032,-14.31841 0.118235,-0.39798 0.239766,-0.79499 0.354706,-1.19393 0.150908,-0.52379 0.301548,-1.07792 0.426736,-1.61118 0.04133,-0.17606 0.07526,-0.35377 0.114165,-0.53038 0.02656,-0.12055 0.0058,-0.26411 0.08221,-0.36109 0.04385,-0.0557 0.0249,0.13952 0.03736,0.20928 0.118324,-0.0236 0.238628,-0.0389 0.354976,-0.0709 1.767279,-0.48566 3.509724,-1.0914 5.190852,-1.81923 2.058432,-0.92548 3.18807,-2.50028 4.477292,-4.26995 0.576556,-0.87553 1.190131,-1.72785 1.740736,-2.62049 0.244555,-0.39647 0.537724,-0.88848 0.687089,-1.33385 0.09571,-0.28538 0.143867,-0.58457 0.215802,-0.87686 0.179065,-1.21497 0.04582,-2.45542 -0.394676,-3.60419 -0.24983,-0.65153 -0.482934,-1.01385 -0.821973,-1.61346 -0.793279,-1.26392 -1.32065,-2.67083 -1.78248,-4.08323 -0.461769,-1.62108 -0.512892,-3.3115 -0.632325,-4.98124 -0.109691,-1.0404 -0.176189,-2.22682 -1.606351,-2.29589 -0.470908,-0.0227 -1.442183,0.72365 -1.812179,0.97903 -0.732436,0.47523 -1.38651,1.09381 -2.158905,1.50945 -0.641236,0.34507 -1.386909,0.52629 -2.077569,0.74198 -0.98725,0.31336 -1.678456,0.79601 -1.685941,1.99813 -0.0029,0.46805 0.193257,0.92125 0.370755,1.35435 0.266266,0.64969 1.377236,2.49823 1.720845,3.08541 0.724509,1.24842 1.480611,2.49585 2.040599,3.83108 0.200028,0.47694 0.382206,0.97802 0.406135,1.50174 0.007,0.15375 -0.03385,0.30596 -0.05077,0.45894 -0.2639,0.882 -0.862361,1.57461 -1.532588,2.17916 -0.361106,0.29973 -0.937429,0.64426 -1.402813,0.72659 -0.802568,0.14198 -1.845741,-0.36542 -2.544302,-0.63229 -1.685885,-0.80328 -3.308823,-1.73377 -4.902972,-2.70448 -0.455846,-0.27757 -1.980732,-1.22971 -2.468015,-1.61166 -0.250595,-0.19642 -0.463471,-0.4367 -0.695209,-0.65506 -0.113154,-0.18456 -0.322056,-0.33789 -0.339463,-0.55367 -0.01053,-0.13063 0.197538,-0.17607 0.271886,-0.28399 0.159459,-0.23146 0.27119,-0.49306 0.425342,-0.7281 0.616222,-0.93956 1.355092,-1.78967 2.069105,-2.65415 0.636426,-0.77317 1.224158,-1.60477 1.439539,-2.60513 0.241425,-1.12132 0.105977,-2.31134 0.03942,-3.44137 -0.0057,-0.37906 -0.02955,-0.75829 -0.01704,-1.13719 0.02461,-0.74614 0.108064,-1.2671 0.257088,-1.98858 0.0555,-0.26871 0.1235,-0.53472 0.189997,-0.80093 0.05024,-0.2011 0.13194,-0.39551 0.160171,-0.60086 0.03014,-0.21925 0.0091,-0.44253 0.01368,-0.66379 -0.251301,-0.31577 -0.401791,-0.75012 -0.753904,-0.9473 -0.912751,-0.51113 -2.4394,0.75705 -3.108571,1.27369 -0.397668,0.30388 -0.730662,0.6674 -1.044188,1.05351 -0.876134,1.11013 0.693827,2.34917 1.569961,1.23904 v 0 c 0.200003,-0.26884 0.436382,-0.50135 0.698685,-0.71119 0.307332,-0.23877 0.469275,-0.37251 0.790559,-0.59086 0.113667,-0.0772 0.233323,-0.14537 0.347967,-0.22116 0.05165,-0.0342 0.184578,-0.0567 0.15073,-0.10856 -0.06593,-0.10099 -0.216776,-0.10576 -0.325162,-0.15864 -0.107786,-0.24142 -0.215572,-0.48283 -0.323355,-0.72425 0.220151,0.19816 0.04625,0.0144 -0.123489,0.70262 -0.363874,1.47541 -0.597202,2.97814 -0.479584,4.50338 0.04701,0.77968 0.174903,1.92678 0.05491,2.70445 -0.117943,0.76441 -0.60855,1.36951 -1.079566,1.94964 -0.771723,0.93471 -1.735066,1.98984 -2.320422,3.0425 -0.246256,0.44285 -0.526066,0.89023 -0.619184,1.38831 -0.0996,0.53277 -0.08844,1.1026 0.05583,1.62504 0.09878,0.35771 0.429176,0.60554 0.643763,0.90831 0.307782,0.27881 0.596083,0.58077 0.923351,0.83642 0.508064,0.3969 2.093696,1.38691 2.576811,1.68085 1.697154,1.0326 3.424997,2.02353 5.228881,2.85947 1.040625,0.37352 1.670476,0.6979 2.777226,0.74126 1.21167,0.0475 2.30559,-0.47936 3.212788,-1.23665 1.052713,-0.97402 1.92015,-2.0994 2.179367,-3.54913 0.0073,-0.3063 0.04866,-0.61368 0.02183,-0.91889 -0.06087,-0.69265 -0.299135,-1.36855 -0.566594,-2.00245 -0.585618,-1.38796 -1.368031,-2.68751 -2.122607,-3.98637 -0.782346,-1.33485 -0.862081,-1.44244 -1.553805,-2.7205 -0.09433,-0.17429 -0.121052,-0.40007 -0.271719,-0.52881 -0.07216,-0.0617 -0.188664,0.0885 -0.278704,0.0585 -0.207831,-0.0694 1.237556,-1.04629 0.56987,-0.3276 0.878988,-0.27543 1.763337,-0.53511 2.577568,-0.97853 0.786426,-0.42828 1.459555,-1.04956 2.204267,-1.54011 0.903269,-0.63505 0.897089,-0.42269 0.06418,-1.17089 -0.02072,-0.0186 0.05042,0.032 0.06001,0.0582 0.112326,0.30643 0.119833,0.60623 0.156959,0.93084 0.131363,1.83329 0.199329,3.68771 0.727133,5.46266 0.50746,1.53815 1.083453,3.06996 1.945071,4.44951 0.236324,0.41044 0.474777,0.79085 0.654101,1.23088 0.329644,0.80889 0.451434,1.69249 0.348578,2.55833 -0.03187,0.17025 -0.04545,0.34497 -0.0956,0.51076 -0.107365,0.35495 -0.348205,0.74815 -0.536773,1.05418 -0.530487,0.86093 -1.122492,1.68243 -1.677043,2.52754 -1.021755,1.40633 -2.016461,2.88085 -3.657275,3.61236 -0.946414,0.41316 -1.902878,0.77175 -2.884699,1.09393 -0.744492,0.2443 -1.512551,0.41898 -2.244135,0.69958 -0.331525,0.12716 -0.643384,0.30062 -0.965075,0.45093 -0.214077,0.27569 -0.462254,0.528 -0.642231,0.82706 -0.01191,0.0198 -0.185968,0.84771 -0.186849,0.85148 -0.211939,0.90684 -0.480936,1.79918 -0.749226,2.69048 -1.500375,4.78684 -2.990339,9.5784 -4.248981,14.436 -1.094729,4.42292 -2.080114,8.87109 -3.1346,13.30367 -0.138867,0.63301 -0.422876,1.86926 -0.530752,2.55717 -0.147077,0.93787 -0.268735,1.94675 0.186439,2.83252 0.144309,0.28082 0.369861,0.5118 0.554791,0.76771 0.213479,0.16129 0.417701,0.33563 0.640435,0.48387 0.487648,0.32457 1.211744,0.69117 1.718902,0.95396 1.12835,0.58466 2.278634,1.13272 3.352337,1.81668 0.303713,0.21391 0.617498,0.4142 0.911138,0.64174 1.243399,0.96353 2.354167,2.16816 3.018644,3.60285 0.07728,0.30632 0.180298,0.55951 0.11937,0.88129 -0.07529,0.39762 -0.344059,0.84276 -0.540404,1.17232 -0.396131,0.66491 -0.606684,0.9386 -1.060264,1.58655 -0.66648,0.851 -1.374955,1.79915 -2.388828,2.26666 -0.482089,0.2223 -0.889699,0.28755 -1.400011,0.4031 -0.201448,0.009 -0.402897,0.0362 -0.604343,0.0271 -0.642241,-0.029 -1.091255,-0.27191 -1.60416,-0.63016 -0.05542,-0.0515 -0.09685,-0.18465 -0.166267,-0.15454 -0.08011,0.0347 -0.02204,0.17727 -0.06342,0.25416 -0.04132,0.0768 -0.201197,0.27635 -0.177038,0.19257 0.07949,-0.27562 0.849355,-0.85518 0.989812,-1.11411 0.610245,-0.62994 1.22954,-1.26439 1.784413,-1.94456 0.382966,-0.46944 0.918777,-1.12999 1.051044,-1.74932 0.07517,-0.35195 -0.0027,-0.71978 -0.0041,-1.07966 -0.175839,-0.26771 -0.305554,-0.57222 -0.527523,-0.80313 -0.321398,-0.33434 -0.917684,-0.52779 -1.326825,-0.70089 -0.884676,-0.3743 -1.764048,-0.76416 -2.600248,-1.23968 -1.60872,-0.91321 -3.586147,-2.17048 -5.527593,-1.71653 -0.383291,0.0896 -0.70944,0.34127 -1.064162,0.51191 -1.125191,0.95804 -0.516946,0.41443 -1.597459,1.43841 -0.725427,0.68748 -1.555763,1.36756 -1.9529,2.31857 -0.117816,0.28212 -0.148825,0.59309 -0.223237,0.88963 0.01775,0.28286 0.0079,0.56882 0.05328,0.84857 0.04007,0.24684 0.293703,0.90668 0.368212,1.16062 0.04707,0.1604 0.07914,0.32483 0.118909,0.48719 0.02199,0.0898 -2.64e-4,0.2052 0.06637,0.26919 0.04338,0.0416 0.117864,-0.0239 0.176797,-0.0358 0.06427,0.15921 0.09911,0.15817 -0.234715,0.23027 -0.227017,0.049 -0.461793,0.0507 -0.693285,0.0695 -0.929907,0.0753 -1.864505,0.0866 -2.790904,0.20552 -0.273931,0.048 -0.550878,0.0812 -0.82179,0.14404 -0.839539,0.19474 -1.602743,0.63183 -2.371786,1.00241 -0.03306,0.0236 -0.06923,0.0434 -0.09917,0.0708 -0.01437,0.0132 -0.01225,0.0507 -0.03168,0.0491 -0.333158,-0.0271 -0.672616,-0.41469 -0.902504,-0.61024 -0.991058,-1.14063 -1.931747,-2.32571 -2.939005,-3.45296 -0.181052,-0.23166 -0.368004,-0.45883 -0.543158,-0.69499 -0.103733,-0.13985 -0.166809,-0.31251 -0.293047,-0.43244 -0.04609,-0.0438 -0.170614,0.0353 -0.189,-0.0255 -0.08265,-0.27355 0.899205,-1.10377 1.012828,-1.29912 0.655322,-0.71287 0.543676,-0.58223 1.180563,-1.31179 0.301714,-0.34562 0.672054,-0.85463 1.066638,-1.11034 0.124674,-0.0808 0.26725,-0.12985 0.400873,-0.19478 1.206484,-0.48414 2.359022,-1.10277 3.386267,-1.90543 0.621898,-0.58718 0.805103,-0.70885 1.32497,-1.4206 1.025083,-1.40346 1.638514,-3.05246 2.341001,-4.62555 0.472141,-1.13347 0.959731,-2.26196 1.337355,-3.43172 0.184598,-0.57181 0.230897,-0.82621 0.394955,-1.38633 0.06812,-0.23258 0.142872,-0.46316 0.214307,-0.69474 0.736962,-2.45172 1.619311,-4.85194 2.492092,-7.25786 1.10209,-3.15336 2.219616,-6.30121 3.376128,-9.43508 0.425974,-1.1835 0.837824,-2.3728 1.391557,-3.50461 0.680691,-1.47245 1.322348,-2.96198 1.961071,-4.45311 0.384775,-0.95335 0.79104,-1.9042 1.125043,-2.87698 0.23024,-0.67057 0.569875,-1.57177 0.364841,-2.30289 -0.09823,-0.35026 -0.428593,-0.58792 -0.642889,-0.88187 -0.223391,-0.0986 -0.436764,-0.22407 -0.670169,-0.2958 -0.505574,-0.1554 -1.157308,-0.18161 -1.672622,-0.20748 -1.191183,-0.0598 -2.384999,-0.032 -3.574248,-0.13458 -0.670727,-0.0986 -0.892932,-0.0527 -1.441868,-0.37186 -0.155705,-0.0905 -0.316013,-0.18901 -0.4275,-0.33047 -0.179668,-0.22796 -0.290677,-0.50256 -0.429805,-0.75729 -0.330367,-0.60489 -0.861121,-1.63888 -1.164366,-2.22427 -0.772715,-1.58942 -1.719855,-3.39309 -1.910627,-5.17848 -0.07791,-0.72917 0.04201,-1.10341 0.168047,-1.82307 0.138563,-0.35813 0.251071,-0.72746 0.415685,-1.07438 0.346847,-0.73099 1.246372,-2.20487 1.632114,-2.84768 0.902258,-1.50355 1.80523,-3.00702 2.730476,-4.49656 0.188579,-0.23626 0.356338,-0.49075 0.565737,-0.70877 0.47008,-0.48942 1.07677,-0.88381 1.634318,-1.25501 0.931341,-0.62006 1.888194,-1.20257 2.873409,-1.73314 1.303388,-0.54879 0.527275,-2.39206 -0.776115,-1.84327 z" />
    <path
       style="fill:#000000;stroke-width:0.264583"
       id="path544"
       d="m 91.445693,192.72362 c -0.503703,0.63507 -0.758809,1.41446 -1.086993,2.14581 -0.05052,0.0981 -0.09638,0.19867 -0.151538,0.2942 -0.199149,0.34492 -0.432313,0.66913 -0.640408,1.00873 -0.202874,0.33108 -0.401711,0.66468 -0.596305,1.0007 -0.766746,1.324 -0.757803,1.34382 -1.502478,2.75922 -1.116915,2.1645 -1.993522,4.44519 -2.647138,6.79064 -0.33143,1.18931 -0.405022,1.64011 -0.644594,2.80583 -0.107455,0.94237 -0.418584,1.96219 -0.135318,2.91155 0.100671,0.3374 0.263419,0.658 0.455837,0.95287 0.435007,0.66662 0.800362,0.81084 1.451917,1.24725 0.785514,0.39313 1.623285,0.65628 2.476526,0.85401 0.373328,0.0865 0.867932,0.18291 1.253154,0.19966 0.225783,0.01 0.451864,-0.0106 0.677794,-0.0159 0.74,-0.21506 1.007793,-0.21728 1.634083,-0.70807 0.553725,-0.43392 1.367827,-1.4278 1.830998,-1.88178 0.702858,-0.68891 2.82384,-2.53118 3.418084,-3.05353 2.512202,-2.27302 5.082486,-4.52087 7.052156,-7.30321 0.99569,-1.40649 1.05011,-1.6582 1.77781,-3.14178 0.47108,-1.13692 0.83034,-2.31772 0.95963,-3.54492 0.0308,-0.29233 0.0564,-0.58708 0.0438,-0.88075 -0.0369,-0.85523 -0.14391,-0.9842 -0.4157,-1.78037 -0.53811,-0.78787 -0.71428,-1.21878 -1.58656,-1.73511 -0.49489,-0.29293 -1.03989,-0.49651 -1.58226,-0.68769 -1.33524,-0.47064 -2.33804,-0.60748 -3.78078,-0.66171 -0.764847,-0.0288 -1.530495,0.0292 -2.295744,0.0438 -2.564604,0.13944 -5.063779,0.74175 -7.559871,1.30006 -1.380107,0.30872 -0.943515,2.26048 0.436591,1.95176 v 0 c 2.367209,-0.52956 4.735912,-1.10845 7.167044,-1.2523 1.463466,-0.0366 2.430576,-0.13538 3.86357,0.0982 0.48243,0.0786 0.95058,0.23063 1.41797,0.37371 0.94661,0.28977 1.44813,0.48012 2.04166,1.25604 0.16353,0.39948 0.26785,0.56355 0.29598,1.00657 0.0142,0.22429 -0.003,0.45004 -0.0239,0.67381 -0.096,1.02596 -0.39624,2.01229 -0.78022,2.96477 -0.63494,1.32103 -0.67269,1.52736 -1.56225,2.79394 -1.8856,2.68479 -4.378506,4.83055 -6.789381,7.02308 -0.843016,0.74126 -2.689146,2.33846 -3.563255,3.19482 -0.33646,0.32962 -0.641723,0.68966 -0.961102,1.03586 -0.156845,0.17002 -0.297931,0.35553 -0.467555,0.51281 -0.226256,0.20978 -0.39247,0.27461 -0.650627,0.40355 -0.126407,0.009 -0.252547,0.0293 -0.379224,0.0263 -0.305401,-0.007 -0.686245,-0.0836 -0.977885,-0.1497 -0.651877,-0.14776 -1.294185,-0.34169 -1.907264,-0.60996 -0.152974,-0.0842 -0.315082,-0.15366 -0.458925,-0.25267 -0.07264,-0.05 -0.482344,-0.41775 -0.53176,-0.53376 -0.283874,-0.66642 0.08492,-1.56045 0.11439,-2.22997 0.221335,-1.08476 0.292529,-1.52053 0.599141,-2.62652 0.61672,-2.22458 1.444506,-4.38819 2.503501,-6.4405 0.727165,-1.38405 0.701267,-1.37054 1.450768,-2.66688 0.183851,-0.31799 0.371314,-0.63394 0.563253,-0.94712 0.22946,-0.3744 0.517261,-0.78847 0.73641,-1.17635 0.07074,-0.1252 0.129974,-0.25656 0.194961,-0.38485 0.138363,-0.30873 0.186309,-0.41163 0.320807,-0.72913 0.08738,-0.20627 0.151839,-0.4232 0.25736,-0.62081 0.05813,-0.10887 0.235921,-0.34761 0.311391,-0.45176 0.821994,-1.15079 -0.805474,-2.31327 -1.627468,-1.16248 z" />
    <path
       style="fill:#000000;stroke-width:0.264583"
       id="path546"
       d="m 99.460422,191.54419 c 0.03296,-0.0623 0.06592,-0.12463 0.09888,-0.18695 0.08201,-0.16925 0.159113,-0.34098 0.246044,-0.50776 0.133975,-0.25704 1.144314,-2.09314 1.156224,-2.1149 1.01699,-1.85796 0.63055,-1.14485 1.66082,-3.09039 1.3155,-2.55722 2.62416,-5.11907 4.10256,-7.58755 1.01941,-1.70209 1.46727,-2.34803 2.55365,-4.00418 2.40745,-3.59865 5.13649,-6.96398 7.72526,-10.43026 0.61406,-0.8103 1.14636,-1.6772 1.73161,-2.50737 0.15716,-0.22295 0.31571,-0.44565 0.49103,-0.65462 0.0116,-0.0138 0.0316,0.0574 0.0143,0.0523 -1.87584,-0.5615 -1.38865,-1.07573 -1.89888,0.20118 -1.99088,4.95629 -4.91373,9.45827 -7.76968,13.94672 -2.73159,4.17467 -5.55505,8.28989 -8.52385,12.29955 -0.65595,0.85559 -0.3613,0.46786 -0.8857,1.16187 -0.852526,1.12836 0.74321,2.33401 1.59574,1.20565 v 0 c 0.52272,-0.69189 0.22424,-0.29892 0.89735,-1.17744 2.9967,-4.04765 5.84713,-8.20155 8.60391,-12.41607 2.93495,-4.6139 5.93348,-9.24495 7.96508,-14.34583 0.47714,-1.43315 0.9284,-1.56083 -1.12562,-2.51777 -0.18585,-0.0866 -0.33628,0.24007 -0.47414,0.39184 -0.29822,0.32831 -1.12993,1.59628 -1.29699,1.83842 -0.30608,0.44362 -0.6178,0.88331 -0.92669,1.32496 -2.61264,3.49918 -5.36817,6.89556 -7.79523,10.53018 -1.11603,1.70238 -1.56491,2.34929 -2.61294,4.10041 -1.49025,2.49005 -2.81219,5.07272 -4.13832,7.65218 -1.019595,1.92581 -0.63463,1.21522 -1.646533,3.06388 -0.146465,0.26758 -0.992333,1.80085 -1.202827,2.20517 -0.136996,0.26313 -0.31481,0.65697 -0.442453,0.93437 -0.447214,1.34165 1.450153,1.9741 1.897367,0.63246 z" />
    <path
       style="fill:#000000;stroke-width:0.264583"
       id="path550"
       d="m 105.48224,231.31324 c 0.29788,-1.35832 0.67731,-2.69683 1.15494,-4.00367 0.42565,-1.16465 0.89181,-2.22294 1.37579,-3.36272 0.55248,-1.30183 -1.28859,-2.08316 -1.84107,-0.78133 v 0 c -1.03494,2.43997 -2.07303,4.90189 -2.58703,7.51527 -0.44722,1.34164 1.45015,1.97409 1.89737,0.63245 z" />
    <path
       style="fill:#000000;stroke-width:0.264583"
       id="path552"
       d="m 117.01466,223.16335 c -2.49429,-0.70729 -5.08333,-1.01165 -7.64881,-1.34086 -0.381,-0.0451 -0.76533,-0.0677 -1.143,-0.1352 -0.31763,-0.0568 -0.85499,-0.15974 -0.81883,-0.38935 0.0101,-0.064 0.14815,-0.0123 0.18245,-0.0673 0.0886,-0.14206 0.10218,-0.3189 0.15698,-0.4771 0.13434,-0.38784 0.2736,-0.77396 0.41041,-1.16093 0.23035,-0.55801 0.45882,-1.1168 0.69107,-1.67401 0.90316,-2.16689 1.20208,-2.7952 2.06017,-5.09237 0.73549,-1.96898 1.48881,-4.1823 2.10834,-6.18877 0.32676,-1.05827 0.62172,-2.12608 0.93257,-3.18912 1.63928,-6.14711 3.41062,-12.26262 5.39081,-18.30927 0.37126,-1.1337 0.75984,-2.26166 1.13976,-3.39249 1.85358,-5.40759 4.11726,-10.66197 6.45449,-15.87481 0.29039,-0.60896 0.5757,-1.22332 0.88453,-1.82368 0.0684,-0.13302 0.13633,-0.26664 0.21464,-0.39409 0.0134,-0.0219 0.079,-0.0654 0.0583,-0.0502 -0.71995,0.53027 -0.78786,0.33208 -0.11203,0.64866 0.73541,0.37805 1.52861,0.68227 2.11012,1.29615 0.15346,0.16201 0.30812,0.33342 0.40009,0.53674 0.29701,0.65663 0.22378,1.72865 0.24398,2.33525 -0.0432,0.76746 -0.058,1.53704 -0.12962,2.30236 -0.16366,1.74889 -0.52285,4.00635 -0.8308,5.71985 -0.56609,3.14985 -1.29482,6.25781 -2.04481,9.36755 -1.41765,5.43449 -3.10432,10.79292 -4.67713,16.18327 -0.99517,3.54909 -1.91498,7.12846 -3.23144,10.57686 -0.27101,0.70991 -0.57144,1.40824 -0.85716,2.11236 -1.30334,3.11561 -2.92466,6.0809 -4.55472,9.03365 -0.13242,0.24374 -0.26485,0.48748 -0.39727,0.73122 -0.67509,1.24268 1.08233,2.1974 1.75742,0.95472 v 0 c 0.13025,-0.23979 0.26051,-0.47957 0.39076,-0.71936 1.66848,-3.02238 3.32542,-6.05894 4.65733,-9.24893 0.29564,-0.73015 0.60639,-1.45437 0.88693,-2.19045 1.32867,-3.48612 2.26431,-7.10199 3.2681,-10.68989 1.58152,-5.42064 3.27828,-10.80901 4.70147,-16.27468 0.76367,-3.16837 1.49865,-6.30226 2.07416,-9.51264 0.31664,-1.76633 0.69293,-4.13615 0.85429,-5.93629 0.0751,-0.83805 0.0863,-1.68061 0.12939,-2.52092 -0.11266,-1.55189 0.0428,-2.16162 -0.67836,-3.47234 -0.17529,-0.31857 -0.43806,-0.58407 -0.6983,-0.83801 -0.74523,-0.72718 -1.69007,-1.14746 -2.61134,-1.59517 -1.05288,-0.40383 -0.94762,-0.55036 -2.22016,-0.0401 -0.12906,0.0517 -0.17344,0.21815 -0.24698,0.33616 -0.46291,0.7428 -0.74871,1.58866 -1.16641,2.35369 -2.36355,5.27219 -4.65173,10.58673 -6.5254,16.05612 -0.38302,1.14032 -0.77476,2.27774 -1.14908,3.42094 -1.98503,6.06242 -3.76195,12.19352 -5.40528,18.35663 -0.30495,1.04389 -0.59426,2.09248 -0.91484,3.13168 -0.60606,1.96454 -1.3487,4.14925 -2.06846,6.07742 -0.87626,2.3474 -1.12572,2.84255 -2.04766,5.06121 -0.24823,0.59738 -0.491,1.197 -0.73651,1.7955 -0.27184,0.8357 -0.75833,1.91156 -0.58861,2.85036 0.31514,1.74323 2.04307,1.85528 3.44114,2.00277 2.43753,0.31254 4.89671,0.59975 7.27081,1.25447 1.34164,0.44722 1.9741,-1.45015 0.63246,-1.89736 z" />
    <path
       style="fill:#000000;stroke-width:0.264583"
       id="path554"
       d="m 109.55652,224.49054 c -1.00082,1.77165 -1.88744,3.60236 -2.78259,5.42856 -0.22965,0.42195 -0.44717,0.97391 -0.85727,1.2855 -0.10249,0.0779 -0.55158,0.1503 -0.66985,0.14762 -0.0781,-0.002 -0.15147,-0.0382 -0.2272,-0.0573 -1.41155,-0.0868 -1.53435,1.90939 -0.12281,1.99623 v 0 c 0.27106,0.002 0.54473,0.0444 0.81316,0.007 1.53896,-0.21586 2.21809,-1.21476 2.85983,-2.49848 0.87392,-1.78291 1.73825,-3.57086 2.71429,-5.30109 0.71259,-1.22156 -1.01497,-2.22931 -1.72756,-1.00774 z" />
    <path
       style="fill:#000000;stroke-width:0.264583"
       id="path556"
       d="m 114.22021,217.41853 c 0.76065,-0.45923 1.54771,-0.88796 2.25864,-1.42429 0.14692,-0.11083 0.28391,-0.23423 0.42587,-0.35135 1.0853,-0.90672 -0.19698,-2.44156 -1.28228,-1.53485 v 0 c -0.73483,0.62495 -1.58237,1.09321 -2.40998,1.58293 -1.22156,0.71258 -0.21382,2.44014 1.00775,1.72756 z" />
    <path
       style="fill:#000000;stroke-width:0.264583"
       id="path558"
       d="m 115.73239,210.42143 c 0.8472,-0.65709 1.75532,-1.2377 2.56237,-1.94671 0.30947,-0.27188 0.59068,-0.57432 0.88602,-0.86148 1.00963,-0.99028 -0.39084,-2.41811 -1.40047,-1.42783 v 0 c -0.24344,0.24129 -0.47328,0.49712 -0.73031,0.72388 -0.7986,0.70455 -1.70274,1.27554 -2.5405,1.92957 -1.11905,0.86472 0.10384,2.44729 1.22289,1.58257 z" />
    <path
       style="fill:#000000;stroke-width:0.264583"
       id="path560"
       d="m 117.82906,200.89021 c 1.25995,-0.78241 2.59035,-1.44473 3.88055,-2.17501 1.06209,-0.60117 1.07113,-0.62286 2.03944,-1.23812 1.19315,-0.75922 0.11945,-2.44657 -1.07369,-1.68736 v 0 c -0.90888,0.57924 -0.92163,0.60254 -1.92927,1.17287 -1.16544,0.65964 -2.36279,1.26506 -3.51667,1.94522 -0.2044,0.12048 -0.40024,0.25493 -0.60036,0.3824 -1.13137,0.84853 0.0686,2.44853 1.2,1.6 z" />
    <path
       style="fill:#000000;stroke-width:0.264583"
       id="path562"
       d="m 119.58748,190.06826 c 1.15018,-0.64285 2.31239,-1.2636 3.4768,-1.88048 1.24966,-0.66209 0.31332,-2.42937 -0.93633,-1.76728 v 0 c -1.11387,0.59018 -2.25687,1.1535 -3.33318,1.81172 -0.2136,0.13063 -0.41433,0.28122 -0.6215,0.42183 -1,1 0.41421,2.41421 1.41421,1.41421 z" />
    <path
       style="fill:#000000;stroke-width:0.264583"
       id="path564"
       d="m 124.96791,181.13005 c 0.20099,-0.1414 0.40198,-0.2828 0.60297,-0.42421 1.15652,-0.81391 0.005,-2.44948 -1.15105,-1.63557 v 0 c -0.19286,0.13578 -0.38573,0.27155 -0.57859,0.40733 -1.16847,0.79668 -0.0418,2.44913 1.12667,1.65245 z" />
    <path
       style="fill:#000000;stroke-width:0.264583"
       id="path566"
       d="m 126.90073,172.73171 c 0.61972,-0.46231 1.22857,-0.93829 1.85657,-1.38931 1.148,-0.8259 -0.02,-2.44941 -1.16799,-1.62352 v 0 c -0.68622,0.49445 -1.35651,1.01005 -2.02651,1.52624 -1.05118,0.94606 0.28675,2.43265 1.33793,1.48659 z" />
    <path
       style="fill:#000000;stroke-width:0.264583"
       id="path568"
       d="m 165.53893,164.11102 c -0.12428,0.2457 -0.21242,0.51332 -0.37284,0.7371 -0.64615,0.90136 -1.76333,2.00416 -2.58786,2.67011 -1.12562,0.90914 -2.50428,1.81013 -3.90136,2.2483 -0.77885,0.24427 -1.60456,0.30084 -2.40684,0.45126 -2.39874,0.17628 -4.86855,0.15059 -7.18492,-0.59325 -0.50236,-0.16131 -1.0328,-0.32451 -1.43706,-0.66356 -0.48788,-0.40919 -2.6e-4,-1.01554 0.16632,-1.3448 0.45329,-0.80215 0.65526,-1.26267 1.2898,-1.95528 0.22484,-0.24542 0.46176,-0.49484 0.75329,-0.65545 0.24367,-0.13424 0.53307,-0.16965 0.80899,-0.20522 0.87586,-0.11292 1.61527,-0.0109 2.49719,0.0511 1.58539,0.15601 3.13531,0.53195 4.70569,0.78188 0.90036,0.14329 0.87666,0.12599 1.80801,0.21551 1.55733,0.15115 3.11826,-0.0644 4.6755,0.007 0.1677,0.0174 0.3354,0.0348 0.5031,0.0522 1.40715,0.14121 1.60685,-1.84879 0.1997,-1.99 v 0 c -0.20644,-0.0201 -0.41288,-0.0403 -0.61933,-0.0605 -0.21965,-0.008 -0.43915,-0.0236 -0.65896,-0.0254 -1.30297,-0.0109 -2.60829,0.15275 -3.9111,0.0258 -0.28186,-0.0264 -0.56444,-0.0459 -0.84558,-0.0791 -1.92245,-0.22668 -3.79775,-0.76062 -5.7302,-0.92325 -1.11331,-0.0645 -2.18481,-0.209 -3.29245,0.0599 -1.17832,0.28609 -1.72943,0.67555 -2.50166,1.55613 -0.33715,0.38446 -0.64272,0.80018 -0.90151,1.2412 -0.29542,0.50347 -0.50281,1.05367 -0.75421,1.58051 -0.0324,0.65928 -0.27754,1.34288 -0.0972,1.97785 0.41062,1.44583 1.65014,1.91438 2.90969,2.3064 1.54001,0.47932 3.53458,0.71527 5.12474,0.73911 0.96236,0.0144 1.92275,-0.0916 2.88413,-0.13743 0.95524,-0.20084 1.93902,-0.29587 2.86573,-0.6025 1.57166,-0.52003 3.15172,-1.5598 4.41948,-2.60022 1.11392,-0.91418 2.19736,-2.04333 3.01191,-3.24213 0.20117,-0.29607 0.31254,-0.64407 0.46881,-0.9661 0.4646,-1.33572 -1.42439,-1.99276 -1.88899,-0.65704 z" />
    <path
       style="fill:#000000;stroke-width:0.264583"
       id="path584"
       d="m 153.31084,171.29167 c -0.52642,1.53953 -1.02958,3.08981 -1.43869,4.66493 0.001,0.82104 -0.1624,1.2312 0.74793,1.81562 0.5741,0.36858 1.60176,0.20426 2.21276,0.12617 0.34253,-0.0438 0.68147,-0.11229 1.02312,-0.16246 0.29338,-0.0431 0.58789,-0.0782 0.88183,-0.11733 0.1739,0.007 0.70072,-0.0936 0.83292,0.20381 0.0559,0.12569 0.0111,0.27627 0.0404,0.41068 0.09,0.41345 0.22605,0.81595 0.31656,1.2293 0.38762,1.77021 0.37594,2.07765 0.61608,4.00331 0.1422,2.50042 0.21961,3.2141 0.21191,5.74239 -0.003,0.96577 -0.006,1.93282 -0.0695,2.8965 -0.0639,0.96864 -0.17261,1.9348 -0.31246,2.89542 -0.32166,2.20933 -0.54487,2.85128 -1.08638,4.93447 -0.36895,1.10521 -0.52668,1.92231 -1.18277,2.85487 -0.14394,0.20459 -0.30925,0.42402 -0.53961,0.52153 -0.12776,0.0541 -0.26533,-0.0812 -0.39695,-0.12511 -1.10673,-0.36896 -0.71267,-0.23708 -2.03272,-0.81111 -1.39376,-0.644 -2.70352,-1.45131 -4.06961,-2.14789 -0.3664,-0.18683 -1.48479,-0.74678 -1.96101,-0.77873 -0.38896,-0.0261 -0.77326,0.0996 -1.1599,0.14944 -0.30627,0.23866 -0.66222,0.42456 -0.91882,0.71597 -0.84582,0.96054 -1.03423,2.93554 -1.13327,4.18155 -0.039,0.89046 -0.17085,1.77184 -0.2759,2.65575 -0.16669,1.40435 1.81937,1.64009 1.98606,0.23574 v 0 c 0.10794,-0.91056 0.2429,-1.81861 0.28377,-2.73582 0.0492,-0.64341 0.10555,-1.28271 0.2438,-1.91477 0.46093,-2.10729 -0.0912,0.52258 0.29987,-0.99843 0.0169,-0.0657 0.009,-0.13544 0.0132,-0.20316 0.0283,-0.057 0.0213,-0.17221 0.0849,-0.17109 0.38733,0.007 1.35159,0.50313 1.5834,0.62141 1.42381,0.72647 2.7886,1.56904 4.24542,2.23247 0.92858,0.38291 2.10838,0.99814 3.17135,0.93591 0.52095,-0.0305 1.04713,-0.20007 1.49286,-0.47145 0.36399,-0.22162 0.61279,-0.60094 0.84997,-0.95499 0.73836,-1.10217 0.93139,-2.02046 1.35216,-3.29096 0.56828,-2.20461 0.80407,-2.88755 1.13889,-5.22335 0.14554,-1.01539 0.2566,-2.03668 0.32319,-3.06029 0.0645,-0.99144 0.0673,-1.98626 0.0697,-2.9798 0.007,-2.63381 -0.0743,-3.3392 -0.2272,-5.9559 -0.20017,-1.58075 -0.29752,-2.78264 -0.67857,-4.30735 -0.29198,-1.16833 -0.49303,-2.12898 -1.47817,-2.91924 -0.55107,-0.44207 -1.26747,-0.34841 -1.89812,-0.35351 -2.19771,0.29404 0.33102,-0.0527 -1.86339,0.27468 -0.23547,0.0351 -0.48005,0.0257 -0.70793,0.0946 -0.0584,0.0176 -0.1005,0.0899 -0.1035,0.15078 -0.008,0.16837 0.0657,0.33219 0.0713,0.50066 0.002,0.0696 -0.0408,-0.13313 -0.0613,-0.1997 0.38185,-1.48479 0.86504,-2.94191 1.3485,-4.39629 0.54393,-1.30543 -1.30222,-2.07466 -1.84615,-0.76923 z" />
    <path
       style="fill:#000000;stroke-width:0.264583"
       id="path586"
       d="m 147.2889,206.50162 c -0.85599,0.0577 -1.7088,0.16217 -2.55723,0.28847 -0.22629,0.0337 -0.45484,0.0576 -0.67737,0.11076 -0.24497,0.0585 -0.48119,0.14895 -0.72179,0.22343 -0.55942,0.26341 -0.79995,0.31647 -1.24678,0.80742 -1.03332,1.13537 -1.26364,2.97951 -1.53292,4.41533 -0.44668,3.14721 -0.70748,6.32126 -0.8326,9.49706 0.13681,0.84205 0.0897,1.36564 0.7798,2.01935 0.35772,0.33889 0.81568,0.55986 1.25957,0.77378 0.4029,0.19417 0.83773,0.31568 1.26632,0.44353 0.92219,0.27508 1.4727,0.34938 2.40063,0.51634 0.3261,0.0288 0.65094,0.0895 0.9783,0.0865 1.07157,-0.01 1.95715,-0.38087 2.49106,-1.36946 0.4168,-0.77174 0.49375,-1.71271 0.63052,-2.55262 0.27874,-3.09892 0.3848,-6.21094 0.54924,-9.31762 0.0465,-1.05847 0.15236,-2.11261 0.2409,-3.16791 0.0358,-0.42719 0.0995,-0.9191 0.007,-1.34738 -0.0512,-0.23601 -0.16436,-0.45415 -0.24654,-0.68123 -0.18725,-0.19948 -0.34507,-0.43139 -0.56174,-0.59845 -0.45401,-0.35007 -1.38451,-0.58099 -1.96268,-0.58472 -0.158,-0.001 -0.31528,0.0214 -0.47292,0.0322 -0.15234,0.0245 -0.30468,0.0491 -0.45702,0.0737 -1.39464,0.23446 -1.06306,2.20678 0.33158,1.97232 v 0 c 0.10028,-0.0179 0.20056,-0.0358 0.30083,-0.0537 0.0664,-0.009 0.26967,-0.0428 0.34982,-0.0336 0.0863,0.01 0.58789,0.16326 0.62987,0.13015 0.0302,-0.0238 0.0134,-0.0757 0.02,-0.11354 0.16858,0.0726 0.122,0.0265 0.11979,0.37013 -0.001,0.21892 -0.0313,0.43673 -0.0496,0.65488 -0.0906,1.07979 -0.19827,2.15845 -0.24616,3.24147 -0.16084,3.03891 -0.26923,6.08238 -0.52808,9.11479 -0.15626,1.05704 -0.10507,0.86823 -0.29534,1.71768 -0.0313,0.13962 -0.0534,0.35688 -0.21833,0.42876 -0.38773,0.16897 -0.87569,0.0588 -1.2593,0.0287 -0.86442,-0.15235 -1.24506,-0.19843 -2.10715,-0.44073 -0.33183,-0.0933 -0.65508,-0.2147 -0.98269,-0.32185 -0.062,-0.0203 -0.73451,-0.17618 -0.83625,-0.37231 -0.09,-0.17341 -0.0884,-0.38056 -0.13262,-0.57085 0.11992,-3.07981 0.37483,-6.15754 0.80057,-9.21046 0.18325,-0.99954 0.22463,-1.41127 0.49929,-2.32524 0.0846,-0.28144 0.29804,-0.96748 0.5818,-1.17811 0.10645,-0.079 0.23536,-0.12206 0.35304,-0.1831 0.1416,-0.0503 0.27873,-0.11565 0.42478,-0.15101 0.20433,-0.0495 0.41438,-0.0715 0.62232,-0.10251 0.75983,-0.11327 1.5231,-0.20403 2.28842,-0.27032 1.41421,0 1.41421,-2 0,-2 z" />
    <path
       style="fill:#000000;stroke-width:0.264583"
       id="path588"
       d="m 144.88365,210.41001 c -0.5241,0.6807 -1.02304,1.38382 -1.44838,2.13072 -0.69293,1.23282 1.05053,2.21278 1.74347,0.97996 v 0 c 0.36679,-0.6655 0.82762,-1.27667 1.28361,-1.8828 0.86824,-1.11631 -0.71046,-2.34419 -1.5787,-1.22788 z" />
    <path
       style="fill:#000000;stroke-width:0.264583"
       id="path590"
       d="m 145.46263,214.11245 c -0.74446,0.934 -1.636,1.76699 -2.26301,2.79183 -0.15678,0.25626 -0.26948,0.53702 -0.40422,0.80553 -0.61351,1.2742 1.18849,2.14184 1.802,0.86763 v 0 c 0.0764,-0.16996 0.13322,-0.35012 0.22912,-0.50988 0.60621,-1.00988 1.50444,-1.81039 2.22136,-2.73569 0.86226,-1.12094 -0.72299,-2.34037 -1.58525,-1.21942 z" />
    <path
       style="fill:#000000;stroke-width:0.264583"
       id="path592"
       d="m 144.09705,221.7887 c -0.36607,0.55848 -0.72512,1.12151 -1.03436,1.71357 -0.64786,1.25709 1.12994,2.1733 1.77779,0.91621 v 0 c 0.28815,-0.57034 0.65472,-1.09632 0.99305,-1.6375 0.70165,-1.22788 -1.03483,-2.22016 -1.73648,-0.99228 z" />
    <path
       style="fill:#000000;stroke-width:0.264583"
       id="path594"
       d="m 143.62099,225.00214 c -0.18786,0.46525 -0.45006,0.89322 -0.67269,1.34126 -0.21198,0.4266 -0.2595,0.55959 -0.43818,0.98835 -0.20038,0.55334 -0.38886,1.17216 -0.22534,1.7639 0.12283,0.44448 0.21967,0.51201 0.47786,0.85352 0.0829,0.0802 0.16577,0.16036 0.24866,0.24054 0.0182,0.0226 0.0665,0.0942 0.0546,0.0678 -0.0796,-0.17655 -0.20083,-0.33542 -0.25853,-0.52029 -0.0268,-0.0857 0.0594,-0.19269 0.0121,-0.26904 -0.0269,-0.0435 -0.0987,0.032 -0.14082,0.061 -0.13972,0.0964 -0.2677,0.20888 -0.40154,0.31331 -0.55771,0.42663 -1.3327,1.01163 -1.00846,1.89088 0.14145,0.38358 0.52249,0.6461 0.86466,0.86984 0.24952,0.16315 1.14488,0.25466 1.45372,0.29603 0.18573,0.0205 0.37256,0.0327 0.55719,0.0615 0.6557,0.10207 0.0702,0.26136 -0.16326,-0.33449 -0.24709,-0.63076 0.29634,-0.74358 -0.18231,-0.58497 -0.47773,0.22346 -0.9798,0.39888 -1.44824,0.64243 -0.15578,0.081 -0.32027,0.15298 -0.45462,0.26603 -0.17548,0.14766 -0.40188,0.28686 -0.46459,0.50746 -0.10936,0.38472 -0.0138,0.7998 -0.0207,1.19971 0.36203,0.62877 0.95799,0.88442 1.50641,1.28981 0.0929,0.0687 0.20364,0.12605 0.264,0.22456 0.0244,0.0399 -0.0951,-0.004 -0.13875,-0.0202 -0.0546,-0.0208 -0.10035,-0.0599 -0.15053,-0.0898 -0.39923,0.57232 -0.69699,1.17635 -0.72758,1.88733 -0.0128,0.29843 0.0459,0.58182 0.0928,0.8732 0.0267,0.34195 0.0161,0.17259 0.032,0.50807 0.0712,1.41242 2.06869,1.3117 1.99747,-0.10072 v 0 c -0.0245,-0.4641 -0.007,-0.21793 -0.057,-0.73821 -0.0168,-0.094 -0.0981,-0.3872 -0.0895,-0.49918 0.0443,-0.58209 0.70126,-0.92603 0.71206,-1.53342 0.015,-0.35184 0.1199,-0.7114 0.0451,-1.05552 -0.15013,-0.69048 -0.74677,-1.04398 -1.27713,-1.3916 -0.10224,-0.067 -0.1894,-0.17209 -0.30895,-0.19755 -0.0421,-0.009 -0.0226,0.083 -0.0339,0.12454 -0.0732,0.22775 -0.11531,0.46794 -0.21955,0.68327 -0.0202,0.0416 -0.16571,0.0745 -0.13195,0.0429 0.13929,-0.13037 0.59915,-0.32109 0.71851,-0.37452 1.3422,-0.60079 -0.31233,0.15809 1.17932,-0.53093 0.61295,-0.41374 1.14441,-0.59504 1.10688,-1.58064 -0.0395,-1.03735 -1.35826,-1.19468 -2.08917,-1.26281 -0.1659,-0.0199 -0.33169,-0.0408 -0.49771,-0.0597 -0.0979,-0.0111 -0.27161,-0.12631 -0.29389,-0.0304 -0.0413,0.17797 0.19224,0.3351 0.18077,0.51745 -0.0638,1.01297 -0.40502,0.64551 -0.16886,0.42491 0.13962,-0.13042 0.30117,-0.23519 0.45176,-0.35279 0.28943,-0.22885 0.83177,-0.6255 1.02835,-0.92941 0.40103,-0.62001 0.35478,-1.36351 -0.249,-1.82467 -0.0409,0.007 -0.0506,0.14524 -0.0674,0.0758 -0.0511,-0.21052 0.0813,-0.44925 0.13255,-0.63879 0.1339,-0.32478 0.19933,-0.49889 0.35785,-0.81785 0.20632,-0.41513 0.4667,-0.81007 0.62056,-1.2489 0.72761,-1.21268 -0.98738,-2.24167 -1.71498,-1.02899 z" />
  </g>
</svg>
