<?xml version="1.0" encoding="UTF-8" standalone="no"?>
<!-- Created with Inkscape (http://www.inkscape.org/) -->

<svg
   width="363.755"
   height="184.83978"
   viewBox="0 0 181.8775 92.419891"
   version="1.1"
   id="svg711"
   inkscape:version="1.2.1 (9c6d41e410, 2022-07-14)"
   sodipodi:docname="yieldbread.svg"
   xmlns:inkscape="http://www.inkscape.org/namespaces/inkscape"
   xmlns:sodipodi="http://sodipodi.sourceforge.net/DTD/sodipodi-0.dtd"
   xmlns="http://www.w3.org/2000/svg"
   xmlns:svg="http://www.w3.org/2000/svg">
  <sodipodi:namedview
     id="namedview713"
     pagecolor="#ffffff"
     bordercolor="#999999"
     borderopacity="1"
     inkscape:showpageshadow="0"
     inkscape:pageopacity="0"
     inkscape:pagecheckerboard="0"
     inkscape:deskcolor="#d1d1d1"
     inkscape:document-units="mm"
     showgrid="false"
     inkscape:zoom="0.52724989"
     inkscape:cx="144.14417"
     inkscape:cy="2.8449508"
     inkscape:window-width="1278"
     inkscape:window-height="1008"
     inkscape:window-x="3193"
     inkscape:window-y="0"
     inkscape:window-maximized="0"
     inkscape:current-layer="layer1" />
  <defs
     id="defs708" />
  <g
     inkscape:label="Layer 1"
     inkscape:groupmode="layer"
     id="layer1"
     transform="translate(-20.022708,-158.3083)">
    <path
       style="fill:#000000;stroke-width:0.264583"
       id="path715"
       d="m 23.00666,187.10932 c -0.515972,6.42299 -1.32215,12.808 -2.451603,19.15117 -0.108724,0.85963 -0.345655,1.70055 -0.459899,2.55998 -0.01794,0.13492 -0.140212,0.34296 -0.02055,0.40782 1.83225,0.99316 1.531868,0.67429 2.967677,0.52295 0.625294,-0.0659 1.253378,-0.10191 1.880068,-0.15286 2.110491,-0.1347 4.22448,-0.20322 6.338395,-0.2544 1.430751,-0.0346 1.785396,0.0129 3.1773,-0.18508 0.418938,-0.0596 0.830812,-0.1612 1.246216,-0.2418 1.892305,-0.48605 3.066571,-1.12193 4.043278,-2.82265 0.364165,-0.82093 0.51386,-1.69512 1.035484,-2.43534 0.682315,-0.89612 1.74825,-1.33343 2.676453,-1.92389 1.318557,-0.73813 2.477654,-1.69691 3.660963,-2.6255 1.301208,-0.93254 1.72529,-1.87478 0.311224,-3.18985 -0.719608,-0.66924 -2.325052,-1.11296 -3.129938,-1.40118 -3.089371,-1.1135 -6.454971,-1.44361 -9.472671,-2.77212 -0.388226,-0.17091 -0.74926,-0.39791 -1.123892,-0.59686 -1.030393,-0.65809 -1.780254,-1.5812 -2.432973,-2.59874 -0.128352,-0.20009 -0.882616,-1.56503 -1.043639,-1.7746 -0.228393,-0.29724 -0.514752,-0.54506 -0.772128,-0.8176 -0.3351,-0.18399 -0.639807,-0.43989 -1.005297,-0.55197 -1.811105,-0.55539 -3.69887,0.26568 -5.290644,1.04344 -1.269025,0.62416 -0.38633,2.41883 0.882695,1.79467 v 0 c 0.986073,-0.48874 1.894471,-0.87078 2.996545,-0.99473 0.177726,-0.02 0.356983,-0.067 0.534572,-0.0458 0.162994,0.0194 0.309367,0.10985 0.46405,0.16477 0.158578,0.1457 0.344503,0.26636 0.475731,0.4371 0.4499,0.5854 0.724538,1.28794 1.129327,1.90538 0.835797,1.27489 1.823098,2.40601 3.13554,3.21072 0.454207,0.23413 0.894244,0.49808 1.362622,0.70239 3.031638,1.32246 6.391881,1.69031 9.499497,2.78172 0.527494,0.1795 1.065017,0.33186 1.582481,0.5385 0.288962,0.11539 0.528262,0.35319 0.83095,0.42525 0.05108,0.0122 1.113216,-0.91242 0.299723,-0.20096 -0.149521,0.13076 -0.31269,0.24505 -0.469035,0.36758 -1.132385,0.88991 -2.238814,1.81111 -3.50407,2.51405 -1.157169,0.74668 -2.463157,1.31328 -3.260842,2.49685 -0.534466,0.82561 -0.830971,1.64498 -1.121425,2.57617 -0.577382,1.10516 -1.48272,1.53592 -2.682291,1.83118 -3.46471,0.69919 -7.036797,0.2809 -10.541269,0.65033 -0.690892,0.0595 -1.385341,0.0866 -2.072676,0.17848 -0.477442,0.0638 -1.234349,-0.15819 -1.4161,0.28789 -0.182529,0.448 0.520641,0.81634 0.80749,1.20587 0.02368,0.0322 -0.01317,-0.08 -0.0075,-0.11956 0.04061,-0.28533 0.0949,-0.56856 0.145865,-0.85223 0.101585,-0.56538 0.207857,-1.12992 0.311785,-1.69487 1.137431,-6.39349 1.952581,-12.8288 2.472622,-19.30262 0.14072,-1.4072 -1.849355,-1.6062 -1.990074,-0.19901 z" />
    <path
       style="fill:#000000;stroke-width:0.264583"
       id="path719"
       d="m 50.766548,180.07137 c -1.060027,8.88277 -2.746124,17.67698 -4.388059,26.46644 -0.671896,3.56801 -1.409967,7.12278 -2.168356,10.67319 -0.295402,1.38301 1.66048,1.80078 1.955882,0.41776 v 0 c 0.761881,-3.56722 1.503456,-7.13879 2.178466,-10.72369 1.655739,-8.86361 3.35748,-17.73225 4.416983,-26.69121 0.100759,-1.41062 -1.894157,-1.55311 -1.994916,-0.14249 z" />
    <path
       style="fill:#000000;stroke-width:0.264583"
       id="path721"
       d="m 61.228953,176.00579 c 0.818206,-0.15558 1.629519,-0.35325 2.454617,-0.46674 10.08277,-1.38685 20.284146,-1.54391 30.443201,-1.30216 3.516908,0.0837 7.030449,0.27453 10.545669,0.4118 15.63248,0.8069 31.20778,2.3941 46.73255,4.35886 8.57707,1.20679 17.2458,1.9571 25.7237,3.79047 1.05712,0.2286 2.10226,0.50939 3.15339,0.76409 1.26259,0.61114 2.43664,0.84157 3.06245,2.22256 0.53751,1.18614 0.58358,4.64963 0.59729,5.47629 0.0659,3.9734 -0.10587,8.19036 -0.21929,12.14646 -0.29372,6.75257 -0.50139,13.51032 -0.9526,20.25518 -0.2466,3.68639 -0.44222,6.57868 -1.09082,10.18497 -0.24137,1.34203 -0.60323,2.65957 -0.90485,3.98935 -0.76466,2.80464 -1.89346,5.49088 -3.30627,8.02822 -0.28551,0.51273 -0.51711,1.07454 -0.9205,1.50079 -0.88222,0.93221 -2.10986,0.94733 -3.2717,1.19298 -1.11589,0.0575 -2.23034,0.18026 -3.34769,0.17247 -6.6696,-0.0465 -13.34267,-1.08233 -19.89229,-2.23147 -7.61011,-1.33521 -12.36263,-2.41824 -20.02212,-4.0422 -17.87957,-3.91535 -35.780728,-7.77245 -53.820946,-10.88102 -5.097084,-0.88361 -10.221764,-1.5835 -15.349325,-2.25965 -2.32422,-0.30648 -3.973227,-0.45095 -6.206125,-1.00709 -0.749888,-0.18677 -1.476251,-0.45776 -2.214375,-0.68664 -2.982468,-1.43593 -3.472074,-2.55602 -4.641355,-5.48442 -0.533609,-1.30968 -2.385777,-0.55504 -1.852165,0.75464 v 0 c 0.654973,1.58045 0.98349,2.70502 2.125252,4.04917 1.213837,1.429 2.15496,1.72577 3.780205,2.5922 0.804005,0.24552 1.595917,0.53484 2.412013,0.73657 2.290736,0.56624 3.961733,0.71551 6.336149,1.02855 5.101111,0.67252 10.199373,1.36856 15.270147,2.24763 18.015196,3.10345 35.890965,6.95753 53.745745,10.86657 7.68103,1.62822 12.48951,2.72345 20.12541,4.06129 6.67773,1.16996 13.51315,2.25061 20.31681,2.25268 1.23975,2.6e-4 2.47488,-0.15144 3.71231,-0.22716 0.90969,-0.24736 1.87418,-0.34469 2.72905,-0.74207 1.57629,-0.73273 1.98527,-1.57447 2.76381,-2.97862 1.49009,-2.68746 2.67513,-5.53388 3.47879,-8.50268 0.31159,-1.3844 0.68479,-2.75637 0.93476,-4.15321 0.65541,-3.66246 0.85691,-6.61011 1.10686,-10.34833 0.45224,-6.76361 0.66075,-13.54012 0.955,-20.31146 0.10232,-3.57952 0.30019,-8.662 0.21677,-12.31915 -0.0458,-2.00939 -0.0597,-4.82387 -1.12289,-6.71582 -0.96749,-1.72159 -2.40443,-2.04343 -4.06309,-2.81147 -3.27466,-0.79146 -3.88461,-0.98875 -7.43957,-1.60589 -7.18143,-1.24669 -14.43688,-2.01297 -21.65684,-2.98895 -15.58227,-1.97181 -31.21529,-3.56443 -46.9057,-4.37317 -3.53601,-0.13776 -7.070318,-0.32954 -10.608014,-0.41326 -10.289058,-0.24349 -20.623498,-0.0816 -30.833657,1.33755 -0.862185,0.11983 -1.709891,0.32734 -2.564837,0.49101 -1.371989,0.343 -0.886917,2.28328 0.485071,1.94028 z" />
    <path
       style="fill:#000000;stroke-width:0.264583"
       id="path725"
       d="m 56.732786,165.54996 c 1.723927,-1.12867 3.258706,-2.55192 5.006797,-3.64368 0.596805,-0.37273 1.196997,-0.76528 1.862773,-0.99298 2.786761,-0.95309 5.261657,-0.55027 8.261035,-0.53509 2.3657,0.1534 4.734748,0.26182 7.097101,0.4602 4.895548,0.41112 17.417579,1.75611 21.843978,2.21524 12.38622,1.28477 24.77441,2.48996 37.17803,3.5933 8.55408,0.77403 17.13562,1.19126 25.69361,1.91276 5.83384,0.49183 11.64655,1.18897 17.46165,1.85915 3.94125,0.4421 7.87797,0.9268 11.82334,1.33201 0.84886,0.0872 1.69841,0.16777 2.5482,0.24543 0.6631,0.0606 1.33899,0.0314 1.9904,0.16933 0.26174,0.0554 0.46406,0.2664 0.69608,0.39959 -0.26144,-0.002 -0.56205,-0.14408 -0.78432,-0.006 -0.51961,0.32182 -0.85664,0.87225 -1.29736,1.29573 -0.67263,0.64629 -1.34757,1.29067 -2.04227,1.91317 -2.07285,1.8574 -4.24195,3.61311 -6.36261,5.41547 -1.59887,1.5511 -0.92698,0.77965 -2.07223,2.26383 -0.85392,1.12732 0.74034,2.33493 1.59426,1.20762 v 0 c 0.90894,-1.22961 0.34608,-0.55584 1.77319,-1.94751 2.14577,-1.82372 4.34437,-3.59779 6.43728,-5.48222 0.68772,-0.61922 3.59192,-3.22021 3.9263,-4.25153 0.2301,-0.70968 -0.21081,-1.47713 -0.31621,-2.21569 -0.46088,-0.19495 -0.89437,-0.47525 -1.38263,-0.58486 -0.64245,-0.14421 -1.3125,-0.10743 -1.96819,-0.16732 -0.84217,-0.0769 -1.6841,-0.15669 -2.52534,-0.24309 -3.94056,-0.40466 -7.87246,-0.8889 -11.80891,-1.3304 -5.84165,-0.67322 -11.68086,-1.37268 -17.54134,-1.86672 -8.5487,-0.72067 -17.12088,-1.13768 -25.6657,-1.91047 -12.39332,-1.10235 -24.77121,-2.30663 -37.14714,-3.59031 -4.440449,-0.46059 -17.024347,-1.81246 -21.923224,-2.22194 -2.404763,-0.20101 -4.816358,-0.30957 -7.224537,-0.46436 -3.877572,0.0129 -5.826673,-0.43375 -9.210416,0.77402 -0.744731,0.26582 -1.414216,0.71285 -2.084763,1.13196 -1.768134,1.10513 -3.321153,2.54456 -5.064715,3.68707 -1.116314,0.86824 0.111567,2.44694 1.227881,1.5787 z" />
    <path
       style="fill:#000000;stroke-width:0.264583"
       id="path727"
       d="m 198.86319,177.734 c 0.85844,6.37162 1.34592,12.77551 0.81934,19.20202 -0.15924,1.94337 -0.4593,3.87262 -0.68894,5.80894 -0.8987,6.00079 -1.98995,12.00074 -3.74849,17.81742 -0.60839,2.01235 -1.33942,3.98399 -2.04664,5.96239 -0.82497,2.22528 -1.70926,4.42857 -2.47016,6.67725 -0.37809,0.82966 -0.49284,1.73939 -0.77879,2.59656 -0.13292,0.39847 -0.30752,0.78179 -0.46128,1.17269 -0.26462,0.43223 -0.50121,0.88293 -0.79388,1.29669 -0.69942,0.98877 -1.64313,2.01212 -2.45263,2.90163 -1.08291,1.18995 -2.19615,2.35055 -3.31493,3.50657 -0.94558,1.09428 -2.12353,1.93469 -3.27239,2.79575 -1.13092,0.84913 0.0699,2.44849 1.20085,1.59936 v 0 c 1.23108,-0.92588 2.48884,-1.8365 3.50877,-3.00429 1.13704,-1.17505 2.26989,-2.35386 3.36903,-3.56475 0.90098,-0.99257 1.9156,-2.09605 2.67677,-3.20609 0.3502,-0.51072 0.6285,-1.0672 0.94274,-1.60081 0.17552,-0.45692 0.37126,-0.90658 0.52655,-1.37076 0.27149,-0.81149 0.37152,-1.67554 0.73602,-2.45932 0.54999,-1.6268 0.84088,-2.35636 1.47363,-4.03584 0.33055,-0.87738 0.66204,-1.75441 0.99306,-2.63161 0.73479,-2.05683 1.45821,-4.0057 2.09055,-6.10099 1.78514,-5.91514 2.89669,-12.01514 3.80741,-18.11725 0.23364,-1.98599 0.53946,-3.96481 0.70092,-5.95797 0.52776,-6.5149 0.0455,-13.00926 -0.82573,-19.46867 -0.12803,-1.4084 -2.11982,-1.22733 -1.99178,0.18108 z" />
    <path
       style="fill:#000000;stroke-width:0.264583"
       id="path729"
       d="m 44.419355,193.63412 c 0.04299,1.12078 -0.122652,2.23282 -0.187235,3.34895 -0.01654,0.28572 -0.04557,0.57193 -0.03434,0.85791 0.01175,0.2994 0.06874,0.5953 0.103111,0.89295 0.306906,1.03743 0.695737,1.76669 1.798071,2.15068 0.61768,0.21517 1.438889,0.17452 2.067853,0.0332 0.29535,-0.0663 0.572781,-0.19611 0.859169,-0.29417 0.254283,-0.17983 0.547396,-0.31459 0.762849,-0.53948 0.509929,-0.53225 0.713348,-1.09927 0.72322,-1.83253 0.01275,-0.94691 -0.437428,-1.85319 -0.812393,-2.69164 -0.47576,-0.97112 -1.000588,-2.32502 -2.266502,-2.43521 -0.24183,-0.0211 -0.481227,0.0642 -0.721842,0.0963 -0.134763,0.0568 -0.2682,0.11684 -0.404291,0.17037 -0.01773,0.007 0.03022,-0.036 0.04843,-0.0304 0.350703,0.10823 0.743056,0.1481 1.038516,0.36583 0.15212,0.11211 0.03853,0.4165 0.185034,0.53584 0.0854,0.0696 0.05546,-0.21326 0.07882,-0.32091 0.0479,-0.22076 0.08996,-0.44275 0.134934,-0.66413 0.09557,-0.62692 0.216334,-1.14532 0.109512,-1.79685 -0.339493,-2.07067 -1.960777,-3.96396 -3.220363,-5.56872 -1.394786,-1.70402 -2.530197,-3.60329 -3.171722,-5.71537 -0.02148,-0.12382 -0.04295,-0.24765 -0.06442,-0.37149 -0.264565,-1.38924 -2.229257,-1.01509 -1.96469,0.37416 v 0 c 0.03942,0.19594 0.07885,0.39188 0.118269,0.58782 0.732962,2.33992 1.951413,4.46866 3.510589,6.36137 0.815219,1.03403 1.125718,1.37887 1.83923,2.47401 0.366959,0.56323 0.805421,1.21898 0.953609,1.9029 0.103939,0.4797 -2.65e-4,0.88535 -0.07037,1.35596 -0.03962,0.19717 -0.07633,0.39495 -0.118851,0.59152 -0.03073,0.14208 -0.102023,0.27891 -0.100867,0.42427 0.0024,0.31244 -0.09336,0.69488 0.111652,0.93067 0.413697,0.4758 1.030007,0.63527 1.504931,0.32492 -0.07337,-0.0298 -0.219731,-0.0629 -0.237712,-0.17071 -0.0041,-0.0244 0.05375,-0.0388 0.07123,-0.0212 0.383201,0.38504 0.558215,0.96348 0.814562,1.42322 0.278439,0.60731 0.304877,0.6241 0.51808,1.24631 0.05974,0.17433 0.273138,0.66672 0.154808,0.88346 -0.05099,0.0934 -0.144949,0.15583 -0.217427,0.23374 -0.15136,0.0637 -0.296703,0.14418 -0.45408,0.19107 -0.16728,0.0498 -0.992164,0.21698 -1.191509,0.12715 -0.23868,-0.10756 -0.308549,-0.38683 -0.403471,-0.59328 -0.02917,-0.18433 -0.07956,-0.36653 -0.0875,-0.55299 -0.01119,-0.2627 0.01527,-0.52573 0.03038,-0.78824 0.06707,-1.16547 0.237464,-2.32687 0.192736,-3.49719 0,-1.41421 -1.999999,-1.41421 -1.999999,0 z" />
    <path
       style="fill:#000000;stroke-width:0.264583"
       id="path731"
       d="m 58.882581,184.29839 c -1.075809,4.34393 -1.907344,8.75387 -2.57787,13.17812 -0.208092,1.37302 -0.376894,2.7517 -0.56534,4.12755 -0.535046,4.56538 -0.793414,9.16433 -0.614299,13.75989 0.0767,1.96797 0.162515,2.56073 0.35103,4.43247 0.200136,1.27223 0.134861,2.13354 1.168956,3.12473 1.184338,1.1352 2.89293,1.50908 4.417899,1.8165 1.800547,0.36296 4.897807,0.65863 6.647629,0.85184 1.343909,0.14419 2.6885,0.28214 4.031724,0.43257 3.538336,0.39627 5.354042,0.63527 8.921863,1.05085 4.869231,0.56717 9.743842,1.08683 14.616552,1.62289 8.462865,0.90362 16.881075,2.21859 25.241725,3.80632 1.59387,0.30269 3.18244,0.63271 4.77366,0.94906 1.39128,0.30393 2.78743,0.58638 4.17385,0.9118 2.38987,0.56096 4.27282,1.05856 6.57649,1.85941 1.12194,0.39002 2.22494,0.83262 3.33326,1.25982 2.2468,0.86601 4.48357,1.75781 6.72678,2.63306 2.28311,0.80219 4.4956,1.89445 6.878,2.39987 1.03966,0.22056 2.33734,0.3304 3.41023,0.29688 0.46871,-0.0146 0.93352,-0.0903 1.40028,-0.13545 3.61287,-0.97029 7.2594,-1.81429 10.85878,-2.83407 1.78347,-0.54869 3.36436,-1.23092 4.27699,-2.97253 0.62081,-1.18474 0.79269,-2.27921 1.10963,-3.57612 0.15407,-0.87596 0.32141,-1.74969 0.46222,-2.62788 0.61402,-3.82946 1.08516,-7.68436 1.61406,-11.52595 0.70556,-5.12474 0.55751,-4.04005 1.29162,-9.06105 0.19795,-1.35877 0.82534,-5.59428 1.01469,-7.13998 0.16571,-1.35281 0.47107,-3.41902 0.13434,-4.81635 -0.45937,-1.90621 -1.23389,-2.65383 -2.34835,-4.17405 -0.53942,-0.54422 -1.04774,-1.12113 -1.61825,-1.63267 -1.7987,-1.61275 -3.9304,-3.00427 -6.19345,-3.86888 -2.23177,-0.85265 -3.90986,-1.12329 -6.24921,-1.63486 -1.40348,-0.20122 -2.80309,-0.43159 -4.21044,-0.60364 -2.91003,-0.35575 -7.69898,-0.76939 -10.54028,-1.00998 -6.66936,-0.56476 -13.34425,-1.05523 -20.01949,-1.54384 -6.5465,-0.4634 -13.09478,-0.90108 -19.64156,-1.36057 -2.8703,-0.20146 -8.763201,-0.61087 -11.692718,-0.86893 -1.829998,-0.1612 -3.656409,-0.36081 -5.484617,-0.54122 -4.219278,-0.43588 -8.425748,-0.98697 -12.624889,-1.58408 -2.308247,-0.32823 -4.610092,-0.69089 -6.921006,-0.99995 -2.362858,-0.2007 -5.355134,-0.72453 -7.599052,0.30725 -0.442204,0.20333 -0.832134,0.50507 -1.248201,0.75761 -0.909111,0.68315 -1.741938,1.47499 -2.414702,2.39557 -0.168087,0.23 -0.336147,0.46364 -0.460504,0.71994 -0.131218,0.27043 -0.200814,0.56664 -0.30122,0.84996 -0.423876,1.3492 1.484174,1.94865 1.90805,0.59945 v 0 c 0.02905,-0.12872 0.03324,-0.26572 0.08713,-0.38617 0.420471,-0.93966 1.488803,-1.8446 2.252642,-2.48994 0.735764,-0.49775 0.854506,-0.676 1.737989,-0.88225 1.817331,-0.42425 3.946131,-0.0236 5.772878,0.11095 2.308037,0.30835 4.606938,0.671 6.912276,0.99876 4.224872,0.60068 8.45715,1.1548 12.702276,1.59324 1.841923,0.18162 3.68205,0.38247 5.525767,0.54485 2.934073,0.25842 8.832791,0.66825 11.709481,0.87016 6.54425,0.45932 13.09,0.89684 19.63398,1.36003 6.66522,0.48787 13.33007,0.97771 19.98943,1.54141 2.82855,0.23944 7.53317,0.64579 10.43373,0.99768 1.35955,0.16494 2.71181,0.38531 4.06773,0.57796 2.08762,0.45204 3.82445,0.742 5.82023,1.48897 2.05963,0.77087 3.9893,2.02544 5.63351,3.47471 0.50374,0.44402 0.95439,0.94486 1.43159,1.41728 0.70453,0.91682 1.64423,1.93544 1.95349,3.10548 0.334,1.26364 0.0256,3.22508 -0.11987,4.41317 -0.18888,1.54221 -0.81553,5.77251 -1.01236,7.1236 -0.73584,5.03323 -0.58764,3.94723 -1.29435,9.08036 -0.52548,3.81673 -0.99621,7.64569 -1.60239,11.45095 -0.13337,0.83719 -0.29122,1.67031 -0.43682,2.50547 -0.26461,1.12197 -0.4872,2.70908 -1.25864,3.65803 -0.67254,0.82729 -1.77607,1.10254 -2.7289,1.43389 -3.48795,0.98958 -7.02677,1.7856 -10.51681,2.76861 -0.38372,0.0419 -0.76546,0.11017 -1.15114,0.12559 -0.87698,0.0351 -2.06998,-0.0472 -2.91644,-0.2233 -2.31976,-0.48266 -4.46697,-1.56599 -6.69039,-2.33717 -2.25011,-0.87793 -4.49334,-1.77354 -6.74749,-2.64101 -1.14356,-0.44008 -2.28192,-0.89535 -3.43965,-1.29659 -2.3609,-0.81823 -4.30412,-1.33169 -6.7496,-1.90542 -1.39866,-0.32814 -2.80712,-0.61299 -4.21068,-0.91949 -1.60213,-0.31843 -3.20159,-0.65058 -4.80638,-0.95528 -8.40656,-1.59613 -16.871,-2.91759 -25.38023,-3.82648 -4.866746,-0.53541 -9.735399,-1.05437 -14.598666,-1.62085 -3.607628,-0.42021 -5.366914,-0.65274 -8.945099,-1.05347 -1.3413,-0.15022 -2.683965,-0.28797 -4.025948,-0.43195 -1.897742,-0.20883 -4.453099,-0.44826 -6.377273,-0.80306 -0.586391,-0.10812 -2.551075,-0.50339 -3.243498,-0.98703 -0.263607,-0.18412 -0.494641,-0.44758 -0.608957,-0.74812 -0.176178,-0.46316 -0.156022,-0.97872 -0.234035,-1.46808 -0.182538,-1.7985 -0.26657,-2.37888 -0.341288,-4.27126 -0.177343,-4.49158 0.07476,-8.98641 0.596225,-13.44872 0.185534,-1.35665 0.35157,-2.71609 0.556599,-4.06993 0.65746,-4.34131 1.473951,-8.66773 2.520738,-12.93224 0.406371,-1.35458 -1.509281,-1.92927 -1.915652,-0.5747 z" />
    <path
       style="fill:#000000;stroke-width:0.264583"
       id="path733"
       d="m 80.977903,217.61372 c 0.251852,-0.18569 0.490998,-0.38998 0.755549,-0.55709 1.18209,-0.74668 2.733797,-1.54606 3.938969,-2.17377 2.194438,-1.14298 4.399216,-2.2607 6.579703,-3.43047 1.930654,-1.0766 1.031618,-0.57555 2.69702,-1.50333 1.235437,-0.68826 0.262096,-2.43543 -0.973339,-1.74718 v 0 c -1.656754,0.92297 -0.766966,0.42699 -2.669251,1.48815 -2.177341,1.16837 -4.379775,2.28319 -6.570615,3.42562 -1.284005,0.66956 -2.963675,1.53368 -4.206042,2.34365 -0.339868,0.22158 -0.644138,0.49347 -0.966208,0.74021 -0.999998,1 0.414216,2.41422 1.414214,1.41421 z" />
    <path
       style="fill:#000000;stroke-width:0.264583"
       id="path735"
       d="m 81.644082,204.21932 c 3.96749,2.28164 7.481739,5.24713 10.981573,8.17159 2.700655,2.31107 1.412624,1.20637 3.864729,3.31336 1.072629,0.92167 2.376061,-0.59526 1.30343,-1.51692 v 0 c -2.461173,-2.11478 -1.166122,-1.0041 -3.885829,-3.33125 -3.584295,-2.99432 -7.186679,-6.02501 -11.249861,-8.36065 -1.21896,-0.71703 -2.233002,1.00683 -1.014042,1.72387 z" />
    <path
       style="fill:#000000;stroke-width:0.264583"
       id="path737"
       d="m 91.901527,200.59677 c 3.128899,0.31992 6.172065,1.15579 9.203943,1.95386 1.3677,0.35972 1.87643,-1.57449 0.50873,-1.93422 v 0 c -3.196713,-0.84014 -6.408315,-1.7249 -9.712673,-2.01964 -1.414213,0 -1.414213,2 0,2 z" />
    <path
       style="fill:#000000;stroke-width:0.264583"
       id="path739"
       d="m 91.555153,199.07441 c 0.426443,-2.31642 1.272046,-4.54023 2.43608,-6.58677 0.197975,-0.34807 0.432708,-0.6739 0.64906,-1.01086 0.137705,-0.10743 0.580043,-0.37364 0.413115,-0.32228 -0.213497,0.0657 -0.377968,0.23856 -0.560319,0.36758 -0.09664,0.0684 -0.257434,0.10694 -0.27568,0.22391 -0.05054,0.32396 0.06887,0.65237 0.08793,0.9797 0.05871,1.00845 0.04118,1.43412 0.03587,2.431 0.276423,1.03295 0.184105,1.57531 1.491062,1.99106 0.845047,0.26881 2.647243,-0.1896 3.42026,-0.34941 3.486819,-0.72085 0.390457,-0.13496 3.771049,-0.75275 1.10426,-0.0379 2.46408,-0.40183 3.42468,0.37227 0.19783,0.15942 0.38056,0.35364 0.49252,0.58171 0.33591,0.68431 0.35103,1.76729 0.41685,2.45804 -0.091,1.80626 -0.5207,3.56561 -1.09838,5.27259 -0.15291,0.45183 -0.61787,1.71553 -0.93912,2.1949 -0.0758,0.11304 -0.21464,0.16734 -0.32196,0.25102 -0.11525,-0.10133 0.0657,-0.27995 -0.0144,-0.37682 -0.17513,-0.21181 -0.42516,-0.34849 -0.63279,-0.52855 -0.293,-0.25408 -0.57929,-0.51581 -0.86893,-0.77372 -1.05771,-0.93875 -2.3853,0.55708 -1.32759,1.49583 v 0 c 0.85734,0.75866 1.98392,1.99466 3.24097,1.97906 0.36481,-0.005 0.68228,-0.2587 1.02342,-0.38804 0.23205,-0.25881 0.50472,-0.48628 0.69616,-0.77641 0.35105,-0.53203 0.88489,-1.97917 1.0586,-2.49812 0.65919,-1.9693 1.13328,-3.99516 1.17078,-6.08192 -0.19312,-1.4697 -0.12977,-2.37425 -0.99267,-3.64538 -0.2751,-0.40525 -0.67086,-0.72998 -1.0862,-0.98962 -1.40821,-0.88028 -3.04605,-0.65339 -4.60195,-0.51416 -1.78193,0.3266 -3.55743,0.68343 -5.326651,1.07376 -0.229442,0.0506 -0.483246,0.0492 -0.68357,0.17201 -0.09569,0.0587 -0.01386,0.36755 -0.113977,0.31683 -0.153024,-0.0775 -0.132091,-0.31663 -0.198136,-0.47494 0.0033,-0.84445 0.02519,-1.84112 -0.05002,-2.67795 -0.07779,-0.86571 -0.166489,-2.30288 -1.086644,-2.83509 -0.429466,-0.2484 -1.017582,-0.14231 -1.488318,0.0144 -0.33497,0.11149 -0.508447,0.48992 -0.762669,0.73489 -0.247005,0.39035 -0.513657,0.76894 -0.741008,1.17105 -1.260385,2.22922 -2.168038,4.6532 -2.630154,7.1724 -0.232495,1.39498 1.740294,1.72378 1.972788,0.3288 z" />
    <path
       style="fill:#000000;stroke-width:0.264583"
       id="path741"
       d="m 121.96747,220.48659 c 0.87581,-0.65136 0.25725,-0.12044 1.31615,-1.55886 0.33095,-0.44956 0.68618,-0.88101 1.01353,-1.3332 0.69157,-0.95532 1.25181,-1.58572 1.37159,-2.81262 0.0477,-0.48835 -0.11307,-0.97481 -0.1696,-1.46221 -1.44203,-1.94069 -0.55082,-0.99199 -2.30773,-2.43584 -0.44647,-0.36691 -1.23288,-0.87653 -1.42421,-1.52494 -0.0519,-0.17581 0.3046,-1.19743 0.31528,-1.23139 0.0887,-0.34446 0.18467,-0.68714 0.26617,-1.03338 0.078,-0.3312 0.16091,-0.6621 0.2121,-0.99847 0.0835,-0.54883 0.0947,-1.43584 0.23124,-1.99246 0.1711,-0.69735 0.58326,-1.5457 0.86379,-2.18369 0.57837,-1.4585 0.68384,-1.59699 1.08612,-3.13844 0.12858,-0.49272 0.21816,-0.99481 0.32724,-1.49221 0.30044,-1.38194 -1.65391,-1.80682 -1.95435,-0.42489 v 0 c -0.0968,0.44943 -0.17623,0.90294 -0.2903,1.34829 -0.36601,1.42899 -0.4567,1.52982 -1.00234,2.90861 -0.44935,1.0403 -0.74923,1.60654 -1.01135,2.70864 -0.22583,0.94952 -0.0745,0.96194 -0.20678,1.85239 -0.0457,0.30782 -0.12084,0.6107 -0.19222,0.9136 -0.084,0.35651 -0.18255,0.70943 -0.27382,1.06415 -0.23488,1.1657 -0.50567,1.65001 -0.0127,2.84122 0.33718,0.81476 1.17828,1.4311 1.82804,1.95368 0.51912,0.41751 1.06848,0.79657 1.57858,1.2257 0.0684,0.19433 0.20088,0.37701 0.20526,0.58298 0.0194,0.91357 -0.50964,1.39925 -1.03266,2.12154 -0.38416,0.53051 -1.74671,2.23803 -2.05504,2.82477 -0.27948,0.53183 -0.42664,1.12329 -0.63996,1.68494 0.28844,1.38449 2.2464,0.97658 1.95796,-0.40791 z" />
    <path
       style="fill:#000000;stroke-width:0.264583"
       id="path743"
       d="m 76.337651,209.43069 c 0.811702,-0.67069 1.371034,-1.33702 1.300041,-2.4904 -0.06351,-1.03187 -0.637305,-1.86703 -0.969772,-2.80651 -0.16378,-0.46281 -0.265909,-0.94516 -0.398865,-1.41775 -0.190788,-1.18122 -0.411543,-1.53358 0.0019,-2.6741 0.157814,-0.43528 0.405646,-0.83582 0.664105,-1.21998 0.878916,-1.30636 2.097029,-2.29 3.286842,-3.29216 0.377634,-0.3009 0.763661,-0.59155 1.132903,-0.90268 0.328755,-0.27703 0.688562,-0.52784 0.960202,-0.86105 0.685946,-0.84144 0.941536,-1.55278 0.482383,-2.65881 -0.336949,-0.81166 -1.346991,-1.52545 -2.003184,-2.06198 -0.765318,-0.57819 -0.462778,-0.32801 -0.927518,-0.72579 -1.078884,-0.91433 -2.371953,0.61144 -1.293069,1.52577 v 0 c 0.53876,0.45325 0.220387,0.19572 0.966652,0.75812 0.02053,0.0162 1.162098,0.92493 1.327325,1.02914 0.09257,0.0584 0.285864,0.0156 0.30425,0.12347 0.03123,0.18328 -0.07676,0.37869 -0.194112,0.5229 -0.300313,0.36905 -1.775624,1.50704 -2.046732,1.7233 -0.430361,0.36477 -0.875181,0.71314 -1.291082,1.09431 -1.402411,1.2853 -2.79791,2.77397 -3.347791,4.65518 -0.445622,1.52454 -0.195583,2.04736 0.05464,3.51667 0.161658,0.55277 0.293298,1.11522 0.48497,1.65832 0.145505,0.41228 0.35047,0.8011 0.524566,1.20214 0.09629,0.22182 0.196257,0.44213 0.286594,0.66644 0.03891,0.0966 0.115104,0.19253 0.100896,0.29571 -0.04295,0.31185 -0.400293,0.55393 -0.594984,0.73138 -1.137277,0.8406 0.0515,2.44895 1.188781,1.60836 z" />
    <path
       style="fill:#000000;stroke-width:0.264583"
       id="path745"
       d="m 169.84529,203.28369 c -0.95565,-0.26438 -1.91166,-0.52838 -2.87682,-0.75641 -0.54652,-0.12911 -1.38875,-0.38362 -1.96095,-0.17417 -0.42738,0.15643 -0.75885,0.50264 -1.13827,0.75396 -0.22875,0.49354 -0.50838,0.96655 -0.68624,1.48063 -0.20548,0.59392 -0.88992,3.79389 -0.97567,4.1696 -0.20981,0.91918 -0.41365,1.83993 -0.6435,2.75431 -0.56313,2.24023 -0.9652,3.55115 -1.60588,5.75656 -0.38124,1.49159 -0.9388,2.93427 -1.32509,4.42461 -0.32221,1.24316 -0.54055,2.12571 -0.30362,3.41795 0.266,1.45078 0.79203,2.11007 1.51438,3.36181 0.37543,0.49499 0.73205,1.00484 1.1263,1.48498 0.35813,0.43615 0.73865,0.85406 1.12901,1.26161 0.80052,0.83576 1.70084,1.67966 2.77822,2.15006 0.25119,0.10968 0.52267,0.16526 0.78401,0.24789 0.64501,0.0611 0.72971,0.11562 1.3485,0.007 0.17749,-0.0312 0.34807,-0.0935 0.52211,-0.14019 1.35679,-0.39886 0.79271,-2.31767 -0.56409,-1.9188 v 0 c -0.24776,0.0886 -0.48709,0.15707 -0.75556,0.12945 -0.1308,-0.0297 -0.26762,-0.04 -0.3924,-0.0892 -0.47295,-0.18652 -0.93318,-0.51686 -1.31041,-0.84129 -1.12209,-0.96503 -2.06816,-2.12104 -2.94307,-3.30756 -0.48745,-0.8042 -1.01928,-1.51986 -1.23987,-2.45272 -0.24551,-1.03831 -0.046,-1.70183 0.22317,-2.7396 0.38768,-1.49483 0.94709,-2.94184 1.32906,-4.4381 0.65875,-2.26891 1.05291,-3.55158 1.63279,-5.85939 0.61575,-2.45054 1.09047,-4.93393 1.70803,-7.38404 -0.0724,-0.29875 -0.17073,-0.36218 0.3729,-0.31244 0.30384,0.0278 0.59666,0.12806 0.89361,0.19811 0.94277,0.22239 1.87645,0.48049 2.80991,0.73853 1.3598,0.38852 1.90924,-1.53453 0.54944,-1.92305 z" />
    <path
       style="fill:#000000;stroke-width:0.264583"
       id="path747"
       d="m 170.33522,224.72492 c -0.0754,-0.23872 -0.23733,-0.73141 -0.27229,-0.94792 -0.13802,-0.85463 0.15462,-1.71642 0.40215,-2.5209 0.17047,-0.64904 0.53108,-1.2271 0.71871,-1.86984 0.0901,-0.30851 0.15976,-0.62341 0.21281,-0.94039 0.10849,-0.64824 0.12336,-1.23106 0.15884,-1.88277 7.9e-4,-0.75263 0.0529,-0.85079 -0.16918,-1.60233 -0.0668,-0.22599 -0.17507,-0.43765 -0.2687,-0.65391 -0.27084,-0.62563 -0.17648,-0.25556 -0.27083,-0.76096 -0.34232,-1.37215 -2.28284,-0.88803 -1.94052,0.48413 v 0 c 0.0607,0.21827 0.10687,0.4411 0.18199,0.65484 0.0516,0.14691 0.13001,0.28302 0.19703,0.42358 0.22101,0.46349 0.35711,0.80268 0.273,1.349 -0.0376,0.73446 -0.0402,1.50477 -0.24406,2.21852 -0.19624,0.68702 -0.59249,1.30381 -0.76326,2.00053 -0.26386,0.88299 -0.51963,1.76435 -0.51421,2.69764 0.004,0.71658 0.19353,1.38465 0.42586,2.05303 0.49657,1.32417 2.36923,0.62192 1.87266,-0.70225 z" />
  </g>
</svg>
